<?xml version="1.0" encoding="UTF-8" standalone="no"?>
<!DOCTYPE svg PUBLIC "-//W3C//DTD SVG 1.1//EN"
 "http://www.w3.org/Graphics/SVG/1.1/DTD/svg11.dtd">
<!-- Generated by graphviz version 2.42.4 (0)
 -->
<!-- Title: api_contracts Pages: 1 -->
<svg width="3070pt" height="524pt"
 viewBox="0.00 0.00 3070.00 524.00" xmlns="http://www.w3.org/2000/svg" xmlns:xlink="http://www.w3.org/1999/xlink">
<g id="graph0" class="graph" transform="scale(1 1) rotate(0) translate(4 520)">
<title>api_contracts</title>
<polygon fill="white" stroke="transparent" points="-4,4 -4,-520 3066,-520 3066,4 -4,4"/>
<g id="clust1" class="cluster">
<title>cluster_mgmt</title>
<polygon fill="#dfe6e9" stroke="black" points="8,-320 8,-398 656,-398 656,-320 8,-320"/>
<text text-anchor="middle" x="332" y="-382.8" font-family="Times,serif" font-size="14.00">Management Commands</text>
</g>
<g id="clust2" class="cluster">
<title>cluster_sdk</title>
<polygon fill="#b2f2bb" stroke="black" points="664,-114 664,-398 1215,-398 1215,-114 664,-114"/>
<text text-anchor="middle" x="939.5" y="-382.8" font-family="Times,serif" font-size="14.00">SDK Launcher Commands</text>
</g>
<g id="clust3" class="cluster">
<title>cluster_plugin</title>
<polygon fill="#d0bfff" stroke="black" points="1255,-314.5 1255,-403.5 1680,-403.5 1680,-314.5 1255,-314.5"/>
<text text-anchor="middle" x="1467.5" y="-388.3" font-family="Times,serif" font-size="14.00">Plugin Commands</text>
</g>
<g id="clust4" class="cluster">
<title>cluster_memory</title>
<polygon fill="#ffd8a8" stroke="black" points="1688,-303.5 1688,-414.5 2116,-414.5 2116,-303.5 1688,-303.5"/>
<text text-anchor="middle" x="1902" y="-399.3" font-family="Times,serif" font-size="14.00">Memory Commands</text>
</g>
<g id="clust5" class="cluster">
<title>cluster_recipe</title>
<polygon fill="#fff3bf" stroke="black" points="2124,-298 2124,-420 2544,-420 2544,-298 2124,-298"/>
<text text-anchor="middle" x="2334" y="-404.8" font-family="Times,serif" font-size="14.00">Recipe Commands</text>
</g>
<g id="clust6" class="cluster">
<title>cluster_other</title>
<polygon fill="#e9ecef" stroke="black" points="2552,-287 2552,-431 3054,-431 3054,-287 2552,-287"/>
<text text-anchor="middle" x="2803" y="-415.8" font-family="Times,serif" font-size="14.00">Other Commands</text>
</g>
<g id="clust7" class="cluster">
<title>cluster_hooks</title>
<polygon fill="#ffc9c9" stroke="black" points="810,-8 810,-86 1047,-86 1047,-8 810,-8"/>
<text text-anchor="middle" x="928.5" y="-70.8" font-family="Times,serif" font-size="14.00">Hook Events</text>
</g>
<!-- main -->
<g id="node1" class="node">
<title>main</title>
<polygon fill="none" stroke="black" points="1462,-458.5 1462,-515.5 1614,-515.5 1614,-458.5 1462,-458.5"/>
<text text-anchor="middle" x="1538" y="-503.5" font-family="Helvetica,sans-Serif" font-size="10.00">amplihack CLI</text>
<polyline fill="none" stroke="black" points="1462,-496.5 1614,-496.5 "/>
<text text-anchor="middle" x="1538" y="-484.5" font-family="Helvetica,sans-Serif" font-size="10.00">main() entry point</text>
<polyline fill="none" stroke="black" points="1462,-477.5 1614,-477.5 "/>
<text text-anchor="middle" x="1538" y="-465.5" font-family="Helvetica,sans-Serif" font-size="10.00">parse_args_with_passthrough()</text>
</g>
<!-- install -->
<g id="node2" class="node">
<title>install</title>
<polygon fill="none" stroke="black" points="16,-328.5 16,-366.5 168,-366.5 168,-328.5 16,-328.5"/>
<text text-anchor="middle" x="92" y="-354.5" font-family="Helvetica,sans-Serif" font-size="10.00">install</text>
<polyline fill="none" stroke="black" points="16,-347.5 168,-347.5 "/>
<text text-anchor="middle" x="92" y="-335.5" font-family="Helvetica,sans-Serif" font-size="10.00">copytree_manifest to ~/.claude</text>
</g>
<!-- main&#45;&gt;install -->
<g id="edge1" class="edge">
<title>main&#45;&gt;install</title>
<path fill="none" stroke="black" d="M1461.75,-483.55C1271.76,-477.35 761.93,-460.09 337,-440 265.86,-436.64 242.23,-459.61 177,-431 149.77,-419.06 126.18,-394.28 110.81,-374.98"/>
<polygon fill="black" stroke="black" points="113.41,-372.63 104.54,-366.84 107.86,-376.9 113.41,-372.63"/>
</g>
<!-- uninstall -->
<g id="node3" class="node">
<title>uninstall</title>
<polygon fill="none" stroke="black" points="186.5,-328.5 186.5,-366.5 305.5,-366.5 305.5,-328.5 186.5,-328.5"/>
<text text-anchor="middle" x="246" y="-354.5" font-family="Helvetica,sans-Serif" font-size="10.00">uninstall</text>
<polyline fill="none" stroke="black" points="186.5,-347.5 305.5,-347.5 "/>
<text text-anchor="middle" x="246" y="-335.5" font-family="Helvetica,sans-Serif" font-size="10.00">Remove from ~/.claude</text>
</g>
<!-- main&#45;&gt;uninstall -->
<g id="edge2" class="edge">
<title>main&#45;&gt;uninstall</title>
<path fill="none" stroke="black" d="M1461.82,-486.12C1210.42,-486.03 417.39,-481.68 315,-431 291.02,-419.13 272.26,-394.7 260.4,-375.49"/>
<polygon fill="black" stroke="black" points="263.38,-373.66 255.29,-366.82 257.36,-377.21 263.38,-373.66"/>
</g>
<!-- update -->
<g id="node4" class="node">
<title>update</title>
<polygon fill="none" stroke="black" points="324,-328.5 324,-366.5 434,-366.5 434,-328.5 324,-328.5"/>
<text text-anchor="middle" x="379" y="-354.5" font-family="Helvetica,sans-Serif" font-size="10.00">update</text>
<polyline fill="none" stroke="black" points="324,-347.5 434,-347.5 "/>
<text text-anchor="middle" x="379" y="-335.5" font-family="Helvetica,sans-Serif" font-size="10.00">Delegate to Rust CLI</text>
</g>
<!-- main&#45;&gt;update -->
<g id="edge3" class="edge">
<title>main&#45;&gt;update</title>
<path fill="none" stroke="black" d="M1461.66,-482.27C1213.57,-470.14 445.83,-432.48 443,-431 420.07,-419.04 402.82,-394.79 392.04,-375.67"/>
<polygon fill="black" stroke="black" points="395.08,-373.93 387.28,-366.76 388.91,-377.23 395.08,-373.93"/>
</g>
<!-- version -->
<g id="node5" class="node">
<title>version</title>
<polygon fill="none" stroke="black" points="452.5,-328.5 452.5,-366.5 555.5,-366.5 555.5,-328.5 452.5,-328.5"/>
<text text-anchor="middle" x="504" y="-354.5" font-family="Helvetica,sans-Serif" font-size="10.00">version</text>
<polyline fill="none" stroke="black" points="452.5,-347.5 555.5,-347.5 "/>
<text text-anchor="middle" x="504" y="-335.5" font-family="Helvetica,sans-Serif" font-size="10.00">Show version string</text>
</g>
<!-- main&#45;&gt;version -->
<g id="edge4" class="edge">
<title>main&#45;&gt;version</title>
<path fill="none" stroke="black" d="M1461.92,-480.09C1331.74,-470.18 1057.85,-450.2 826,-439 811.51,-438.3 577.85,-437.73 565,-431 542.59,-419.27 526.27,-395.16 516.18,-376.03"/>
<polygon fill="black" stroke="black" points="519.2,-374.22 511.6,-366.83 512.93,-377.35 519.2,-374.22"/>
</g>
<!-- local_install -->
<g id="node6" class="node">
<title>local_install</title>
<polygon fill="none" stroke="black" points="574,-328.5 574,-366.5 648,-366.5 648,-328.5 574,-328.5"/>
<text text-anchor="middle" x="611" y="-354.5" font-family="Helvetica,sans-Serif" font-size="10.00">_local_install</text>
<polyline fill="none" stroke="black" points="574,-347.5 648,-347.5 "/>
<text text-anchor="middle" x="611" y="-335.5" font-family="Helvetica,sans-Serif" font-size="10.00">repo_root arg</text>
</g>
<!-- main&#45;&gt;local_install -->
<g id="edge5" class="edge">
<title>main&#45;&gt;local_install</title>
<path fill="none" stroke="black" d="M1461.82,-478.43C1351.82,-467.8 1142.02,-448.67 963,-439 946.19,-438.09 674.52,-439.52 660,-431 639.69,-419.08 626.87,-395.17 619.46,-376.15"/>
<polygon fill="black" stroke="black" points="622.75,-374.95 616.07,-366.73 616.16,-377.33 622.75,-374.95"/>
</g>
<!-- launch -->
<g id="node7" class="node">
<title>launch</title>
<polygon fill="none" stroke="black" points="876.5,-122.5 876.5,-248.5 1001.5,-248.5 1001.5,-122.5 876.5,-122.5"/>
<text text-anchor="middle" x="939" y="-236.5" font-family="Helvetica,sans-Serif" font-size="10.00">launch</text>
<polyline fill="none" stroke="black" points="876.5,-229.5 1001.5,-229.5 "/>
<text text-anchor="start" x="884.5" y="-217.5" font-family="Helvetica,sans-Serif" font-size="10.00">&#45;&#45;with&#45;proxy&#45;config PATH</text>
<text text-anchor="start" x="884.5" y="-206.5" font-family="Helvetica,sans-Serif" font-size="10.00">&#45;&#45;builtin&#45;proxy</text>
<text text-anchor="start" x="884.5" y="-195.5" font-family="Helvetica,sans-Serif" font-size="10.00">&#45;&#45;checkout&#45;repo URI</text>
<text text-anchor="start" x="884.5" y="-184.5" font-family="Helvetica,sans-Serif" font-size="10.00">&#45;&#45;docker</text>
<text text-anchor="start" x="884.5" y="-173.5" font-family="Helvetica,sans-Serif" font-size="10.00">&#45;&#45;auto / &#45;&#45;max&#45;turns N</text>
<text text-anchor="start" x="884.5" y="-162.5" font-family="Helvetica,sans-Serif" font-size="10.00">&#45;&#45;append PROMPT</text>
<text text-anchor="start" x="884.5" y="-151.5" font-family="Helvetica,sans-Serif" font-size="10.00">&#45;&#45;ui</text>
<text text-anchor="start" x="884.5" y="-140.5" font-family="Helvetica,sans-Serif" font-size="10.00">&#45;&#45;no&#45;reflection</text>
<text text-anchor="middle" x="939" y="-129.5" font-family="Helvetica,sans-Serif" font-size="10.00">&#45;&#45;subprocess&#45;safe</text>
</g>
<!-- main&#45;&gt;launch -->
<g id="edge6" class="edge">
<title>main&#45;&gt;launch</title>
<path fill="none" stroke="black" d="M1461.68,-480.6C1387.13,-473.74 1280.67,-459.25 1251,-431 1203.3,-385.58 1259.95,-336.05 1216,-287 1163.69,-228.62 1074.77,-204.12 1011.8,-193.86"/>
<polygon fill="black" stroke="black" points="1011.95,-190.34 1001.54,-192.28 1010.89,-197.26 1011.95,-190.34"/>
</g>
<!-- claude -->
<g id="node8" class="node">
<title>claude</title>
<polygon fill="none" stroke="black" points="672.5,-328.5 672.5,-366.5 755.5,-366.5 755.5,-328.5 672.5,-328.5"/>
<text text-anchor="middle" x="714" y="-354.5" font-family="Helvetica,sans-Serif" font-size="10.00">claude</text>
<polyline fill="none" stroke="black" points="672.5,-347.5 755.5,-347.5 "/>
<text text-anchor="middle" x="714" y="-335.5" font-family="Helvetica,sans-Serif" font-size="10.00">alias for launch</text>
</g>
<!-- main&#45;&gt;claude -->
<g id="edge7" class="edge">
<title>main&#45;&gt;claude</title>
<path fill="none" stroke="black" d="M1461.96,-477.19C1365.06,-466.32 1192.33,-448.17 1044,-439 1028.52,-438.04 778.43,-438.74 765,-431 744.38,-419.11 730.98,-395.2 723.12,-376.16"/>
<polygon fill="black" stroke="black" points="726.35,-374.83 719.5,-366.74 719.82,-377.33 726.35,-374.83"/>
</g>
<!-- rustyclawd -->
<g id="node9" class="node">
<title>rustyclawd</title>
<polygon fill="none" stroke="black" points="773.5,-328.5 773.5,-366.5 880.5,-366.5 880.5,-328.5 773.5,-328.5"/>
<text text-anchor="middle" x="827" y="-354.5" font-family="Helvetica,sans-Serif" font-size="10.00">RustyClawd</text>
<polyline fill="none" stroke="black" points="773.5,-347.5 880.5,-347.5 "/>
<text text-anchor="middle" x="827" y="-335.5" font-family="Helvetica,sans-Serif" font-size="10.00">Rust implementation</text>
</g>
<!-- main&#45;&gt;rustyclawd -->
<g id="edge8" class="edge">
<title>main&#45;&gt;rustyclawd</title>
<path fill="none" stroke="black" d="M1461.66,-476.28C1373.84,-465.47 1225.25,-448.3 1097,-439 1074.04,-437.33 910.43,-441.6 890,-431 867.18,-419.16 850.23,-394.9 839.69,-375.73"/>
<polygon fill="black" stroke="black" points="842.77,-374.06 835.04,-366.81 836.56,-377.3 842.77,-374.06"/>
</g>
<!-- copilot -->
<g id="node10" class="node">
<title>copilot</title>
<polygon fill="none" stroke="black" points="899,-328.5 899,-366.5 999,-366.5 999,-328.5 899,-328.5"/>
<text text-anchor="middle" x="949" y="-354.5" font-family="Helvetica,sans-Serif" font-size="10.00">copilot</text>
<polyline fill="none" stroke="black" points="899,-347.5 999,-347.5 "/>
<text text-anchor="middle" x="949" y="-335.5" font-family="Helvetica,sans-Serif" font-size="10.00">GitHub Copilot CLI</text>
</g>
<!-- main&#45;&gt;copilot -->
<g id="edge9" class="edge">
<title>main&#45;&gt;copilot</title>
<path fill="none" stroke="black" d="M1461.81,-475.85C1381.05,-465.38 1249.73,-449.19 1136,-439 1121.81,-437.73 1020.46,-437.91 1008,-431 986.13,-418.88 970.37,-394.82 960.67,-375.79"/>
<polygon fill="black" stroke="black" points="963.76,-374.16 956.27,-366.67 957.46,-377.19 963.76,-374.16"/>
</g>
<!-- codex -->
<g id="node11" class="node">
<title>codex</title>
<polygon fill="none" stroke="black" points="1017,-328.5 1017,-366.5 1117,-366.5 1117,-328.5 1017,-328.5"/>
<text text-anchor="middle" x="1067" y="-354.5" font-family="Helvetica,sans-Serif" font-size="10.00">codex</text>
<polyline fill="none" stroke="black" points="1017,-347.5 1117,-347.5 "/>
<text text-anchor="middle" x="1067" y="-335.5" font-family="Helvetica,sans-Serif" font-size="10.00">OpenAI Codex CLI</text>
</g>
<!-- main&#45;&gt;codex -->
<g id="edge10" class="edge">
<title>main&#45;&gt;codex</title>
<path fill="none" stroke="black" d="M1461.68,-476.59C1344.55,-462.04 1133.14,-435.29 1126,-431 1104.7,-418.19 1088.95,-394.43 1079.11,-375.68"/>
<polygon fill="black" stroke="black" points="1082.22,-374.08 1074.63,-366.69 1075.95,-377.2 1082.22,-374.08"/>
</g>
<!-- amplifier -->
<g id="node12" class="node">
<title>amplifier</title>
<polygon fill="none" stroke="black" points="1135,-328.5 1135,-366.5 1207,-366.5 1207,-328.5 1135,-328.5"/>
<text text-anchor="middle" x="1171" y="-354.5" font-family="Helvetica,sans-Serif" font-size="10.00">amplifier</text>
<polyline fill="none" stroke="black" points="1135,-347.5 1207,-347.5 "/>
<text text-anchor="middle" x="1171" y="-335.5" font-family="Helvetica,sans-Serif" font-size="10.00">MS Amplifier</text>
</g>
<!-- main&#45;&gt;amplifier -->
<g id="edge11" class="edge">
<title>main&#45;&gt;amplifier</title>
<path fill="none" stroke="black" d="M1461.89,-482.49C1381.35,-477.47 1260.76,-465.8 1223,-440 1200.96,-424.94 1187.14,-397.27 1179.34,-376.29"/>
<polygon fill="black" stroke="black" points="1182.56,-374.91 1175.98,-366.61 1175.95,-377.2 1182.56,-374.91"/>
</g>
<!-- p_install -->
<g id="node13" class="node">
<title>p_install</title>
<polygon fill="none" stroke="black" points="1263.5,-323 1263.5,-372 1382.5,-372 1382.5,-323 1263.5,-323"/>
<text text-anchor="middle" x="1323" y="-360" font-family="Helvetica,sans-Serif" font-size="10.00">plugin install</text>
<polyline fill="none" stroke="black" points="1263.5,-353 1382.5,-353 "/>
<text text-anchor="start" x="1271.5" y="-341" font-family="Helvetica,sans-Serif" font-size="10.00">source: git URL or path</text>
<text text-anchor="middle" x="1323" y="-330" font-family="Helvetica,sans-Serif" font-size="10.00">&#45;&#45;force</text>
</g>
<!-- main&#45;&gt;p_install -->
<g id="edge12" class="edge">
<title>main&#45;&gt;p_install</title>
<path fill="none" stroke="black" d="M1461.92,-465.64C1438.23,-457.19 1412.87,-445.82 1392,-431 1373.07,-417.56 1356.25,-397.72 1343.96,-380.86"/>
<polygon fill="black" stroke="black" points="1346.59,-378.51 1337.96,-372.37 1340.87,-382.55 1346.59,-378.51"/>
</g>
<!-- p_uninstall -->
<g id="node14" class="node">
<title>p_uninstall</title>
<polygon fill="none" stroke="black" points="1400.5,-328.5 1400.5,-366.5 1481.5,-366.5 1481.5,-328.5 1400.5,-328.5"/>
<text text-anchor="middle" x="1441" y="-354.5" font-family="Helvetica,sans-Serif" font-size="10.00">plugin uninstall</text>
<polyline fill="none" stroke="black" points="1400.5,-347.5 1481.5,-347.5 "/>
<text text-anchor="middle" x="1441" y="-335.5" font-family="Helvetica,sans-Serif" font-size="10.00">plugin_name</text>
</g>
<!-- main&#45;&gt;p_uninstall -->
<g id="edge13" class="edge">
<title>main&#45;&gt;p_uninstall</title>
<path fill="none" stroke="black" d="M1512.94,-458.45C1505.57,-449.89 1497.7,-440.26 1491,-431 1478.2,-413.3 1465.47,-392.23 1456.06,-375.81"/>
<polygon fill="black" stroke="black" points="1458.89,-373.72 1450.92,-366.74 1452.8,-377.16 1458.89,-373.72"/>
</g>
<!-- p_link -->
<g id="node15" class="node">
<title>p_link</title>
<polygon fill="none" stroke="black" points="1499.5,-328.5 1499.5,-366.5 1576.5,-366.5 1576.5,-328.5 1499.5,-328.5"/>
<text text-anchor="middle" x="1538" y="-354.5" font-family="Helvetica,sans-Serif" font-size="10.00">plugin link</text>
<polyline fill="none" stroke="black" points="1499.5,-347.5 1576.5,-347.5 "/>
<text text-anchor="middle" x="1538" y="-335.5" font-family="Helvetica,sans-Serif" font-size="10.00">[plugin_name]</text>
</g>
<!-- main&#45;&gt;p_link -->
<g id="edge14" class="edge">
<title>main&#45;&gt;p_link</title>
<path fill="none" stroke="black" d="M1538,-458.17C1538,-434.49 1538,-400.63 1538,-376.81"/>
<polygon fill="black" stroke="black" points="1541.5,-376.64 1538,-366.64 1534.5,-376.64 1541.5,-376.64"/>
</g>
<!-- p_verify -->
<g id="node16" class="node">
<title>p_verify</title>
<polygon fill="none" stroke="black" points="1594.5,-328.5 1594.5,-366.5 1671.5,-366.5 1671.5,-328.5 1594.5,-328.5"/>
<text text-anchor="middle" x="1633" y="-354.5" font-family="Helvetica,sans-Serif" font-size="10.00">plugin verify</text>
<polyline fill="none" stroke="black" points="1594.5,-347.5 1671.5,-347.5 "/>
<text text-anchor="middle" x="1633" y="-335.5" font-family="Helvetica,sans-Serif" font-size="10.00">[plugin_name]</text>
</g>
<!-- main&#45;&gt;p_verify -->
<g id="edge15" class="edge">
<title>main&#45;&gt;p_verify</title>
<path fill="none" stroke="black" d="M1564.04,-458.34C1571.5,-449.86 1579.39,-440.3 1586,-431 1598.53,-413.36 1610.56,-392.13 1619.32,-375.62"/>
<polygon fill="black" stroke="black" points="1622.55,-376.99 1624.07,-366.51 1616.35,-373.75 1622.55,-376.99"/>
</g>
<!-- m_tree -->
<g id="node17" class="node">
<title>m_tree</title>
<polygon fill="none" stroke="black" points="1696,-312 1696,-383 1806,-383 1806,-312 1696,-312"/>
<text text-anchor="middle" x="1751" y="-371" font-family="Helvetica,sans-Serif" font-size="10.00">memory tree</text>
<polyline fill="none" stroke="black" points="1696,-364 1806,-364 "/>
<text text-anchor="start" x="1704" y="-352" font-family="Helvetica,sans-Serif" font-size="10.00">&#45;&#45;session ID</text>
<text text-anchor="start" x="1704" y="-341" font-family="Helvetica,sans-Serif" font-size="10.00">&#45;&#45;type TYPE</text>
<text text-anchor="start" x="1704" y="-330" font-family="Helvetica,sans-Serif" font-size="10.00">&#45;&#45;depth N</text>
<text text-anchor="middle" x="1751" y="-319" font-family="Helvetica,sans-Serif" font-size="10.00">&#45;&#45;backend kuzu/sqlite</text>
</g>
<!-- main&#45;&gt;m_tree -->
<g id="edge16" class="edge">
<title>main&#45;&gt;m_tree</title>
<path fill="none" stroke="black" d="M1614.21,-465.82C1637.91,-457.38 1663.23,-445.97 1684,-431 1698.89,-420.27 1712.33,-405.42 1723.19,-391.27"/>
<polygon fill="black" stroke="black" points="1726.13,-393.18 1729.28,-383.06 1720.51,-389.01 1726.13,-393.18"/>
</g>
<!-- m_export -->
<g id="node18" class="node">
<title>m_export</title>
<polygon fill="none" stroke="black" points="1824,-317.5 1824,-377.5 1906,-377.5 1906,-317.5 1824,-317.5"/>
<text text-anchor="middle" x="1865" y="-365.5" font-family="Helvetica,sans-Serif" font-size="10.00">memory export</text>
<polyline fill="none" stroke="black" points="1824,-358.5 1906,-358.5 "/>
<text text-anchor="start" x="1832" y="-346.5" font-family="Helvetica,sans-Serif" font-size="10.00">&#45;&#45;agent NAME</text>
<text text-anchor="start" x="1832" y="-335.5" font-family="Helvetica,sans-Serif" font-size="10.00">&#45;o PATH</text>
<text text-anchor="middle" x="1865" y="-324.5" font-family="Helvetica,sans-Serif" font-size="10.00">&#45;f json/kuzu</text>
</g>
<!-- main&#45;&gt;m_export -->
<g id="edge17" class="edge">
<title>main&#45;&gt;m_export</title>
<path fill="none" stroke="black" d="M1614.08,-477.84C1684.57,-469.06 1783.17,-453.29 1815,-431 1830.48,-420.16 1842.03,-402.84 1850.1,-386.87"/>
<polygon fill="black" stroke="black" points="1853.34,-388.21 1854.46,-377.68 1847.02,-385.21 1853.34,-388.21"/>
</g>
<!-- m_import -->
<g id="node19" class="node">
<title>m_import</title>
<polygon fill="none" stroke="black" points="1924,-317.5 1924,-377.5 2006,-377.5 2006,-317.5 1924,-317.5"/>
<text text-anchor="middle" x="1965" y="-365.5" font-family="Helvetica,sans-Serif" font-size="10.00">memory import</text>
<polyline fill="none" stroke="black" points="1924,-358.5 2006,-358.5 "/>
<text text-anchor="start" x="1932" y="-346.5" font-family="Helvetica,sans-Serif" font-size="10.00">&#45;&#45;agent NAME</text>
<text text-anchor="start" x="1932" y="-335.5" font-family="Helvetica,sans-Serif" font-size="10.00">&#45;i PATH</text>
<text text-anchor="middle" x="1965" y="-324.5" font-family="Helvetica,sans-Serif" font-size="10.00">&#45;&#45;merge</text>
</g>
<!-- main&#45;&gt;m_import -->
<g id="edge18" class="edge">
<title>main&#45;&gt;m_import</title>
<path fill="none" stroke="black" d="M1614.09,-482.5C1709.66,-476.82 1866.97,-462.84 1915,-431 1930.87,-420.48 1942.51,-403.03 1950.54,-386.89"/>
<polygon fill="black" stroke="black" points="1953.82,-388.14 1954.86,-377.59 1947.47,-385.19 1953.82,-388.14"/>
</g>
<!-- m_clean -->
<g id="node20" class="node">
<title>m_clean</title>
<polygon fill="none" stroke="black" points="2024.5,-317.5 2024.5,-377.5 2107.5,-377.5 2107.5,-317.5 2024.5,-317.5"/>
<text text-anchor="middle" x="2066" y="-365.5" font-family="Helvetica,sans-Serif" font-size="10.00">memory clean</text>
<polyline fill="none" stroke="black" points="2024.5,-358.5 2107.5,-358.5 "/>
<text text-anchor="start" x="2032.5" y="-346.5" font-family="Helvetica,sans-Serif" font-size="10.00">&#45;&#45;pattern GLOB</text>
<text text-anchor="start" x="2032.5" y="-335.5" font-family="Helvetica,sans-Serif" font-size="10.00">&#45;&#45;no&#45;dry&#45;run</text>
<text text-anchor="middle" x="2066" y="-324.5" font-family="Helvetica,sans-Serif" font-size="10.00">&#45;&#45;confirm</text>
</g>
<!-- main&#45;&gt;m_clean -->
<g id="edge19" class="edge">
<title>main&#45;&gt;m_clean</title>
<path fill="none" stroke="black" d="M1614.13,-485.16C1731.58,-482.57 1950.18,-472.18 2015,-431 2031.16,-420.73 2043.02,-403.32 2051.22,-387.12"/>
<polygon fill="black" stroke="black" points="2054.52,-388.33 2055.63,-377.79 2048.19,-385.34 2054.52,-388.33"/>
</g>
<!-- r_run -->
<g id="node21" class="node">
<title>r_run</title>
<polygon fill="none" stroke="black" points="2132,-306.5 2132,-388.5 2218,-388.5 2218,-306.5 2132,-306.5"/>
<text text-anchor="middle" x="2175" y="-376.5" font-family="Helvetica,sans-Serif" font-size="10.00">recipe run</text>
<polyline fill="none" stroke="black" points="2132,-369.5 2218,-369.5 "/>
<text text-anchor="start" x="2140" y="-357.5" font-family="Helvetica,sans-Serif" font-size="10.00">recipe_path</text>
<text text-anchor="start" x="2140" y="-346.5" font-family="Helvetica,sans-Serif" font-size="10.00">&#45;c KEY=VALUE</text>
<text text-anchor="start" x="2140" y="-335.5" font-family="Helvetica,sans-Serif" font-size="10.00">&#45;&#45;dry&#45;run</text>
<text text-anchor="start" x="2140" y="-324.5" font-family="Helvetica,sans-Serif" font-size="10.00">&#45;v / &#45;f FORMAT</text>
<text text-anchor="middle" x="2175" y="-313.5" font-family="Helvetica,sans-Serif" font-size="10.00">&#45;w DIR</text>
</g>
<!-- main&#45;&gt;r_run -->
<g id="edge20" class="edge">
<title>main&#45;&gt;r_run</title>
<path fill="none" stroke="black" d="M1614.06,-486.78C1751.92,-486.9 2036.52,-480.87 2120,-431 2133.21,-423.11 2143.9,-410.67 2152.22,-397.83"/>
<polygon fill="black" stroke="black" points="2155.42,-399.29 2157.6,-388.92 2149.43,-395.67 2155.42,-399.29"/>
</g>
<!-- r_list -->
<g id="node22" class="node">
<title>r_list</title>
<polygon fill="none" stroke="black" points="2236.5,-317.5 2236.5,-377.5 2303.5,-377.5 2303.5,-317.5 2236.5,-317.5"/>
<text text-anchor="middle" x="2270" y="-365.5" font-family="Helvetica,sans-Serif" font-size="10.00">recipe list</text>
<polyline fill="none" stroke="black" points="2236.5,-358.5 2303.5,-358.5 "/>
<text text-anchor="start" x="2244.5" y="-346.5" font-family="Helvetica,sans-Serif" font-size="10.00">[recipe_dir]</text>
<text text-anchor="start" x="2244.5" y="-335.5" font-family="Helvetica,sans-Serif" font-size="10.00">&#45;f FORMAT</text>
<text text-anchor="middle" x="2270" y="-324.5" font-family="Helvetica,sans-Serif" font-size="10.00">&#45;t TAG</text>
</g>
<!-- main&#45;&gt;r_list -->
<g id="edge21" class="edge">
<title>main&#45;&gt;r_list</title>
<path fill="none" stroke="black" d="M1614.04,-484.05C1782.63,-479.15 2176.87,-464.25 2227,-431 2242.16,-420.95 2252.3,-403.77 2258.91,-387.69"/>
<polygon fill="black" stroke="black" points="2262.35,-388.48 2262.58,-377.88 2255.8,-386.02 2262.35,-388.48"/>
</g>
<!-- r_validate -->
<g id="node23" class="node">
<title>r_validate</title>
<polygon fill="none" stroke="black" points="2322,-328.5 2322,-366.5 2402,-366.5 2402,-328.5 2322,-328.5"/>
<text text-anchor="middle" x="2362" y="-354.5" font-family="Helvetica,sans-Serif" font-size="10.00">recipe validate</text>
<polyline fill="none" stroke="black" points="2322,-347.5 2402,-347.5 "/>
<text text-anchor="middle" x="2362" y="-335.5" font-family="Helvetica,sans-Serif" font-size="10.00">recipe_path</text>
</g>
<!-- main&#45;&gt;r_validate -->
<g id="edge22" class="edge">
<title>main&#45;&gt;r_validate</title>
<path fill="none" stroke="black" d="M1614.14,-481.55C1740.07,-474.05 1999.62,-457.91 2219,-440 2260.83,-436.59 2277.56,-453.48 2313,-431 2332.68,-418.52 2345.48,-395.05 2353.05,-376.33"/>
<polygon fill="black" stroke="black" points="2356.39,-377.37 2356.63,-366.78 2349.84,-374.92 2356.39,-377.37"/>
</g>
<!-- r_show -->
<g id="node24" class="node">
<title>r_show</title>
<polygon fill="none" stroke="black" points="2420.5,-323 2420.5,-372 2535.5,-372 2535.5,-323 2420.5,-323"/>
<text text-anchor="middle" x="2478" y="-360" font-family="Helvetica,sans-Serif" font-size="10.00">recipe show</text>
<polyline fill="none" stroke="black" points="2420.5,-353 2535.5,-353 "/>
<text text-anchor="start" x="2428.5" y="-341" font-family="Helvetica,sans-Serif" font-size="10.00">recipe_path</text>
<text text-anchor="middle" x="2478" y="-330" font-family="Helvetica,sans-Serif" font-size="10.00">&#45;&#45;no&#45;steps &#45;&#45;no&#45;context</text>
</g>
<!-- main&#45;&gt;r_show -->
<g id="edge23" class="edge">
<title>main&#45;&gt;r_show</title>
<path fill="none" stroke="black" d="M1614.08,-481.28C1747.38,-473.01 2031.81,-455.3 2272,-440 2333.78,-436.06 2355.99,-459.41 2411,-431 2432.27,-420.01 2449.2,-398.97 2460.71,-380.88"/>
<polygon fill="black" stroke="black" points="2463.73,-382.66 2465.93,-372.3 2457.74,-379.03 2463.73,-382.66"/>
</g>
<!-- new_cmd -->
<g id="node25" class="node">
<title>new_cmd</title>
<polygon fill="none" stroke="black" points="2560.5,-295.5 2560.5,-399.5 2655.5,-399.5 2655.5,-295.5 2560.5,-295.5"/>
<text text-anchor="middle" x="2608" y="-387.5" font-family="Helvetica,sans-Serif" font-size="10.00">new</text>
<polyline fill="none" stroke="black" points="2560.5,-380.5 2655.5,-380.5 "/>
<text text-anchor="start" x="2568.5" y="-368.5" font-family="Helvetica,sans-Serif" font-size="10.00">&#45;&#45;file PATH</text>
<text text-anchor="start" x="2568.5" y="-357.5" font-family="Helvetica,sans-Serif" font-size="10.00">&#45;&#45;output DIR</text>
<text text-anchor="start" x="2568.5" y="-346.5" font-family="Helvetica,sans-Serif" font-size="10.00">&#45;&#45;name NAME</text>
<text text-anchor="start" x="2568.5" y="-335.5" font-family="Helvetica,sans-Serif" font-size="10.00">&#45;&#45;sdk TYPE</text>
<text text-anchor="start" x="2568.5" y="-324.5" font-family="Helvetica,sans-Serif" font-size="10.00">&#45;&#45;multi&#45;agent</text>
<text text-anchor="start" x="2568.5" y="-313.5" font-family="Helvetica,sans-Serif" font-size="10.00">&#45;&#45;enable&#45;spawning</text>
<text text-anchor="middle" x="2608" y="-302.5" font-family="Helvetica,sans-Serif" font-size="10.00">&#45;&#45;enable&#45;memory</text>
</g>
<!-- main&#45;&gt;new_cmd -->
<g id="edge24" class="edge">
<title>main&#45;&gt;new_cmd</title>
<path fill="none" stroke="black" d="M1614.29,-485.59C1835.51,-483.89 2466.77,-475.19 2548,-431 2558.45,-425.31 2567.55,-416.93 2575.29,-407.66"/>
<polygon fill="black" stroke="black" points="2578.1,-409.74 2581.46,-399.7 2572.57,-405.45 2578.1,-409.74"/>
</g>
<!-- mode -->
<g id="node26" class="node">
<title>mode</title>
<polygon fill="none" stroke="black" points="2674,-328.5 2674,-366.5 2804,-366.5 2804,-328.5 2674,-328.5"/>
<text text-anchor="middle" x="2739" y="-354.5" font-family="Helvetica,sans-Serif" font-size="10.00">mode</text>
<polyline fill="none" stroke="black" points="2674,-347.5 2804,-347.5 "/>
<text text-anchor="middle" x="2739" y="-335.5" font-family="Helvetica,sans-Serif" font-size="10.00">detect / to&#45;plugin / to&#45;local</text>
</g>
<!-- main&#45;&gt;mode -->
<g id="edge25" class="edge">
<title>main&#45;&gt;mode</title>
<path fill="none" stroke="black" d="M1614.25,-483.14C1781.54,-476.72 2193.39,-460.13 2538,-440 2594.49,-436.7 2614.18,-455.88 2665,-431 2689.76,-418.88 2709.99,-394.48 2723,-375.34"/>
<polygon fill="black" stroke="black" points="2726.1,-377 2728.63,-366.71 2720.23,-373.18 2726.1,-377"/>
</g>
<!-- fleet -->
<g id="node27" class="node">
<title>fleet</title>
<polygon fill="none" stroke="black" points="2822,-328.5 2822,-366.5 2936,-366.5 2936,-328.5 2822,-328.5"/>
<text text-anchor="middle" x="2879" y="-354.5" font-family="Helvetica,sans-Serif" font-size="10.00">fleet</text>
<polyline fill="none" stroke="black" points="2822,-347.5 2936,-347.5 "/>
<text text-anchor="middle" x="2879" y="-335.5" font-family="Helvetica,sans-Serif" font-size="10.00">delegates to Click CLI</text>
</g>
<!-- main&#45;&gt;fleet -->
<g id="edge26" class="edge">
<title>main&#45;&gt;fleet</title>
<path fill="none" stroke="black" d="M1614.01,-482.73C1788.9,-475.2 2233.36,-456.05 2605,-440 2697.44,-436.01 2730.49,-472.88 2813,-431 2836.33,-419.16 2854.16,-394.9 2865.36,-375.73"/>
<polygon fill="black" stroke="black" points="2868.53,-377.25 2870.33,-366.81 2862.41,-373.85 2868.53,-377.25"/>
</g>
<!-- uvx_help -->
<g id="node28" class="node">
<title>uvx_help</title>
<polygon fill="none" stroke="black" points="2954.5,-328.5 2954.5,-366.5 3045.5,-366.5 3045.5,-328.5 2954.5,-328.5"/>
<text text-anchor="middle" x="3000" y="-354.5" font-family="Helvetica,sans-Serif" font-size="10.00">uvx&#45;help</text>
<polyline fill="none" stroke="black" points="2954.5,-347.5 3045.5,-347.5 "/>
<text text-anchor="middle" x="3000" y="-335.5" font-family="Helvetica,sans-Serif" font-size="10.00">&#45;&#45;find&#45;path / &#45;&#45;info</text>
</g>
<!-- main&#45;&gt;uvx_help -->
<g id="edge27" class="edge">
<title>main&#45;&gt;uvx_help</title>
<path fill="none" stroke="black" d="M1614.02,-484.94C1898.45,-480.71 2886.63,-463.72 2945,-431 2966.23,-419.1 2980.78,-395.19 2989.56,-376.16"/>
<polygon fill="black" stroke="black" points="2992.88,-377.31 2993.63,-366.74 2986.45,-374.53 2992.88,-377.31"/>
</g>
<!-- stop_hook -->
<g id="node29" class="node">
<title>stop_hook</title>
<polygon fill="none" stroke="black" points="818,-16.5 818,-54.5 924,-54.5 924,-16.5 818,-16.5"/>
<text text-anchor="middle" x="871" y="-42.5" font-family="Helvetica,sans-Serif" font-size="10.00">stop hook</text>
<polyline fill="none" stroke="black" points="818,-35.5 924,-35.5 "/>
<text text-anchor="middle" x="871" y="-23.5" font-family="Helvetica,sans-Serif" font-size="10.00">session end cleanup</text>
</g>
<!-- launch&#45;&gt;stop_hook -->
<g id="edge29" class="edge">
<title>launch&#45;&gt;stop_hook</title>
<path fill="none" stroke="black" stroke-dasharray="1,5" d="M910.36,-122.16C901.04,-101.88 891.17,-80.4 883.65,-64.03"/>
<polygon fill="black" stroke="black" points="886.65,-62.17 879.29,-54.54 880.29,-65.09 886.65,-62.17"/>
<text text-anchor="middle" x="914" y="-96.8" font-family="Helvetica,sans-Serif" font-size="9.00">on exit</text>
</g>
<!-- xpia_hook -->
<g id="node30" class="node">
<title>xpia_hook</title>
<polygon fill="none" stroke="black" points="942.5,-16.5 942.5,-54.5 1039.5,-54.5 1039.5,-16.5 942.5,-16.5"/>
<text text-anchor="middle" x="991" y="-42.5" font-family="Helvetica,sans-Serif" font-size="10.00">XPIA hook</text>
<polyline fill="none" stroke="black" points="942.5,-35.5 1039.5,-35.5 "/>
<text text-anchor="middle" x="991" y="-23.5" font-family="Helvetica,sans-Serif" font-size="10.00">web fetch defense</text>
</g>
<!-- launch&#45;&gt;xpia_hook -->
<g id="edge30" class="edge">
<title>launch&#45;&gt;xpia_hook</title>
<path fill="none" stroke="black" stroke-dasharray="1,5" d="M960.9,-122.16C968.03,-101.88 975.57,-80.4 981.33,-64.03"/>
<polygon fill="black" stroke="black" points="984.65,-65.14 984.66,-54.54 978.04,-62.82 984.65,-65.14"/>
<text text-anchor="middle" x="989" y="-96.8" font-family="Helvetica,sans-Serif" font-size="9.00">web fetch</text>
</g>
<!-- claude&#45;&gt;launch -->
<g id="edge28" class="edge">
<title>claude&#45;&gt;launch</title>
<path fill="none" stroke="black" stroke-dasharray="5,2" d="M726.9,-328.42C736.47,-315.82 750.35,-299.17 765,-287 795.91,-261.33 834.23,-238.42 867.03,-220.98"/>
<polygon fill="black" stroke="black" points="868.89,-223.95 876.12,-216.2 865.64,-217.75 868.89,-223.95"/>
<text text-anchor="middle" x="801" y="-269.8" font-family="Helvetica,sans-Serif" font-size="9.00">alias</text>
</g>
</g>
</svg>
