<?xml version="1.0" encoding="UTF-8" standalone="no"?>
<!DOCTYPE svg PUBLIC "-//W3C//DTD SVG 1.1//EN"
 "http://www.w3.org/Graphics/SVG/1.1/DTD/svg11.dtd">
<!-- Generated by graphviz version 2.42.4 (0)
 -->
<!-- Title: routes Pages: 1 -->
<svg width="2411pt" height="155pt"
 viewBox="0.00 0.00 2411.00 155.00" xmlns="http://www.w3.org/2000/svg" xmlns:xlink="http://www.w3.org/1999/xlink">
<g id="graph0" class="graph" transform="scale(1 1) rotate(0) translate(4 151)">
<title>routes</title>
<polygon fill="white" stroke="transparent" points="-4,4 -4,-151 2407,-151 2407,4 -4,4"/>
<g id="clust1" class="cluster">
<title>cluster_cli</title>
<polygon fill="#e8f4fd" stroke="black" points="8,-64 8,-139 1122,-139 1122,-64 8,-64"/>
<text text-anchor="middle" x="565" y="-123.8" font-family="Times,serif" font-size="14.00">CLI Commands (argparse)</text>
</g>
<g id="clust2" class="cluster">
<title>cluster_proxy</title>
<polygon fill="#fef5e7" stroke="black" points="1130,-64 1130,-139 1839,-139 1839,-64 1130,-64"/>
<text text-anchor="middle" x="1484.5" y="-123.8" font-family="Times,serif" font-size="14.00">Proxy HTTP Routes</text>
</g>
<g id="clust3" class="cluster">
<title>cluster_hooks</title>
<polygon fill="#e8f8e8" stroke="black" points="1847,-64 1847,-139 2395,-139 2395,-64 1847,-64"/>
<text text-anchor="middle" x="2121" y="-123.8" font-family="Times,serif" font-size="14.00">Hook Events</text>
</g>
<!-- launch -->
<g id="node1" class="node">
<title>launch</title>
<polygon fill="#aed6f1" stroke="black" points="559,-108 467,-108 467,-72 559,-72 559,-108"/>
<text text-anchor="middle" x="513" y="-87.5" font-family="Helvetica,sans-Serif" font-size="10.00">amplihack launch</text>
</g>
<!-- launcher_h -->
<g id="node23" class="node">
<title>launcher_h</title>
<ellipse fill="#d5f5e3" stroke="black" cx="742" cy="-18" rx="51.43" ry="18"/>
<text text-anchor="middle" x="742" y="-15.5" font-family="Helvetica,sans-Serif" font-size="10.00">ClaudeLauncher</text>
</g>
<!-- launch&#45;&gt;launcher_h -->
<g id="edge1" class="edge">
<title>launch&#45;&gt;launcher_h</title>
<path fill="none" stroke="black" d="M548.13,-71.94C554.66,-69.09 561.47,-66.31 568,-64 607.89,-49.89 654.35,-38.11 689.22,-30.14"/>
<polygon fill="black" stroke="black" points="690.2,-33.5 699.19,-27.89 688.67,-26.67 690.2,-33.5"/>
</g>
<!-- claude -->
<g id="node2" class="node">
<title>claude</title>
<polygon fill="#aed6f1" stroke="black" points="1007,-108 915,-108 915,-72 1007,-72 1007,-108"/>
<text text-anchor="middle" x="961" y="-87.5" font-family="Helvetica,sans-Serif" font-size="10.00">amplihack claude</text>
</g>
<!-- claude&#45;&gt;launcher_h -->
<g id="edge2" class="edge">
<title>claude&#45;&gt;launcher_h</title>
<path fill="none" stroke="black" d="M925.54,-71.89C919.11,-69.07 912.41,-66.32 906,-64 869.01,-50.62 826.11,-38.98 793.46,-30.89"/>
<polygon fill="black" stroke="black" points="794.23,-27.47 783.68,-28.49 792.56,-34.27 794.23,-27.47"/>
</g>
<!-- copilot -->
<g id="node3" class="node">
<title>copilot</title>
<polygon fill="#aed6f1" stroke="black" points="897,-108 805,-108 805,-72 897,-72 897,-108"/>
<text text-anchor="middle" x="851" y="-87.5" font-family="Helvetica,sans-Serif" font-size="10.00">amplihack copilot</text>
</g>
<!-- copilot&#45;&gt;launcher_h -->
<g id="edge3" class="edge">
<title>copilot&#45;&gt;launcher_h</title>
<path fill="none" stroke="black" d="M824.34,-71.88C809.13,-62.11 789.96,-49.8 773.95,-39.52"/>
<polygon fill="black" stroke="black" points="775.73,-36.5 765.43,-34.05 771.95,-42.39 775.73,-36.5"/>
</g>
<!-- codex -->
<g id="node4" class="node">
<title>codex</title>
<polygon fill="#aed6f1" stroke="black" points="787,-108 697,-108 697,-72 787,-72 787,-108"/>
<text text-anchor="middle" x="742" y="-87.5" font-family="Helvetica,sans-Serif" font-size="10.00">amplihack codex</text>
</g>
<!-- codex&#45;&gt;launcher_h -->
<g id="edge4" class="edge">
<title>codex&#45;&gt;launcher_h</title>
<path fill="none" stroke="black" d="M742,-71.7C742,-63.98 742,-54.71 742,-46.11"/>
<polygon fill="black" stroke="black" points="745.5,-46.1 742,-36.1 738.5,-46.1 745.5,-46.1"/>
</g>
<!-- amplifier -->
<g id="node5" class="node">
<title>amplifier</title>
<polygon fill="#aed6f1" stroke="black" points="678.5,-108 577.5,-108 577.5,-72 678.5,-72 678.5,-108"/>
<text text-anchor="middle" x="628" y="-87.5" font-family="Helvetica,sans-Serif" font-size="10.00">amplihack amplifier</text>
</g>
<!-- amplifier&#45;&gt;launcher_h -->
<g id="edge5" class="edge">
<title>amplifier&#45;&gt;launcher_h</title>
<path fill="none" stroke="black" d="M655.89,-71.88C671.79,-62.11 691.84,-49.8 708.58,-39.52"/>
<polygon fill="black" stroke="black" points="710.81,-42.26 717.5,-34.05 707.14,-36.3 710.81,-42.26"/>
</g>
<!-- install -->
<g id="node6" class="node">
<title>install</title>
<polygon fill="#aed6f1" stroke="black" points="1114.5,-108 1025.5,-108 1025.5,-72 1114.5,-72 1114.5,-108"/>
<text text-anchor="middle" x="1070" y="-87.5" font-family="Helvetica,sans-Serif" font-size="10.00">amplihack install</text>
</g>
<!-- install_h -->
<g id="node24" class="node">
<title>install_h</title>
<ellipse fill="#d5f5e3" stroke="black" cx="1070" cy="-18" rx="32.93" ry="18"/>
<text text-anchor="middle" x="1070" y="-15.5" font-family="Helvetica,sans-Serif" font-size="10.00">install.py</text>
</g>
<!-- install&#45;&gt;install_h -->
<g id="edge6" class="edge">
<title>install&#45;&gt;install_h</title>
<path fill="none" stroke="black" d="M1070,-71.7C1070,-63.98 1070,-54.71 1070,-46.11"/>
<polygon fill="black" stroke="black" points="1073.5,-46.1 1070,-36.1 1066.5,-46.1 1073.5,-46.1"/>
</g>
<!-- uninstall -->
<g id="node7" class="node">
<title>uninstall</title>
<polygon fill="#aed6f1" stroke="black" points="449,-108 349,-108 349,-72 449,-72 449,-108"/>
<text text-anchor="middle" x="399" y="-87.5" font-family="Helvetica,sans-Serif" font-size="10.00">amplihack uninstall</text>
</g>
<!-- plugin -->
<g id="node8" class="node">
<title>plugin</title>
<polygon fill="#aed6f1" stroke="black" points="330.5,-108 241.5,-108 241.5,-72 330.5,-72 330.5,-108"/>
<text text-anchor="middle" x="286" y="-87.5" font-family="Helvetica,sans-Serif" font-size="10.00">amplihack plugin</text>
</g>
<!-- memory -->
<g id="node9" class="node">
<title>memory</title>
<polygon fill="#aed6f1" stroke="black" points="223.5,-108 124.5,-108 124.5,-72 223.5,-72 223.5,-108"/>
<text text-anchor="middle" x="174" y="-87.5" font-family="Helvetica,sans-Serif" font-size="10.00">amplihack memory</text>
</g>
<!-- health -->
<g id="node10" class="node">
<title>health</title>
<polygon fill="#aed6f1" stroke="black" points="106,-108 16,-108 16,-72 106,-72 106,-108"/>
<text text-anchor="middle" x="61" y="-87.5" font-family="Helvetica,sans-Serif" font-size="10.00">amplihack health</text>
</g>
<!-- health_api -->
<g id="node11" class="node">
<title>health_api</title>
<polygon fill="#fad7a0" stroke="black" points="1830.5,-108 1761.5,-108 1761.5,-72 1830.5,-72 1830.5,-108"/>
<text text-anchor="middle" x="1796" y="-87.5" font-family="Helvetica,sans-Serif" font-size="10.00">GET /health</text>
</g>
<!-- root_api -->
<g id="node12" class="node">
<title>root_api</title>
<polygon fill="#fad7a0" stroke="black" points="1743,-108 1689,-108 1689,-72 1743,-72 1743,-108"/>
<text text-anchor="middle" x="1716" y="-87.5" font-family="Helvetica,sans-Serif" font-size="10.00">GET /</text>
</g>
<!-- messages -->
<g id="node13" class="node">
<title>messages</title>
<polygon fill="#fad7a0" stroke="black" points="1671,-108 1563,-108 1563,-72 1671,-72 1671,-108"/>
<text text-anchor="middle" x="1617" y="-87.5" font-family="Helvetica,sans-Serif" font-size="10.00">POST /v1/messages</text>
</g>
<!-- litellm_h -->
<g id="node25" class="node">
<title>litellm_h</title>
<ellipse fill="#d5f5e3" stroke="black" cx="1617" cy="-18" rx="48.72" ry="18"/>
<text text-anchor="middle" x="1617" y="-15.5" font-family="Helvetica,sans-Serif" font-size="10.00">LiteLLM Router</text>
</g>
<!-- messages&#45;&gt;litellm_h -->
<g id="edge7" class="edge">
<title>messages&#45;&gt;litellm_h</title>
<path fill="none" stroke="black" d="M1617,-71.7C1617,-63.98 1617,-54.71 1617,-46.11"/>
<polygon fill="black" stroke="black" points="1620.5,-46.1 1617,-36.1 1613.5,-46.1 1620.5,-46.1"/>
</g>
<!-- count_tokens -->
<g id="node14" class="node">
<title>count_tokens</title>
<polygon fill="#fad7a0" stroke="black" points="1545,-108 1375,-108 1375,-72 1545,-72 1545,-108"/>
<text text-anchor="middle" x="1460" y="-87.5" font-family="Helvetica,sans-Serif" font-size="10.00">POST /v1/messages/count_tokens</text>
</g>
<!-- perf -->
<g id="node15" class="node">
<title>perf</title>
<polygon fill="#fad7a0" stroke="black" points="1357,-108 1253,-108 1253,-72 1357,-72 1357,-108"/>
<text text-anchor="middle" x="1305" y="-87.5" font-family="Helvetica,sans-Serif" font-size="10.00">GET /performance/*</text>
</g>
<!-- azure_status -->
<g id="node16" class="node">
<title>azure_status</title>
<polygon fill="#fad7a0" stroke="black" points="1234.5,-108 1137.5,-108 1137.5,-72 1234.5,-72 1234.5,-108"/>
<text text-anchor="middle" x="1186" y="-87.5" font-family="Helvetica,sans-Serif" font-size="10.00">GET /azure/status</text>
</g>
<!-- session_start -->
<g id="node17" class="node">
<title>session_start</title>
<polygon fill="#a9dfbf" stroke="black" points="2386.5,-108 2313.5,-108 2313.5,-72 2386.5,-72 2386.5,-108"/>
<text text-anchor="middle" x="2350" y="-87.5" font-family="Helvetica,sans-Serif" font-size="10.00">SessionStart</text>
</g>
<!-- stop -->
<g id="node18" class="node">
<title>stop</title>
<polygon fill="#a9dfbf" stroke="black" points="2295,-108 2241,-108 2241,-72 2295,-72 2295,-108"/>
<text text-anchor="middle" x="2268" y="-87.5" font-family="Helvetica,sans-Serif" font-size="10.00">Stop</text>
</g>
<!-- pre_tool -->
<g id="node19" class="node">
<title>pre_tool</title>
<polygon fill="#a9dfbf" stroke="black" points="2223,-108 2155,-108 2155,-72 2223,-72 2223,-108"/>
<text text-anchor="middle" x="2189" y="-87.5" font-family="Helvetica,sans-Serif" font-size="10.00">PreToolUse</text>
</g>
<!-- post_tool -->
<g id="node20" class="node">
<title>post_tool</title>
<polygon fill="#a9dfbf" stroke="black" points="2136.5,-108 2063.5,-108 2063.5,-72 2136.5,-72 2136.5,-108"/>
<text text-anchor="middle" x="2100" y="-87.5" font-family="Helvetica,sans-Serif" font-size="10.00">PostToolUse</text>
</g>
<!-- user_prompt -->
<g id="node21" class="node">
<title>user_prompt</title>
<polygon fill="#a9dfbf" stroke="black" points="2045,-108 1945,-108 1945,-72 2045,-72 2045,-108"/>
<text text-anchor="middle" x="1995" y="-87.5" font-family="Helvetica,sans-Serif" font-size="10.00">UserPromptSubmit</text>
</g>
<!-- pre_compact -->
<g id="node22" class="node">
<title>pre_compact</title>
<polygon fill="#a9dfbf" stroke="black" points="1926.5,-108 1855.5,-108 1855.5,-72 1926.5,-72 1926.5,-108"/>
<text text-anchor="middle" x="1891" y="-87.5" font-family="Helvetica,sans-Serif" font-size="10.00">PreCompact</text>
</g>
</g>
</svg>
