<?xml version="1.0" encoding="UTF-8" standalone="no"?>
<!DOCTYPE svg PUBLIC "-//W3C//DTD SVG 1.1//EN"
 "http://www.w3.org/Graphics/SVG/1.1/DTD/svg11.dtd">
<!-- Generated by graphviz version 2.42.4 (0)
 -->
<!-- Title: runtime Pages: 1 -->
<svg width="1441pt" height="357pt"
 viewBox="0.00 0.00 1441.00 357.00" xmlns="http://www.w3.org/2000/svg" xmlns:xlink="http://www.w3.org/1999/xlink">
<g id="graph0" class="graph" transform="scale(1 1) rotate(0) translate(4 353)">
<title>runtime</title>
<polygon fill="white" stroke="transparent" points="-4,4 -4,-353 1437,-353 1437,4 -4,4"/>
<g id="clust1" class="cluster">
<title>cluster_entry</title>
<polygon fill="#e8f4fd" stroke="black" points="200,-96 200,-335 340,-335 340,-96 200,-96"/>
<text text-anchor="middle" x="270" y="-319.8" font-family="Times,serif" font-size="14.00">User Entry Points</text>
</g>
<g id="clust2" class="cluster">
<title>cluster_core</title>
<polygon fill="#e8f8e8" stroke="black" points="389,-205 389,-341 961,-341 961,-205 389,-205"/>
<text text-anchor="middle" x="675" y="-325.8" font-family="Times,serif" font-size="14.00">Core Runtime</text>
</g>
<g id="clust3" class="cluster">
<title>cluster_proxy</title>
<polygon fill="#fef5e7" stroke="black" points="800,-8 800,-197 978,-197 978,-8 800,-8"/>
<text text-anchor="middle" x="889" y="-181.8" font-family="Times,serif" font-size="14.00">Proxy Layer</text>
</g>
<g id="clust4" class="cluster">
<title>cluster_ai</title>
<polygon fill="#f5e6ff" stroke="black" points="1051.5,-12 1051.5,-145 1398,-145 1398,-12 1051.5,-12"/>
<text text-anchor="middle" x="1224.75" y="-129.8" font-family="Times,serif" font-size="14.00">AI Backends (External)</text>
</g>
<g id="clust5" class="cluster">
<title>cluster_data</title>
<polygon fill="#fdedec" stroke="black" points="1031,-153 1031,-300 1425,-300 1425,-153 1031,-153"/>
<text text-anchor="middle" x="1228" y="-284.8" font-family="Times,serif" font-size="14.00">Data Stores</text>
</g>
<g id="clust6" class="cluster">
<title>cluster_docker</title>
<polygon fill="none" stroke="black" stroke-dasharray="5,2" points="8,-97 8,-172 161,-172 161,-97 8,-97"/>
<text text-anchor="middle" x="84.5" y="-156.8" font-family="Times,serif" font-size="14.00">Docker (optional)</text>
</g>
<!-- cli -->
<g id="node1" class="node">
<title>cli</title>
<polygon fill="#aed6f1" stroke="black" points="321.5,-142 218.5,-142 218.5,-104 321.5,-104 321.5,-142"/>
<text text-anchor="middle" x="270" y="-126.8" font-family="Helvetica,sans-Serif" font-size="14.00">amplihack CLI</text>
<text text-anchor="middle" x="270" y="-111.8" font-family="Helvetica,sans-Serif" font-size="14.00">(Python entry)</text>
</g>
<!-- launcher -->
<g id="node6" class="node">
<title>launcher</title>
<polygon fill="#a9dfbf" stroke="black" points="522,-251 397,-251 397,-213 522,-213 522,-251"/>
<text text-anchor="middle" x="459.5" y="-235.8" font-family="Helvetica,sans-Serif" font-size="14.00">launcher/</text>
<text text-anchor="middle" x="459.5" y="-220.8" font-family="Helvetica,sans-Serif" font-size="14.00">(ClaudeLauncher)</text>
</g>
<!-- cli&#45;&gt;launcher -->
<g id="edge1" class="edge">
<title>cli&#45;&gt;launcher</title>
<path fill="none" stroke="black" d="M321.7,-142.11C327.96,-144.9 334.19,-147.88 340,-151 370.51,-167.37 402.8,-189.83 425.96,-206.95"/>
<polygon fill="black" stroke="black" points="423.95,-209.82 434.06,-212.99 428.14,-204.21 423.95,-209.82"/>
<text text-anchor="middle" x="364.5" y="-176" font-family="Helvetica,sans-Serif" font-size="10.00">launch</text>
</g>
<!-- integrated_proxy -->
<g id="node10" class="node">
<title>integrated_proxy</title>
<polygon fill="#fad7a0" stroke="black" points="956,-110 822,-110 822,-72 956,-72 956,-110"/>
<text text-anchor="middle" x="889" y="-94.8" font-family="Helvetica,sans-Serif" font-size="14.00">integrated_proxy.py</text>
<text text-anchor="middle" x="889" y="-79.8" font-family="Helvetica,sans-Serif" font-size="14.00">FastAPI</text>
</g>
<!-- cli&#45;&gt;integrated_proxy -->
<g id="edge2" class="edge">
<title>cli&#45;&gt;integrated_proxy</title>
<path fill="none" stroke="black" d="M321.75,-120.37C429.95,-114.76 683.82,-101.59 811.63,-94.96"/>
<polygon fill="black" stroke="black" points="811.93,-98.45 821.73,-94.44 811.57,-91.46 811.93,-98.45"/>
<text text-anchor="middle" x="560" y="-111" font-family="Helvetica,sans-Serif" font-size="10.00">proxy</text>
</g>
<!-- copilot -->
<g id="node2" class="node">
<title>copilot</title>
<polygon fill="#aed6f1" stroke="black" points="325.5,-250 214.5,-250 214.5,-214 325.5,-214 325.5,-250"/>
<text text-anchor="middle" x="270" y="-228.3" font-family="Helvetica,sans-Serif" font-size="14.00">copilot launcher</text>
</g>
<!-- copilot&#45;&gt;launcher -->
<g id="edge3" class="edge">
<title>copilot&#45;&gt;launcher</title>
<path fill="none" stroke="black" d="M325.74,-232C344.79,-232 366.45,-232 386.67,-232"/>
<polygon fill="black" stroke="black" points="386.78,-235.5 396.78,-232 386.78,-228.5 386.78,-235.5"/>
<text text-anchor="middle" x="364.5" y="-235" font-family="Helvetica,sans-Serif" font-size="10.00">launch</text>
</g>
<!-- codex -->
<g id="node3" class="node">
<title>codex</title>
<polygon fill="#aed6f1" stroke="black" points="324,-196 216,-196 216,-160 324,-160 324,-196"/>
<text text-anchor="middle" x="270" y="-174.3" font-family="Helvetica,sans-Serif" font-size="14.00">codex launcher</text>
</g>
<!-- codex&#45;&gt;launcher -->
<g id="edge4" class="edge">
<title>codex&#45;&gt;launcher</title>
<path fill="none" stroke="black" d="M324.23,-193.33C343.76,-198.96 366.2,-205.42 387.08,-211.43"/>
<polygon fill="black" stroke="black" points="386.28,-214.84 396.86,-214.25 388.22,-208.12 386.28,-214.84"/>
<text text-anchor="middle" x="364.5" y="-211" font-family="Helvetica,sans-Serif" font-size="10.00">launch</text>
</g>
<!-- amplifier -->
<g id="node4" class="node">
<title>amplifier</title>
<polygon fill="#aed6f1" stroke="black" points="332,-304 208,-304 208,-268 332,-268 332,-304"/>
<text text-anchor="middle" x="270" y="-282.3" font-family="Helvetica,sans-Serif" font-size="14.00">amplifier launcher</text>
</g>
<!-- amplifier&#45;&gt;launcher -->
<g id="edge5" class="edge">
<title>amplifier&#45;&gt;launcher</title>
<path fill="none" stroke="black" d="M332.14,-268.39C349.71,-263.33 369.03,-257.77 387.16,-252.55"/>
<polygon fill="black" stroke="black" points="388.17,-255.9 396.81,-249.77 386.23,-249.17 388.17,-255.9"/>
<text text-anchor="middle" x="364.5" y="-265" font-family="Helvetica,sans-Serif" font-size="10.00">launch</text>
</g>
<!-- session -->
<g id="node5" class="node">
<title>session</title>
<polygon fill="#a9dfbf" stroke="black" points="729,-251 598,-251 598,-213 729,-213 729,-251"/>
<text text-anchor="middle" x="663.5" y="-235.8" font-family="Helvetica,sans-Serif" font-size="14.00">session.py</text>
<text text-anchor="middle" x="663.5" y="-220.8" font-family="Helvetica,sans-Serif" font-size="14.00">(Session Manager)</text>
</g>
<!-- session&#45;&gt;integrated_proxy -->
<g id="edge9" class="edge">
<title>session&#45;&gt;integrated_proxy</title>
<path fill="none" stroke="black" d="M682.5,-212.96C706.94,-188.11 753,-144.77 800,-119 803.98,-116.82 808.16,-114.77 812.44,-112.87"/>
<polygon fill="black" stroke="black" points="814.06,-115.98 821.95,-108.91 811.37,-109.52 814.06,-115.98"/>
<text text-anchor="middle" x="768.5" y="-157" font-family="Helvetica,sans-Serif" font-size="10.00">routes via</text>
</g>
<!-- memory_lib -->
<g id="node17" class="node">
<title>memory_lib</title>
<polygon fill="#f5b7b1" stroke="black" points="1190,-269 1039,-269 1039,-231 1190,-231 1190,-269"/>
<text text-anchor="middle" x="1114.5" y="-253.8" font-family="Helvetica,sans-Serif" font-size="14.00">amplihack&#45;memory&#45;lib</text>
<text text-anchor="middle" x="1114.5" y="-238.8" font-family="Helvetica,sans-Serif" font-size="14.00">(CognitiveMemory)</text>
</g>
<!-- session&#45;&gt;memory_lib -->
<g id="edge15" class="edge">
<title>session&#45;&gt;memory_lib</title>
<path fill="none" stroke="black" d="M729.07,-233.14C792.47,-234.44 891.93,-236.91 978,-241 994.38,-241.78 1011.87,-242.8 1028.64,-243.87"/>
<polygon fill="black" stroke="black" points="1028.78,-247.39 1038.98,-244.54 1029.23,-240.4 1028.78,-247.39"/>
<text text-anchor="middle" x="889" y="-244" font-family="Helvetica,sans-Serif" font-size="10.00">stores</text>
</g>
<!-- launcher&#45;&gt;session -->
<g id="edge6" class="edge">
<title>launcher&#45;&gt;session</title>
<path fill="none" stroke="black" d="M522.2,-232C542.84,-232 566.06,-232 587.59,-232"/>
<polygon fill="black" stroke="black" points="587.67,-235.5 597.67,-232 587.67,-228.5 587.67,-235.5"/>
<text text-anchor="middle" x="560" y="-235" font-family="Helvetica,sans-Serif" font-size="10.00">creates</text>
</g>
<!-- hooks -->
<g id="node8" class="node">
<title>hooks</title>
<polygon fill="#a9dfbf" stroke="black" points="715,-309 612,-309 612,-271 715,-271 715,-309"/>
<text text-anchor="middle" x="663.5" y="-293.8" font-family="Helvetica,sans-Serif" font-size="14.00">hooks/</text>
<text text-anchor="middle" x="663.5" y="-278.8" font-family="Helvetica,sans-Serif" font-size="14.00">(Hook Engine)</text>
</g>
<!-- launcher&#45;&gt;hooks -->
<g id="edge7" class="edge">
<title>launcher&#45;&gt;hooks</title>
<path fill="none" stroke="black" d="M522.2,-249.72C547.5,-256.98 576.7,-265.36 601.89,-272.6"/>
<polygon fill="black" stroke="black" points="601.11,-276.01 611.69,-275.41 603.04,-269.29 601.11,-276.01"/>
<text text-anchor="middle" x="560" y="-269" font-family="Helvetica,sans-Serif" font-size="10.00">registers</text>
</g>
<!-- plugin_mgr -->
<g id="node7" class="node">
<title>plugin_mgr</title>
<polygon fill="#a9dfbf" stroke="black" points="518.5,-310 400.5,-310 400.5,-272 518.5,-272 518.5,-310"/>
<text text-anchor="middle" x="459.5" y="-294.8" font-family="Helvetica,sans-Serif" font-size="14.00">plugin_manager/</text>
<text text-anchor="middle" x="459.5" y="-279.8" font-family="Helvetica,sans-Serif" font-size="14.00">(PluginManager)</text>
</g>
<!-- plugin_mgr&#45;&gt;hooks -->
<g id="edge18" class="edge">
<title>plugin_mgr&#45;&gt;hooks</title>
<path fill="none" stroke="black" d="M518.66,-290.71C544.69,-290.58 575.38,-290.43 601.72,-290.3"/>
<polygon fill="black" stroke="black" points="601.97,-293.8 611.95,-290.25 601.93,-286.8 601.97,-293.8"/>
<text text-anchor="middle" x="560" y="-293" font-family="Helvetica,sans-Serif" font-size="10.00">manages</text>
</g>
<!-- rust_hooks -->
<g id="node9" class="node">
<title>rust_hooks</title>
<polygon fill="#82e0aa" stroke="black" points="953,-299 825,-299 825,-261 953,-261 953,-299"/>
<text text-anchor="middle" x="889" y="-283.8" font-family="Helvetica,sans-Serif" font-size="14.00">Rust Hook Engine</text>
<text text-anchor="middle" x="889" y="-268.8" font-family="Helvetica,sans-Serif" font-size="14.00">(amplihack&#45;hooks)</text>
</g>
<!-- hooks&#45;&gt;rust_hooks -->
<g id="edge8" class="edge">
<title>hooks&#45;&gt;rust_hooks</title>
<path fill="none" stroke="black" stroke-dasharray="5,2" d="M715.22,-287.73C744.5,-286.42 781.86,-284.75 814.33,-283.3"/>
<polygon fill="black" stroke="black" points="814.86,-286.78 824.69,-282.83 814.55,-279.78 814.86,-286.78"/>
<text text-anchor="middle" x="768.5" y="-289" font-family="Helvetica,sans-Serif" font-size="10.00">delegates</text>
</g>
<!-- filesystem -->
<g id="node18" class="node">
<title>filesystem</title>
<path fill="#f5b7b1" stroke="black" d="M1177.5,-208.48C1177.5,-211.11 1149.26,-213.25 1114.5,-213.25 1079.74,-213.25 1051.5,-211.11 1051.5,-208.48 1051.5,-208.48 1051.5,-165.52 1051.5,-165.52 1051.5,-162.89 1079.74,-160.75 1114.5,-160.75 1149.26,-160.75 1177.5,-162.89 1177.5,-165.52 1177.5,-165.52 1177.5,-208.48 1177.5,-208.48"/>
<path fill="none" stroke="black" d="M1177.5,-208.48C1177.5,-205.84 1149.26,-203.7 1114.5,-203.7 1079.74,-203.7 1051.5,-205.84 1051.5,-208.48"/>
<text text-anchor="middle" x="1114.5" y="-190.8" font-family="Helvetica,sans-Serif" font-size="14.00">Filesystem</text>
<text text-anchor="middle" x="1114.5" y="-175.8" font-family="Helvetica,sans-Serif" font-size="14.00">(.claude/ runtime/)</text>
</g>
<!-- hooks&#45;&gt;filesystem -->
<g id="edge17" class="edge">
<title>hooks&#45;&gt;filesystem</title>
<path fill="none" stroke="black" d="M715.18,-308.68C780.44,-329.38 895.3,-354.18 978,-308 1017.2,-286.11 996.95,-251.26 1031,-222 1034.48,-219.01 1038.25,-216.24 1042.2,-213.69"/>
<polygon fill="black" stroke="black" points="1044.27,-216.54 1051.1,-208.44 1040.71,-210.51 1044.27,-216.54"/>
<text text-anchor="middle" x="889" y="-337" font-family="Helvetica,sans-Serif" font-size="10.00">reads/writes</text>
</g>
<!-- litellm_router -->
<g id="node15" class="node">
<title>litellm_router</title>
<polygon fill="#d7bde2" stroke="black" points="1169.5,-109 1059.5,-109 1059.5,-73 1169.5,-73 1169.5,-109"/>
<text text-anchor="middle" x="1114.5" y="-87.3" font-family="Helvetica,sans-Serif" font-size="14.00">LiteLLM Router</text>
</g>
<!-- integrated_proxy&#45;&gt;litellm_router -->
<g id="edge10" class="edge">
<title>integrated_proxy&#45;&gt;litellm_router</title>
<path fill="none" stroke="black" d="M956.15,-91C985.51,-91 1019.94,-91 1049.1,-91"/>
<polygon fill="black" stroke="black" points="1049.17,-94.5 1059.17,-91 1049.17,-87.5 1049.17,-94.5"/>
<text text-anchor="middle" x="1004.5" y="-94" font-family="Helvetica,sans-Serif" font-size="10.00">forward</text>
</g>
<!-- responses_proxy -->
<g id="node11" class="node">
<title>responses_proxy</title>
<polygon fill="#fad7a0" stroke="black" points="970,-54 808,-54 808,-16 970,-16 970,-54"/>
<text text-anchor="middle" x="889" y="-38.8" font-family="Helvetica,sans-Serif" font-size="14.00">responses_api_proxy.py</text>
<text text-anchor="middle" x="889" y="-23.8" font-family="Helvetica,sans-Serif" font-size="14.00">Flask</text>
</g>
<!-- anthropic -->
<g id="node13" class="node">
<title>anthropic</title>
<polygon fill="#d7bde2" stroke="black" points="1388,-58 1290,-58 1290,-20 1388,-20 1388,-58"/>
<text text-anchor="middle" x="1339" y="-42.8" font-family="Helvetica,sans-Serif" font-size="14.00">Anthropic API</text>
<text text-anchor="middle" x="1339" y="-27.8" font-family="Helvetica,sans-Serif" font-size="14.00">(Claude)</text>
</g>
<!-- responses_proxy&#45;&gt;anthropic -->
<g id="edge13" class="edge">
<title>responses_proxy&#45;&gt;anthropic</title>
<path fill="none" stroke="black" d="M970.09,-35.72C1059.09,-36.51 1200.65,-37.77 1279.72,-38.48"/>
<polygon fill="black" stroke="black" points="1279.95,-41.98 1289.98,-38.57 1280.01,-34.98 1279.95,-41.98"/>
<text text-anchor="middle" x="1114.5" y="-40" font-family="Helvetica,sans-Serif" font-size="10.00">forward</text>
</g>
<!-- log_stream -->
<g id="node12" class="node">
<title>log_stream</title>
<polygon fill="#fad7a0" stroke="black" points="949,-166 829,-166 829,-128 949,-128 949,-166"/>
<text text-anchor="middle" x="889" y="-150.8" font-family="Helvetica,sans-Serif" font-size="14.00">log_streaming.py</text>
<text text-anchor="middle" x="889" y="-135.8" font-family="Helvetica,sans-Serif" font-size="14.00">FastAPI SSE</text>
</g>
<!-- log_stream&#45;&gt;filesystem -->
<g id="edge14" class="edge">
<title>log_stream&#45;&gt;filesystem</title>
<path fill="none" stroke="black" d="M949.01,-157.56C977.37,-162.64 1011.59,-168.76 1041.47,-174.11"/>
<polygon fill="black" stroke="black" points="1040.96,-177.57 1051.42,-175.89 1042.19,-170.68 1040.96,-177.57"/>
<text text-anchor="middle" x="1004.5" y="-172" font-family="Helvetica,sans-Serif" font-size="10.00">reads</text>
</g>
<!-- azure_openai -->
<g id="node14" class="node">
<title>azure_openai</title>
<polygon fill="#d7bde2" stroke="black" points="1390,-114 1288,-114 1288,-76 1390,-76 1390,-114"/>
<text text-anchor="middle" x="1339" y="-98.8" font-family="Helvetica,sans-Serif" font-size="14.00">Azure OpenAI</text>
<text text-anchor="middle" x="1339" y="-83.8" font-family="Helvetica,sans-Serif" font-size="14.00">(GPT&#45;4)</text>
</g>
<!-- litellm_router&#45;&gt;anthropic -->
<g id="edge11" class="edge">
<title>litellm_router&#45;&gt;anthropic</title>
<path fill="none" stroke="black" d="M1169.65,-78.35C1203.01,-70.55 1245.78,-60.55 1279.86,-52.59"/>
<polygon fill="black" stroke="black" points="1280.74,-55.98 1289.68,-50.29 1279.15,-49.16 1280.74,-55.98"/>
<text text-anchor="middle" x="1225.5" y="-71" font-family="Helvetica,sans-Serif" font-size="10.00">call</text>
</g>
<!-- litellm_router&#45;&gt;azure_openai -->
<g id="edge12" class="edge">
<title>litellm_router&#45;&gt;azure_openai</title>
<path fill="none" stroke="black" d="M1169.65,-91.97C1202.29,-92.56 1243.92,-93.31 1277.63,-93.91"/>
<polygon fill="black" stroke="black" points="1277.75,-97.42 1287.81,-94.1 1277.88,-90.42 1277.75,-97.42"/>
<text text-anchor="middle" x="1225.5" y="-96" font-family="Helvetica,sans-Serif" font-size="10.00">call</text>
</g>
<!-- kuzu -->
<g id="node16" class="node">
<title>kuzu</title>
<path fill="#f5b7b1" stroke="black" d="M1417,-264.48C1417,-267.11 1382.04,-269.25 1339,-269.25 1295.96,-269.25 1261,-267.11 1261,-264.48 1261,-264.48 1261,-221.52 1261,-221.52 1261,-218.89 1295.96,-216.75 1339,-216.75 1382.04,-216.75 1417,-218.89 1417,-221.52 1417,-221.52 1417,-264.48 1417,-264.48"/>
<path fill="none" stroke="black" d="M1417,-264.48C1417,-261.84 1382.04,-259.7 1339,-259.7 1295.96,-259.7 1261,-261.84 1261,-264.48"/>
<text text-anchor="middle" x="1339" y="-246.8" font-family="Helvetica,sans-Serif" font-size="14.00">Kuzu</text>
<text text-anchor="middle" x="1339" y="-231.8" font-family="Helvetica,sans-Serif" font-size="14.00">(Embedded Graph DB)</text>
</g>
<!-- memory_lib&#45;&gt;kuzu -->
<g id="edge16" class="edge">
<title>memory_lib&#45;&gt;kuzu</title>
<path fill="none" stroke="black" d="M1190.21,-247.65C1209.65,-247.04 1230.76,-246.37 1250.79,-245.74"/>
<polygon fill="black" stroke="black" points="1250.94,-249.24 1260.83,-245.43 1250.72,-242.24 1250.94,-249.24"/>
<text text-anchor="middle" x="1225.5" y="-249" font-family="Helvetica,sans-Serif" font-size="10.00">persists</text>
</g>
<!-- docker_container -->
<g id="node19" class="node">
<title>docker_container</title>
<polygon fill="#d5f5e3" stroke="black" points="153,-141 16,-141 16,-105 153,-105 153,-141"/>
<text text-anchor="middle" x="84.5" y="-119.3" font-family="Helvetica,sans-Serif" font-size="14.00">amplihack container</text>
</g>
<!-- docker_container&#45;&gt;cli -->
<g id="edge19" class="edge">
<title>docker_container&#45;&gt;cli</title>
<path fill="none" stroke="black" d="M153.05,-123C171.07,-123 190.44,-123 208.08,-123"/>
<polygon fill="black" stroke="black" points="208.25,-126.5 218.25,-123 208.25,-119.5 208.25,-126.5"/>
<text text-anchor="middle" x="180.5" y="-126" font-family="Helvetica,sans-Serif" font-size="10.00">runs</text>
</g>
</g>
</svg>
