<?xml version="1.0" encoding="UTF-8" standalone="no"?>
<!DOCTYPE svg PUBLIC "-//W3C//DTD SVG 1.1//EN"
 "http://www.w3.org/Graphics/SVG/1.1/DTD/svg11.dtd">
<!-- Generated by graphviz version 2.42.4 (0)
 -->
<!-- Title: user_journeys_overview Pages: 1 -->
<svg width="721pt" height="324pt"
 viewBox="0.00 0.00 721.00 323.62" xmlns="http://www.w3.org/2000/svg" xmlns:xlink="http://www.w3.org/1999/xlink">
<g id="graph0" class="graph" transform="scale(1 1) rotate(0) translate(4 319.62)">
<title>user_journeys_overview</title>
<polygon fill="white" stroke="transparent" points="-4,4 -4,-319.62 717,-319.62 717,4 -4,4"/>
<!-- user -->
<g id="node1" class="node">
<title>user</title>
<ellipse fill="#74b9ff" stroke="black" cx="27" cy="-189.62" rx="27" ry="18"/>
<text text-anchor="middle" x="27" y="-187.12" font-family="Helvetica,sans-Serif" font-size="10.00">User</text>
</g>
<!-- cli -->
<g id="node2" class="node">
<title>cli</title>
<path fill="#dfe6e9" stroke="black" d="M308,-207.62C308,-207.62 278,-207.62 278,-207.62 272,-207.62 266,-201.62 266,-195.62 266,-195.62 266,-183.62 266,-183.62 266,-177.62 272,-171.62 278,-171.62 278,-171.62 308,-171.62 308,-171.62 314,-171.62 320,-177.62 320,-183.62 320,-183.62 320,-195.62 320,-195.62 320,-201.62 314,-207.62 308,-207.62"/>
<text text-anchor="middle" x="293" y="-192.62" font-family="Helvetica,sans-Serif" font-size="10.00">CLI</text>
<text text-anchor="middle" x="293" y="-181.62" font-family="Helvetica,sans-Serif" font-size="10.00">cli.py</text>
</g>
<!-- user&#45;&gt;cli -->
<g id="edge1" class="edge">
<title>user&#45;&gt;cli</title>
<path fill="none" stroke="black" d="M38.99,-205.86C46.86,-215.94 58.43,-228 72,-233.62 144.27,-263.56 175.73,-263.56 248,-233.62 257.38,-229.74 265.81,-222.77 272.71,-215.52"/>
<polygon fill="black" stroke="black" points="275.64,-217.49 279.58,-207.66 270.37,-212.88 275.64,-217.49"/>
<text text-anchor="middle" x="160" y="-258.43" font-family="Helvetica,sans-Serif" font-size="9.00">amplihack launch</text>
</g>
<!-- user&#45;&gt;cli -->
<g id="edge4" class="edge">
<title>user&#45;&gt;cli</title>
<path fill="none" stroke="black" d="M52.01,-196.75C58.44,-198.35 65.44,-199.82 72,-200.62 149.64,-210.18 170.36,-210.18 248,-200.62 250.53,-200.31 253.12,-199.9 255.73,-199.43"/>
<polygon fill="black" stroke="black" points="256.62,-202.82 265.67,-197.32 255.16,-195.97 256.62,-202.82"/>
<text text-anchor="middle" x="160" y="-210.43" font-family="Helvetica,sans-Serif" font-size="9.00">amplihack &#45;&#45;auto &#45;p &#39;...&#39;</text>
</g>
<!-- user&#45;&gt;cli -->
<g id="edge7" class="edge">
<title>user&#45;&gt;cli</title>
<path fill="none" stroke="black" d="M54.28,-189.62C101.72,-189.62 201.74,-189.62 255.68,-189.62"/>
<polygon fill="black" stroke="black" points="255.83,-193.13 265.83,-189.62 255.83,-186.13 255.83,-193.13"/>
<text text-anchor="middle" x="160" y="-192.43" font-family="Helvetica,sans-Serif" font-size="9.00">amplihack install</text>
</g>
<!-- user&#45;&gt;cli -->
<g id="edge10" class="edge">
<title>user&#45;&gt;cli</title>
<path fill="none" stroke="black" d="M50.97,-180.85C57.65,-178.7 65.03,-176.71 72,-175.62 149.3,-163.62 170.7,-163.62 248,-175.62 250.66,-176.04 253.37,-176.58 256.08,-177.22"/>
<polygon fill="black" stroke="black" points="255.23,-180.61 265.79,-179.84 257.05,-173.85 255.23,-180.61"/>
<text text-anchor="middle" x="160" y="-178.43" font-family="Helvetica,sans-Serif" font-size="9.00">amplihack recipe run</text>
</g>
<!-- user&#45;&gt;cli -->
<g id="edge13" class="edge">
<title>user&#45;&gt;cli</title>
<path fill="none" stroke="black" d="M40.92,-174C48.89,-165.63 59.89,-156.13 72,-151.62 145.31,-124.35 174.69,-124.35 248,-151.62 255.72,-154.5 262.98,-159.39 269.3,-164.74"/>
<polygon fill="black" stroke="black" points="267.04,-167.41 276.76,-171.62 271.79,-162.27 267.04,-167.41"/>
<text text-anchor="middle" x="160" y="-154.43" font-family="Helvetica,sans-Serif" font-size="9.00">amplihack memory tree|clean|export|import</text>
</g>
<!-- launcher -->
<g id="node3" class="node">
<title>launcher</title>
<path fill="#55efc4" stroke="black" d="M495,-315.62C495,-315.62 432,-315.62 432,-315.62 426,-315.62 420,-309.62 420,-303.62 420,-303.62 420,-291.62 420,-291.62 420,-285.62 426,-279.62 432,-279.62 432,-279.62 495,-279.62 495,-279.62 501,-279.62 507,-285.62 507,-291.62 507,-291.62 507,-303.62 507,-303.62 507,-309.62 501,-315.62 495,-315.62"/>
<text text-anchor="middle" x="463.5" y="-300.62" font-family="Helvetica,sans-Serif" font-size="10.00">ClaudeLauncher</text>
<text text-anchor="middle" x="463.5" y="-289.62" font-family="Helvetica,sans-Serif" font-size="10.00">core.py</text>
</g>
<!-- cli&#45;&gt;launcher -->
<g id="edge2" class="edge">
<title>cli&#45;&gt;launcher</title>
<path fill="none" stroke="black" d="M309.11,-207.67C317.1,-216.5 327.43,-226.87 338,-234.62 360.24,-250.93 387.31,-265.18 410.53,-276"/>
<polygon fill="black" stroke="black" points="409.33,-279.3 419.88,-280.26 412.23,-272.93 409.33,-279.3"/>
<text text-anchor="middle" x="367.5" y="-271.43" font-family="Helvetica,sans-Serif" font-size="9.00">J1: Launch</text>
</g>
<!-- auto -->
<g id="node4" class="node">
<title>auto</title>
<path fill="#ffeaa7" stroke="black" d="M490.5,-261.62C490.5,-261.62 436.5,-261.62 436.5,-261.62 430.5,-261.62 424.5,-255.62 424.5,-249.62 424.5,-249.62 424.5,-237.62 424.5,-237.62 424.5,-231.62 430.5,-225.62 436.5,-225.62 436.5,-225.62 490.5,-225.62 490.5,-225.62 496.5,-225.62 502.5,-231.62 502.5,-237.62 502.5,-237.62 502.5,-249.62 502.5,-249.62 502.5,-255.62 496.5,-261.62 490.5,-261.62"/>
<text text-anchor="middle" x="463.5" y="-246.62" font-family="Helvetica,sans-Serif" font-size="10.00">AutoMode</text>
<text text-anchor="middle" x="463.5" y="-235.62" font-family="Helvetica,sans-Serif" font-size="10.00">auto_mode.py</text>
</g>
<!-- cli&#45;&gt;auto -->
<g id="edge5" class="edge">
<title>cli&#45;&gt;auto</title>
<path fill="none" stroke="black" d="M320.33,-198.06C345.55,-206.15 384.2,-218.53 414.84,-228.35"/>
<polygon fill="black" stroke="black" points="413.88,-231.72 424.48,-231.44 416.02,-225.05 413.88,-231.72"/>
<text text-anchor="middle" x="367.5" y="-223.43" font-family="Helvetica,sans-Serif" font-size="9.00">J2: Auto Mode</text>
</g>
<!-- install_mod -->
<g id="node5" class="node">
<title>install_mod</title>
<path fill="#a29bfe" stroke="black" d="M500,-153.62C500,-153.62 427,-153.62 427,-153.62 421,-153.62 415,-147.62 415,-141.62 415,-141.62 415,-129.62 415,-129.62 415,-123.62 421,-117.62 427,-117.62 427,-117.62 500,-117.62 500,-117.62 506,-117.62 512,-123.62 512,-129.62 512,-129.62 512,-141.62 512,-141.62 512,-147.62 506,-153.62 500,-153.62"/>
<text text-anchor="middle" x="463.5" y="-138.62" font-family="Helvetica,sans-Serif" font-size="10.00">install.py</text>
<text text-anchor="middle" x="463.5" y="-127.62" font-family="Helvetica,sans-Serif" font-size="10.00">copytree_manifest</text>
</g>
<!-- cli&#45;&gt;install_mod -->
<g id="edge8" class="edge">
<title>cli&#45;&gt;install_mod</title>
<path fill="none" stroke="black" d="M320.33,-181.19C342.95,-173.94 376.36,-163.23 405.12,-154.02"/>
<polygon fill="black" stroke="black" points="406.21,-157.34 414.67,-150.95 404.07,-150.67 406.21,-157.34"/>
<text text-anchor="middle" x="367.5" y="-177.43" font-family="Helvetica,sans-Serif" font-size="9.00">J3: Install</text>
</g>
<!-- recipe -->
<g id="node6" class="node">
<title>recipe</title>
<path fill="#dfe6e9" stroke="black" d="M491,-207.62C491,-207.62 436,-207.62 436,-207.62 430,-207.62 424,-201.62 424,-195.62 424,-195.62 424,-183.62 424,-183.62 424,-177.62 430,-171.62 436,-171.62 436,-171.62 491,-171.62 491,-171.62 497,-171.62 503,-177.62 503,-183.62 503,-183.62 503,-195.62 503,-195.62 503,-201.62 497,-207.62 491,-207.62"/>
<text text-anchor="middle" x="463.5" y="-192.62" font-family="Helvetica,sans-Serif" font-size="10.00">RecipeRunner</text>
<text text-anchor="middle" x="463.5" y="-181.62" font-family="Helvetica,sans-Serif" font-size="10.00">rust_runner.py</text>
</g>
<!-- cli&#45;&gt;recipe -->
<g id="edge11" class="edge">
<title>cli&#45;&gt;recipe</title>
<path fill="none" stroke="black" d="M320.33,-189.62C345.28,-189.62 383.36,-189.62 413.83,-189.62"/>
<polygon fill="black" stroke="black" points="413.84,-193.13 423.84,-189.62 413.84,-186.13 413.84,-193.13"/>
<text text-anchor="middle" x="367.5" y="-192.43" font-family="Helvetica,sans-Serif" font-size="9.00">J4: Recipe</text>
</g>
<!-- memory -->
<g id="node7" class="node">
<title>memory</title>
<path fill="#fab1a0" stroke="black" d="M496,-97.62C496,-97.62 431,-97.62 431,-97.62 425,-97.62 419,-91.62 419,-85.62 419,-85.62 419,-73.62 419,-73.62 419,-67.62 425,-61.62 431,-61.62 431,-61.62 496,-61.62 496,-61.62 502,-61.62 508,-67.62 508,-73.62 508,-73.62 508,-85.62 508,-85.62 508,-91.62 502,-97.62 496,-97.62"/>
<text text-anchor="middle" x="463.5" y="-82.62" font-family="Helvetica,sans-Serif" font-size="10.00">MemoryManager</text>
<text text-anchor="middle" x="463.5" y="-71.62" font-family="Helvetica,sans-Serif" font-size="10.00">manager.py</text>
</g>
<!-- cli&#45;&gt;memory -->
<g id="edge14" class="edge">
<title>cli&#45;&gt;memory</title>
<path fill="none" stroke="black" d="M309.06,-171.19C317.04,-162.16 327.37,-151.56 338,-143.62 359.91,-127.27 386.61,-112.93 409.65,-101.99"/>
<polygon fill="black" stroke="black" points="411.36,-105.06 418.95,-97.67 408.4,-98.71 411.36,-105.06"/>
<text text-anchor="middle" x="367.5" y="-146.43" font-family="Helvetica,sans-Serif" font-size="9.00">J5: Memory</text>
</g>
<!-- claude_bin -->
<g id="node8" class="node">
<title>claude_bin</title>
<path fill="#b2f2bb" stroke="black" d="M683,-261.62C683,-261.62 633,-261.62 633,-261.62 627,-261.62 621,-255.62 621,-249.62 621,-249.62 621,-237.62 621,-237.62 621,-231.62 627,-225.62 633,-225.62 633,-225.62 683,-225.62 683,-225.62 689,-225.62 695,-231.62 695,-237.62 695,-237.62 695,-249.62 695,-249.62 695,-255.62 689,-261.62 683,-261.62"/>
<text text-anchor="middle" x="658" y="-246.62" font-family="Helvetica,sans-Serif" font-size="10.00">claude binary</text>
<text text-anchor="middle" x="658" y="-235.62" font-family="Helvetica,sans-Serif" font-size="10.00">(subprocess)</text>
</g>
<!-- launcher&#45;&gt;claude_bin -->
<g id="edge3" class="edge">
<title>launcher&#45;&gt;claude_bin</title>
<path fill="none" stroke="black" d="M507.22,-285.64C538.01,-277.01 579.5,-265.36 611.01,-256.53"/>
<polygon fill="black" stroke="black" points="612.18,-259.83 620.86,-253.76 610.29,-253.09 612.18,-259.83"/>
</g>
<!-- auto&#45;&gt;claude_bin -->
<g id="edge6" class="edge">
<title>auto&#45;&gt;claude_bin</title>
<path fill="none" stroke="black" d="M502.53,-243.62C533.48,-243.62 577.29,-243.62 610.35,-243.62"/>
<polygon fill="black" stroke="black" points="610.68,-247.13 620.68,-243.62 610.68,-240.13 610.68,-247.13"/>
<text text-anchor="middle" x="557.5" y="-246.43" font-family="Helvetica,sans-Serif" font-size="9.00">iterative turns</text>
</g>
<!-- fs -->
<g id="node11" class="node">
<title>fs</title>
<path fill="#d0bfff" stroke="black" d="M713,-155.6C713,-157.68 688.35,-159.38 658,-159.38 627.65,-159.38 603,-157.68 603,-155.6 603,-155.6 603,-121.65 603,-121.65 603,-119.57 627.65,-117.87 658,-117.87 688.35,-117.87 713,-119.57 713,-121.65 713,-121.65 713,-155.6 713,-155.6"/>
<path fill="none" stroke="black" d="M713,-155.6C713,-153.52 688.35,-151.83 658,-151.83 627.65,-151.83 603,-153.52 603,-155.6"/>
<text text-anchor="middle" x="658" y="-141.62" font-family="Helvetica,sans-Serif" font-size="10.00">~/.amplihack/.claude/</text>
<text text-anchor="middle" x="658" y="-130.62" font-family="Helvetica,sans-Serif" font-size="10.00">(filesystem)</text>
</g>
<!-- install_mod&#45;&gt;fs -->
<g id="edge9" class="edge">
<title>install_mod&#45;&gt;fs</title>
<path fill="none" stroke="black" d="M512.08,-136.37C536.36,-136.74 566.25,-137.21 592.56,-137.62"/>
<polygon fill="black" stroke="black" points="592.77,-141.12 602.82,-137.78 592.88,-134.13 592.77,-141.12"/>
</g>
<!-- recipe&#45;&gt;claude_bin -->
<g id="edge12" class="edge">
<title>recipe&#45;&gt;claude_bin</title>
<path fill="none" stroke="black" d="M503.46,-200.55C534.52,-209.27 578.1,-221.49 610.9,-230.69"/>
<polygon fill="black" stroke="black" points="610.13,-234.11 620.71,-233.44 612.02,-227.37 610.13,-234.11"/>
<text text-anchor="middle" x="557.5" y="-225.43" font-family="Helvetica,sans-Serif" font-size="9.00">agent steps</text>
</g>
<!-- sqlite -->
<g id="node9" class="node">
<title>sqlite</title>
<path fill="#ffd8a8" stroke="black" d="M690.5,-96.6C690.5,-98.68 675.93,-100.38 658,-100.38 640.07,-100.38 625.5,-98.68 625.5,-96.6 625.5,-96.6 625.5,-62.65 625.5,-62.65 625.5,-60.57 640.07,-58.87 658,-58.87 675.93,-58.87 690.5,-60.57 690.5,-62.65 690.5,-62.65 690.5,-96.6 690.5,-96.6"/>
<path fill="none" stroke="black" d="M690.5,-96.6C690.5,-94.52 675.93,-92.83 658,-92.83 640.07,-92.83 625.5,-94.52 625.5,-96.6"/>
<text text-anchor="middle" x="658" y="-82.62" font-family="Helvetica,sans-Serif" font-size="10.00">SQLite</text>
<text text-anchor="middle" x="658" y="-71.62" font-family="Helvetica,sans-Serif" font-size="10.00">memory.db</text>
</g>
<!-- memory&#45;&gt;sqlite -->
<g id="edge15" class="edge">
<title>memory&#45;&gt;sqlite</title>
<path fill="none" stroke="black" d="M508.18,-79.62C540.27,-79.62 583.61,-79.62 615.24,-79.62"/>
<polygon fill="black" stroke="black" points="615.49,-83.13 625.49,-79.62 615.49,-76.13 615.49,-83.13"/>
<text text-anchor="middle" x="557.5" y="-82.42" font-family="Helvetica,sans-Serif" font-size="9.00">tree|clean</text>
</g>
<!-- archive -->
<g id="node10" class="node">
<title>archive</title>
<path fill="#ffe0cc" stroke="black" d="M692.5,-37.6C692.5,-39.68 677.04,-41.38 658,-41.38 638.96,-41.38 623.5,-39.68 623.5,-37.6 623.5,-37.6 623.5,-3.65 623.5,-3.65 623.5,-1.57 638.96,0.13 658,0.13 677.04,0.13 692.5,-1.57 692.5,-3.65 692.5,-3.65 692.5,-37.6 692.5,-37.6"/>
<path fill="none" stroke="black" d="M692.5,-37.6C692.5,-35.52 677.04,-33.83 658,-33.83 638.96,-33.83 623.5,-35.52 623.5,-37.6"/>
<text text-anchor="middle" x="658" y="-23.62" font-family="Helvetica,sans-Serif" font-size="10.00">JSON/Kuzu</text>
<text text-anchor="middle" x="658" y="-12.62" font-family="Helvetica,sans-Serif" font-size="10.00">transfer</text>
</g>
<!-- memory&#45;&gt;archive -->
<g id="edge16" class="edge">
<title>memory&#45;&gt;archive</title>
<path fill="none" stroke="black" d="M508.18,-66.24C539.71,-56.57 582.1,-43.58 613.57,-33.94"/>
<polygon fill="black" stroke="black" points="614.84,-37.21 623.38,-30.93 612.79,-30.51 614.84,-37.21"/>
<text text-anchor="middle" x="557.5" y="-62.42" font-family="Helvetica,sans-Serif" font-size="9.00">export|import</text>
</g>
</g>
</svg>
