<?xml version="1.0" encoding="UTF-8" standalone="no"?>
<!DOCTYPE svg PUBLIC "-//W3C//DTD SVG 1.1//EN"
 "http://www.w3.org/Graphics/SVG/1.1/DTD/svg11.dtd">
<!-- Generated by graphviz version 2.42.4 (0)
 -->
<!-- Title: ast_lsp_bindings Pages: 1 -->
<svg width="501pt" height="1656pt"
 viewBox="0.00 0.00 501.00 1656.00" xmlns="http://www.w3.org/2000/svg" xmlns:xlink="http://www.w3.org/1999/xlink">
<g id="graph0" class="graph" transform="scale(1 1) rotate(0) translate(4 1652)">
<title>ast_lsp_bindings</title>
<polygon fill="white" stroke="transparent" points="-4,4 -4,-1652 497,-1652 497,4 -4,4"/>
<!-- amplihack -->
<g id="node1" class="node">
<title>amplihack</title>
<polygon fill="#e8f4fd" stroke="black" points="17,-0.5 17,-63.5 218,-63.5 218,-0.5 17,-0.5"/>
<text text-anchor="middle" x="66" y="-29.5" font-family="Helvetica,sans-Serif" font-size="10.00">amplihack/__init__</text>
<polyline fill="none" stroke="black" points="115,-0.5 115,-63.5 "/>
<text text-anchor="start" x="123" y="-51.5" font-family="Helvetica,sans-Serif" font-size="10.00">main()</text>
<text text-anchor="start" x="123" y="-40.5" font-family="Helvetica,sans-Serif" font-size="10.00">install()</text>
<text text-anchor="start" x="123" y="-29.5" font-family="Helvetica,sans-Serif" font-size="10.00">uninstall()</text>
<text text-anchor="start" x="123" y="-18.5" font-family="Helvetica,sans-Serif" font-size="10.00">ensure_dirs()</text>
<text text-anchor="start" x="123" y="-7.5" font-family="Helvetica,sans-Serif" font-size="10.00">copytree_manifest()</text>
</g>
<!-- settings -->
<g id="node2" class="node">
<title>settings</title>
<polygon fill="#e8f4fd" stroke="black" points="34.5,-83 34.5,-119 200.5,-119 200.5,-83 34.5,-83"/>
<text text-anchor="middle" x="60" y="-98.5" font-family="Helvetica,sans-Serif" font-size="10.00">settings</text>
<polyline fill="none" stroke="black" points="85.5,-83 85.5,-119 "/>
<text text-anchor="start" x="93.5" y="-104" font-family="Helvetica,sans-Serif" font-size="10.00">ensure_settings_json()</text>
<text text-anchor="start" x="93.5" y="-93" font-family="Helvetica,sans-Serif" font-size="10.00">update_hook_paths()</text>
</g>
<!-- launcher -->
<g id="node3" class="node">
<title>launcher</title>
<polygon fill="#e8f4fd" stroke="black" points="314.5,-126.5 314.5,-189.5 492.5,-189.5 492.5,-126.5 314.5,-126.5"/>
<text text-anchor="middle" x="341" y="-155.5" font-family="Helvetica,sans-Serif" font-size="10.00">launcher</text>
<polyline fill="none" stroke="black" points="367.5,-126.5 367.5,-189.5 "/>
<text text-anchor="start" x="375.5" y="-177.5" font-family="Helvetica,sans-Serif" font-size="10.00">ClaudeLauncher</text>
<text text-anchor="start" x="375.5" y="-166.5" font-family="Helvetica,sans-Serif" font-size="10.00">ClaudeDirectoryDetector</text>
<text text-anchor="start" x="375.5" y="-155.5" font-family="Helvetica,sans-Serif" font-size="10.00">PrerequisiteChecker</text>
<text text-anchor="start" x="375.5" y="-144.5" font-family="Helvetica,sans-Serif" font-size="10.00">AutoStager</text>
<text text-anchor="start" x="375.5" y="-133.5" font-family="Helvetica,sans-Serif" font-size="10.00">ClaudeBinaryManager</text>
</g>
<!-- proxy -->
<g id="node4" class="node">
<title>proxy</title>
<polygon fill="#e8f4fd" stroke="black" points="342.5,-209.5 342.5,-250.5 464.5,-250.5 464.5,-209.5 342.5,-209.5"/>
<text text-anchor="middle" x="363" y="-227.5" font-family="Helvetica,sans-Serif" font-size="10.00">proxy</text>
<polyline fill="none" stroke="black" points="383.5,-209.5 383.5,-250.5 "/>
<text text-anchor="start" x="391.5" y="-238.5" font-family="Helvetica,sans-Serif" font-size="10.00">ProxyConfig</text>
<text text-anchor="start" x="391.5" y="-227.5" font-family="Helvetica,sans-Serif" font-size="10.00">ProxyServer</text>
<text text-anchor="start" x="391.5" y="-216.5" font-family="Helvetica,sans-Serif" font-size="10.00">TokenSanitizer</text>
</g>
<!-- security -->
<g id="node5" class="node">
<title>security</title>
<polygon fill="#e8f4fd" stroke="black" points="47.5,-484 47.5,-520 187.5,-520 187.5,-484 47.5,-484"/>
<text text-anchor="middle" x="73" y="-499.5" font-family="Helvetica,sans-Serif" font-size="10.00">security</text>
<polyline fill="none" stroke="black" points="98.5,-484 98.5,-520 "/>
<text text-anchor="start" x="106.5" y="-505" font-family="Helvetica,sans-Serif" font-size="10.00">scan()</text>
<text text-anchor="start" x="106.5" y="-494" font-family="Helvetica,sans-Serif" font-size="10.00">SecurityScanner</text>
</g>
<!-- safety -->
<g id="node6" class="node">
<title>safety</title>
<polygon fill="#e8f4fd" stroke="black" points="57.5,-539 57.5,-575 177.5,-575 177.5,-539 57.5,-539"/>
<text text-anchor="middle" x="79.5" y="-554.5" font-family="Helvetica,sans-Serif" font-size="10.00">safety</text>
<polyline fill="none" stroke="black" points="101.5,-539 101.5,-575 "/>
<text text-anchor="start" x="109.5" y="-554.5" font-family="Helvetica,sans-Serif" font-size="10.00">StagingGuard</text>
</g>
<!-- docker -->
<g id="node7" class="node">
<title>docker</title>
<polygon fill="#e8f4fd" stroke="black" points="51.5,-594 51.5,-630 183.5,-630 183.5,-594 51.5,-594"/>
<text text-anchor="middle" x="74.5" y="-609.5" font-family="Helvetica,sans-Serif" font-size="10.00">docker</text>
<polyline fill="none" stroke="black" points="97.5,-594 97.5,-630 "/>
<text text-anchor="start" x="105.5" y="-615" font-family="Helvetica,sans-Serif" font-size="10.00">DockerDetector</text>
<text text-anchor="start" x="105.5" y="-604" font-family="Helvetica,sans-Serif" font-size="10.00">DockerManager</text>
</g>
<!-- uvx -->
<g id="node8" class="node">
<title>uvx</title>
<polygon fill="#e8f4fd" stroke="black" points="64,-649 64,-685 171,-685 171,-649 64,-649"/>
<text text-anchor="middle" x="80" y="-664.5" font-family="Helvetica,sans-Serif" font-size="10.00">uvx</text>
<polyline fill="none" stroke="black" points="96,-649 96,-685 "/>
<text text-anchor="start" x="104" y="-664.5" font-family="Helvetica,sans-Serif" font-size="10.00">UVXManager</text>
</g>
<!-- utils -->
<g id="node9" class="node">
<title>utils</title>
<polygon fill="#e8f4fd" stroke="black" points="64,-704 64,-756 171,-756 171,-704 64,-704"/>
<text text-anchor="middle" x="81.5" y="-727.5" font-family="Helvetica,sans-Serif" font-size="10.00">utils</text>
<polyline fill="none" stroke="black" points="99,-704 99,-756 "/>
<text text-anchor="start" x="107" y="-744" font-family="Helvetica,sans-Serif" font-size="10.00">slugify()</text>
<text text-anchor="start" x="107" y="-733" font-family="Helvetica,sans-Serif" font-size="10.00">claude_cli</text>
<text text-anchor="start" x="107" y="-722" font-family="Helvetica,sans-Serif" font-size="10.00">prerequisites</text>
<text text-anchor="start" x="107" y="-711" font-family="Helvetica,sans-Serif" font-size="10.00">defensive</text>
</g>
<!-- recipes -->
<g id="node10" class="node">
<title>recipes</title>
<polygon fill="#e8f4fd" stroke="black" points="326,-410.5 326,-451.5 481,-451.5 481,-410.5 326,-410.5"/>
<text text-anchor="middle" x="350" y="-428.5" font-family="Helvetica,sans-Serif" font-size="10.00">recipes</text>
<polyline fill="none" stroke="black" points="374,-410.5 374,-451.5 "/>
<text text-anchor="start" x="382" y="-439.5" font-family="Helvetica,sans-Serif" font-size="10.00">RecipeParser</text>
<text text-anchor="start" x="382" y="-428.5" font-family="Helvetica,sans-Serif" font-size="10.00">run_recipe_via_rust()</text>
<text text-anchor="start" x="382" y="-417.5" font-family="Helvetica,sans-Serif" font-size="10.00">discover_recipes()</text>
</g>
<!-- recipe_cli -->
<g id="node11" class="node">
<title>recipe_cli</title>
<polygon fill="#e8f4fd" stroke="black" points="23,-775 23,-811 212,-811 212,-775 23,-775"/>
<text text-anchor="middle" x="52" y="-790.5" font-family="Helvetica,sans-Serif" font-size="10.00">recipe_cli</text>
<polyline fill="none" stroke="black" points="81,-775 81,-811 "/>
<text text-anchor="start" x="89" y="-796" font-family="Helvetica,sans-Serif" font-size="10.00">create_recipe_subparser()</text>
<text text-anchor="start" x="89" y="-785" font-family="Helvetica,sans-Serif" font-size="10.00">handle_recipe_command()</text>
</g>
<!-- fleet -->
<g id="node12" class="node">
<title>fleet</title>
<polygon fill="#e8f4fd" stroke="black" points="343,-342.5 343,-383.5 464,-383.5 464,-342.5 343,-342.5"/>
<text text-anchor="middle" x="360.5" y="-360.5" font-family="Helvetica,sans-Serif" font-size="10.00">fleet</text>
<polyline fill="none" stroke="black" points="378,-342.5 378,-383.5 "/>
<text text-anchor="start" x="386" y="-371.5" font-family="Helvetica,sans-Serif" font-size="10.00">FleetObserver</text>
<text text-anchor="start" x="386" y="-360.5" font-family="Helvetica,sans-Serif" font-size="10.00">FleetCLI</text>
<text text-anchor="start" x="386" y="-349.5" font-family="Helvetica,sans-Serif" font-size="10.00">SessionContext</text>
</g>
<!-- knowledge -->
<g id="node13" class="node">
<title>knowledge</title>
<polygon fill="#e8f4fd" stroke="black" points="21.5,-830 21.5,-866 213.5,-866 213.5,-830 21.5,-830"/>
<text text-anchor="middle" x="70" y="-845.5" font-family="Helvetica,sans-Serif" font-size="10.00">knowledge_builder</text>
<polyline fill="none" stroke="black" points="118.5,-830 118.5,-866 "/>
<text text-anchor="start" x="126.5" y="-851" font-family="Helvetica,sans-Serif" font-size="10.00">KnowledgeBuilder</text>
<text text-anchor="start" x="126.5" y="-840" font-family="Helvetica,sans-Serif" font-size="10.00">KnowledgeGraph</text>
</g>
<!-- bundle -->
<g id="node14" class="node">
<title>bundle</title>
<polygon fill="#e8f4fd" stroke="black" points="314,-270 314,-306 493,-306 493,-270 314,-270"/>
<text text-anchor="middle" x="359.5" y="-285.5" font-family="Helvetica,sans-Serif" font-size="10.00">bundle_generator</text>
<polyline fill="none" stroke="black" points="405,-270 405,-306 "/>
<text text-anchor="start" x="413" y="-291" font-family="Helvetica,sans-Serif" font-size="10.00">BundleBuilder</text>
<text text-anchor="start" x="413" y="-280" font-family="Helvetica,sans-Serif" font-size="10.00">BundlePackager</text>
</g>
<!-- workflows -->
<g id="node15" class="node">
<title>workflows</title>
<polygon fill="#e8f4fd" stroke="black" points="43.5,-885 43.5,-921 191.5,-921 191.5,-885 43.5,-885"/>
<text text-anchor="middle" x="74" y="-900.5" font-family="Helvetica,sans-Serif" font-size="10.00">workflows</text>
<polyline fill="none" stroke="black" points="104.5,-885 104.5,-921 "/>
<text text-anchor="start" x="112.5" y="-900.5" font-family="Helvetica,sans-Serif" font-size="10.00">WorkflowEngine</text>
</g>
<!-- settings_gen -->
<g id="node16" class="node">
<title>settings_gen</title>
<polygon fill="#e8f4fd" stroke="black" points="21.5,-940 21.5,-976 213.5,-976 213.5,-940 21.5,-940"/>
<text text-anchor="middle" x="70" y="-955.5" font-family="Helvetica,sans-Serif" font-size="10.00">settings_generator</text>
<polyline fill="none" stroke="black" points="118.5,-940 118.5,-976 "/>
<text text-anchor="start" x="126.5" y="-955.5" font-family="Helvetica,sans-Serif" font-size="10.00">SettingsGenerator</text>
</g>
<!-- power -->
<g id="node17" class="node">
<title>power</title>
<polygon fill="#e8f4fd" stroke="black" points="0,-995 0,-1031 235,-1031 235,-995 0,-995"/>
<text text-anchor="middle" x="41.5" y="-1010.5" font-family="Helvetica,sans-Serif" font-size="10.00">power_steering</text>
<polyline fill="none" stroke="black" points="83,-995 83,-1031 "/>
<text text-anchor="start" x="91" y="-1010.5" font-family="Helvetica,sans-Serif" font-size="10.00">prompt_re_enable_if_disabled()</text>
</g>
<!-- lsp -->
<g id="node18" class="node">
<title>lsp</title>
<polygon fill="#e8f4fd" stroke="black" points="46,-1050 46,-1086 189,-1086 189,-1050 46,-1050"/>
<text text-anchor="middle" x="81" y="-1065.5" font-family="Helvetica,sans-Serif" font-size="10.00">lsp_detector</text>
<polyline fill="none" stroke="black" points="116,-1050 116,-1086 "/>
<text text-anchor="start" x="124" y="-1065.5" font-family="Helvetica,sans-Serif" font-size="10.00">LSPDetector</text>
</g>
<!-- memory -->
<g id="node19" class="node">
<title>memory</title>
<polygon fill="#e8f4fd" stroke="black" points="4,-1105 4,-1141 231,-1141 231,-1105 4,-1105"/>
<text text-anchor="middle" x="56" y="-1120.5" font-family="Helvetica,sans-Serif" font-size="10.00">memory.discoveries</text>
<polyline fill="none" stroke="black" points="108,-1105 108,-1141 "/>
<text text-anchor="start" x="116" y="-1126" font-family="Helvetica,sans-Serif" font-size="10.00">store_discovery()</text>
<text text-anchor="start" x="116" y="-1115" font-family="Helvetica,sans-Serif" font-size="10.00">get_recent_discoveries()</text>
</g>
<!-- eval_pkg -->
<g id="node20" class="node">
<title>eval_pkg</title>
<polygon fill="#e8f4fd" stroke="black" points="328.5,-1157.5 328.5,-1198.5 478.5,-1198.5 478.5,-1157.5 328.5,-1157.5"/>
<text text-anchor="middle" x="346" y="-1175.5" font-family="Helvetica,sans-Serif" font-size="10.00">eval</text>
<polyline fill="none" stroke="black" points="363.5,-1157.5 363.5,-1198.5 "/>
<text text-anchor="start" x="371.5" y="-1186.5" font-family="Helvetica,sans-Serif" font-size="10.00">teaching_eval</text>
<text text-anchor="start" x="371.5" y="-1175.5" font-family="Helvetica,sans-Serif" font-size="10.00">grader</text>
<text text-anchor="start" x="371.5" y="-1164.5" font-family="Helvetica,sans-Serif" font-size="10.00">progressive_test_suite</text>
</g>
<!-- hooks -->
<g id="node21" class="node">
<title>hooks</title>
<polygon fill="#e8f4fd" stroke="black" points="49,-1215 49,-1251 186,-1251 186,-1215 49,-1215"/>
<text text-anchor="middle" x="70.5" y="-1230.5" font-family="Helvetica,sans-Serif" font-size="10.00">hooks</text>
<polyline fill="none" stroke="black" points="92,-1215 92,-1251 "/>
<text text-anchor="start" x="100" y="-1236" font-family="Helvetica,sans-Serif" font-size="10.00">LauncherDetector</text>
<text text-anchor="start" x="100" y="-1225" font-family="Helvetica,sans-Serif" font-size="10.00">LauncherInfo</text>
</g>
<!-- context -->
<g id="node22" class="node">
<title>context</title>
<polygon fill="#e8f4fd" stroke="black" points="26,-1270 26,-1322 209,-1322 209,-1270 26,-1270"/>
<text text-anchor="middle" x="70.5" y="-1293.5" font-family="Helvetica,sans-Serif" font-size="10.00">context.adaptive</text>
<polyline fill="none" stroke="black" points="115,-1270 115,-1322 "/>
<text text-anchor="start" x="123" y="-1310" font-family="Helvetica,sans-Serif" font-size="10.00">LauncherDetector</text>
<text text-anchor="start" x="123" y="-1299" font-family="Helvetica,sans-Serif" font-size="10.00">HookStrategy</text>
<text text-anchor="start" x="123" y="-1288" font-family="Helvetica,sans-Serif" font-size="10.00">ClaudeStrategy</text>
<text text-anchor="start" x="123" y="-1277" font-family="Helvetica,sans-Serif" font-size="10.00">CopilotStrategy</text>
</g>
<!-- vendor -->
<g id="node23" class="node">
<title>vendor</title>
<polygon fill="#e8f4fd" stroke="black" points="43.5,-1341 43.5,-1377 191.5,-1377 191.5,-1341 43.5,-1341"/>
<text text-anchor="middle" x="81" y="-1356.5" font-family="Helvetica,sans-Serif" font-size="10.00">vendor.blarify</text>
<polyline fill="none" stroke="black" points="118.5,-1341 118.5,-1377 "/>
<text text-anchor="start" x="126.5" y="-1356.5" font-family="Helvetica,sans-Serif" font-size="10.00">GraphBuilder</text>
</g>
<!-- cli -->
<g id="node24" class="node">
<title>cli</title>
<ellipse fill="#fff9c4" stroke="black" cx="117.5" cy="-279" rx="27" ry="18"/>
<text text-anchor="middle" x="117.5" y="-276.5" font-family="Helvetica,sans-Serif" font-size="10.00">cli.py</text>
</g>
<!-- cli&#45;&gt;launcher -->
<g id="edge1" class="edge">
<title>cli&#45;&gt;launcher</title>
<path fill="none" stroke="#666666" d="M140.79,-269.51C178.72,-253.34 257.69,-219.7 319.01,-193.57"/>
<polygon fill="#666666" stroke="#666666" points="320.48,-196.75 328.31,-189.61 317.74,-190.31 320.48,-196.75"/>
<text text-anchor="middle" x="274.5" y="-222.8" font-family="Times,serif" font-size="14.00">imports</text>
</g>
<!-- cli&#45;&gt;proxy -->
<g id="edge2" class="edge">
<title>cli&#45;&gt;proxy</title>
<path fill="none" stroke="#666666" d="M143.7,-274.65C185.62,-267.42 271.12,-252.67 332.38,-242.1"/>
<polygon fill="#666666" stroke="#666666" points="333.11,-245.52 342.37,-240.37 331.92,-238.63 333.11,-245.52"/>
<text text-anchor="middle" x="274.5" y="-258.8" font-family="Times,serif" font-size="14.00">imports</text>
</g>
<!-- cli&#45;&gt;recipes -->
<g id="edge4" class="edge">
<title>cli&#45;&gt;recipes</title>
<path fill="none" stroke="#666666" d="M141.22,-287.83C186.38,-305.53 284.11,-344.62 296,-356 309.21,-368.65 300.77,-380.38 314,-393 318.88,-397.65 324.41,-401.78 330.28,-405.44"/>
<polygon fill="#666666" stroke="#666666" points="328.65,-408.54 339.07,-410.46 332.13,-402.46 328.65,-408.54"/>
<text text-anchor="middle" x="274.5" y="-359.8" font-family="Times,serif" font-size="14.00">imports</text>
</g>
<!-- cli&#45;&gt;fleet -->
<g id="edge3" class="edge">
<title>cli&#45;&gt;fleet</title>
<path fill="none" stroke="#666666" d="M143.87,-283.06C178.67,-288.98 242.93,-301.12 296,-318 313.67,-323.62 332.45,-331.04 349.25,-338.24"/>
<polygon fill="#666666" stroke="#666666" points="348.31,-341.65 358.88,-342.43 351.11,-335.23 348.31,-341.65"/>
<text text-anchor="middle" x="274.5" y="-321.8" font-family="Times,serif" font-size="14.00">imports</text>
</g>
<!-- cli&#45;&gt;bundle -->
<g id="edge5" class="edge">
<title>cli&#45;&gt;bundle</title>
<path fill="none" stroke="#666666" d="M144.68,-278.58C179.32,-278.16 242.27,-277.83 296,-280 298.55,-280.1 301.14,-280.22 303.75,-280.34"/>
<polygon fill="#666666" stroke="#666666" points="303.74,-283.85 313.9,-280.88 304.1,-276.86 303.74,-283.85"/>
<text text-anchor="middle" x="274.5" y="-283.8" font-family="Times,serif" font-size="14.00">imports</text>
</g>
<!-- auto_mode -->
<g id="node25" class="node">
<title>auto_mode</title>
<ellipse fill="#fff9c4" stroke="black" cx="117.5" cy="-156" rx="61.44" ry="18"/>
<text text-anchor="middle" x="117.5" y="-153.5" font-family="Helvetica,sans-Serif" font-size="10.00">launcher/auto_mode</text>
</g>
<!-- auto_mode&#45;&gt;launcher -->
<g id="edge6" class="edge">
<title>auto_mode&#45;&gt;launcher</title>
<path fill="none" stroke="#666666" d="M178.88,-156.28C213.22,-156.46 257.02,-156.71 296,-157 298.72,-157.02 301.49,-157.04 304.27,-157.06"/>
<polygon fill="#666666" stroke="#666666" points="304.43,-160.57 314.45,-157.15 304.48,-153.57 304.43,-160.57"/>
<text text-anchor="middle" x="274.5" y="-160.8" font-family="Times,serif" font-size="14.00">internal</text>
</g>
<!-- fleet_copilot -->
<g id="node26" class="node">
<title>fleet_copilot</title>
<ellipse fill="#fff9c4" stroke="black" cx="117.5" cy="-393" rx="53.64" ry="18"/>
<text text-anchor="middle" x="117.5" y="-390.5" font-family="Helvetica,sans-Serif" font-size="10.00">fleet/fleet_copilot</text>
</g>
<!-- fleet_copilot&#45;&gt;fleet -->
<g id="edge7" class="edge">
<title>fleet_copilot&#45;&gt;fleet</title>
<path fill="none" stroke="#666666" d="M168.95,-387.67C214.5,-382.86 281.98,-375.73 332.7,-370.37"/>
<polygon fill="#666666" stroke="#666666" points="333.36,-373.82 342.93,-369.29 332.62,-366.86 333.36,-373.82"/>
<text text-anchor="middle" x="274.5" y="-381.8" font-family="Times,serif" font-size="14.00">internal</text>
</g>
<!-- recipe_cmd -->
<g id="node27" class="node">
<title>recipe_cmd</title>
<ellipse fill="#fff9c4" stroke="black" cx="117.5" cy="-447" rx="61.44" ry="18"/>
<text text-anchor="middle" x="117.5" y="-444.5" font-family="Helvetica,sans-Serif" font-size="10.00">recipe_cli/command</text>
</g>
<!-- recipe_cmd&#45;&gt;recipes -->
<g id="edge8" class="edge">
<title>recipe_cmd&#45;&gt;recipes</title>
<path fill="none" stroke="#666666" d="M177.69,-443.67C217.66,-441.41 271.1,-438.4 315.84,-435.88"/>
<polygon fill="#666666" stroke="#666666" points="316.05,-439.38 325.83,-435.32 315.65,-432.39 316.05,-439.38"/>
<text text-anchor="middle" x="274.5" y="-442.8" font-family="Times,serif" font-size="14.00">imports</text>
</g>
<!-- eval_harness -->
<g id="node28" class="node">
<title>eval_harness</title>
<ellipse fill="#fff9c4" stroke="black" cx="117.5" cy="-1178" rx="27" ry="18"/>
<text text-anchor="middle" x="117.5" y="-1175.5" font-family="Helvetica,sans-Serif" font-size="10.00">eval/*</text>
</g>
<!-- eval_harness&#45;&gt;eval_pkg -->
<g id="edge9" class="edge">
<title>eval_harness&#45;&gt;eval_pkg</title>
<path fill="none" stroke="#666666" d="M144.71,-1178C183.78,-1178 259.04,-1178 318.2,-1178"/>
<polygon fill="#666666" stroke="#666666" points="318.3,-1181.5 328.3,-1178 318.3,-1174.5 318.3,-1181.5"/>
<text text-anchor="middle" x="274.5" y="-1181.8" font-family="Times,serif" font-size="14.00">internal</text>
</g>
<!-- dead1 -->
<g id="node29" class="node">
<title>dead1</title>
<polygon fill="#ffcdd2" stroke="black" stroke-dasharray="5,2" points="189,-1432 46,-1432 46,-1396 189,-1396 189,-1432"/>
<text text-anchor="middle" x="117.5" y="-1417" font-family="Helvetica,sans-Serif" font-size="10.00">examples/usage_example.py</text>
<text text-anchor="middle" x="117.5" y="-1406" font-family="Helvetica,sans-Serif" font-size="10.00">(demo only)</text>
</g>
<!-- dead2 -->
<g id="node30" class="node">
<title>dead2</title>
<polygon fill="#ffcdd2" stroke="black" stroke-dasharray="5,2" points="201.5,-1486 33.5,-1486 33.5,-1450 201.5,-1450 201.5,-1486"/>
<text text-anchor="middle" x="117.5" y="-1471" font-family="Helvetica,sans-Serif" font-size="10.00">examples/proxy_context_usage.py</text>
<text text-anchor="middle" x="117.5" y="-1460" font-family="Helvetica,sans-Serif" font-size="10.00">(demo only)</text>
</g>
<!-- dead3 -->
<g id="node31" class="node">
<title>dead3</title>
<polygon fill="#ffcdd2" stroke="black" stroke-dasharray="5,2" points="156.5,-1540 78.5,-1540 78.5,-1504 156.5,-1504 156.5,-1540"/>
<text text-anchor="middle" x="117.5" y="-1525" font-family="Helvetica,sans-Serif" font-size="10.00">rust_trial.py</text>
<text text-anchor="middle" x="117.5" y="-1514" font-family="Helvetica,sans-Serif" font-size="10.00">(experimental)</text>
</g>
<!-- dead4 -->
<g id="node32" class="node">
<title>dead4</title>
<polygon fill="#ffcdd2" stroke="black" stroke-dasharray="5,2" points="174,-1594 61,-1594 61,-1558 174,-1558 174,-1594"/>
<text text-anchor="middle" x="117.5" y="-1573.5" font-family="Helvetica,sans-Serif" font-size="10.00">copilot_auto_install.py</text>
</g>
<!-- dead5 -->
<g id="node33" class="node">
<title>dead5</title>
<polygon fill="#ffcdd2" stroke="black" stroke-dasharray="5,2" points="168,-1648 67,-1648 67,-1612 168,-1612 168,-1648"/>
<text text-anchor="middle" x="117.5" y="-1627.5" font-family="Helvetica,sans-Serif" font-size="10.00">staging_cleanup.py</text>
</g>
</g>
</svg>
