<?xml version="1.0" encoding="UTF-8" standalone="no"?>
<!DOCTYPE svg PUBLIC "-//W3C//DTD SVG 1.1//EN"
 "http://www.w3.org/Graphics/SVG/1.1/DTD/svg11.dtd">
<!-- Generated by graphviz version 2.42.4 (0)
 -->
<!-- Title: ast_lsp_bindings_pr3500 Pages: 1 -->
<svg width="779pt" height="260pt"
 viewBox="0.00 0.00 779.00 260.00" xmlns="http://www.w3.org/2000/svg" xmlns:xlink="http://www.w3.org/1999/xlink">
<g id="graph0" class="graph" transform="scale(1 1) rotate(0) translate(4 256)">
<title>ast_lsp_bindings_pr3500</title>
<polygon fill="white" stroke="transparent" points="-4,4 -4,-256 775,-256 775,4 -4,4"/>
<!-- xpia_hook -->
<g id="node1" class="node">
<title>xpia_hook</title>
<polygon fill="#ffc9c9" stroke="black" points="534,-36 340,-36 340,0 534,0 534,-36"/>
<text text-anchor="middle" x="437" y="-21" font-family="Helvetica,sans-Serif" font-size="10.00">.claude/tools/xpia/hooks/pre_tool_use.py</text>
<text text-anchor="middle" x="437" y="-10" font-family="Helvetica,sans-Serif" font-size="10.00">canonical hook</text>
</g>
<!-- rust_xpia -->
<g id="node3" class="node">
<title>rust_xpia</title>
<polygon fill="#d4e8d4" stroke="black" points="771,-36 571,-36 571,0 771,0 771,-36"/>
<text text-anchor="middle" x="671" y="-21" font-family="Helvetica,sans-Serif" font-size="10.00">security/rust_xpia.py</text>
<text text-anchor="middle" x="671" y="-10" font-family="Helvetica,sans-Serif" font-size="10.00">is_available() + validate_bash_command()</text>
</g>
<!-- xpia_hook&#45;&gt;rust_xpia -->
<g id="edge1" class="edge">
<title>xpia_hook&#45;&gt;rust_xpia</title>
<path fill="none" stroke="black" d="M534.04,-18C542.82,-18 551.77,-18 560.66,-18"/>
<polygon fill="black" stroke="black" points="560.66,-21.5 570.66,-18 560.66,-14.5 560.66,-21.5"/>
</g>
<!-- xpia_compat -->
<g id="node2" class="node">
<title>xpia_compat</title>
<polygon fill="#ffe8cc" stroke="black" points="145,-36 38,-36 38,0 145,0 145,-36"/>
<text text-anchor="middle" x="91.5" y="-21" font-family="Helvetica,sans-Serif" font-size="10.00">pre_tool_use_rust.py</text>
<text text-anchor="middle" x="91.5" y="-10" font-family="Helvetica,sans-Serif" font-size="10.00">compat shim</text>
</g>
<!-- xpia_compat&#45;&gt;xpia_hook -->
<g id="edge2" class="edge">
<title>xpia_compat&#45;&gt;xpia_hook</title>
<path fill="none" stroke="black" d="M145.04,-18C194,-18 268.46,-18 329.8,-18"/>
<polygon fill="black" stroke="black" points="329.91,-21.5 339.91,-18 329.91,-14.5 329.91,-21.5"/>
</g>
<!-- root_init -->
<g id="node4" class="node">
<title>root_init</title>
<polygon fill="#d0bfff" stroke="black" points="183,-90 0,-90 0,-54 183,-54 183,-90"/>
<text text-anchor="middle" x="91.5" y="-75" font-family="Helvetica,sans-Serif" font-size="10.00">src/amplihack/__init__.py</text>
<text text-anchor="middle" x="91.5" y="-64" font-family="Helvetica,sans-Serif" font-size="10.00">RUST_FIRST_COMMANDS + main()</text>
</g>
<!-- auto_update -->
<g id="node5" class="node">
<title>auto_update</title>
<polygon fill="#e9ecef" stroke="black" points="510.5,-90 363.5,-90 363.5,-54 510.5,-54 510.5,-90"/>
<text text-anchor="middle" x="437" y="-75" font-family="Helvetica,sans-Serif" font-size="10.00">src/amplihack/auto_update.py</text>
<text text-anchor="middle" x="437" y="-64" font-family="Helvetica,sans-Serif" font-size="10.00">_find_rust_cli()</text>
</g>
<!-- root_init&#45;&gt;auto_update -->
<g id="edge3" class="edge">
<title>root_init&#45;&gt;auto_update</title>
<path fill="none" stroke="black" d="M183.2,-72C235.94,-72 301.9,-72 353.22,-72"/>
<polygon fill="black" stroke="black" points="353.28,-75.5 363.28,-72 353.28,-68.5 353.28,-75.5"/>
<text text-anchor="middle" x="261.5" y="-74.8" font-family="Helvetica,sans-Serif" font-size="9.00">delegate selected commands</text>
</g>
<!-- runner -->
<g id="node6" class="node">
<title>runner</title>
<polygon fill="#e9ecef" stroke="black" points="148,-198 35,-198 35,-162 148,-162 148,-198"/>
<text text-anchor="middle" x="91.5" y="-183" font-family="Helvetica,sans-Serif" font-size="10.00">recipes/rust_runner.py</text>
<text text-anchor="middle" x="91.5" y="-172" font-family="Helvetica,sans-Serif" font-size="10.00">run_recipe_via_rust()</text>
</g>
<!-- execution -->
<g id="node7" class="node">
<title>execution</title>
<polygon fill="#e9ecef" stroke="black" points="517.5,-252 356.5,-252 356.5,-216 517.5,-216 517.5,-252"/>
<text text-anchor="middle" x="437" y="-237" font-family="Helvetica,sans-Serif" font-size="10.00">recipes/rust_runner_execution.py</text>
<text text-anchor="middle" x="437" y="-226" font-family="Helvetica,sans-Serif" font-size="10.00">_run_rust_process()</text>
</g>
<!-- runner&#45;&gt;execution -->
<g id="edge4" class="edge">
<title>runner&#45;&gt;execution</title>
<path fill="none" stroke="black" d="M148.07,-188.74C201.69,-197.17 283.75,-210.07 346.57,-219.94"/>
<polygon fill="black" stroke="black" points="346.06,-223.4 356.48,-221.5 347.14,-216.49 346.06,-223.4"/>
<text text-anchor="middle" x="261.5" y="-216.8" font-family="Helvetica,sans-Serif" font-size="9.00">live progress path</text>
</g>
<!-- binary -->
<g id="node8" class="node">
<title>binary</title>
<polygon fill="#e9ecef" stroke="black" points="509,-198 365,-198 365,-162 509,-162 509,-198"/>
<text text-anchor="middle" x="437" y="-183" font-family="Helvetica,sans-Serif" font-size="10.00">recipes/rust_runner_binary.py</text>
<text text-anchor="middle" x="437" y="-172" font-family="Helvetica,sans-Serif" font-size="10.00">version gating</text>
</g>
<!-- runner&#45;&gt;binary -->
<g id="edge5" class="edge">
<title>runner&#45;&gt;binary</title>
<path fill="none" stroke="black" d="M148.07,-180C204.03,-180 290.98,-180 354.69,-180"/>
<polygon fill="black" stroke="black" points="354.71,-183.5 364.71,-180 354.71,-176.5 354.71,-183.5"/>
<text text-anchor="middle" x="261.5" y="-182.8" font-family="Helvetica,sans-Serif" font-size="9.00">runner validation</text>
</g>
<!-- copilot -->
<g id="node9" class="node">
<title>copilot</title>
<polygon fill="#b2f2bb" stroke="black" points="510.5,-144 363.5,-144 363.5,-108 510.5,-108 510.5,-144"/>
<text text-anchor="middle" x="437" y="-129" font-family="Helvetica,sans-Serif" font-size="10.00">recipes/rust_runner_copilot.py</text>
<text text-anchor="middle" x="437" y="-118" font-family="Helvetica,sans-Serif" font-size="10.00">nested Copilot wrapper</text>
</g>
<!-- runner&#45;&gt;copilot -->
<g id="edge6" class="edge">
<title>runner&#45;&gt;copilot</title>
<path fill="none" stroke="black" d="M148.07,-171.26C203.67,-162.52 289.86,-148.97 353.46,-138.98"/>
<polygon fill="black" stroke="black" points="354.13,-142.41 363.46,-137.4 353.04,-135.5 354.13,-142.41"/>
<text text-anchor="middle" x="261.5" y="-164.8" font-family="Helvetica,sans-Serif" font-size="9.00">nested Copilot args</text>
</g>
</g>
</svg>
