<?xml version="1.0" encoding="UTF-8" standalone="no"?>
<!DOCTYPE svg PUBLIC "-//W3C//DTD SVG 1.1//EN"
 "http://www.w3.org/Graphics/SVG/1.1/DTD/svg11.dtd">
<!-- Generated by graphviz version 2.42.4 (0)
 -->
<!-- Title: ast_lsp_bindings Pages: 1 -->
<svg width="837pt" height="1750pt"
 viewBox="0.00 0.00 837.00 1750.00" xmlns="http://www.w3.org/2000/svg" xmlns:xlink="http://www.w3.org/1999/xlink">
<g id="graph0" class="graph" transform="scale(1 1) rotate(0) translate(4 1746)">
<title>ast_lsp_bindings</title>
<polygon fill="white" stroke="transparent" points="-4,4 -4,-1746 833,-1746 833,4 -4,4"/>
<!-- amplihack -->
<g id="node1" class="node">
<title>amplihack</title>
<polygon fill="#e8f4fd" stroke="black" points="17,-0.5 17,-63.5 218,-63.5 218,-0.5 17,-0.5"/>
<text text-anchor="middle" x="66" y="-29.5" font-family="Helvetica,sans-Serif" font-size="10.00">amplihack/__init__</text>
<polyline fill="none" stroke="black" points="115,-0.5 115,-63.5 "/>
<text text-anchor="start" x="123" y="-51.5" font-family="Helvetica,sans-Serif" font-size="10.00">main()</text>
<text text-anchor="start" x="123" y="-40.5" font-family="Helvetica,sans-Serif" font-size="10.00">install()</text>
<text text-anchor="start" x="123" y="-29.5" font-family="Helvetica,sans-Serif" font-size="10.00">uninstall()</text>
<text text-anchor="start" x="123" y="-18.5" font-family="Helvetica,sans-Serif" font-size="10.00">ensure_dirs()</text>
<text text-anchor="start" x="123" y="-7.5" font-family="Helvetica,sans-Serif" font-size="10.00">copytree_manifest()</text>
</g>
<!-- settings -->
<g id="node2" class="node">
<title>settings</title>
<polygon fill="#e8f4fd" stroke="black" points="34.5,-83 34.5,-119 200.5,-119 200.5,-83 34.5,-83"/>
<text text-anchor="middle" x="60" y="-98.5" font-family="Helvetica,sans-Serif" font-size="10.00">settings</text>
<polyline fill="none" stroke="black" points="85.5,-83 85.5,-119 "/>
<text text-anchor="start" x="93.5" y="-104" font-family="Helvetica,sans-Serif" font-size="10.00">ensure_settings_json()</text>
<text text-anchor="start" x="93.5" y="-93" font-family="Helvetica,sans-Serif" font-size="10.00">update_hook_paths()</text>
</g>
<!-- launcher -->
<g id="node3" class="node">
<title>launcher</title>
<polygon fill="#e8f4fd" stroke="black" points="574.5,-276.5 574.5,-339.5 752.5,-339.5 752.5,-276.5 574.5,-276.5"/>
<text text-anchor="middle" x="601" y="-305.5" font-family="Helvetica,sans-Serif" font-size="10.00">launcher</text>
<polyline fill="none" stroke="black" points="627.5,-276.5 627.5,-339.5 "/>
<text text-anchor="start" x="635.5" y="-327.5" font-family="Helvetica,sans-Serif" font-size="10.00">ClaudeLauncher</text>
<text text-anchor="start" x="635.5" y="-316.5" font-family="Helvetica,sans-Serif" font-size="10.00">ClaudeDirectoryDetector</text>
<text text-anchor="start" x="635.5" y="-305.5" font-family="Helvetica,sans-Serif" font-size="10.00">PrerequisiteChecker</text>
<text text-anchor="start" x="635.5" y="-294.5" font-family="Helvetica,sans-Serif" font-size="10.00">AutoStager</text>
<text text-anchor="start" x="635.5" y="-283.5" font-family="Helvetica,sans-Serif" font-size="10.00">ClaudeBinaryManager</text>
</g>
<!-- security -->
<g id="node4" class="node">
<title>security</title>
<polygon fill="#e8f4fd" stroke="black" points="47.5,-437 47.5,-473 187.5,-473 187.5,-437 47.5,-437"/>
<text text-anchor="middle" x="73" y="-452.5" font-family="Helvetica,sans-Serif" font-size="10.00">security</text>
<polyline fill="none" stroke="black" points="98.5,-437 98.5,-473 "/>
<text text-anchor="start" x="106.5" y="-458" font-family="Helvetica,sans-Serif" font-size="10.00">scan()</text>
<text text-anchor="start" x="106.5" y="-447" font-family="Helvetica,sans-Serif" font-size="10.00">SecurityScanner</text>
</g>
<!-- safety -->
<g id="node5" class="node">
<title>safety</title>
<polygon fill="#e8f4fd" stroke="black" points="57.5,-492 57.5,-528 177.5,-528 177.5,-492 57.5,-492"/>
<text text-anchor="middle" x="79.5" y="-507.5" font-family="Helvetica,sans-Serif" font-size="10.00">safety</text>
<polyline fill="none" stroke="black" points="101.5,-492 101.5,-528 "/>
<text text-anchor="start" x="109.5" y="-507.5" font-family="Helvetica,sans-Serif" font-size="10.00">StagingGuard</text>
</g>
<!-- docker -->
<g id="node6" class="node">
<title>docker</title>
<polygon fill="#e8f4fd" stroke="black" points="51.5,-547 51.5,-583 183.5,-583 183.5,-547 51.5,-547"/>
<text text-anchor="middle" x="74.5" y="-562.5" font-family="Helvetica,sans-Serif" font-size="10.00">docker</text>
<polyline fill="none" stroke="black" points="97.5,-547 97.5,-583 "/>
<text text-anchor="start" x="105.5" y="-568" font-family="Helvetica,sans-Serif" font-size="10.00">DockerDetector</text>
<text text-anchor="start" x="105.5" y="-557" font-family="Helvetica,sans-Serif" font-size="10.00">DockerManager</text>
</g>
<!-- uvx -->
<g id="node7" class="node">
<title>uvx</title>
<polygon fill="#e8f4fd" stroke="black" points="64,-602 64,-638 171,-638 171,-602 64,-602"/>
<text text-anchor="middle" x="80" y="-617.5" font-family="Helvetica,sans-Serif" font-size="10.00">uvx</text>
<polyline fill="none" stroke="black" points="96,-602 96,-638 "/>
<text text-anchor="start" x="104" y="-617.5" font-family="Helvetica,sans-Serif" font-size="10.00">UVXManager</text>
</g>
<!-- utils -->
<g id="node8" class="node">
<title>utils</title>
<polygon fill="#e8f4fd" stroke="black" points="64,-657 64,-709 171,-709 171,-657 64,-657"/>
<text text-anchor="middle" x="81.5" y="-680.5" font-family="Helvetica,sans-Serif" font-size="10.00">utils</text>
<polyline fill="none" stroke="black" points="99,-657 99,-709 "/>
<text text-anchor="start" x="107" y="-697" font-family="Helvetica,sans-Serif" font-size="10.00">slugify()</text>
<text text-anchor="start" x="107" y="-686" font-family="Helvetica,sans-Serif" font-size="10.00">claude_cli</text>
<text text-anchor="start" x="107" y="-675" font-family="Helvetica,sans-Serif" font-size="10.00">prerequisites</text>
<text text-anchor="start" x="107" y="-664" font-family="Helvetica,sans-Serif" font-size="10.00">defensive</text>
</g>
<!-- recipes -->
<g id="node9" class="node">
<title>recipes</title>
<polygon fill="#e8f4fd" stroke="black" points="586,-365.5 586,-406.5 741,-406.5 741,-365.5 586,-365.5"/>
<text text-anchor="middle" x="610" y="-383.5" font-family="Helvetica,sans-Serif" font-size="10.00">recipes</text>
<polyline fill="none" stroke="black" points="634,-365.5 634,-406.5 "/>
<text text-anchor="start" x="642" y="-394.5" font-family="Helvetica,sans-Serif" font-size="10.00">RecipeParser</text>
<text text-anchor="start" x="642" y="-383.5" font-family="Helvetica,sans-Serif" font-size="10.00">run_recipe_via_rust()</text>
<text text-anchor="start" x="642" y="-372.5" font-family="Helvetica,sans-Serif" font-size="10.00">discover_recipes()</text>
</g>
<!-- recipe_cli -->
<g id="node10" class="node">
<title>recipe_cli</title>
<polygon fill="#e8f4fd" stroke="black" points="23,-728 23,-764 212,-764 212,-728 23,-728"/>
<text text-anchor="middle" x="52" y="-743.5" font-family="Helvetica,sans-Serif" font-size="10.00">recipe_cli</text>
<polyline fill="none" stroke="black" points="81,-728 81,-764 "/>
<text text-anchor="start" x="89" y="-749" font-family="Helvetica,sans-Serif" font-size="10.00">create_recipe_subparser()</text>
<text text-anchor="start" x="89" y="-738" font-family="Helvetica,sans-Serif" font-size="10.00">handle_recipe_command()</text>
</g>
<!-- fleet -->
<g id="node11" class="node">
<title>fleet</title>
<polygon fill="#e8f4fd" stroke="black" points="603,-144.5 603,-185.5 724,-185.5 724,-144.5 603,-144.5"/>
<text text-anchor="middle" x="620.5" y="-162.5" font-family="Helvetica,sans-Serif" font-size="10.00">fleet</text>
<polyline fill="none" stroke="black" points="638,-144.5 638,-185.5 "/>
<text text-anchor="start" x="646" y="-173.5" font-family="Helvetica,sans-Serif" font-size="10.00">FleetObserver</text>
<text text-anchor="start" x="646" y="-162.5" font-family="Helvetica,sans-Serif" font-size="10.00">FleetCLI</text>
<text text-anchor="start" x="646" y="-151.5" font-family="Helvetica,sans-Serif" font-size="10.00">SessionContext</text>
</g>
<!-- knowledge -->
<g id="node12" class="node">
<title>knowledge</title>
<polygon fill="#e8f4fd" stroke="black" points="21.5,-783 21.5,-819 213.5,-819 213.5,-783 21.5,-783"/>
<text text-anchor="middle" x="70" y="-798.5" font-family="Helvetica,sans-Serif" font-size="10.00">knowledge_builder</text>
<polyline fill="none" stroke="black" points="118.5,-783 118.5,-819 "/>
<text text-anchor="start" x="126.5" y="-804" font-family="Helvetica,sans-Serif" font-size="10.00">KnowledgeBuilder</text>
<text text-anchor="start" x="126.5" y="-793" font-family="Helvetica,sans-Serif" font-size="10.00">KnowledgeGraph</text>
</g>
<!-- bundle -->
<g id="node13" class="node">
<title>bundle</title>
<polygon fill="#e8f4fd" stroke="black" points="574,-214 574,-250 753,-250 753,-214 574,-214"/>
<text text-anchor="middle" x="619.5" y="-229.5" font-family="Helvetica,sans-Serif" font-size="10.00">bundle_generator</text>
<polyline fill="none" stroke="black" points="665,-214 665,-250 "/>
<text text-anchor="start" x="673" y="-235" font-family="Helvetica,sans-Serif" font-size="10.00">BundleBuilder</text>
<text text-anchor="start" x="673" y="-224" font-family="Helvetica,sans-Serif" font-size="10.00">BundlePackager</text>
</g>
<!-- workflows -->
<g id="node14" class="node">
<title>workflows</title>
<polygon fill="#e8f4fd" stroke="black" points="43.5,-838 43.5,-874 191.5,-874 191.5,-838 43.5,-838"/>
<text text-anchor="middle" x="74" y="-853.5" font-family="Helvetica,sans-Serif" font-size="10.00">workflows</text>
<polyline fill="none" stroke="black" points="104.5,-838 104.5,-874 "/>
<text text-anchor="start" x="112.5" y="-853.5" font-family="Helvetica,sans-Serif" font-size="10.00">WorkflowEngine</text>
</g>
<!-- settings_gen -->
<g id="node15" class="node">
<title>settings_gen</title>
<polygon fill="#e8f4fd" stroke="black" points="21.5,-893 21.5,-929 213.5,-929 213.5,-893 21.5,-893"/>
<text text-anchor="middle" x="70" y="-908.5" font-family="Helvetica,sans-Serif" font-size="10.00">settings_generator</text>
<polyline fill="none" stroke="black" points="118.5,-893 118.5,-929 "/>
<text text-anchor="start" x="126.5" y="-908.5" font-family="Helvetica,sans-Serif" font-size="10.00">SettingsGenerator</text>
</g>
<!-- power -->
<g id="node16" class="node">
<title>power</title>
<polygon fill="#e8f4fd" stroke="black" points="0,-948 0,-984 235,-984 235,-948 0,-948"/>
<text text-anchor="middle" x="41.5" y="-963.5" font-family="Helvetica,sans-Serif" font-size="10.00">power_steering</text>
<polyline fill="none" stroke="black" points="83,-948 83,-984 "/>
<text text-anchor="start" x="91" y="-963.5" font-family="Helvetica,sans-Serif" font-size="10.00">prompt_re_enable_if_disabled()</text>
</g>
<!-- lsp -->
<g id="node17" class="node">
<title>lsp</title>
<polygon fill="#e8f4fd" stroke="black" points="46,-1003 46,-1039 189,-1039 189,-1003 46,-1003"/>
<text text-anchor="middle" x="81" y="-1018.5" font-family="Helvetica,sans-Serif" font-size="10.00">lsp_detector</text>
<polyline fill="none" stroke="black" points="116,-1003 116,-1039 "/>
<text text-anchor="start" x="124" y="-1018.5" font-family="Helvetica,sans-Serif" font-size="10.00">LSPDetector</text>
</g>
<!-- memory -->
<g id="node18" class="node">
<title>memory</title>
<polygon fill="#e8f4fd" stroke="black" points="4,-1058 4,-1094 231,-1094 231,-1058 4,-1058"/>
<text text-anchor="middle" x="56" y="-1073.5" font-family="Helvetica,sans-Serif" font-size="10.00">memory.discoveries</text>
<polyline fill="none" stroke="black" points="108,-1058 108,-1094 "/>
<text text-anchor="start" x="116" y="-1079" font-family="Helvetica,sans-Serif" font-size="10.00">store_discovery()</text>
<text text-anchor="start" x="116" y="-1068" font-family="Helvetica,sans-Serif" font-size="10.00">get_recent_discoveries()</text>
</g>
<!-- eval_pkg -->
<g id="node19" class="node">
<title>eval_pkg</title>
<polygon fill="#e8f4fd" stroke="black" points="588.5,-1110.5 588.5,-1151.5 738.5,-1151.5 738.5,-1110.5 588.5,-1110.5"/>
<text text-anchor="middle" x="606" y="-1128.5" font-family="Helvetica,sans-Serif" font-size="10.00">eval</text>
<polyline fill="none" stroke="black" points="623.5,-1110.5 623.5,-1151.5 "/>
<text text-anchor="start" x="631.5" y="-1139.5" font-family="Helvetica,sans-Serif" font-size="10.00">teaching_eval</text>
<text text-anchor="start" x="631.5" y="-1128.5" font-family="Helvetica,sans-Serif" font-size="10.00">grader</text>
<text text-anchor="start" x="631.5" y="-1117.5" font-family="Helvetica,sans-Serif" font-size="10.00">progressive_test_suite</text>
</g>
<!-- hooks -->
<g id="node20" class="node">
<title>hooks</title>
<polygon fill="#e8f4fd" stroke="black" points="49,-1168 49,-1204 186,-1204 186,-1168 49,-1168"/>
<text text-anchor="middle" x="70.5" y="-1183.5" font-family="Helvetica,sans-Serif" font-size="10.00">hooks</text>
<polyline fill="none" stroke="black" points="92,-1168 92,-1204 "/>
<text text-anchor="start" x="100" y="-1189" font-family="Helvetica,sans-Serif" font-size="10.00">LauncherDetector</text>
<text text-anchor="start" x="100" y="-1178" font-family="Helvetica,sans-Serif" font-size="10.00">LauncherInfo</text>
</g>
<!-- context -->
<g id="node21" class="node">
<title>context</title>
<polygon fill="#e8f4fd" stroke="black" points="26,-1223 26,-1275 209,-1275 209,-1223 26,-1223"/>
<text text-anchor="middle" x="70.5" y="-1246.5" font-family="Helvetica,sans-Serif" font-size="10.00">context.adaptive</text>
<polyline fill="none" stroke="black" points="115,-1223 115,-1275 "/>
<text text-anchor="start" x="123" y="-1263" font-family="Helvetica,sans-Serif" font-size="10.00">LauncherDetector</text>
<text text-anchor="start" x="123" y="-1252" font-family="Helvetica,sans-Serif" font-size="10.00">HookStrategy</text>
<text text-anchor="start" x="123" y="-1241" font-family="Helvetica,sans-Serif" font-size="10.00">ClaudeStrategy</text>
<text text-anchor="start" x="123" y="-1230" font-family="Helvetica,sans-Serif" font-size="10.00">CopilotStrategy</text>
</g>
<!-- vendor -->
<g id="node22" class="node">
<title>vendor</title>
<polygon fill="#e8f4fd" stroke="black" points="43.5,-1294 43.5,-1330 191.5,-1330 191.5,-1294 43.5,-1294"/>
<text text-anchor="middle" x="81" y="-1309.5" font-family="Helvetica,sans-Serif" font-size="10.00">vendor.blarify</text>
<polyline fill="none" stroke="black" points="118.5,-1294 118.5,-1330 "/>
<text text-anchor="start" x="126.5" y="-1309.5" font-family="Helvetica,sans-Serif" font-size="10.00">GraphBuilder</text>
</g>
<!-- cli -->
<g id="node23" class="node">
<title>cli</title>
<ellipse fill="#fff9c4" stroke="black" cx="117.5" cy="-251" rx="27" ry="18"/>
<text text-anchor="middle" x="117.5" y="-248.5" font-family="Helvetica,sans-Serif" font-size="10.00">cli.py</text>
</g>
<!-- cli&#45;&gt;launcher -->
<g id="edge1" class="edge">
<title>cli&#45;&gt;launcher</title>
<path fill="none" stroke="#666666" d="M144.93,-251.16C204.81,-251.79 355.31,-255 480,-271 507.56,-274.54 537.18,-279.87 564.38,-285.39"/>
<polygon fill="#666666" stroke="#666666" points="563.78,-288.84 574.28,-287.43 565.19,-281.99 563.78,-288.84"/>
<text text-anchor="middle" x="366.5" y="-274.8" font-family="Times,serif" font-size="14.00">imports</text>
</g>
<!-- cli&#45;&gt;recipes -->
<g id="edge3" class="edge">
<title>cli&#45;&gt;recipes</title>
<path fill="none" stroke="#666666" d="M142.53,-258.58C169.23,-266.7 213.76,-279.3 253,-286 302.9,-294.52 439.19,-275.05 480,-305 497.04,-317.5 481.87,-335.36 498,-349 519.6,-367.26 548.33,-377.01 575.74,-382.07"/>
<polygon fill="#666666" stroke="#666666" points="575.32,-385.55 585.75,-383.73 576.46,-378.64 575.32,-385.55"/>
<text text-anchor="middle" x="366.5" y="-308.8" font-family="Times,serif" font-size="14.00">imports</text>
</g>
<!-- cli&#45;&gt;fleet -->
<g id="edge2" class="edge">
<title>cli&#45;&gt;fleet</title>
<path fill="none" stroke="#666666" d="M141.46,-242.31C167.95,-232.65 213,-217.31 253,-209 370.82,-184.52 510.72,-173.21 592.74,-168.33"/>
<polygon fill="#666666" stroke="#666666" points="593.16,-171.82 602.94,-167.74 592.75,-164.83 593.16,-171.82"/>
<text text-anchor="middle" x="366.5" y="-212.8" font-family="Times,serif" font-size="14.00">imports</text>
</g>
<!-- cli&#45;&gt;bundle -->
<g id="edge4" class="edge">
<title>cli&#45;&gt;bundle</title>
<path fill="none" stroke="#666666" d="M144.18,-246.55C171.18,-242.11 214.92,-235.58 253,-233 358.88,-225.82 480.52,-226.67 563.53,-228.63"/>
<polygon fill="#666666" stroke="#666666" points="563.63,-232.13 573.72,-228.88 563.8,-225.14 563.63,-232.13"/>
<text text-anchor="middle" x="366.5" y="-236.8" font-family="Times,serif" font-size="14.00">imports</text>
</g>
<!-- auto_mode -->
<g id="node24" class="node">
<title>auto_mode</title>
<ellipse fill="#fff9c4" stroke="black" cx="117.5" cy="-346" rx="61.44" ry="18"/>
<text text-anchor="middle" x="117.5" y="-343.5" font-family="Helvetica,sans-Serif" font-size="10.00">launcher/auto_mode</text>
</g>
<!-- auto_mode&#45;&gt;launcher -->
<g id="edge5" class="edge">
<title>auto_mode&#45;&gt;launcher</title>
<path fill="none" stroke="#666666" d="M178.02,-342.87C249.7,-338.98 373.72,-331.89 480,-324 507.28,-321.97 536.83,-319.5 564.05,-317.12"/>
<polygon fill="#666666" stroke="#666666" points="564.7,-320.57 574.35,-316.21 564.09,-313.6 564.7,-320.57"/>
<text text-anchor="middle" x="366.5" y="-342.8" font-family="Times,serif" font-size="14.00">internal</text>
</g>
<!-- fleet_copilot -->
<g id="node25" class="node">
<title>fleet_copilot</title>
<ellipse fill="#fff9c4" stroke="black" cx="117.5" cy="-156" rx="53.64" ry="18"/>
<text text-anchor="middle" x="117.5" y="-153.5" font-family="Helvetica,sans-Serif" font-size="10.00">fleet/fleet_copilot</text>
</g>
<!-- fleet_copilot&#45;&gt;fleet -->
<g id="edge6" class="edge">
<title>fleet_copilot&#45;&gt;fleet</title>
<path fill="none" stroke="#666666" d="M171.19,-155.47C241.59,-154.91 370.2,-154.44 480,-157 517.21,-157.87 558.66,-159.62 592.64,-161.26"/>
<polygon fill="#666666" stroke="#666666" points="592.77,-164.78 602.93,-161.77 593.11,-157.78 592.77,-164.78"/>
<text text-anchor="middle" x="366.5" y="-160.8" font-family="Times,serif" font-size="14.00">internal</text>
</g>
<!-- recipe_cmd -->
<g id="node26" class="node">
<title>recipe_cmd</title>
<ellipse fill="#fff9c4" stroke="black" cx="117.5" cy="-400" rx="61.44" ry="18"/>
<text text-anchor="middle" x="117.5" y="-397.5" font-family="Helvetica,sans-Serif" font-size="10.00">recipe_cli/command</text>
</g>
<!-- recipe_cmd&#45;&gt;recipes -->
<g id="edge7" class="edge">
<title>recipe_cmd&#45;&gt;recipes</title>
<path fill="none" stroke="#666666" d="M178.53,-398.45C274.87,-395.98 464.39,-391.1 575.53,-388.24"/>
<polygon fill="#666666" stroke="#666666" points="575.8,-391.73 585.71,-387.98 575.62,-384.73 575.8,-391.73"/>
<text text-anchor="middle" x="366.5" y="-400.8" font-family="Times,serif" font-size="14.00">imports</text>
</g>
<!-- eval_harness -->
<g id="node27" class="node">
<title>eval_harness</title>
<ellipse fill="#fff9c4" stroke="black" cx="117.5" cy="-1131" rx="27" ry="18"/>
<text text-anchor="middle" x="117.5" y="-1128.5" font-family="Helvetica,sans-Serif" font-size="10.00">eval/*</text>
</g>
<!-- eval_harness&#45;&gt;eval_pkg -->
<g id="edge8" class="edge">
<title>eval_harness&#45;&gt;eval_pkg</title>
<path fill="none" stroke="#666666" d="M144.74,-1131C222.15,-1131 452.03,-1131 577.86,-1131"/>
<polygon fill="#666666" stroke="#666666" points="578.22,-1134.5 588.22,-1131 578.22,-1127.5 578.22,-1134.5"/>
<text text-anchor="middle" x="366.5" y="-1134.8" font-family="Times,serif" font-size="14.00">internal</text>
</g>
<!-- rust_runner -->
<g id="node28" class="node">
<title>rust_runner</title>
<polygon fill="#d4e8d4" stroke="black" points="2,-1349 2,-1401 233,-1401 233,-1349 2,-1349"/>
<text text-anchor="middle" x="52" y="-1372.5" font-family="Helvetica,sans-Serif" font-size="10.00">recipes/rust_runner</text>
<polyline fill="none" stroke="black" points="102,-1349 102,-1401 "/>
<text text-anchor="start" x="110" y="-1389" font-family="Helvetica,sans-Serif" font-size="10.00">contextlib, signal (stdlib)</text>
<text text-anchor="start" x="110" y="-1378" font-family="Helvetica,sans-Serif" font-size="10.00">os, json, subprocess</text>
<text text-anchor="start" x="110" y="-1367" font-family="Helvetica,sans-Serif" font-size="10.00">RecipeResult, StepResult</text>
<text text-anchor="start" x="110" y="-1356" font-family="Helvetica,sans-Serif" font-size="10.00">_project_dir_context()</text>
</g>
<!-- discovery_mod -->
<g id="node29" class="node">
<title>discovery_mod</title>
<polygon fill="#d4e8d4" stroke="black" points="524.5,-1448.5 524.5,-1511.5 802.5,-1511.5 802.5,-1448.5 524.5,-1448.5"/>
<text text-anchor="middle" x="571" y="-1477.5" font-family="Helvetica,sans-Serif" font-size="10.00">recipes/discovery</text>
<polyline fill="none" stroke="black" points="617.5,-1448.5 617.5,-1511.5 "/>
<text text-anchor="start" x="625.5" y="-1499.5" font-family="Helvetica,sans-Serif" font-size="10.00">os (stdlib)</text>
<text text-anchor="start" x="625.5" y="-1488.5" font-family="Helvetica,sans-Serif" font-size="10.00">hashlib, json, subprocess</text>
<text text-anchor="start" x="625.5" y="-1477.5" font-family="Helvetica,sans-Serif" font-size="10.00">_AMPLIHACK_HOME_BUNDLE_DIR</text>
<text text-anchor="start" x="625.5" y="-1466.5" font-family="Helvetica,sans-Serif" font-size="10.00">_PACKAGE_BUNDLE_DIR</text>
<text text-anchor="start" x="625.5" y="-1455.5" font-family="Helvetica,sans-Serif" font-size="10.00">_REPO_ROOT_BUNDLE_DIR</text>
</g>
<!-- rust_runner&#45;&gt;discovery_mod -->
<g id="edge9" class="edge">
<title>rust_runner&#45;&gt;discovery_mod</title>
<path fill="none" stroke="#6666aa" d="M221.29,-1401.06C226.15,-1404.03 230.76,-1407.33 235,-1411 249.12,-1423.24 237.6,-1438.42 253,-1449 328.24,-1500.7 430.66,-1508.43 514.25,-1503.25"/>
<polygon fill="#6666aa" stroke="#6666aa" points="514.61,-1506.74 524.35,-1502.56 514.13,-1499.75 514.61,-1506.74"/>
<text text-anchor="middle" x="366.5" y="-1552.8" font-family="Times,serif" font-size="14.00">imports</text>
<text text-anchor="middle" x="366.5" y="-1537.8" font-family="Times,serif" font-size="14.00">_AMPLIHACK_HOME_BUNDLE_DIR</text>
<text text-anchor="middle" x="366.5" y="-1522.8" font-family="Times,serif" font-size="14.00">_PACKAGE_BUNDLE_DIR</text>
<text text-anchor="middle" x="366.5" y="-1507.8" font-family="Times,serif" font-size="14.00">_REPO_ROOT_BUNDLE_DIR</text>
</g>
<!-- rust_runner_exec -->
<g id="node30" class="node">
<title>rust_runner_exec</title>
<polygon fill="#d4e8d4" stroke="black" points="509,-1388.5 509,-1429.5 818,-1429.5 818,-1388.5 509,-1388.5"/>
<text text-anchor="middle" x="582.5" y="-1406.5" font-family="Helvetica,sans-Serif" font-size="10.00">recipes/rust_runner_execution</text>
<polyline fill="none" stroke="black" points="656,-1388.5 656,-1429.5 "/>
<text text-anchor="start" x="664" y="-1417.5" font-family="Helvetica,sans-Serif" font-size="10.00">build_rust_env()</text>
<text text-anchor="start" x="664" y="-1406.5" font-family="Helvetica,sans-Serif" font-size="10.00">execute_rust_command()</text>
<text text-anchor="start" x="664" y="-1395.5" font-family="Helvetica,sans-Serif" font-size="10.00">_ALLOWED_RUST_ENV_VARS</text>
</g>
<!-- rust_runner&#45;&gt;rust_runner_exec -->
<g id="edge10" class="edge">
<title>rust_runner&#45;&gt;rust_runner_exec</title>
<path fill="none" stroke="#6666aa" d="M233.31,-1385.52C239.97,-1386.04 246.57,-1386.54 253,-1387 333.88,-1392.78 423.84,-1397.77 498.79,-1401.53"/>
<polygon fill="#6666aa" stroke="#6666aa" points="498.64,-1405.03 508.8,-1402.03 498.99,-1398.04 498.64,-1405.03"/>
<text text-anchor="middle" x="366.5" y="-1433.8" font-family="Times,serif" font-size="14.00">imports</text>
<text text-anchor="middle" x="366.5" y="-1418.8" font-family="Times,serif" font-size="14.00">build_rust_env</text>
<text text-anchor="middle" x="366.5" y="-1403.8" font-family="Times,serif" font-size="14.00">execute_rust_command</text>
</g>
<!-- rust_runner_copilot -->
<g id="node31" class="node">
<title>rust_runner_copilot</title>
<polygon fill="#d4e8d4" stroke="black" points="505.5,-1323 505.5,-1359 821.5,-1359 821.5,-1323 505.5,-1323"/>
<text text-anchor="middle" x="572.5" y="-1338.5" font-family="Helvetica,sans-Serif" font-size="10.00">recipes/rust_runner_copilot</text>
<polyline fill="none" stroke="black" points="639.5,-1323 639.5,-1359 "/>
<text text-anchor="start" x="647.5" y="-1344" font-family="Helvetica,sans-Serif" font-size="10.00">_create_copilot_compat_wrapper_dir()</text>
<text text-anchor="start" x="647.5" y="-1333" font-family="Helvetica,sans-Serif" font-size="10.00">_normalize_copilot_cli_args()</text>
</g>
<!-- rust_runner&#45;&gt;rust_runner_copilot -->
<g id="edge11" class="edge">
<title>rust_runner&#45;&gt;rust_runner_copilot</title>
<path fill="none" stroke="#6666aa" d="M199.57,-1348.94C217.01,-1344.39 235.48,-1340.37 253,-1338 332.07,-1327.32 420.5,-1326.58 494.9,-1329.12"/>
<polygon fill="#6666aa" stroke="#6666aa" points="495.19,-1332.63 505.31,-1329.5 495.44,-1325.64 495.19,-1332.63"/>
<text text-anchor="middle" x="366.5" y="-1371.8" font-family="Times,serif" font-size="14.00">imports</text>
<text text-anchor="middle" x="366.5" y="-1356.8" font-family="Times,serif" font-size="14.00">_create_copilot_compat_wrapper_dir</text>
<text text-anchor="middle" x="366.5" y="-1341.8" font-family="Times,serif" font-size="14.00">_normalize_copilot_cli_args</text>
</g>
<!-- rust_runner_resolution -->
<g id="node32" class="node">
<title>rust_runner_resolution</title>
<polygon fill="#d4e8d4" stroke="black" points="498,-1237.5 498,-1278.5 829,-1278.5 829,-1237.5 498,-1237.5"/>
<text text-anchor="middle" x="587.5" y="-1255.5" font-family="Helvetica,sans-Serif" font-size="10.00">recipes/rust_runner_recipe_resolution</text>
<polyline fill="none" stroke="black" points="677,-1237.5 677,-1278.5 "/>
<text text-anchor="start" x="685" y="-1266.5" font-family="Helvetica,sans-Serif" font-size="10.00">_default_package_recipe_dirs()</text>
<text text-anchor="start" x="685" y="-1255.5" font-family="Helvetica,sans-Serif" font-size="10.00">_normalize_recipe_dirs()</text>
<text text-anchor="start" x="685" y="-1244.5" font-family="Helvetica,sans-Serif" font-size="10.00">_resolve_recipe_target()</text>
</g>
<!-- rust_runner&#45;&gt;rust_runner_resolution -->
<g id="edge12" class="edge">
<title>rust_runner&#45;&gt;rust_runner_resolution</title>
<path fill="none" stroke="#6666aa" d="M225.09,-1348.83C228.63,-1346.16 231.96,-1343.23 235,-1340 258.81,-1314.74 225.93,-1285.73 253,-1264 348.39,-1187.42 500.53,-1211.06 590.05,-1234.81"/>
<polygon fill="#6666aa" stroke="#6666aa" points="589.28,-1238.22 599.84,-1237.47 591.11,-1231.47 589.28,-1238.22"/>
<text text-anchor="middle" x="366.5" y="-1312.8" font-family="Times,serif" font-size="14.00">imports</text>
<text text-anchor="middle" x="366.5" y="-1297.8" font-family="Times,serif" font-size="14.00">_default_package_recipe_dirs</text>
<text text-anchor="middle" x="366.5" y="-1282.8" font-family="Times,serif" font-size="14.00">_normalize_recipe_dirs</text>
<text text-anchor="middle" x="366.5" y="-1267.8" font-family="Times,serif" font-size="14.00">_resolve_recipe_target</text>
</g>
<!-- dead1 -->
<g id="node33" class="node">
<title>dead1</title>
<polygon fill="#ffcdd2" stroke="black" stroke-dasharray="5,2" points="189,-1456 46,-1456 46,-1420 189,-1420 189,-1456"/>
<text text-anchor="middle" x="117.5" y="-1441" font-family="Helvetica,sans-Serif" font-size="10.00">examples/usage_example.py</text>
<text text-anchor="middle" x="117.5" y="-1430" font-family="Helvetica,sans-Serif" font-size="10.00">(demo only)</text>
</g>
<!-- dead2 -->
<g id="node34" class="node">
<title>dead2</title>
<polygon fill="#ffcdd2" stroke="black" stroke-dasharray="5,2" points="198,-1510 37,-1510 37,-1474 198,-1474 198,-1510"/>
<text text-anchor="middle" x="117.5" y="-1495" font-family="Helvetica,sans-Serif" font-size="10.00">examples/usage_example_llm.py</text>
<text text-anchor="middle" x="117.5" y="-1484" font-family="Helvetica,sans-Serif" font-size="10.00">(demo only)</text>
</g>
<!-- dead3 -->
<g id="node35" class="node">
<title>dead3</title>
<polygon fill="#ffcdd2" stroke="black" stroke-dasharray="5,2" points="156.5,-1564 78.5,-1564 78.5,-1528 156.5,-1528 156.5,-1564"/>
<text text-anchor="middle" x="117.5" y="-1549" font-family="Helvetica,sans-Serif" font-size="10.00">rust_trial.py</text>
<text text-anchor="middle" x="117.5" y="-1538" font-family="Helvetica,sans-Serif" font-size="10.00">(experimental)</text>
</g>
<!-- dead4 -->
<g id="node36" class="node">
<title>dead4</title>
<polygon fill="#ffcdd2" stroke="black" stroke-dasharray="5,2" points="174,-1618 61,-1618 61,-1582 174,-1582 174,-1618"/>
<text text-anchor="middle" x="117.5" y="-1597.5" font-family="Helvetica,sans-Serif" font-size="10.00">copilot_auto_install.py</text>
</g>
<!-- dead5 -->
<g id="node37" class="node">
<title>dead5</title>
<polygon fill="#ffcdd2" stroke="black" stroke-dasharray="5,2" points="168,-1672 67,-1672 67,-1636 168,-1636 168,-1672"/>
<text text-anchor="middle" x="117.5" y="-1651.5" font-family="Helvetica,sans-Serif" font-size="10.00">staging_cleanup.py</text>
</g>
<!-- test_wf -->
<g id="node38" class="node">
<title>test_wf</title>
<polygon fill="#e8f5e9" stroke="black" points="212.5,-1742 22.5,-1742 22.5,-1690 212.5,-1690 212.5,-1742"/>
<text text-anchor="start" x="30.5" y="-1730" font-family="Helvetica,sans-Serif" font-size="10.00">{test_default_workflow_fixes|TestBL001</text>
<text text-anchor="start" x="30.5" y="-1719" font-family="Helvetica,sans-Serif" font-size="10.00">TestBL002</text>
<text text-anchor="start" x="30.5" y="-1708" font-family="Helvetica,sans-Serif" font-size="10.00">TestBL003</text>
<text text-anchor="middle" x="117.5" y="-1697" font-family="Helvetica,sans-Serif" font-size="10.00">}</text>
</g>
</g>
</svg>
