<?xml version="1.0" encoding="UTF-8" standalone="no"?>
<!DOCTYPE svg PUBLIC "-//W3C//DTD SVG 1.1//EN"
 "http://www.w3.org/Graphics/SVG/1.1/DTD/svg11.dtd">
<!-- Generated by graphviz version 2.42.4 (0)
 -->
<!-- Title: symbol_references Pages: 1 -->
<svg width="939pt" height="826pt"
 viewBox="0.00 0.00 939.00 826.00" xmlns="http://www.w3.org/2000/svg" xmlns:xlink="http://www.w3.org/1999/xlink">
<g id="graph0" class="graph" transform="scale(1 1) rotate(0) translate(4 822)">
<title>symbol_references</title>
<polygon fill="white" stroke="transparent" points="-4,4 -4,-822 935,-822 935,4 -4,4"/>
<text text-anchor="middle" x="465.5" y="-802.8" font-family="Helvetica,sans-Serif" font-size="14.00">amplihack Cross&#45;Module Symbol References</text>
<text text-anchor="middle" x="465.5" y="-787.8" font-family="Helvetica,sans-Serif" font-size="14.00">(Mode: static&#45;approximation)</text>
<g id="clust1" class="cluster">
<title>cluster_entry</title>
<polygon fill="#e1f5fe" stroke="black" points="8,-292 8,-513 142,-513 142,-292 8,-292"/>
<text text-anchor="middle" x="75" y="-497.8" font-family="Helvetica,sans-Serif" font-size="14.00">Entry / CLI</text>
</g>
<g id="clust2" class="cluster">
<title>cluster_core</title>
<polygon fill="#f3e5f5" stroke="black" points="284,-459 284,-758 661,-758 661,-459 284,-459"/>
<text text-anchor="middle" x="472.5" y="-742.8" font-family="Helvetica,sans-Serif" font-size="14.00">Core Modules</text>
</g>
<g id="clust3" class="cluster">
<title>cluster_agents</title>
<polygon fill="#fff3e0" stroke="black" points="8.5,-8 8.5,-233 393,-233 393,-8 8.5,-8"/>
<text text-anchor="middle" x="200.75" y="-217.8" font-family="Helvetica,sans-Serif" font-size="14.00">Agent System</text>
</g>
<g id="clust4" class="cluster">
<title>cluster_infra</title>
<polygon fill="#fce4ec" stroke="black" points="559,-86 559,-451 919,-451 919,-86 559,-86"/>
<text text-anchor="middle" x="739" y="-435.8" font-family="Helvetica,sans-Serif" font-size="14.00">Infrastructure</text>
</g>
<g id="clust5" class="cluster">
<title>cluster_vendor</title>
<polygon fill="#fff9c4" stroke="black" points="806,-665 806,-772 923,-772 923,-665 806,-665"/>
<text text-anchor="middle" x="864.5" y="-756.8" font-family="Helvetica,sans-Serif" font-size="14.00">Vendored</text>
</g>
<!-- root -->
<g id="node1" class="node">
<title>root</title>
<path fill="#bbdefb" stroke="black" d="M122,-482C122,-482 28,-482 28,-482 22,-482 16,-476 16,-470 16,-470 16,-456 16,-456 16,-450 22,-444 28,-444 28,-444 122,-444 122,-444 128,-444 134,-450 134,-456 134,-456 134,-470 134,-470 134,-476 128,-482 122,-482"/>
<text text-anchor="middle" x="75" y="-466.8" font-family="Helvetica,sans-Serif" font-size="14.00">__root__</text>
<text text-anchor="middle" x="75" y="-451.8" font-family="Helvetica,sans-Serif" font-size="14.00">cli.py, session.py</text>
</g>
<!-- launcher -->
<g id="node4" class="node">
<title>launcher</title>
<path fill="#ce93d8" stroke="black" d="M369.5,-653C369.5,-653 307.5,-653 307.5,-653 301.5,-653 295.5,-647 295.5,-641 295.5,-641 295.5,-627 295.5,-627 295.5,-621 301.5,-615 307.5,-615 307.5,-615 369.5,-615 369.5,-615 375.5,-615 381.5,-621 381.5,-627 381.5,-627 381.5,-641 381.5,-641 381.5,-647 375.5,-653 369.5,-653"/>
<text text-anchor="middle" x="338.5" y="-637.8" font-family="Helvetica,sans-Serif" font-size="14.00">launcher</text>
<text text-anchor="middle" x="338.5" y="-622.8" font-family="Helvetica,sans-Serif" font-size="14.00">87 symbols</text>
</g>
<!-- root&#45;&gt;launcher -->
<g id="edge3" class="edge">
<title>root&#45;&gt;launcher</title>
<path fill="none" stroke="black" d="M111.55,-482.07C147.32,-501.77 203.53,-534.2 249,-567 265.62,-578.99 267.78,-584.49 284,-597 289.16,-600.98 294.72,-605.05 300.23,-608.96"/>
<polygon fill="black" stroke="black" points="298.59,-612.09 308.79,-614.95 302.6,-606.35 298.59,-612.09"/>
<text text-anchor="middle" x="213" y="-569.8" font-family="Helvetica,sans-Serif" font-size="9.00">SettingsManager</text>
</g>
<!-- fleet -->
<g id="node5" class="node">
<title>fleet</title>
<path fill="#ce93d8" stroke="black" d="M373,-727C373,-727 304,-727 304,-727 298,-727 292,-721 292,-715 292,-715 292,-701 292,-701 292,-695 298,-689 304,-689 304,-689 373,-689 373,-689 379,-689 385,-695 385,-701 385,-701 385,-715 385,-715 385,-721 379,-727 373,-727"/>
<text text-anchor="middle" x="338.5" y="-711.8" font-family="Helvetica,sans-Serif" font-size="14.00">fleet</text>
<text text-anchor="middle" x="338.5" y="-696.8" font-family="Helvetica,sans-Serif" font-size="14.00">122 symbols</text>
</g>
<!-- root&#45;&gt;fleet -->
<g id="edge2" class="edge">
<title>root&#45;&gt;fleet</title>
<path fill="none" stroke="black" d="M90.46,-482.01C109.27,-506.27 143.69,-549.02 177,-582 220.96,-625.52 234.74,-633.59 284,-671 289.19,-674.94 294.77,-678.99 300.28,-682.89"/>
<polygon fill="black" stroke="black" points="298.64,-686.02 308.84,-688.88 302.65,-680.28 298.64,-686.02"/>
<text text-anchor="middle" x="213" y="-645.8" font-family="Helvetica,sans-Serif" font-size="9.00">fleet_cli</text>
</g>
<!-- exceptions -->
<g id="node17" class="node">
<title>exceptions</title>
<path fill="#ef9a9a" stroke="black" d="M638.5,-204C638.5,-204 581.5,-204 581.5,-204 575.5,-204 569.5,-198 569.5,-192 569.5,-192 569.5,-180 569.5,-180 569.5,-174 575.5,-168 581.5,-168 581.5,-168 638.5,-168 638.5,-168 644.5,-168 650.5,-174 650.5,-180 650.5,-180 650.5,-192 650.5,-192 650.5,-198 644.5,-204 638.5,-204"/>
<text text-anchor="middle" x="610" y="-182.3" font-family="Helvetica,sans-Serif" font-size="14.00">exceptions</text>
</g>
<!-- root&#45;&gt;exceptions -->
<g id="edge4" class="edge">
<title>root&#45;&gt;exceptions</title>
<path fill="none" stroke="black" d="M134.31,-443.92C168.36,-432.09 211.8,-415.78 249,-398 372.76,-338.86 510.12,-251.41 573.45,-209.75"/>
<polygon fill="black" stroke="black" points="575.47,-212.61 581.89,-204.18 571.62,-206.77 575.47,-212.61"/>
<text text-anchor="middle" x="338.5" y="-380.8" font-family="Helvetica,sans-Serif" font-size="9.00">errors</text>
</g>
<!-- recipe_cli -->
<g id="node2" class="node">
<title>recipe_cli</title>
<path fill="#bbdefb" stroke="black" d="M100,-408C100,-408 50,-408 50,-408 44,-408 38,-402 38,-396 38,-396 38,-384 38,-384 38,-378 44,-372 50,-372 50,-372 100,-372 100,-372 106,-372 112,-378 112,-384 112,-384 112,-396 112,-396 112,-402 106,-408 100,-408"/>
<text text-anchor="middle" x="75" y="-386.3" font-family="Helvetica,sans-Serif" font-size="14.00">recipe_cli</text>
</g>
<!-- recipes -->
<g id="node8" class="node">
<title>recipes</title>
<path fill="#ce93d8" stroke="black" d="M369.5,-505C369.5,-505 307.5,-505 307.5,-505 301.5,-505 295.5,-499 295.5,-493 295.5,-493 295.5,-479 295.5,-479 295.5,-473 301.5,-467 307.5,-467 307.5,-467 369.5,-467 369.5,-467 375.5,-467 381.5,-473 381.5,-479 381.5,-479 381.5,-493 381.5,-493 381.5,-499 375.5,-505 369.5,-505"/>
<text text-anchor="middle" x="338.5" y="-489.8" font-family="Helvetica,sans-Serif" font-size="14.00">recipes</text>
<text text-anchor="middle" x="338.5" y="-474.8" font-family="Helvetica,sans-Serif" font-size="14.00">27 symbols</text>
</g>
<!-- recipe_cli&#45;&gt;recipes -->
<g id="edge8" class="edge">
<title>recipe_cli&#45;&gt;recipes</title>
<path fill="none" stroke="black" d="M112.04,-388.15C148.18,-387.65 204.68,-390.61 249,-410 249.23,-410.1 281.99,-438.25 307.58,-460.26"/>
<polygon fill="black" stroke="black" points="305.38,-462.99 315.25,-466.86 309.95,-457.68 305.38,-462.99"/>
<text text-anchor="middle" x="213" y="-432.8" font-family="Helvetica,sans-Serif" font-size="9.00">RecipeParser</text>
<text text-anchor="middle" x="213" y="-422.8" font-family="Helvetica,sans-Serif" font-size="9.00">Recipe</text>
<text text-anchor="middle" x="213" y="-412.8" font-family="Helvetica,sans-Serif" font-size="9.00">RecipeResult</text>
</g>
<!-- plugin_cli -->
<g id="node3" class="node">
<title>plugin_cli</title>
<path fill="#bbdefb" stroke="black" d="M99.5,-336C99.5,-336 50.5,-336 50.5,-336 44.5,-336 38.5,-330 38.5,-324 38.5,-324 38.5,-312 38.5,-312 38.5,-306 44.5,-300 50.5,-300 50.5,-300 99.5,-300 99.5,-300 105.5,-300 111.5,-306 111.5,-312 111.5,-312 111.5,-324 111.5,-324 111.5,-330 105.5,-336 99.5,-336"/>
<text text-anchor="middle" x="75" y="-314.3" font-family="Helvetica,sans-Serif" font-size="14.00">plugin_cli</text>
</g>
<!-- hooks -->
<g id="node13" class="node">
<title>hooks</title>
<path fill="#ef9a9a" stroke="black" d="M625,-420C625,-420 595,-420 595,-420 589,-420 583,-414 583,-408 583,-408 583,-396 583,-396 583,-390 589,-384 595,-384 595,-384 625,-384 625,-384 631,-384 637,-390 637,-396 637,-396 637,-408 637,-408 637,-414 631,-420 625,-420"/>
<text text-anchor="middle" x="610" y="-398.3" font-family="Helvetica,sans-Serif" font-size="14.00">hooks</text>
</g>
<!-- launcher&#45;&gt;hooks -->
<g id="edge5" class="edge">
<title>launcher&#45;&gt;hooks</title>
<path fill="none" stroke="black" d="M381.73,-632.25C423.53,-628.22 486.54,-615.63 524,-577 564.76,-534.97 529.03,-500.3 559,-450 563.93,-441.73 570.67,-433.93 577.6,-427.13"/>
<polygon fill="black" stroke="black" points="580.16,-429.52 585.12,-420.16 575.4,-424.39 580.16,-429.52"/>
<text text-anchor="middle" x="476" y="-626.8" font-family="Helvetica,sans-Serif" font-size="9.00">execute_stop_hook</text>
</g>
<!-- safety -->
<g id="node14" class="node">
<title>safety</title>
<path fill="#ef9a9a" stroke="black" d="M625,-348C625,-348 595,-348 595,-348 589,-348 583,-342 583,-336 583,-336 583,-324 583,-324 583,-318 589,-312 595,-312 595,-312 625,-312 625,-312 631,-312 637,-318 637,-324 637,-324 637,-336 637,-336 637,-342 631,-348 625,-348"/>
<text text-anchor="middle" x="610" y="-326.3" font-family="Helvetica,sans-Serif" font-size="14.00">safety</text>
</g>
<!-- launcher&#45;&gt;safety -->
<g id="edge6" class="edge">
<title>launcher&#45;&gt;safety</title>
<path fill="none" stroke="black" d="M369.86,-614.83C377.68,-609.41 385.88,-603.27 393,-597 410.48,-581.6 409.89,-572.64 428,-558 466.24,-527.09 494.23,-542.14 524,-503 562.05,-452.98 523.6,-417.92 559,-366 563.18,-359.86 568.78,-354.41 574.71,-349.71"/>
<polygon fill="black" stroke="black" points="576.84,-352.49 582.9,-343.79 572.75,-346.81 576.84,-352.49"/>
<text text-anchor="middle" x="476" y="-560.8" font-family="Helvetica,sans-Serif" font-size="9.00">PromptTransformer</text>
</g>
<!-- memory -->
<g id="node7" class="node">
<title>memory</title>
<path fill="#ce93d8" stroke="black" d="M641,-726C641,-726 579,-726 579,-726 573,-726 567,-720 567,-714 567,-714 567,-700 567,-700 567,-694 573,-688 579,-688 579,-688 641,-688 641,-688 647,-688 653,-694 653,-700 653,-700 653,-714 653,-714 653,-720 647,-726 641,-726"/>
<text text-anchor="middle" x="610" y="-710.8" font-family="Helvetica,sans-Serif" font-size="14.00">memory</text>
<text text-anchor="middle" x="610" y="-695.8" font-family="Helvetica,sans-Serif" font-size="14.00">91 symbols</text>
</g>
<!-- fleet&#45;&gt;memory -->
<g id="edge7" class="edge">
<title>fleet&#45;&gt;memory</title>
<path fill="none" stroke="black" d="M385.22,-707.83C432.61,-707.65 506.58,-707.38 556.38,-707.2"/>
<polygon fill="black" stroke="black" points="556.63,-710.69 566.62,-707.16 556.6,-703.69 556.63,-710.69"/>
<text text-anchor="middle" x="476" y="-719.8" font-family="Helvetica,sans-Serif" font-size="9.00">store_discovery</text>
<text text-anchor="middle" x="476" y="-709.8" font-family="Helvetica,sans-Serif" font-size="9.00">get_recent_discoveries</text>
</g>
<!-- proxy -->
<g id="node6" class="node">
<title>proxy</title>
<path fill="#ce93d8" stroke="black" stroke-dasharray="5,2" d="M372.5,-579C372.5,-579 304.5,-579 304.5,-579 298.5,-579 292.5,-573 292.5,-567 292.5,-567 292.5,-553 292.5,-553 292.5,-547 298.5,-541 304.5,-541 304.5,-541 372.5,-541 372.5,-541 378.5,-541 384.5,-547 384.5,-553 384.5,-553 384.5,-567 384.5,-567 384.5,-573 378.5,-579 372.5,-579"/>
<text text-anchor="middle" x="338.5" y="-563.8" font-family="Helvetica,sans-Serif" font-size="14.00">proxy</text>
<text text-anchor="middle" x="338.5" y="-548.8" font-family="Helvetica,sans-Serif" font-size="14.00">113 symbols</text>
</g>
<!-- vendor -->
<g id="node19" class="node">
<title>vendor</title>
<path fill="#fff176" stroke="black" d="M903,-741C903,-741 826,-741 826,-741 820,-741 814,-735 814,-729 814,-729 814,-685 814,-685 814,-679 820,-673 826,-673 826,-673 903,-673 903,-673 909,-673 915,-679 915,-685 915,-685 915,-729 915,-729 915,-735 909,-741 903,-741"/>
<text text-anchor="middle" x="864.5" y="-725.8" font-family="Helvetica,sans-Serif" font-size="14.00">vendor/blarify</text>
<text text-anchor="middle" x="864.5" y="-710.8" font-family="Helvetica,sans-Serif" font-size="14.00">GraphBuilder</text>
<text text-anchor="middle" x="864.5" y="-695.8" font-family="Helvetica,sans-Serif" font-size="14.00">KuzuManager</text>
<text text-anchor="middle" x="864.5" y="-680.8" font-family="Helvetica,sans-Serif" font-size="14.00">scip_pb2</text>
</g>
<!-- memory&#45;&gt;vendor -->
<g id="edge13" class="edge">
<title>memory&#45;&gt;vendor</title>
<path fill="none" stroke="black" stroke-dasharray="5,2" d="M653.26,-707C694.38,-707 757.24,-707 803.52,-707"/>
<polygon fill="black" stroke="black" points="803.72,-710.5 813.72,-707 803.72,-703.5 803.72,-710.5"/>
<text text-anchor="middle" x="733.5" y="-729.8" font-family="Helvetica,sans-Serif" font-size="9.00">GraphBuilder</text>
<text text-anchor="middle" x="733.5" y="-719.8" font-family="Helvetica,sans-Serif" font-size="9.00">KuzuManager</text>
<text text-anchor="middle" x="733.5" y="-709.8" font-family="Helvetica,sans-Serif" font-size="9.00">scip_pb2</text>
</g>
<!-- agents -->
<g id="node9" class="node">
<title>agents</title>
<path fill="#ffcc80" stroke="black" d="M373,-69.5C373,-69.5 304,-69.5 304,-69.5 298,-69.5 292,-63.5 292,-57.5 292,-57.5 292,-28.5 292,-28.5 292,-22.5 298,-16.5 304,-16.5 304,-16.5 373,-16.5 373,-16.5 379,-16.5 385,-22.5 385,-28.5 385,-28.5 385,-57.5 385,-57.5 385,-63.5 379,-69.5 373,-69.5"/>
<text text-anchor="middle" x="338.5" y="-54.3" font-family="Helvetica,sans-Serif" font-size="14.00">agents</text>
<text text-anchor="middle" x="338.5" y="-39.3" font-family="Helvetica,sans-Serif" font-size="14.00">100 symbols</text>
<text text-anchor="middle" x="338.5" y="-24.3" font-family="Helvetica,sans-Serif" font-size="14.00">14 imported</text>
</g>
<!-- eval -->
<g id="node10" class="node">
<title>eval</title>
<path fill="#ffcc80" stroke="black" d="M92.5,-54C92.5,-54 57.5,-54 57.5,-54 51.5,-54 45.5,-48 45.5,-42 45.5,-42 45.5,-28 45.5,-28 45.5,-22 51.5,-16 57.5,-16 57.5,-16 92.5,-16 92.5,-16 98.5,-16 104.5,-22 104.5,-28 104.5,-28 104.5,-42 104.5,-42 104.5,-48 98.5,-54 92.5,-54"/>
<text text-anchor="middle" x="75" y="-38.8" font-family="Helvetica,sans-Serif" font-size="14.00">eval</text>
<text text-anchor="middle" x="75" y="-23.8" font-family="Helvetica,sans-Serif" font-size="14.00">27 files</text>
</g>
<!-- eval&#45;&gt;agents -->
<g id="edge1" class="edge">
<title>eval&#45;&gt;agents</title>
<path fill="none" stroke="#ef6c00" stroke-width="4" d="M104.73,-35.88C147.11,-37.18 227.21,-39.63 281.46,-41.29"/>
<polygon fill="#ef6c00" stroke="#ef6c00" stroke-width="4" points="281.51,-44.79 291.62,-41.6 281.73,-37.79 281.51,-44.79"/>
<text text-anchor="middle" x="213" y="-83.8" font-family="Helvetica,sans-Serif" font-size="9.00">LearningAgent</text>
<text text-anchor="middle" x="213" y="-73.8" font-family="Helvetica,sans-Serif" font-size="9.00">create_agent</text>
<text text-anchor="middle" x="213" y="-63.8" font-family="Helvetica,sans-Serif" font-size="9.00">DomainAgent</text>
<text text-anchor="middle" x="213" y="-53.8" font-family="Helvetica,sans-Serif" font-size="9.00">CognitiveAdapter</text>
<text text-anchor="middle" x="213" y="-43.8" font-family="Helvetica,sans-Serif" font-size="9.00">+8 more (37 refs)</text>
</g>
<!-- goal_gen -->
<g id="node11" class="node">
<title>goal_gen</title>
<path fill="#ffcc80" stroke="black" d="M119.5,-202C119.5,-202 30.5,-202 30.5,-202 24.5,-202 18.5,-196 18.5,-190 18.5,-190 18.5,-176 18.5,-176 18.5,-170 24.5,-164 30.5,-164 30.5,-164 119.5,-164 119.5,-164 125.5,-164 131.5,-170 131.5,-176 131.5,-176 131.5,-190 131.5,-190 131.5,-196 125.5,-202 119.5,-202"/>
<text text-anchor="middle" x="75" y="-186.8" font-family="Helvetica,sans-Serif" font-size="14.00">goal_agent_gen</text>
<text text-anchor="middle" x="75" y="-171.8" font-family="Helvetica,sans-Serif" font-size="14.00">36 symbols</text>
</g>
<!-- goal_gen&#45;&gt;launcher -->
<g id="edge10" class="edge">
<title>goal_gen&#45;&gt;launcher</title>
<path fill="none" stroke="black" d="M100.94,-202.07C139.68,-233.21 213.53,-298.97 249,-373 292.54,-463.87 230.44,-511.65 284,-597 286.57,-601.09 289.77,-604.84 293.32,-608.26"/>
<polygon fill="black" stroke="black" points="291.13,-611 301.01,-614.81 295.66,-605.66 291.13,-611"/>
<text text-anchor="middle" x="213" y="-375.8" font-family="Helvetica,sans-Serif" font-size="9.00">AutoMode</text>
</g>
<!-- meta -->
<g id="node12" class="node">
<title>meta</title>
<path fill="#ffcc80" stroke="black" d="M121.5,-128C121.5,-128 28.5,-128 28.5,-128 22.5,-128 16.5,-122 16.5,-116 16.5,-116 16.5,-102 16.5,-102 16.5,-96 22.5,-90 28.5,-90 28.5,-90 121.5,-90 121.5,-90 127.5,-90 133.5,-96 133.5,-102 133.5,-102 133.5,-116 133.5,-116 133.5,-122 127.5,-128 121.5,-128"/>
<text text-anchor="middle" x="75" y="-112.8" font-family="Helvetica,sans-Serif" font-size="14.00">meta_delegation</text>
<text text-anchor="middle" x="75" y="-97.8" font-family="Helvetica,sans-Serif" font-size="14.00">30 symbols</text>
</g>
<!-- utils -->
<g id="node15" class="node">
<title>utils</title>
<path fill="#ef9a9a" stroke="black" d="M641,-132C641,-132 579,-132 579,-132 573,-132 567,-126 567,-120 567,-120 567,-106 567,-106 567,-100 573,-94 579,-94 579,-94 641,-94 641,-94 647,-94 653,-100 653,-106 653,-106 653,-120 653,-120 653,-126 647,-132 641,-132"/>
<text text-anchor="middle" x="610" y="-116.8" font-family="Helvetica,sans-Serif" font-size="14.00">utils</text>
<text text-anchor="middle" x="610" y="-101.8" font-family="Helvetica,sans-Serif" font-size="14.00">81 symbols</text>
</g>
<!-- meta&#45;&gt;utils -->
<g id="edge11" class="edge">
<title>meta&#45;&gt;utils</title>
<path fill="none" stroke="black" d="M133.55,-109.43C237.8,-110.21 456.38,-111.85 556.68,-112.61"/>
<polygon fill="black" stroke="black" points="556.84,-116.11 566.87,-112.68 556.9,-109.11 556.84,-116.11"/>
<text text-anchor="middle" x="338.5" y="-114.8" font-family="Helvetica,sans-Serif" font-size="9.00">get_agent_binary</text>
</g>
<!-- settings_gen -->
<g id="node16" class="node">
<title>settings_gen</title>
<path fill="#ef9a9a" stroke="black" d="M899,-148C899,-148 830,-148 830,-148 824,-148 818,-142 818,-136 818,-136 818,-124 818,-124 818,-118 824,-112 830,-112 830,-112 899,-112 899,-112 905,-112 911,-118 911,-124 911,-124 911,-136 911,-136 911,-142 905,-148 899,-148"/>
<text text-anchor="middle" x="864.5" y="-126.3" font-family="Helvetica,sans-Serif" font-size="14.00">settings_gen</text>
</g>
<!-- utils&#45;&gt;settings_gen -->
<g id="edge12" class="edge">
<title>utils&#45;&gt;settings_gen</title>
<path fill="none" stroke="black" d="M653.26,-115.85C695.55,-118.69 760.85,-123.09 807.44,-126.23"/>
<polygon fill="black" stroke="black" points="807.47,-129.74 817.68,-126.91 807.94,-122.75 807.47,-129.74"/>
<text text-anchor="middle" x="733.5" y="-126.8" font-family="Helvetica,sans-Serif" font-size="9.00">write_json_atomic</text>
</g>
<!-- workflows -->
<g id="node18" class="node">
<title>workflows</title>
<path fill="#ef9a9a" stroke="black" d="M636,-276C636,-276 584,-276 584,-276 578,-276 572,-270 572,-264 572,-264 572,-252 572,-252 572,-246 578,-240 584,-240 584,-240 636,-240 636,-240 642,-240 648,-246 648,-252 648,-252 648,-264 648,-264 648,-270 642,-276 636,-276"/>
<text text-anchor="middle" x="610" y="-254.3" font-family="Helvetica,sans-Serif" font-size="14.00">workflows</text>
</g>
<!-- workflows&#45;&gt;recipes -->
<g id="edge9" class="edge">
<title>workflows&#45;&gt;recipes</title>
<path fill="none" stroke="black" d="M576.56,-276.14C569.92,-281.16 563.57,-287.15 559,-294 521.22,-350.57 572.14,-394.94 524,-443 489.56,-477.38 433.3,-486.38 391.94,-487.86"/>
<polygon fill="black" stroke="black" points="391.69,-484.36 381.77,-488.08 391.85,-491.36 391.69,-484.36"/>
<text text-anchor="middle" x="476" y="-486.8" font-family="Helvetica,sans-Serif" font-size="9.00">run_recipe_by_name</text>
</g>
</g>
</svg>
