<?xml version="1.0" encoding="UTF-8" standalone="no"?>
<!DOCTYPE svg PUBLIC "-//W3C//DTD SVG 1.1//EN"
 "http://www.w3.org/Graphics/SVG/1.1/DTD/svg11.dtd">
<!-- Generated by graphviz version 2.42.4 (0)
 -->
<!-- Title: repo_surface Pages: 1 -->
<svg width="4136pt" height="322pt"
 viewBox="0.00 0.00 4136.00 322.00" xmlns="http://www.w3.org/2000/svg" xmlns:xlink="http://www.w3.org/1999/xlink">
<g id="graph0" class="graph" transform="scale(1 1) rotate(0) translate(4 318)">
<title>repo_surface</title>
<polygon fill="white" stroke="transparent" points="-4,4 -4,-318 4132,-318 4132,4 -4,4"/>
<g id="clust1" class="cluster">
<title>cluster_root</title>
<polygon fill="none" stroke="#999999" stroke-dasharray="5,2" points="2372,-229 2372,-306 2994,-306 2994,-229 2372,-229"/>
<text text-anchor="middle" x="2683" y="-290.8" font-family="Helvetica,sans-Serif" font-size="14.00" fill="#333333">Root Config Files</text>
</g>
<g id="clust2" class="cluster">
<title>cluster_src_core</title>
<polygon fill="#f0f8e8" stroke="#88aa55" points="2482,-104 2482,-196 2983,-196 2983,-104 2482,-104"/>
<text text-anchor="middle" x="2732.5" y="-180.8" font-family="Helvetica,sans-Serif" font-size="14.00">src/amplihack/ — Core</text>
</g>
<g id="clust3" class="cluster">
<title>cluster_src_sub</title>
<polygon fill="#fff8e1" stroke="#f9a825" points="8,-8 8,-85 3367,-85 3367,-8 8,-8"/>
<text text-anchor="middle" x="1687.5" y="-69.8" font-family="Helvetica,sans-Serif" font-size="14.00">src/amplihack/ — Subpackages</text>
</g>
<g id="clust4" class="cluster">
<title>cluster_support</title>
<polygon fill="none" stroke="#999999" stroke-dasharray="5,2" points="3002,-229 3002,-306 4120,-306 4120,-229 3002,-229"/>
<text text-anchor="middle" x="3561" y="-290.8" font-family="Helvetica,sans-Serif" font-size="14.00">Support Directories</text>
</g>
<!-- pyproject -->
<g id="node1" class="node">
<title>pyproject</title>
<path fill="#e8f4fd" stroke="black" d="M2974,-275C2974,-275 2856,-275 2856,-275 2850,-275 2844,-269 2844,-263 2844,-263 2844,-249 2844,-249 2844,-243 2850,-237 2856,-237 2856,-237 2974,-237 2974,-237 2980,-237 2986,-243 2986,-249 2986,-249 2986,-263 2986,-263 2986,-269 2980,-275 2974,-275"/>
<text text-anchor="middle" x="2915" y="-259.8" font-family="Helvetica,sans-Serif" font-size="14.00">pyproject.toml</text>
<text text-anchor="middle" x="2915" y="-244.8" font-family="Helvetica,sans-Serif" font-size="14.00">Build config, 57 deps</text>
</g>
<!-- cli -->
<g id="node6" class="node">
<title>cli</title>
<path fill="#c8e6c9" stroke="black" d="M2962.5,-165C2962.5,-165 2867.5,-165 2867.5,-165 2861.5,-165 2855.5,-159 2855.5,-153 2855.5,-153 2855.5,-124 2855.5,-124 2855.5,-118 2861.5,-112 2867.5,-112 2867.5,-112 2962.5,-112 2962.5,-112 2968.5,-112 2974.5,-118 2974.5,-124 2974.5,-124 2974.5,-153 2974.5,-153 2974.5,-159 2968.5,-165 2962.5,-165"/>
<text text-anchor="middle" x="2915" y="-149.8" font-family="Helvetica,sans-Serif" font-size="14.00">cli.py</text>
<text text-anchor="middle" x="2915" y="-134.8" font-family="Helvetica,sans-Serif" font-size="14.00">cli_extensions.py</text>
<text text-anchor="middle" x="2915" y="-119.8" font-family="Helvetica,sans-Serif" font-size="14.00">CLI entry point</text>
</g>
<!-- pyproject&#45;&gt;cli -->
<g id="edge1" class="edge">
<title>pyproject&#45;&gt;cli</title>
<path fill="none" stroke="#666666" stroke-dasharray="5,2" d="M2915,-236.95C2915,-220.53 2915,-195.8 2915,-175.36"/>
<polygon fill="#666666" stroke="#666666" points="2918.5,-175.13 2915,-165.13 2911.5,-175.13 2918.5,-175.13"/>
<text text-anchor="middle" x="2945" y="-207.8" font-family="Times,serif" font-size="14.00">entry point</text>
</g>
<!-- makefile -->
<g id="node2" class="node">
<title>makefile</title>
<path fill="#e8f4fd" stroke="black" d="M2814,-274C2814,-274 2770,-274 2770,-274 2764,-274 2758,-268 2758,-262 2758,-262 2758,-250 2758,-250 2758,-244 2764,-238 2770,-238 2770,-238 2814,-238 2814,-238 2820,-238 2826,-244 2826,-250 2826,-250 2826,-262 2826,-262 2826,-268 2820,-274 2814,-274"/>
<text text-anchor="middle" x="2792" y="-252.3" font-family="Helvetica,sans-Serif" font-size="14.00">Makefile</text>
</g>
<!-- dockerfile -->
<g id="node3" class="node">
<title>dockerfile</title>
<path fill="#e8f4fd" stroke="black" d="M2728,-275C2728,-275 2634,-275 2634,-275 2628,-275 2622,-269 2622,-263 2622,-263 2622,-249 2622,-249 2622,-243 2628,-237 2634,-237 2634,-237 2728,-237 2728,-237 2734,-237 2740,-243 2740,-249 2740,-249 2740,-263 2740,-263 2740,-269 2734,-275 2728,-275"/>
<text text-anchor="middle" x="2681" y="-259.8" font-family="Helvetica,sans-Serif" font-size="14.00">Dockerfile</text>
<text text-anchor="middle" x="2681" y="-244.8" font-family="Helvetica,sans-Serif" font-size="14.00">Python 3.12&#45;slim</text>
</g>
<!-- claudemd -->
<g id="node4" class="node">
<title>claudemd</title>
<path fill="#e8f4fd" stroke="black" d="M2592,-275C2592,-275 2492,-275 2492,-275 2486,-275 2480,-269 2480,-263 2480,-263 2480,-249 2480,-249 2480,-243 2486,-237 2492,-237 2492,-237 2592,-237 2592,-237 2598,-237 2604,-243 2604,-249 2604,-249 2604,-263 2604,-263 2604,-269 2598,-275 2592,-275"/>
<text text-anchor="middle" x="2542" y="-259.8" font-family="Helvetica,sans-Serif" font-size="14.00">CLAUDE.md</text>
<text text-anchor="middle" x="2542" y="-244.8" font-family="Helvetica,sans-Serif" font-size="14.00">Agent instructions</text>
</g>
<!-- conftest -->
<g id="node5" class="node">
<title>conftest</title>
<path fill="#e8f4fd" stroke="black" d="M2450,-275C2450,-275 2392,-275 2392,-275 2386,-275 2380,-269 2380,-263 2380,-263 2380,-249 2380,-249 2380,-243 2386,-237 2392,-237 2392,-237 2450,-237 2450,-237 2456,-237 2462,-243 2462,-249 2462,-249 2462,-263 2462,-263 2462,-269 2456,-275 2450,-275"/>
<text text-anchor="middle" x="2421" y="-259.8" font-family="Helvetica,sans-Serif" font-size="14.00">conftest.py</text>
<text text-anchor="middle" x="2421" y="-244.8" font-family="Helvetica,sans-Serif" font-size="14.00">pytest.ini</text>
</g>
<!-- launcher -->
<g id="node10" class="node">
<title>launcher</title>
<path fill="#e8f4fd" stroke="black" d="M929.5,-54C929.5,-54 792.5,-54 792.5,-54 786.5,-54 780.5,-48 780.5,-42 780.5,-42 780.5,-28 780.5,-28 780.5,-22 786.5,-16 792.5,-16 792.5,-16 929.5,-16 929.5,-16 935.5,-16 941.5,-22 941.5,-28 941.5,-28 941.5,-42 941.5,-42 941.5,-48 935.5,-54 929.5,-54"/>
<text text-anchor="middle" x="861" y="-38.8" font-family="Helvetica,sans-Serif" font-size="14.00">launcher/</text>
<text text-anchor="middle" x="861" y="-23.8" font-family="Helvetica,sans-Serif" font-size="14.00">Claude/Copilot launcher</text>
</g>
<!-- cli&#45;&gt;launcher -->
<g id="edge2" class="edge">
<title>cli&#45;&gt;launcher</title>
<path fill="none" stroke="#666666" d="M2869.96,-111.88C2862.5,-108.64 2854.68,-105.83 2847,-104 2744.53,-79.59 1052.95,-111.5 951,-85 931.24,-79.86 911.11,-69.49 894.92,-59.6"/>
<polygon fill="#666666" stroke="#666666" points="896.68,-56.57 886.35,-54.19 892.94,-62.49 896.68,-56.57"/>
</g>
<!-- proxy -->
<g id="node11" class="node">
<title>proxy</title>
<path fill="#e8f4fd" stroke="black" d="M2130.5,-54C2130.5,-54 2029.5,-54 2029.5,-54 2023.5,-54 2017.5,-48 2017.5,-42 2017.5,-42 2017.5,-28 2017.5,-28 2017.5,-22 2023.5,-16 2029.5,-16 2029.5,-16 2130.5,-16 2130.5,-16 2136.5,-16 2142.5,-22 2142.5,-28 2142.5,-28 2142.5,-42 2142.5,-42 2142.5,-48 2136.5,-54 2130.5,-54"/>
<text text-anchor="middle" x="2080" y="-38.8" font-family="Helvetica,sans-Serif" font-size="14.00">proxy/</text>
<text text-anchor="middle" x="2080" y="-23.8" font-family="Helvetica,sans-Serif" font-size="14.00">LLM proxy (Flask)</text>
</g>
<!-- cli&#45;&gt;proxy -->
<g id="edge3" class="edge">
<title>cli&#45;&gt;proxy</title>
<path fill="none" stroke="#666666" d="M2869.93,-111.99C2862.47,-108.74 2854.67,-105.9 2847,-104 2697.02,-66.89 2299.02,-132.49 2152,-85 2136.1,-79.86 2120.51,-70.03 2107.93,-60.52"/>
<polygon fill="#666666" stroke="#666666" points="2109.75,-57.49 2099.73,-54.04 2105.41,-62.98 2109.75,-57.49"/>
</g>
<!-- fleet -->
<g id="node12" class="node">
<title>fleet</title>
<path fill="#e8f4fd" stroke="black" d="M2897,-54C2897,-54 2769,-54 2769,-54 2763,-54 2757,-48 2757,-42 2757,-42 2757,-28 2757,-28 2757,-22 2763,-16 2769,-16 2769,-16 2897,-16 2897,-16 2903,-16 2909,-22 2909,-28 2909,-28 2909,-42 2909,-42 2909,-48 2903,-54 2897,-54"/>
<text text-anchor="middle" x="2833" y="-38.8" font-family="Helvetica,sans-Serif" font-size="14.00">fleet/</text>
<text text-anchor="middle" x="2833" y="-23.8" font-family="Helvetica,sans-Serif" font-size="14.00">Multi&#45;agent fleet mgmt</text>
</g>
<!-- cli&#45;&gt;fleet -->
<g id="edge4" class="edge">
<title>cli&#45;&gt;fleet</title>
<path fill="none" stroke="#666666" d="M2894.31,-111.89C2882.06,-96.72 2866.57,-77.56 2854.23,-62.28"/>
<polygon fill="#666666" stroke="#666666" points="2856.74,-59.82 2847.74,-54.24 2851.3,-64.22 2856.74,-59.82"/>
</g>
<!-- recipes -->
<g id="node13" class="node">
<title>recipes</title>
<path fill="#e8f4fd" stroke="black" d="M3055,-54C3055,-54 2939,-54 2939,-54 2933,-54 2927,-48 2927,-42 2927,-42 2927,-28 2927,-28 2927,-22 2933,-16 2939,-16 2939,-16 3055,-16 3055,-16 3061,-16 3067,-22 3067,-28 3067,-28 3067,-42 3067,-42 3067,-48 3061,-54 3055,-54"/>
<text text-anchor="middle" x="2997" y="-38.8" font-family="Helvetica,sans-Serif" font-size="14.00">recipes/ + recipe_cli/</text>
<text text-anchor="middle" x="2997" y="-23.8" font-family="Helvetica,sans-Serif" font-size="14.00">Recipe engine</text>
</g>
<!-- cli&#45;&gt;recipes -->
<g id="edge5" class="edge">
<title>cli&#45;&gt;recipes</title>
<path fill="none" stroke="#666666" d="M2935.69,-111.89C2947.94,-96.72 2963.43,-77.56 2975.77,-62.28"/>
<polygon fill="#666666" stroke="#666666" points="2978.7,-64.22 2982.26,-54.24 2973.26,-59.82 2978.7,-64.22"/>
</g>
<!-- bundle -->
<g id="node18" class="node">
<title>bundle</title>
<path fill="#e8f4fd" stroke="black" d="M3211,-54C3211,-54 3097,-54 3097,-54 3091,-54 3085,-48 3085,-42 3085,-42 3085,-28 3085,-28 3085,-22 3091,-16 3097,-16 3097,-16 3211,-16 3211,-16 3217,-16 3223,-22 3223,-28 3223,-28 3223,-42 3223,-42 3223,-48 3217,-54 3211,-54"/>
<text text-anchor="middle" x="3154" y="-38.8" font-family="Helvetica,sans-Serif" font-size="14.00">bundle_generator/</text>
<text text-anchor="middle" x="3154" y="-23.8" font-family="Helvetica,sans-Serif" font-size="14.00">Package distribution</text>
</g>
<!-- cli&#45;&gt;bundle -->
<g id="edge6" class="edge">
<title>cli&#45;&gt;bundle</title>
<path fill="none" stroke="#666666" d="M2974.84,-121.8C3005.74,-112.75 3043.65,-100.15 3076,-85 3091.09,-77.93 3106.81,-68.5 3120.16,-59.8"/>
<polygon fill="#666666" stroke="#666666" points="3122.16,-62.67 3128.55,-54.22 3118.29,-56.84 3122.16,-62.67"/>
</g>
<!-- plugin -->
<g id="node28" class="node">
<title>plugin</title>
<path fill="#e8f4fd" stroke="black" d="M3347,-54C3347,-54 3253,-54 3253,-54 3247,-54 3241,-48 3241,-42 3241,-42 3241,-28 3241,-28 3241,-22 3247,-16 3253,-16 3253,-16 3347,-16 3347,-16 3353,-16 3359,-22 3359,-28 3359,-28 3359,-42 3359,-42 3359,-48 3353,-54 3347,-54"/>
<text text-anchor="middle" x="3300" y="-38.8" font-family="Helvetica,sans-Serif" font-size="14.00">plugin_manager/</text>
<text text-anchor="middle" x="3300" y="-23.8" font-family="Helvetica,sans-Serif" font-size="14.00">plugin_cli/</text>
</g>
<!-- cli&#45;&gt;plugin -->
<g id="edge7" class="edge">
<title>cli&#45;&gt;plugin</title>
<path fill="none" stroke="#666666" d="M2974.77,-135.7C3040.22,-131.91 3147.15,-120.3 3232,-85 3246.27,-79.06 3260.41,-69.62 3272.06,-60.6"/>
<polygon fill="#666666" stroke="#666666" points="3274.47,-63.15 3280.08,-54.16 3270.09,-57.69 3274.47,-63.15"/>
</g>
<!-- init -->
<g id="node7" class="node">
<title>init</title>
<path fill="#c8e6c9" stroke="black" d="M2825.5,-165C2825.5,-165 2754.5,-165 2754.5,-165 2748.5,-165 2742.5,-159 2742.5,-153 2742.5,-153 2742.5,-124 2742.5,-124 2742.5,-118 2748.5,-112 2754.5,-112 2754.5,-112 2825.5,-112 2825.5,-112 2831.5,-112 2837.5,-118 2837.5,-124 2837.5,-124 2837.5,-153 2837.5,-153 2837.5,-159 2831.5,-165 2825.5,-165"/>
<text text-anchor="middle" x="2790" y="-149.8" font-family="Helvetica,sans-Serif" font-size="14.00">__init__.py</text>
<text text-anchor="middle" x="2790" y="-134.8" font-family="Helvetica,sans-Serif" font-size="14.00">__main__.py</text>
<text text-anchor="middle" x="2790" y="-119.8" font-family="Helvetica,sans-Serif" font-size="14.00">Package init</text>
</g>
<!-- settings -->
<g id="node8" class="node">
<title>settings</title>
<path fill="#c8e6c9" stroke="black" d="M2712,-165C2712,-165 2604,-165 2604,-165 2598,-165 2592,-159 2592,-153 2592,-153 2592,-124 2592,-124 2592,-118 2598,-112 2604,-112 2604,-112 2712,-112 2712,-112 2718,-112 2724,-118 2724,-124 2724,-124 2724,-153 2724,-153 2724,-159 2718,-165 2712,-165"/>
<text text-anchor="middle" x="2658" y="-149.8" font-family="Helvetica,sans-Serif" font-size="14.00">settings.py</text>
<text text-anchor="middle" x="2658" y="-134.8" font-family="Helvetica,sans-Serif" font-size="14.00">settings_generator/</text>
<text text-anchor="middle" x="2658" y="-119.8" font-family="Helvetica,sans-Serif" font-size="14.00">Configuration</text>
</g>
<!-- install -->
<g id="node9" class="node">
<title>install</title>
<path fill="#c8e6c9" stroke="black" d="M2562,-157.5C2562,-157.5 2502,-157.5 2502,-157.5 2496,-157.5 2490,-151.5 2490,-145.5 2490,-145.5 2490,-131.5 2490,-131.5 2490,-125.5 2496,-119.5 2502,-119.5 2502,-119.5 2562,-119.5 2562,-119.5 2568,-119.5 2574,-125.5 2574,-131.5 2574,-131.5 2574,-145.5 2574,-145.5 2574,-151.5 2568,-157.5 2562,-157.5"/>
<text text-anchor="middle" x="2532" y="-142.3" font-family="Helvetica,sans-Serif" font-size="14.00">install.py</text>
<text text-anchor="middle" x="2532" y="-127.3" font-family="Helvetica,sans-Serif" font-size="14.00">uninstall.py</text>
</g>
<!-- memory -->
<g id="node14" class="node">
<title>memory</title>
<path fill="#e8f4fd" stroke="black" d="M2726.5,-54C2726.5,-54 2601.5,-54 2601.5,-54 2595.5,-54 2589.5,-48 2589.5,-42 2589.5,-42 2589.5,-28 2589.5,-28 2589.5,-22 2595.5,-16 2601.5,-16 2601.5,-16 2726.5,-16 2726.5,-16 2732.5,-16 2738.5,-22 2738.5,-28 2738.5,-28 2738.5,-42 2738.5,-42 2738.5,-48 2732.5,-54 2726.5,-54"/>
<text text-anchor="middle" x="2664" y="-38.8" font-family="Helvetica,sans-Serif" font-size="14.00">memory/</text>
<text text-anchor="middle" x="2664" y="-23.8" font-family="Helvetica,sans-Serif" font-size="14.00">Discovery persistence</text>
</g>
<!-- security -->
<g id="node15" class="node">
<title>security</title>
<path fill="#e8f4fd" stroke="black" d="M2559.5,-54C2559.5,-54 2458.5,-54 2458.5,-54 2452.5,-54 2446.5,-48 2446.5,-42 2446.5,-42 2446.5,-28 2446.5,-28 2446.5,-22 2452.5,-16 2458.5,-16 2458.5,-16 2559.5,-16 2559.5,-16 2565.5,-16 2571.5,-22 2571.5,-28 2571.5,-28 2571.5,-42 2571.5,-42 2571.5,-48 2565.5,-54 2559.5,-54"/>
<text text-anchor="middle" x="2509" y="-38.8" font-family="Helvetica,sans-Serif" font-size="14.00">security/</text>
<text text-anchor="middle" x="2509" y="-23.8" font-family="Helvetica,sans-Serif" font-size="14.00">Safety &amp; scanning</text>
</g>
<!-- eval_pkg -->
<g id="node16" class="node">
<title>eval_pkg</title>
<path fill="#e8f4fd" stroke="black" d="M2416.5,-54C2416.5,-54 2323.5,-54 2323.5,-54 2317.5,-54 2311.5,-48 2311.5,-42 2311.5,-42 2311.5,-28 2311.5,-28 2311.5,-22 2317.5,-16 2323.5,-16 2323.5,-16 2416.5,-16 2416.5,-16 2422.5,-16 2428.5,-22 2428.5,-28 2428.5,-28 2428.5,-42 2428.5,-42 2428.5,-48 2422.5,-54 2416.5,-54"/>
<text text-anchor="middle" x="2370" y="-38.8" font-family="Helvetica,sans-Serif" font-size="14.00">eval/</text>
<text text-anchor="middle" x="2370" y="-23.8" font-family="Helvetica,sans-Serif" font-size="14.00">Agent evaluation</text>
</g>
<!-- knowledge -->
<g id="node17" class="node">
<title>knowledge</title>
<path fill="#e8f4fd" stroke="black" d="M2281.5,-54C2281.5,-54 2172.5,-54 2172.5,-54 2166.5,-54 2160.5,-48 2160.5,-42 2160.5,-42 2160.5,-28 2160.5,-28 2160.5,-22 2166.5,-16 2172.5,-16 2172.5,-16 2281.5,-16 2281.5,-16 2287.5,-16 2293.5,-22 2293.5,-28 2293.5,-28 2293.5,-42 2293.5,-42 2293.5,-48 2287.5,-54 2281.5,-54"/>
<text text-anchor="middle" x="2227" y="-38.8" font-family="Helvetica,sans-Serif" font-size="14.00">knowledge_builder/</text>
<text text-anchor="middle" x="2227" y="-23.8" font-family="Helvetica,sans-Serif" font-size="14.00">Knowledge graph</text>
</g>
<!-- hooks -->
<g id="node19" class="node">
<title>hooks</title>
<path fill="#e8f4fd" stroke="black" d="M1987,-54C1987,-54 1937,-54 1937,-54 1931,-54 1925,-48 1925,-42 1925,-42 1925,-28 1925,-28 1925,-22 1931,-16 1937,-16 1937,-16 1987,-16 1987,-16 1993,-16 1999,-22 1999,-28 1999,-28 1999,-42 1999,-42 1999,-48 1993,-54 1987,-54"/>
<text text-anchor="middle" x="1962" y="-38.8" font-family="Helvetica,sans-Serif" font-size="14.00">hooks/</text>
<text text-anchor="middle" x="1962" y="-23.8" font-family="Helvetica,sans-Serif" font-size="14.00">Git hooks</text>
</g>
<!-- utils -->
<g id="node20" class="node">
<title>utils</title>
<path fill="#e8f4fd" stroke="black" d="M1894.5,-54C1894.5,-54 1813.5,-54 1813.5,-54 1807.5,-54 1801.5,-48 1801.5,-42 1801.5,-42 1801.5,-28 1801.5,-28 1801.5,-22 1807.5,-16 1813.5,-16 1813.5,-16 1894.5,-16 1894.5,-16 1900.5,-16 1906.5,-22 1906.5,-28 1906.5,-28 1906.5,-42 1906.5,-42 1906.5,-48 1900.5,-54 1894.5,-54"/>
<text text-anchor="middle" x="1854" y="-38.8" font-family="Helvetica,sans-Serif" font-size="14.00">utils/</text>
<text text-anchor="middle" x="1854" y="-23.8" font-family="Helvetica,sans-Serif" font-size="14.00">Shared utilities</text>
</g>
<!-- vendor -->
<g id="node21" class="node">
<title>vendor</title>
<path fill="#e8f4fd" stroke="black" d="M1771.5,-54C1771.5,-54 1660.5,-54 1660.5,-54 1654.5,-54 1648.5,-48 1648.5,-42 1648.5,-42 1648.5,-28 1648.5,-28 1648.5,-22 1654.5,-16 1660.5,-16 1660.5,-16 1771.5,-16 1771.5,-16 1777.5,-16 1783.5,-22 1783.5,-28 1783.5,-28 1783.5,-42 1783.5,-42 1783.5,-48 1777.5,-54 1771.5,-54"/>
<text text-anchor="middle" x="1716" y="-38.8" font-family="Helvetica,sans-Serif" font-size="14.00">vendor/blarify/</text>
<text text-anchor="middle" x="1716" y="-23.8" font-family="Helvetica,sans-Serif" font-size="14.00">Code graph indexer</text>
</g>
<!-- lsp -->
<g id="node22" class="node">
<title>lsp</title>
<path fill="#e8f4fd" stroke="black" d="M1618,-53C1618,-53 1548,-53 1548,-53 1542,-53 1536,-47 1536,-41 1536,-41 1536,-29 1536,-29 1536,-23 1542,-17 1548,-17 1548,-17 1618,-17 1618,-17 1624,-17 1630,-23 1630,-29 1630,-29 1630,-41 1630,-41 1630,-47 1624,-53 1618,-53"/>
<text text-anchor="middle" x="1583" y="-31.3" font-family="Helvetica,sans-Serif" font-size="14.00">lsp_detector/</text>
</g>
<!-- uvx -->
<g id="node23" class="node">
<title>uvx</title>
<path fill="#e8f4fd" stroke="black" d="M1506,-54C1506,-54 1420,-54 1420,-54 1414,-54 1408,-48 1408,-42 1408,-42 1408,-28 1408,-28 1408,-22 1414,-16 1420,-16 1420,-16 1506,-16 1506,-16 1512,-16 1518,-22 1518,-28 1518,-28 1518,-42 1518,-42 1518,-48 1512,-54 1506,-54"/>
<text text-anchor="middle" x="1463" y="-38.8" font-family="Helvetica,sans-Serif" font-size="14.00">uvx/</text>
<text text-anchor="middle" x="1463" y="-23.8" font-family="Helvetica,sans-Serif" font-size="14.00">UVX packaging</text>
</g>
<!-- docker_pkg -->
<g id="node24" class="node">
<title>docker_pkg</title>
<path fill="#e8f4fd" stroke="black" d="M1378,-54C1378,-54 1284,-54 1284,-54 1278,-54 1272,-48 1272,-42 1272,-42 1272,-28 1272,-28 1272,-22 1278,-16 1284,-16 1284,-16 1378,-16 1378,-16 1384,-16 1390,-22 1390,-28 1390,-28 1390,-42 1390,-42 1390,-48 1384,-54 1378,-54"/>
<text text-anchor="middle" x="1331" y="-38.8" font-family="Helvetica,sans-Serif" font-size="14.00">docker/</text>
<text text-anchor="middle" x="1331" y="-23.8" font-family="Helvetica,sans-Serif" font-size="14.00">Docker detection</text>
</g>
<!-- tracing -->
<g id="node25" class="node">
<title>tracing</title>
<path fill="#e8f4fd" stroke="black" d="M1241.5,-53C1241.5,-53 1204.5,-53 1204.5,-53 1198.5,-53 1192.5,-47 1192.5,-41 1192.5,-41 1192.5,-29 1192.5,-29 1192.5,-23 1198.5,-17 1204.5,-17 1204.5,-17 1241.5,-17 1241.5,-17 1247.5,-17 1253.5,-23 1253.5,-29 1253.5,-29 1253.5,-41 1253.5,-41 1253.5,-47 1247.5,-53 1241.5,-53"/>
<text text-anchor="middle" x="1223" y="-31.3" font-family="Helvetica,sans-Serif" font-size="14.00">tracing/</text>
</g>
<!-- context -->
<g id="node26" class="node">
<title>context</title>
<path fill="#e8f4fd" stroke="black" d="M1162,-54C1162,-54 1070,-54 1070,-54 1064,-54 1058,-48 1058,-42 1058,-42 1058,-28 1058,-28 1058,-22 1064,-16 1070,-16 1070,-16 1162,-16 1162,-16 1168,-16 1174,-22 1174,-28 1174,-28 1174,-42 1174,-42 1174,-48 1168,-54 1162,-54"/>
<text text-anchor="middle" x="1116" y="-38.8" font-family="Helvetica,sans-Serif" font-size="14.00">context/</text>
<text text-anchor="middle" x="1116" y="-23.8" font-family="Helvetica,sans-Serif" font-size="14.00">Adaptive context</text>
</g>
<!-- workflows -->
<g id="node27" class="node">
<title>workflows</title>
<path fill="#e8f4fd" stroke="black" d="M1028,-53C1028,-53 972,-53 972,-53 966,-53 960,-47 960,-41 960,-41 960,-29 960,-29 960,-23 966,-17 972,-17 972,-17 1028,-17 1028,-17 1034,-17 1040,-23 1040,-29 1040,-29 1040,-41 1040,-41 1040,-47 1034,-53 1028,-53"/>
<text text-anchor="middle" x="1000" y="-31.3" font-family="Helvetica,sans-Serif" font-size="14.00">workflows/</text>
</g>
<!-- power -->
<g id="node29" class="node">
<title>power</title>
<path fill="#e8f4fd" stroke="black" d="M750.5,-53C750.5,-53 661.5,-53 661.5,-53 655.5,-53 649.5,-47 649.5,-41 649.5,-41 649.5,-29 649.5,-29 649.5,-23 655.5,-17 661.5,-17 661.5,-17 750.5,-17 750.5,-17 756.5,-17 762.5,-23 762.5,-29 762.5,-29 762.5,-41 762.5,-41 762.5,-47 756.5,-53 750.5,-53"/>
<text text-anchor="middle" x="706" y="-31.3" font-family="Helvetica,sans-Serif" font-size="14.00">power_steering/</text>
</g>
<!-- safety -->
<g id="node30" class="node">
<title>safety</title>
<path fill="#e8f4fd" stroke="black" d="M619,-53C619,-53 587,-53 587,-53 581,-53 575,-47 575,-41 575,-41 575,-29 575,-29 575,-23 581,-17 587,-17 587,-17 619,-17 619,-17 625,-17 631,-23 631,-29 631,-29 631,-41 631,-41 631,-47 625,-53 619,-53"/>
<text text-anchor="middle" x="603" y="-31.3" font-family="Helvetica,sans-Serif" font-size="14.00">safety/</text>
</g>
<!-- meta -->
<g id="node31" class="node">
<title>meta</title>
<path fill="#e8f4fd" stroke="black" d="M544.5,-53C544.5,-53 447.5,-53 447.5,-53 441.5,-53 435.5,-47 435.5,-41 435.5,-41 435.5,-29 435.5,-29 435.5,-23 441.5,-17 447.5,-17 447.5,-17 544.5,-17 544.5,-17 550.5,-17 556.5,-23 556.5,-29 556.5,-29 556.5,-41 556.5,-41 556.5,-47 550.5,-53 544.5,-53"/>
<text text-anchor="middle" x="496" y="-31.3" font-family="Helvetica,sans-Serif" font-size="14.00">meta_delegation/</text>
</g>
<!-- mode -->
<g id="node32" class="node">
<title>mode</title>
<path fill="#e8f4fd" stroke="black" d="M405.5,-53C405.5,-53 318.5,-53 318.5,-53 312.5,-53 306.5,-47 306.5,-41 306.5,-41 306.5,-29 306.5,-29 306.5,-23 312.5,-17 318.5,-17 318.5,-17 405.5,-17 405.5,-17 411.5,-17 417.5,-23 417.5,-29 417.5,-29 417.5,-41 417.5,-41 417.5,-47 411.5,-53 405.5,-53"/>
<text text-anchor="middle" x="362" y="-31.3" font-family="Helvetica,sans-Serif" font-size="14.00">mode_detector/</text>
</g>
<!-- path_res -->
<g id="node33" class="node">
<title>path_res</title>
<path fill="#e8f4fd" stroke="black" d="M276,-53C276,-53 198,-53 198,-53 192,-53 186,-47 186,-41 186,-41 186,-29 186,-29 186,-23 192,-17 198,-17 198,-17 276,-17 276,-17 282,-17 288,-23 288,-29 288,-29 288,-41 288,-41 288,-47 282,-53 276,-53"/>
<text text-anchor="middle" x="237" y="-31.3" font-family="Helvetica,sans-Serif" font-size="14.00">path_resolver/</text>
</g>
<!-- goal -->
<g id="node34" class="node">
<title>goal</title>
<path fill="#e8f4fd" stroke="black" d="M156,-53C156,-53 28,-53 28,-53 22,-53 16,-47 16,-41 16,-41 16,-29 16,-29 16,-23 22,-17 28,-17 28,-17 156,-17 156,-17 162,-17 168,-23 168,-29 168,-29 168,-41 168,-41 168,-47 162,-53 156,-53"/>
<text text-anchor="middle" x="92" y="-31.3" font-family="Helvetica,sans-Serif" font-size="14.00">goal_agent_generator/</text>
</g>
<!-- tests -->
<g id="node35" class="node">
<title>tests</title>
<path fill="#e8f4fd" stroke="black" d="M4100,-275C4100,-275 3996,-275 3996,-275 3990,-275 3984,-269 3984,-263 3984,-263 3984,-249 3984,-249 3984,-243 3990,-237 3996,-237 3996,-237 4100,-237 4100,-237 4106,-237 4112,-243 4112,-249 4112,-249 4112,-263 4112,-263 4112,-269 4106,-275 4100,-275"/>
<text text-anchor="middle" x="4048" y="-259.8" font-family="Helvetica,sans-Serif" font-size="14.00">tests/</text>
<text text-anchor="middle" x="4048" y="-244.8" font-family="Helvetica,sans-Serif" font-size="14.00">Top&#45;level test suite</text>
</g>
<!-- scripts -->
<g id="node36" class="node">
<title>scripts</title>
<path fill="#e8f4fd" stroke="black" d="M3953.5,-274C3953.5,-274 3918.5,-274 3918.5,-274 3912.5,-274 3906.5,-268 3906.5,-262 3906.5,-262 3906.5,-250 3906.5,-250 3906.5,-244 3912.5,-238 3918.5,-238 3918.5,-238 3953.5,-238 3953.5,-238 3959.5,-238 3965.5,-244 3965.5,-250 3965.5,-250 3965.5,-262 3965.5,-262 3965.5,-268 3959.5,-274 3953.5,-274"/>
<text text-anchor="middle" x="3936" y="-252.3" font-family="Helvetica,sans-Serif" font-size="14.00">scripts/</text>
</g>
<!-- docs -->
<g id="node37" class="node">
<title>docs</title>
<path fill="#e8f4fd" stroke="black" d="M3876,-275C3876,-275 3834,-275 3834,-275 3828,-275 3822,-269 3822,-263 3822,-263 3822,-249 3822,-249 3822,-243 3828,-237 3834,-237 3834,-237 3876,-237 3876,-237 3882,-237 3888,-243 3888,-249 3888,-249 3888,-263 3888,-263 3888,-269 3882,-275 3876,-275"/>
<text text-anchor="middle" x="3855" y="-259.8" font-family="Helvetica,sans-Serif" font-size="14.00">docs/</text>
<text text-anchor="middle" x="3855" y="-244.8" font-family="Helvetica,sans-Serif" font-size="14.00">MkDocs</text>
</g>
<!-- specs -->
<g id="node38" class="node">
<title>specs</title>
<path fill="#e8f4fd" stroke="black" d="M3791.5,-275C3791.5,-275 3714.5,-275 3714.5,-275 3708.5,-275 3702.5,-269 3702.5,-263 3702.5,-263 3702.5,-249 3702.5,-249 3702.5,-243 3708.5,-237 3714.5,-237 3714.5,-237 3791.5,-237 3791.5,-237 3797.5,-237 3803.5,-243 3803.5,-249 3803.5,-249 3803.5,-263 3803.5,-263 3803.5,-269 3797.5,-275 3791.5,-275"/>
<text text-anchor="middle" x="3753" y="-259.8" font-family="Helvetica,sans-Serif" font-size="14.00">Specs/</text>
<text text-anchor="middle" x="3753" y="-244.8" font-family="Helvetica,sans-Serif" font-size="14.00">Module specs</text>
</g>
<!-- examples_dir -->
<g id="node39" class="node">
<title>examples_dir</title>
<path fill="#e8f4fd" stroke="black" d="M3672.5,-274C3672.5,-274 3617.5,-274 3617.5,-274 3611.5,-274 3605.5,-268 3605.5,-262 3605.5,-262 3605.5,-250 3605.5,-250 3605.5,-244 3611.5,-238 3617.5,-238 3617.5,-238 3672.5,-238 3672.5,-238 3678.5,-238 3684.5,-244 3684.5,-250 3684.5,-250 3684.5,-262 3684.5,-262 3684.5,-268 3678.5,-274 3672.5,-274"/>
<text text-anchor="middle" x="3645" y="-252.3" font-family="Helvetica,sans-Serif" font-size="14.00">examples/</text>
</g>
<!-- docker_dir -->
<g id="node40" class="node">
<title>docker_dir</title>
<path fill="#e8f4fd" stroke="black" d="M3575.5,-275C3575.5,-275 3456.5,-275 3456.5,-275 3450.5,-275 3444.5,-269 3444.5,-263 3444.5,-263 3444.5,-249 3444.5,-249 3444.5,-243 3450.5,-237 3456.5,-237 3456.5,-237 3575.5,-237 3575.5,-237 3581.5,-237 3587.5,-243 3587.5,-249 3587.5,-249 3587.5,-263 3587.5,-263 3587.5,-269 3581.5,-275 3575.5,-275"/>
<text text-anchor="middle" x="3516" y="-259.8" font-family="Helvetica,sans-Serif" font-size="14.00">docker/</text>
<text text-anchor="middle" x="3516" y="-244.8" font-family="Helvetica,sans-Serif" font-size="14.00">docker&#45;compose.yml</text>
</g>
<!-- agents_dir -->
<g id="node41" class="node">
<title>agents_dir</title>
<path fill="#e8f4fd" stroke="black" d="M3414,-275C3414,-275 3286,-275 3286,-275 3280,-275 3274,-269 3274,-263 3274,-263 3274,-249 3274,-249 3274,-243 3280,-237 3286,-237 3286,-237 3414,-237 3414,-237 3420,-237 3426,-243 3426,-249 3426,-249 3426,-263 3426,-263 3426,-269 3420,-275 3414,-275"/>
<text text-anchor="middle" x="3350" y="-259.8" font-family="Helvetica,sans-Serif" font-size="14.00">agents/</text>
<text text-anchor="middle" x="3350" y="-244.8" font-family="Helvetica,sans-Serif" font-size="14.00">Agent definitions (.md)</text>
</g>
<!-- commands_dir -->
<g id="node42" class="node">
<title>commands_dir</title>
<path fill="#e8f4fd" stroke="black" d="M3244,-275C3244,-275 3146,-275 3146,-275 3140,-275 3134,-269 3134,-263 3134,-263 3134,-249 3134,-249 3134,-243 3140,-237 3146,-237 3146,-237 3244,-237 3244,-237 3250,-237 3256,-243 3256,-249 3256,-249 3256,-263 3256,-263 3256,-269 3250,-275 3244,-275"/>
<text text-anchor="middle" x="3195" y="-259.8" font-family="Helvetica,sans-Serif" font-size="14.00">commands/</text>
<text text-anchor="middle" x="3195" y="-244.8" font-family="Helvetica,sans-Serif" font-size="14.00">Slash commands</text>
</g>
<!-- skills_dir -->
<g id="node43" class="node">
<title>skills_dir</title>
<path fill="#e8f4fd" stroke="black" d="M3104,-275C3104,-275 3022,-275 3022,-275 3016,-275 3010,-269 3010,-263 3010,-263 3010,-249 3010,-249 3010,-243 3016,-237 3022,-237 3022,-237 3104,-237 3104,-237 3110,-237 3116,-243 3116,-249 3116,-249 3116,-263 3116,-263 3116,-269 3110,-275 3104,-275"/>
<text text-anchor="middle" x="3063" y="-259.8" font-family="Helvetica,sans-Serif" font-size="14.00">skills/</text>
<text text-anchor="middle" x="3063" y="-244.8" font-family="Helvetica,sans-Serif" font-size="14.00">Skill definitions</text>
</g>
</g>
</svg>
