<?xml version="1.0" encoding="UTF-8" standalone="no"?>
<!DOCTYPE svg PUBLIC "-//W3C//DTD SVG 1.1//EN"
 "http://www.w3.org/Graphics/SVG/1.1/DTD/svg11.dtd">
<!-- Generated by graphviz version 2.42.4 (0)
 -->
<!-- Title: service_components Pages: 1 -->
<svg width="2275pt" height="511pt"
 viewBox="0.00 0.00 2275.00 511.00" xmlns="http://www.w3.org/2000/svg" xmlns:xlink="http://www.w3.org/1999/xlink">
<g id="graph0" class="graph" transform="scale(1 1) rotate(0) translate(4 507)">
<title>service_components</title>
<polygon fill="white" stroke="transparent" points="-4,4 -4,-507 2271,-507 2271,4 -4,4"/>
<text text-anchor="middle" x="1133.5" y="-486.2" font-family="Helvetica,sans-Serif" font-size="16.00">amplihack Service Component Architecture</text>
<text text-anchor="middle" x="1133.5" y="-468.2" font-family="Helvetica,sans-Serif" font-size="16.00">(Cross&#45;module import dependencies)</text>
<g id="clust1" class="cluster">
<title>cluster_entry</title>
<polygon fill="#e1f5fe" stroke="black" points="1578,-356 1578,-451 1720,-451 1720,-356 1578,-356"/>
<text text-anchor="middle" x="1649" y="-434.2" font-family="Helvetica,sans-Serif" font-size="16.00">Entry Points</text>
</g>
<g id="clust2" class="cluster">
<title>cluster_core</title>
<polygon fill="#f3e5f5" stroke="black" points="1374,-127 1374,-316 1691,-316 1691,-127 1374,-127"/>
<text text-anchor="middle" x="1532.5" y="-299.2" font-family="Helvetica,sans-Serif" font-size="16.00">Core Services</text>
</g>
<g id="clust3" class="cluster">
<title>cluster_agents</title>
<polygon fill="#fff3e0" stroke="black" points="1882,-236 1882,-443.5 2259,-443.5 2259,-236 1882,-236"/>
<text text-anchor="middle" x="2070.5" y="-426.7" font-family="Helvetica,sans-Serif" font-size="16.00">Agent Subsystem</text>
</g>
<g id="clust4" class="cluster">
<title>cluster_cli</title>
<polygon fill="#e8f5e9" stroke="black" points="1380,-363.5 1380,-443.5 1562,-443.5 1562,-363.5 1380,-363.5"/>
<text text-anchor="middle" x="1471" y="-426.7" font-family="Helvetica,sans-Serif" font-size="16.00">CLI Layer</text>
</g>
<g id="clust5" class="cluster">
<title>cluster_infra</title>
<polygon fill="#fce4ec" stroke="black" points="1699,-8 1699,-207 2099,-207 2099,-8 1699,-8"/>
<text text-anchor="middle" x="1899" y="-190.2" font-family="Helvetica,sans-Serif" font-size="16.00">Infrastructure</text>
</g>
<g id="clust6" class="cluster">
<title>cluster_support</title>
<polygon fill="#f5f5f5" stroke="black" points="8,-363.5 8,-443.5 1372,-443.5 1372,-363.5 8,-363.5"/>
<text text-anchor="middle" x="690" y="-426.7" font-family="Helvetica,sans-Serif" font-size="16.00">Support Modules</text>
</g>
<g id="clust7" class="cluster">
<title>cluster_vendor</title>
<polygon fill="#fff9c4" stroke="black" points="1433,-9 1433,-87 1547,-87 1547,-9 1433,-9"/>
<text text-anchor="middle" x="1490" y="-70.2" font-family="Helvetica,sans-Serif" font-size="16.00">Vendored</text>
</g>
<!-- root -->
<g id="node1" class="node">
<title>root</title>
<path fill="#bbdefb" stroke="black" d="M1699.5,-417C1699.5,-417 1598.5,-417 1598.5,-417 1592.5,-417 1586.5,-411 1586.5,-405 1586.5,-405 1586.5,-376 1586.5,-376 1586.5,-370 1592.5,-364 1598.5,-364 1598.5,-364 1699.5,-364 1699.5,-364 1705.5,-364 1711.5,-370 1711.5,-376 1711.5,-376 1711.5,-405 1711.5,-405 1711.5,-411 1705.5,-417 1699.5,-417"/>
<text text-anchor="middle" x="1649" y="-401.8" font-family="Helvetica,sans-Serif" font-size="14.00">__root__</text>
<text text-anchor="middle" x="1649" y="-386.8" font-family="Helvetica,sans-Serif" font-size="14.00">cli.py, session.py</text>
<text text-anchor="middle" x="1649" y="-371.8" font-family="Helvetica,sans-Serif" font-size="14.00">install.py (22 files)</text>
</g>
<!-- launcher -->
<g id="node2" class="node">
<title>launcher</title>
<path fill="#ce93d8" stroke="black" d="M1671,-282C1671,-282 1627,-282 1627,-282 1621,-282 1615,-276 1615,-270 1615,-270 1615,-256 1615,-256 1615,-250 1621,-244 1627,-244 1627,-244 1671,-244 1671,-244 1677,-244 1683,-250 1683,-256 1683,-256 1683,-270 1683,-270 1683,-276 1677,-282 1671,-282"/>
<text text-anchor="middle" x="1649" y="-266.8" font-family="Helvetica,sans-Serif" font-size="14.00">launcher</text>
<text text-anchor="middle" x="1649" y="-251.8" font-family="Helvetica,sans-Serif" font-size="14.00">26 files</text>
</g>
<!-- root&#45;&gt;launcher -->
<g id="edge2" class="edge">
<title>root&#45;&gt;launcher</title>
<path fill="none" stroke="black" d="M1649,-363.8C1649,-343.06 1649,-313.92 1649,-292.48"/>
<polygon fill="black" stroke="black" points="1652.5,-292.35 1649,-282.35 1645.5,-292.35 1652.5,-292.35"/>
<text text-anchor="middle" x="1686" y="-332.5" font-family="Helvetica,sans-Serif" font-size="10.00">SettingsManager</text>
</g>
<!-- fleet -->
<g id="node6" class="node">
<title>fleet</title>
<path fill="#ce93d8" stroke="black" d="M1507.5,-282C1507.5,-282 1472.5,-282 1472.5,-282 1466.5,-282 1460.5,-276 1460.5,-270 1460.5,-270 1460.5,-256 1460.5,-256 1460.5,-250 1466.5,-244 1472.5,-244 1472.5,-244 1507.5,-244 1507.5,-244 1513.5,-244 1519.5,-250 1519.5,-256 1519.5,-256 1519.5,-270 1519.5,-270 1519.5,-276 1513.5,-282 1507.5,-282"/>
<text text-anchor="middle" x="1490" y="-266.8" font-family="Helvetica,sans-Serif" font-size="14.00">fleet</text>
<text text-anchor="middle" x="1490" y="-251.8" font-family="Helvetica,sans-Serif" font-size="14.00">55 files</text>
</g>
<!-- root&#45;&gt;fleet -->
<g id="edge1" class="edge">
<title>root&#45;&gt;fleet</title>
<path fill="none" stroke="black" d="M1609.5,-363.98C1589.98,-351.59 1565.95,-336.68 1544,-324 1537.46,-320.22 1534.74,-320.92 1529,-316 1520.65,-308.84 1513,-299.59 1506.73,-290.88"/>
<polygon fill="black" stroke="black" points="1509.49,-288.72 1500.95,-282.45 1503.72,-292.68 1509.49,-288.72"/>
<text text-anchor="middle" x="1596" y="-332.5" font-family="Helvetica,sans-Serif" font-size="10.00">fleet_cli</text>
</g>
<!-- exceptions -->
<g id="node17" class="node">
<title>exceptions</title>
<path fill="#ef9a9a" stroke="black" d="M2001.5,-172C2001.5,-172 1944.5,-172 1944.5,-172 1938.5,-172 1932.5,-166 1932.5,-160 1932.5,-160 1932.5,-148 1932.5,-148 1932.5,-142 1938.5,-136 1944.5,-136 1944.5,-136 2001.5,-136 2001.5,-136 2007.5,-136 2013.5,-142 2013.5,-148 2013.5,-148 2013.5,-160 2013.5,-160 2013.5,-166 2007.5,-172 2001.5,-172"/>
<text text-anchor="middle" x="1973" y="-150.3" font-family="Helvetica,sans-Serif" font-size="14.00">exceptions</text>
</g>
<!-- root&#45;&gt;exceptions -->
<g id="edge3" class="edge">
<title>root&#45;&gt;exceptions</title>
<path fill="none" stroke="black" d="M1698.64,-363.87C1708.27,-358.33 1718.12,-352.25 1727,-346 1787.79,-303.22 1789.73,-275.03 1853,-236 1882.01,-218.1 1895.89,-226.29 1924,-207 1934.87,-199.54 1945.15,-189.32 1953.47,-179.91"/>
<polygon fill="black" stroke="black" points="1956.15,-182.16 1959.96,-172.27 1950.82,-177.62 1956.15,-182.16"/>
<text text-anchor="middle" x="1865.5" y="-260.5" font-family="Helvetica,sans-Serif" font-size="10.00">errors</text>
</g>
<!-- hooks -->
<g id="node13" class="node">
<title>hooks</title>
<path fill="#ef9a9a" stroke="black" d="M1821,-173C1821,-173 1791,-173 1791,-173 1785,-173 1779,-167 1779,-161 1779,-161 1779,-147 1779,-147 1779,-141 1785,-135 1791,-135 1791,-135 1821,-135 1821,-135 1827,-135 1833,-141 1833,-147 1833,-147 1833,-161 1833,-161 1833,-167 1827,-173 1821,-173"/>
<text text-anchor="middle" x="1806" y="-157.8" font-family="Helvetica,sans-Serif" font-size="14.00">hooks</text>
<text text-anchor="middle" x="1806" y="-142.8" font-family="Helvetica,sans-Serif" font-size="14.00">3 files</text>
</g>
<!-- launcher&#45;&gt;hooks -->
<g id="edge8" class="edge">
<title>launcher&#45;&gt;hooks</title>
<path fill="none" stroke="black" d="M1683.22,-246.33C1696.86,-240.05 1712.69,-232.72 1727,-226 1737.26,-221.18 1739.62,-219.55 1750,-215 1758.77,-211.15 1762.51,-212.97 1770,-207 1778.5,-200.23 1785.81,-190.91 1791.58,-182.04"/>
<polygon fill="black" stroke="black" points="1794.61,-183.79 1796.82,-173.42 1788.63,-180.15 1794.61,-183.79"/>
<text text-anchor="middle" x="1792.5" y="-218" font-family="Helvetica,sans-Serif" font-size="10.00">execute_stop_hook</text>
</g>
<!-- safety -->
<g id="node14" class="node">
<title>safety</title>
<path fill="#ef9a9a" stroke="black" d="M1749,-173C1749,-173 1719,-173 1719,-173 1713,-173 1707,-167 1707,-161 1707,-161 1707,-147 1707,-147 1707,-141 1713,-135 1719,-135 1719,-135 1749,-135 1749,-135 1755,-135 1761,-141 1761,-147 1761,-147 1761,-161 1761,-161 1761,-167 1755,-173 1749,-173"/>
<text text-anchor="middle" x="1734" y="-157.8" font-family="Helvetica,sans-Serif" font-size="14.00">safety</text>
<text text-anchor="middle" x="1734" y="-142.8" font-family="Helvetica,sans-Serif" font-size="14.00">4 files</text>
</g>
<!-- launcher&#45;&gt;safety -->
<g id="edge9" class="edge">
<title>launcher&#45;&gt;safety</title>
<path fill="none" stroke="black" d="M1640.01,-243.58C1636.76,-234.02 1635.33,-222.75 1642,-215 1657.54,-196.94 1674.55,-219.22 1695,-207 1705.06,-200.99 1713.37,-191.3 1719.7,-181.91"/>
<polygon fill="black" stroke="black" points="1722.86,-183.46 1725.16,-173.12 1716.91,-179.77 1722.86,-183.46"/>
<text text-anchor="middle" x="1684.5" y="-218" font-family="Helvetica,sans-Serif" font-size="10.00">PromptTransformer</text>
</g>
<!-- proxy -->
<g id="node3" class="node">
<title>proxy</title>
<path fill="#ce93d8" stroke="black" d="M1584.5,-282C1584.5,-282 1549.5,-282 1549.5,-282 1543.5,-282 1537.5,-276 1537.5,-270 1537.5,-270 1537.5,-256 1537.5,-256 1537.5,-250 1543.5,-244 1549.5,-244 1549.5,-244 1584.5,-244 1584.5,-244 1590.5,-244 1596.5,-250 1596.5,-256 1596.5,-256 1596.5,-270 1596.5,-270 1596.5,-276 1590.5,-282 1584.5,-282"/>
<text text-anchor="middle" x="1567" y="-266.8" font-family="Helvetica,sans-Serif" font-size="14.00">proxy</text>
<text text-anchor="middle" x="1567" y="-251.8" font-family="Helvetica,sans-Serif" font-size="14.00">30 files</text>
</g>
<!-- recipes -->
<g id="node4" class="node">
<title>recipes</title>
<path fill="#ce93d8" stroke="black" d="M1430,-282C1430,-282 1394,-282 1394,-282 1388,-282 1382,-276 1382,-270 1382,-270 1382,-256 1382,-256 1382,-250 1388,-244 1394,-244 1394,-244 1430,-244 1430,-244 1436,-244 1442,-250 1442,-256 1442,-256 1442,-270 1442,-270 1442,-276 1436,-282 1430,-282"/>
<text text-anchor="middle" x="1412" y="-266.8" font-family="Helvetica,sans-Serif" font-size="14.00">recipes</text>
<text text-anchor="middle" x="1412" y="-251.8" font-family="Helvetica,sans-Serif" font-size="14.00">6 files</text>
</g>
<!-- memory -->
<g id="node5" class="node">
<title>memory</title>
<path fill="#ce93d8" stroke="black" d="M1511.5,-173C1511.5,-173 1468.5,-173 1468.5,-173 1462.5,-173 1456.5,-167 1456.5,-161 1456.5,-161 1456.5,-147 1456.5,-147 1456.5,-141 1462.5,-135 1468.5,-135 1468.5,-135 1511.5,-135 1511.5,-135 1517.5,-135 1523.5,-141 1523.5,-147 1523.5,-147 1523.5,-161 1523.5,-161 1523.5,-167 1517.5,-173 1511.5,-173"/>
<text text-anchor="middle" x="1490" y="-157.8" font-family="Helvetica,sans-Serif" font-size="14.00">memory</text>
<text text-anchor="middle" x="1490" y="-142.8" font-family="Helvetica,sans-Serif" font-size="14.00">39 files</text>
</g>
<!-- vendor -->
<g id="node32" class="node">
<title>vendor</title>
<path fill="#fff176" stroke="black" d="M1527,-53C1527,-53 1453,-53 1453,-53 1447,-53 1441,-47 1441,-41 1441,-41 1441,-29 1441,-29 1441,-23 1447,-17 1453,-17 1453,-17 1527,-17 1527,-17 1533,-17 1539,-23 1539,-29 1539,-29 1539,-41 1539,-41 1539,-47 1533,-53 1527,-53"/>
<text text-anchor="middle" x="1490" y="-31.3" font-family="Helvetica,sans-Serif" font-size="14.00">vendor/blarify</text>
</g>
<!-- memory&#45;&gt;vendor -->
<g id="edge12" class="edge">
<title>memory&#45;&gt;vendor</title>
<path fill="none" stroke="black" stroke-dasharray="5,2" d="M1490,-134.98C1490,-115.81 1490,-85.26 1490,-63.17"/>
<polygon fill="black" stroke="black" points="1493.5,-63.09 1490,-53.09 1486.5,-63.09 1493.5,-63.09"/>
<text text-anchor="middle" x="1520.5" y="-109" font-family="Helvetica,sans-Serif" font-size="10.00">GraphBuilder</text>
<text text-anchor="middle" x="1520.5" y="-98" font-family="Helvetica,sans-Serif" font-size="10.00">KuzuManager</text>
</g>
<!-- fleet&#45;&gt;memory -->
<g id="edge5" class="edge">
<title>fleet&#45;&gt;memory</title>
<path fill="none" stroke="black" stroke-dasharray="5,2" d="M1490,-243.85C1490,-227.32 1490,-202.66 1490,-183.5"/>
<polygon fill="black" stroke="black" points="1493.5,-183.24 1490,-173.24 1486.5,-183.24 1493.5,-183.24"/>
<text text-anchor="middle" x="1515" y="-218" font-family="Helvetica,sans-Serif" font-size="10.00">discoveries</text>
</g>
<!-- agents -->
<g id="node7" class="node">
<title>agents</title>
<path fill="#ffcc80" stroke="black" d="M2222.5,-282C2222.5,-282 2187.5,-282 2187.5,-282 2181.5,-282 2175.5,-276 2175.5,-270 2175.5,-270 2175.5,-256 2175.5,-256 2175.5,-250 2181.5,-244 2187.5,-244 2187.5,-244 2222.5,-244 2222.5,-244 2228.5,-244 2234.5,-250 2234.5,-256 2234.5,-256 2234.5,-270 2234.5,-270 2234.5,-276 2228.5,-282 2222.5,-282"/>
<text text-anchor="middle" x="2205" y="-266.8" font-family="Helvetica,sans-Serif" font-size="14.00">agents</text>
<text text-anchor="middle" x="2205" y="-251.8" font-family="Helvetica,sans-Serif" font-size="14.00">40 files</text>
</g>
<!-- eval -->
<g id="node8" class="node">
<title>eval</title>
<path fill="#ffcc80" stroke="black" d="M2238.5,-409.5C2238.5,-409.5 2203.5,-409.5 2203.5,-409.5 2197.5,-409.5 2191.5,-403.5 2191.5,-397.5 2191.5,-397.5 2191.5,-383.5 2191.5,-383.5 2191.5,-377.5 2197.5,-371.5 2203.5,-371.5 2203.5,-371.5 2238.5,-371.5 2238.5,-371.5 2244.5,-371.5 2250.5,-377.5 2250.5,-383.5 2250.5,-383.5 2250.5,-397.5 2250.5,-397.5 2250.5,-403.5 2244.5,-409.5 2238.5,-409.5"/>
<text text-anchor="middle" x="2221" y="-394.3" font-family="Helvetica,sans-Serif" font-size="14.00">eval</text>
<text text-anchor="middle" x="2221" y="-379.3" font-family="Helvetica,sans-Serif" font-size="14.00">27 files</text>
</g>
<!-- eval&#45;&gt;agents -->
<g id="edge4" class="edge">
<title>eval&#45;&gt;agents</title>
<path fill="none" stroke="#ef6c00" stroke-width="3" d="M2218.67,-371.25C2216.03,-350.52 2211.69,-316.45 2208.61,-292.28"/>
<polygon fill="#ef6c00" stroke="#ef6c00" stroke-width="3" points="2212.07,-291.75 2207.33,-282.27 2205.12,-292.63 2212.07,-291.75"/>
<text text-anchor="middle" x="2238" y="-332.5" font-family="Helvetica,sans-Serif" font-size="10.00">37 imports</text>
</g>
<!-- goal_gen -->
<g id="node9" class="node">
<title>goal_gen</title>
<path fill="#ffcc80" stroke="black" d="M2026.5,-409.5C2026.5,-409.5 1901.5,-409.5 1901.5,-409.5 1895.5,-409.5 1889.5,-403.5 1889.5,-397.5 1889.5,-397.5 1889.5,-383.5 1889.5,-383.5 1889.5,-377.5 1895.5,-371.5 1901.5,-371.5 1901.5,-371.5 2026.5,-371.5 2026.5,-371.5 2032.5,-371.5 2038.5,-377.5 2038.5,-383.5 2038.5,-383.5 2038.5,-397.5 2038.5,-397.5 2038.5,-403.5 2032.5,-409.5 2026.5,-409.5"/>
<text text-anchor="middle" x="1964" y="-394.3" font-family="Helvetica,sans-Serif" font-size="14.00">goal_agent_generator</text>
<text text-anchor="middle" x="1964" y="-379.3" font-family="Helvetica,sans-Serif" font-size="14.00">12 files</text>
</g>
<!-- goal_gen&#45;&gt;launcher -->
<g id="edge6" class="edge">
<title>goal_gen&#45;&gt;launcher</title>
<path fill="none" stroke="black" d="M1918.53,-371.39C1858.17,-347.34 1752.29,-305.15 1692.79,-281.45"/>
<polygon fill="black" stroke="black" points="1693.88,-278.12 1683.3,-277.67 1691.29,-284.62 1693.88,-278.12"/>
<text text-anchor="middle" x="1875.5" y="-332.5" font-family="Helvetica,sans-Serif" font-size="10.00">AutoMode</text>
</g>
<!-- meta -->
<g id="node10" class="node">
<title>meta</title>
<path fill="#ffcc80" stroke="black" d="M2161.5,-409.5C2161.5,-409.5 2068.5,-409.5 2068.5,-409.5 2062.5,-409.5 2056.5,-403.5 2056.5,-397.5 2056.5,-397.5 2056.5,-383.5 2056.5,-383.5 2056.5,-377.5 2062.5,-371.5 2068.5,-371.5 2068.5,-371.5 2161.5,-371.5 2161.5,-371.5 2167.5,-371.5 2173.5,-377.5 2173.5,-383.5 2173.5,-383.5 2173.5,-397.5 2173.5,-397.5 2173.5,-403.5 2167.5,-409.5 2161.5,-409.5"/>
<text text-anchor="middle" x="2115" y="-394.3" font-family="Helvetica,sans-Serif" font-size="14.00">meta_delegation</text>
<text text-anchor="middle" x="2115" y="-379.3" font-family="Helvetica,sans-Serif" font-size="14.00">9 files</text>
</g>
<!-- utils -->
<g id="node16" class="node">
<title>utils</title>
<path fill="#ef9a9a" stroke="black" d="M2078.5,-173C2078.5,-173 2043.5,-173 2043.5,-173 2037.5,-173 2031.5,-167 2031.5,-161 2031.5,-161 2031.5,-147 2031.5,-147 2031.5,-141 2037.5,-135 2043.5,-135 2043.5,-135 2078.5,-135 2078.5,-135 2084.5,-135 2090.5,-141 2090.5,-147 2090.5,-147 2090.5,-161 2090.5,-161 2090.5,-167 2084.5,-173 2078.5,-173"/>
<text text-anchor="middle" x="2061" y="-157.8" font-family="Helvetica,sans-Serif" font-size="14.00">utils</text>
<text text-anchor="middle" x="2061" y="-142.8" font-family="Helvetica,sans-Serif" font-size="14.00">21 files</text>
</g>
<!-- meta&#45;&gt;utils -->
<g id="edge7" class="edge">
<title>meta&#45;&gt;utils</title>
<path fill="none" stroke="black" d="M2108.65,-371.24C2103.67,-356.47 2096.8,-335.06 2092,-316 2080.38,-269.87 2070.72,-215.36 2065.41,-183.07"/>
<polygon fill="black" stroke="black" points="2068.84,-182.33 2063.79,-173.01 2061.93,-183.45 2068.84,-182.33"/>
<text text-anchor="middle" x="2129.5" y="-260.5" font-family="Helvetica,sans-Serif" font-size="10.00">get_agent_binary</text>
</g>
<!-- recipe_cli -->
<g id="node11" class="node">
<title>recipe_cli</title>
<path fill="#a5d6a7" stroke="black" d="M1542,-409.5C1542,-409.5 1492,-409.5 1492,-409.5 1486,-409.5 1480,-403.5 1480,-397.5 1480,-397.5 1480,-383.5 1480,-383.5 1480,-377.5 1486,-371.5 1492,-371.5 1492,-371.5 1542,-371.5 1542,-371.5 1548,-371.5 1554,-377.5 1554,-383.5 1554,-383.5 1554,-397.5 1554,-397.5 1554,-403.5 1548,-409.5 1542,-409.5"/>
<text text-anchor="middle" x="1517" y="-394.3" font-family="Helvetica,sans-Serif" font-size="14.00">recipe_cli</text>
<text text-anchor="middle" x="1517" y="-379.3" font-family="Helvetica,sans-Serif" font-size="14.00">3 files</text>
</g>
<!-- recipe_cli&#45;&gt;recipes -->
<g id="edge10" class="edge">
<title>recipe_cli&#45;&gt;recipes</title>
<path fill="none" stroke="black" d="M1502.66,-371.41C1491.7,-357.92 1475.98,-339.27 1461,-324 1457.25,-320.18 1455.65,-319.92 1452,-316 1444.66,-308.12 1437.29,-298.98 1430.91,-290.57"/>
<polygon fill="black" stroke="black" points="1433.68,-288.42 1424.9,-282.49 1428.06,-292.6 1433.68,-288.42"/>
<text text-anchor="middle" x="1510" y="-338" font-family="Helvetica,sans-Serif" font-size="10.00">RecipeParser</text>
<text text-anchor="middle" x="1510" y="-327" font-family="Helvetica,sans-Serif" font-size="10.00">Recipe</text>
</g>
<!-- plugin_cli -->
<g id="node12" class="node">
<title>plugin_cli</title>
<path fill="#a5d6a7" stroke="black" d="M1449.5,-409.5C1449.5,-409.5 1400.5,-409.5 1400.5,-409.5 1394.5,-409.5 1388.5,-403.5 1388.5,-397.5 1388.5,-397.5 1388.5,-383.5 1388.5,-383.5 1388.5,-377.5 1394.5,-371.5 1400.5,-371.5 1400.5,-371.5 1449.5,-371.5 1449.5,-371.5 1455.5,-371.5 1461.5,-377.5 1461.5,-383.5 1461.5,-383.5 1461.5,-397.5 1461.5,-397.5 1461.5,-403.5 1455.5,-409.5 1449.5,-409.5"/>
<text text-anchor="middle" x="1425" y="-394.3" font-family="Helvetica,sans-Serif" font-size="14.00">plugin_cli</text>
<text text-anchor="middle" x="1425" y="-379.3" font-family="Helvetica,sans-Serif" font-size="14.00">4 files</text>
</g>
<!-- security -->
<g id="node15" class="node">
<title>security</title>
<path fill="#ef9a9a" stroke="black" d="M1902.5,-173C1902.5,-173 1863.5,-173 1863.5,-173 1857.5,-173 1851.5,-167 1851.5,-161 1851.5,-161 1851.5,-147 1851.5,-147 1851.5,-141 1857.5,-135 1863.5,-135 1863.5,-135 1902.5,-135 1902.5,-135 1908.5,-135 1914.5,-141 1914.5,-147 1914.5,-147 1914.5,-161 1914.5,-161 1914.5,-167 1908.5,-173 1902.5,-173"/>
<text text-anchor="middle" x="1883" y="-157.8" font-family="Helvetica,sans-Serif" font-size="14.00">security</text>
<text text-anchor="middle" x="1883" y="-142.8" font-family="Helvetica,sans-Serif" font-size="14.00">11 files</text>
</g>
<!-- settings_gen -->
<g id="node18" class="node">
<title>settings_gen</title>
<path fill="#ef9a9a" stroke="black" d="M2064,-54C2064,-54 1960,-54 1960,-54 1954,-54 1948,-48 1948,-42 1948,-42 1948,-28 1948,-28 1948,-22 1954,-16 1960,-16 1960,-16 2064,-16 2064,-16 2070,-16 2076,-22 2076,-28 2076,-28 2076,-42 2076,-42 2076,-48 2070,-54 2064,-54"/>
<text text-anchor="middle" x="2012" y="-38.8" font-family="Helvetica,sans-Serif" font-size="14.00">settings_generator</text>
<text text-anchor="middle" x="2012" y="-23.8" font-family="Helvetica,sans-Serif" font-size="14.00">2 files</text>
</g>
<!-- utils&#45;&gt;settings_gen -->
<g id="edge13" class="edge">
<title>utils&#45;&gt;settings_gen</title>
<path fill="none" stroke="black" d="M2053.45,-134.98C2045.49,-115.96 2032.84,-85.77 2023.61,-63.72"/>
<polygon fill="black" stroke="black" points="2026.73,-62.11 2019.64,-54.24 2020.27,-64.81 2026.73,-62.11"/>
<text text-anchor="middle" x="2084.5" y="-103.5" font-family="Helvetica,sans-Serif" font-size="10.00">write_json_atomic</text>
</g>
<!-- workflows -->
<g id="node19" class="node">
<title>workflows</title>
<path fill="#e0e0e0" stroke="black" d="M1352,-409.5C1352,-409.5 1300,-409.5 1300,-409.5 1294,-409.5 1288,-403.5 1288,-397.5 1288,-397.5 1288,-383.5 1288,-383.5 1288,-377.5 1294,-371.5 1300,-371.5 1300,-371.5 1352,-371.5 1352,-371.5 1358,-371.5 1364,-377.5 1364,-383.5 1364,-383.5 1364,-397.5 1364,-397.5 1364,-403.5 1358,-409.5 1352,-409.5"/>
<text text-anchor="middle" x="1326" y="-394.3" font-family="Helvetica,sans-Serif" font-size="14.00">workflows</text>
<text text-anchor="middle" x="1326" y="-379.3" font-family="Helvetica,sans-Serif" font-size="14.00">6 files</text>
</g>
<!-- workflows&#45;&gt;recipes -->
<g id="edge11" class="edge">
<title>workflows&#45;&gt;recipes</title>
<path fill="none" stroke="black" d="M1338.05,-371.37C1346.84,-358.18 1359.08,-339.93 1370,-324 1377.58,-312.94 1386.05,-300.81 1393.38,-290.37"/>
<polygon fill="black" stroke="black" points="1396.34,-292.25 1399.23,-282.05 1390.61,-288.22 1396.34,-292.25"/>
<text text-anchor="middle" x="1415.5" y="-332.5" font-family="Helvetica,sans-Serif" font-size="10.00">run_recipe_by_name</text>
</g>
<!-- bundle_gen -->
<g id="node20" class="node">
<title>bundle_gen</title>
<path fill="#e0e0e0" stroke="black" d="M1258,-409.5C1258,-409.5 1160,-409.5 1160,-409.5 1154,-409.5 1148,-403.5 1148,-397.5 1148,-397.5 1148,-383.5 1148,-383.5 1148,-377.5 1154,-371.5 1160,-371.5 1160,-371.5 1258,-371.5 1258,-371.5 1264,-371.5 1270,-377.5 1270,-383.5 1270,-383.5 1270,-397.5 1270,-397.5 1270,-403.5 1264,-409.5 1258,-409.5"/>
<text text-anchor="middle" x="1209" y="-394.3" font-family="Helvetica,sans-Serif" font-size="14.00">bundle_generator</text>
<text text-anchor="middle" x="1209" y="-379.3" font-family="Helvetica,sans-Serif" font-size="14.00">17 files</text>
</g>
<!-- knowledge -->
<g id="node21" class="node">
<title>knowledge</title>
<path fill="#e0e0e0" stroke="black" d="M1117.5,-409.5C1117.5,-409.5 1012.5,-409.5 1012.5,-409.5 1006.5,-409.5 1000.5,-403.5 1000.5,-397.5 1000.5,-397.5 1000.5,-383.5 1000.5,-383.5 1000.5,-377.5 1006.5,-371.5 1012.5,-371.5 1012.5,-371.5 1117.5,-371.5 1117.5,-371.5 1123.5,-371.5 1129.5,-377.5 1129.5,-383.5 1129.5,-383.5 1129.5,-397.5 1129.5,-397.5 1129.5,-403.5 1123.5,-409.5 1117.5,-409.5"/>
<text text-anchor="middle" x="1065" y="-394.3" font-family="Helvetica,sans-Serif" font-size="14.00">knowledge_builder</text>
<text text-anchor="middle" x="1065" y="-379.3" font-family="Helvetica,sans-Serif" font-size="14.00">7 files</text>
</g>
<!-- docker -->
<g id="node22" class="node">
<title>docker</title>
<path fill="#e0e0e0" stroke="black" d="M970.5,-409.5C970.5,-409.5 937.5,-409.5 937.5,-409.5 931.5,-409.5 925.5,-403.5 925.5,-397.5 925.5,-397.5 925.5,-383.5 925.5,-383.5 925.5,-377.5 931.5,-371.5 937.5,-371.5 937.5,-371.5 970.5,-371.5 970.5,-371.5 976.5,-371.5 982.5,-377.5 982.5,-383.5 982.5,-383.5 982.5,-397.5 982.5,-397.5 982.5,-403.5 976.5,-409.5 970.5,-409.5"/>
<text text-anchor="middle" x="954" y="-394.3" font-family="Helvetica,sans-Serif" font-size="14.00">docker</text>
<text text-anchor="middle" x="954" y="-379.3" font-family="Helvetica,sans-Serif" font-size="14.00">3 files</text>
</g>
<!-- context -->
<g id="node23" class="node">
<title>context</title>
<path fill="#e0e0e0" stroke="black" d="M895,-409.5C895,-409.5 859,-409.5 859,-409.5 853,-409.5 847,-403.5 847,-397.5 847,-397.5 847,-383.5 847,-383.5 847,-377.5 853,-371.5 859,-371.5 859,-371.5 895,-371.5 895,-371.5 901,-371.5 907,-377.5 907,-383.5 907,-383.5 907,-397.5 907,-397.5 907,-403.5 901,-409.5 895,-409.5"/>
<text text-anchor="middle" x="877" y="-394.3" font-family="Helvetica,sans-Serif" font-size="14.00">context</text>
<text text-anchor="middle" x="877" y="-379.3" font-family="Helvetica,sans-Serif" font-size="14.00">3 files</text>
</g>
<!-- mode -->
<g id="node24" class="node">
<title>mode</title>
<path fill="#e0e0e0" stroke="black" d="M816.5,-409.5C816.5,-409.5 733.5,-409.5 733.5,-409.5 727.5,-409.5 721.5,-403.5 721.5,-397.5 721.5,-397.5 721.5,-383.5 721.5,-383.5 721.5,-377.5 727.5,-371.5 733.5,-371.5 733.5,-371.5 816.5,-371.5 816.5,-371.5 822.5,-371.5 828.5,-377.5 828.5,-383.5 828.5,-383.5 828.5,-397.5 828.5,-397.5 828.5,-403.5 822.5,-409.5 816.5,-409.5"/>
<text text-anchor="middle" x="775" y="-394.3" font-family="Helvetica,sans-Serif" font-size="14.00">mode_detector</text>
<text text-anchor="middle" x="775" y="-379.3" font-family="Helvetica,sans-Serif" font-size="14.00">3 files</text>
</g>
<!-- tracing -->
<g id="node25" class="node">
<title>tracing</title>
<path fill="#e0e0e0" stroke="black" d="M691.5,-409.5C691.5,-409.5 658.5,-409.5 658.5,-409.5 652.5,-409.5 646.5,-403.5 646.5,-397.5 646.5,-397.5 646.5,-383.5 646.5,-383.5 646.5,-377.5 652.5,-371.5 658.5,-371.5 658.5,-371.5 691.5,-371.5 691.5,-371.5 697.5,-371.5 703.5,-377.5 703.5,-383.5 703.5,-383.5 703.5,-397.5 703.5,-397.5 703.5,-403.5 697.5,-409.5 691.5,-409.5"/>
<text text-anchor="middle" x="675" y="-394.3" font-family="Helvetica,sans-Serif" font-size="14.00">tracing</text>
<text text-anchor="middle" x="675" y="-379.3" font-family="Helvetica,sans-Serif" font-size="14.00">2 files</text>
</g>
<!-- uvx -->
<g id="node26" class="node">
<title>uvx</title>
<path fill="#e0e0e0" stroke="black" d="M616,-409.5C616,-409.5 586,-409.5 586,-409.5 580,-409.5 574,-403.5 574,-397.5 574,-397.5 574,-383.5 574,-383.5 574,-377.5 580,-371.5 586,-371.5 586,-371.5 616,-371.5 616,-371.5 622,-371.5 628,-377.5 628,-383.5 628,-383.5 628,-397.5 628,-397.5 628,-403.5 622,-409.5 616,-409.5"/>
<text text-anchor="middle" x="601" y="-394.3" font-family="Helvetica,sans-Serif" font-size="14.00">uvx</text>
<text text-anchor="middle" x="601" y="-379.3" font-family="Helvetica,sans-Serif" font-size="14.00">2 files</text>
</g>
<!-- power -->
<g id="node27" class="node">
<title>power</title>
<path fill="#e0e0e0" stroke="black" d="M543.5,-409.5C543.5,-409.5 458.5,-409.5 458.5,-409.5 452.5,-409.5 446.5,-403.5 446.5,-397.5 446.5,-397.5 446.5,-383.5 446.5,-383.5 446.5,-377.5 452.5,-371.5 458.5,-371.5 458.5,-371.5 543.5,-371.5 543.5,-371.5 549.5,-371.5 555.5,-377.5 555.5,-383.5 555.5,-383.5 555.5,-397.5 555.5,-397.5 555.5,-403.5 549.5,-409.5 543.5,-409.5"/>
<text text-anchor="middle" x="501" y="-394.3" font-family="Helvetica,sans-Serif" font-size="14.00">power_steering</text>
<text text-anchor="middle" x="501" y="-379.3" font-family="Helvetica,sans-Serif" font-size="14.00">2 files</text>
</g>
<!-- lsp -->
<g id="node28" class="node">
<title>lsp</title>
<path fill="#e0e0e0" stroke="black" d="M416,-409.5C416,-409.5 350,-409.5 350,-409.5 344,-409.5 338,-403.5 338,-397.5 338,-397.5 338,-383.5 338,-383.5 338,-377.5 344,-371.5 350,-371.5 350,-371.5 416,-371.5 416,-371.5 422,-371.5 428,-377.5 428,-383.5 428,-383.5 428,-397.5 428,-397.5 428,-403.5 422,-409.5 416,-409.5"/>
<text text-anchor="middle" x="383" y="-394.3" font-family="Helvetica,sans-Serif" font-size="14.00">lsp_detector</text>
<text text-anchor="middle" x="383" y="-379.3" font-family="Helvetica,sans-Serif" font-size="14.00">2 files</text>
</g>
<!-- plugin_mgr -->
<g id="node29" class="node">
<title>plugin_mgr</title>
<path fill="#e0e0e0" stroke="black" d="M308,-409.5C308,-409.5 218,-409.5 218,-409.5 212,-409.5 206,-403.5 206,-397.5 206,-397.5 206,-383.5 206,-383.5 206,-377.5 212,-371.5 218,-371.5 218,-371.5 308,-371.5 308,-371.5 314,-371.5 320,-377.5 320,-383.5 320,-383.5 320,-397.5 320,-397.5 320,-403.5 314,-409.5 308,-409.5"/>
<text text-anchor="middle" x="263" y="-394.3" font-family="Helvetica,sans-Serif" font-size="14.00">plugin_manager</text>
<text text-anchor="middle" x="263" y="-379.3" font-family="Helvetica,sans-Serif" font-size="14.00">2 files</text>
</g>
<!-- path_res -->
<g id="node30" class="node">
<title>path_res</title>
<path fill="#e0e0e0" stroke="black" d="M176,-409.5C176,-409.5 102,-409.5 102,-409.5 96,-409.5 90,-403.5 90,-397.5 90,-397.5 90,-383.5 90,-383.5 90,-377.5 96,-371.5 102,-371.5 102,-371.5 176,-371.5 176,-371.5 182,-371.5 188,-377.5 188,-383.5 188,-383.5 188,-397.5 188,-397.5 188,-403.5 182,-409.5 176,-409.5"/>
<text text-anchor="middle" x="139" y="-394.3" font-family="Helvetica,sans-Serif" font-size="14.00">path_resolver</text>
<text text-anchor="middle" x="139" y="-379.3" font-family="Helvetica,sans-Serif" font-size="14.00">2 files</text>
</g>
<!-- testing -->
<g id="node31" class="node">
<title>testing</title>
<path fill="#e0e0e0" stroke="black" d="M60,-409.5C60,-409.5 28,-409.5 28,-409.5 22,-409.5 16,-403.5 16,-397.5 16,-397.5 16,-383.5 16,-383.5 16,-377.5 22,-371.5 28,-371.5 28,-371.5 60,-371.5 60,-371.5 66,-371.5 72,-377.5 72,-383.5 72,-383.5 72,-397.5 72,-397.5 72,-403.5 66,-409.5 60,-409.5"/>
<text text-anchor="middle" x="44" y="-394.3" font-family="Helvetica,sans-Serif" font-size="14.00">testing</text>
<text text-anchor="middle" x="44" y="-379.3" font-family="Helvetica,sans-Serif" font-size="14.00">3 files</text>
</g>
</g>
</svg>
