<?xml version="1.0" encoding="UTF-8" standalone="no"?>
<!DOCTYPE svg PUBLIC "-//W3C//DTD SVG 1.1//EN"
 "http://www.w3.org/Graphics/SVG/1.1/DTD/svg11.dtd">
<!-- Generated by graphviz version 2.42.4 (0)
 -->
<!-- Title: service_components Pages: 1 -->
<svg width="5814pt" height="512pt"
 viewBox="0.00 0.00 5814.00 512.00" xmlns="http://www.w3.org/2000/svg" xmlns:xlink="http://www.w3.org/1999/xlink">
<g id="graph0" class="graph" transform="scale(1 1) rotate(0) translate(4 508)">
<title>service_components</title>
<polygon fill="white" stroke="transparent" points="-4,4 -4,-508 5810,-508 5810,4 -4,4"/>
<g id="clust1" class="cluster">
<title>cluster_cli</title>
<polygon fill="#dfe6e9" stroke="black" points="2374,-421 2374,-496 2609,-496 2609,-421 2374,-421"/>
<text text-anchor="middle" x="2491.5" y="-480.8" font-family="Times,serif" font-size="14.00">CLI Layer</text>
</g>
<g id="clust2" class="cluster">
<title>cluster_launcher</title>
<polygon fill="#b2f2bb" stroke="black" points="936,-152 936,-382 1690,-382 1690,-152 936,-152"/>
<text text-anchor="middle" x="1313" y="-366.8" font-family="Times,serif" font-size="14.00">launcher/</text>
</g>
<g id="clust3" class="cluster">
<title>cluster_proxy</title>
<polygon fill="#fff3bf" stroke="black" points="8,-8 8,-299 460,-299 460,-8 8,-8"/>
<text text-anchor="middle" x="234" y="-283.8" font-family="Times,serif" font-size="14.00">proxy/</text>
</g>
<g id="clust4" class="cluster">
<title>cluster_memory</title>
<polygon fill="#ffd8a8" stroke="black" points="2483,-80 2483,-413 3508,-413 3508,-80 2483,-80"/>
<text text-anchor="middle" x="2995.5" y="-397.8" font-family="Times,serif" font-size="14.00">memory/</text>
</g>
<g id="clust5" class="cluster">
<title>cluster_kuzu</title>
<polygon fill="#ffe8cc" stroke="black" points="2990,-224 2990,-382 3500,-382 3500,-224 2990,-224"/>
<text text-anchor="middle" x="3245" y="-366.8" font-family="Times,serif" font-size="14.00">kuzu/</text>
</g>
<g id="clust6" class="cluster">
<title>cluster_backends</title>
<polygon fill="#ffe0cc" stroke="black" points="2768,-224 2768,-382 2982,-382 2982,-224 2768,-224"/>
<text text-anchor="middle" x="2875" y="-366.8" font-family="Times,serif" font-size="14.00">backends/</text>
</g>
<g id="clust7" class="cluster">
<title>cluster_recipes</title>
<polygon fill="#e9ecef" stroke="black" points="3516,-224 3516,-382 3831,-382 3831,-224 3516,-224"/>
<text text-anchor="middle" x="3673.5" y="-366.8" font-family="Times,serif" font-size="14.00">recipes/</text>
</g>
<g id="clust8" class="cluster">
<title>cluster_security</title>
<polygon fill="#ffc9c9" stroke="black" points="5152,-224 5152,-496 5412,-496 5412,-224 5152,-224"/>
<text text-anchor="middle" x="5282" y="-480.8" font-family="Times,serif" font-size="14.00">security/</text>
</g>
<g id="clust9" class="cluster">
<title>cluster_safety</title>
<polygon fill="#ffdeeb" stroke="black" points="5420,-421 5420,-496 5798,-496 5798,-421 5420,-421"/>
<text text-anchor="middle" x="5609" y="-480.8" font-family="Times,serif" font-size="14.00">safety/</text>
</g>
<g id="clust10" class="cluster">
<title>cluster_install</title>
<polygon fill="#d0bfff" stroke="black" points="4840,-224 4840,-382 5144,-382 5144,-224 4840,-224"/>
<text text-anchor="middle" x="4992" y="-366.8" font-family="Times,serif" font-size="14.00">install &amp; settings</text>
</g>
<g id="clust11" class="cluster">
<title>cluster_plugin</title>
<polygon fill="#c5f6fa" stroke="black" points="3839,-307 3839,-382 4037,-382 4037,-307 3839,-307"/>
<text text-anchor="middle" x="3938" y="-366.8" font-family="Times,serif" font-size="14.00">plugin system</text>
</g>
<g id="clust12" class="cluster">
<title>cluster_fleet</title>
<polygon fill="#c3fae8" stroke="black" points="4045,-152 4045,-382 4324,-382 4324,-152 4045,-152"/>
<text text-anchor="middle" x="4184.5" y="-366.8" font-family="Times,serif" font-size="14.00">fleet/</text>
</g>
<g id="clust13" class="cluster">
<title>cluster_utils</title>
<polygon fill="#dee2e6" stroke="black" points="468,-224 468,-299 928,-299 928,-224 468,-224"/>
<text text-anchor="middle" x="698" y="-283.8" font-family="Times,serif" font-size="14.00">utils/</text>
</g>
<g id="clust14" class="cluster">
<title>cluster_goal</title>
<polygon fill="#fff9db" stroke="black" points="4332,-307 4332,-382 4832,-382 4832,-307 4332,-307"/>
<text text-anchor="middle" x="4582" y="-366.8" font-family="Times,serif" font-size="14.00">goal_agent_generator/</text>
</g>
<g id="clust15" class="cluster">
<title>cluster_other</title>
<polygon fill="#f8f9fa" stroke="black" points="1698,-224 1698,-299 2475,-299 2475,-224 1698,-224"/>
<text text-anchor="middle" x="2086.5" y="-283.8" font-family="Times,serif" font-size="14.00">Other Modules</text>
</g>
<!-- cli -->
<g id="node1" class="node">
<title>cli</title>
<polygon fill="none" stroke="black" points="2600.5,-465 2487.5,-465 2487.5,-429 2600.5,-429 2600.5,-465"/>
<text text-anchor="middle" x="2544" y="-449.8" font-family="Helvetica,sans-Serif" font-size="9.00">cli.py</text>
<text text-anchor="middle" x="2544" y="-439.8" font-family="Helvetica,sans-Serif" font-size="9.00">create_parser() / main()</text>
</g>
<!-- l_core -->
<g id="node3" class="node">
<title>l_core</title>
<polygon fill="none" stroke="black" points="1349,-351 1263,-351 1263,-315 1349,-315 1349,-351"/>
<text text-anchor="middle" x="1306" y="-335.8" font-family="Helvetica,sans-Serif" font-size="9.00">core.py</text>
<text text-anchor="middle" x="1306" y="-325.8" font-family="Helvetica,sans-Serif" font-size="9.00">ClaudeLauncher</text>
</g>
<!-- cli&#45;&gt;l_core -->
<g id="edge1" class="edge">
<title>cli&#45;&gt;l_core</title>
<path fill="none" stroke="black" d="M2506.52,-428.97C2497.67,-425.68 2488.15,-422.73 2479,-421 2448.73,-415.27 1397.76,-426.36 1370,-413 1347.14,-402 1329.78,-378.45 1318.94,-359.91"/>
<polygon fill="black" stroke="black" points="1321.93,-358.08 1314.02,-351.03 1315.81,-361.47 1321.93,-358.08"/>
</g>
<!-- l_auto -->
<g id="node4" class="node">
<title>l_auto</title>
<polygon fill="none" stroke="black" points="1682.5,-351 1607.5,-351 1607.5,-315 1682.5,-315 1682.5,-351"/>
<text text-anchor="middle" x="1645" y="-335.8" font-family="Helvetica,sans-Serif" font-size="9.00">auto_mode.py</text>
<text text-anchor="middle" x="1645" y="-325.8" font-family="Helvetica,sans-Serif" font-size="9.00">AutoMode</text>
</g>
<!-- cli&#45;&gt;l_auto -->
<g id="edge2" class="edge">
<title>cli&#45;&gt;l_auto</title>
<path fill="none" stroke="black" d="M2504.65,-428.97C2496.31,-425.9 2487.46,-423.03 2479,-421 2440.46,-411.75 1863.82,-355.27 1692.59,-338.62"/>
<polygon fill="black" stroke="black" points="1692.91,-335.13 1682.61,-337.65 1692.23,-342.1 1692.91,-335.13"/>
</g>
<!-- l_copilot -->
<g id="node7" class="node">
<title>l_copilot</title>
<polygon fill="none" stroke="black" points="1589,-351 1533,-351 1533,-315 1589,-315 1589,-351"/>
<text text-anchor="middle" x="1561" y="-330.8" font-family="Helvetica,sans-Serif" font-size="9.00">copilot.py</text>
</g>
<!-- cli&#45;&gt;l_copilot -->
<g id="edge3" class="edge">
<title>cli&#45;&gt;l_copilot</title>
<path fill="none" stroke="black" d="M2506.52,-428.98C2497.67,-425.7 2488.15,-422.74 2479,-421 2454.96,-416.42 1618.59,-426.23 1598,-413 1580.13,-401.52 1570.73,-378.91 1565.89,-360.81"/>
<polygon fill="black" stroke="black" points="1569.29,-359.98 1563.59,-351.05 1562.48,-361.59 1569.29,-359.98"/>
</g>
<!-- l_codex -->
<g id="node8" class="node">
<title>l_codex</title>
<polygon fill="none" stroke="black" points="1515,-351 1461,-351 1461,-315 1515,-315 1515,-351"/>
<text text-anchor="middle" x="1488" y="-330.8" font-family="Helvetica,sans-Serif" font-size="9.00">codex.py</text>
</g>
<!-- cli&#45;&gt;l_codex -->
<g id="edge4" class="edge">
<title>cli&#45;&gt;l_codex</title>
<path fill="none" stroke="black" d="M2506.52,-428.97C2497.67,-425.69 2488.15,-422.74 2479,-421 2452.94,-416.05 1546.25,-427.44 1524,-413 1506.35,-401.54 1497.25,-379.09 1492.61,-361.04"/>
<polygon fill="black" stroke="black" points="1495.97,-360.03 1490.37,-351.04 1489.14,-361.56 1495.97,-360.03"/>
</g>
<!-- l_amplifier -->
<g id="node9" class="node">
<title>l_amplifier</title>
<polygon fill="none" stroke="black" points="1442.5,-351 1379.5,-351 1379.5,-315 1442.5,-315 1442.5,-351"/>
<text text-anchor="middle" x="1411" y="-330.8" font-family="Helvetica,sans-Serif" font-size="9.00">amplifier.py</text>
</g>
<!-- cli&#45;&gt;l_amplifier -->
<g id="edge5" class="edge">
<title>cli&#45;&gt;l_amplifier</title>
<path fill="none" stroke="black" d="M2506.52,-428.97C2497.67,-425.69 2488.15,-422.74 2479,-421 2450.97,-415.68 1476.32,-427.91 1452,-413 1433.52,-401.67 1422.99,-379.05 1417.23,-360.9"/>
<polygon fill="black" stroke="black" points="1420.55,-359.77 1414.44,-351.12 1413.82,-361.69 1420.55,-359.77"/>
</g>
<!-- m_viz -->
<g id="node33" class="node">
<title>m_viz</title>
<polygon fill="none" stroke="black" points="2664.5,-351 2585.5,-351 2585.5,-315 2664.5,-315 2664.5,-351"/>
<text text-anchor="middle" x="2625" y="-330.8" font-family="Helvetica,sans-Serif" font-size="9.00">cli_visualize.py</text>
</g>
<!-- cli&#45;&gt;m_viz -->
<g id="edge8" class="edge">
<title>cli&#45;&gt;m_viz</title>
<path fill="none" stroke="black" d="M2562.01,-428.83C2566.78,-423.91 2571.78,-418.41 2576,-413 2589.11,-396.19 2601.74,-375.7 2610.89,-359.8"/>
<polygon fill="black" stroke="black" points="2613.97,-361.46 2615.85,-351.03 2607.88,-358.01 2613.97,-361.46"/>
</g>
<!-- r_runner -->
<g id="node48" class="node">
<title>r_runner</title>
<polygon fill="none" stroke="black" points="3650.5,-351 3575.5,-351 3575.5,-315 3650.5,-315 3650.5,-351"/>
<text text-anchor="middle" x="3613" y="-330.8" font-family="Helvetica,sans-Serif" font-size="9.00">rust_runner.py</text>
</g>
<!-- cli&#45;&gt;r_runner -->
<g id="edge9" class="edge">
<title>cli&#45;&gt;r_runner</title>
<path fill="none" stroke="black" d="M2600.75,-445.98C2793.95,-445.63 3418.83,-442.25 3504,-413 3536.93,-401.69 3568.44,-376.79 3589.04,-357.95"/>
<polygon fill="black" stroke="black" points="3591.48,-360.46 3596.38,-351.07 3586.69,-355.36 3591.48,-360.46"/>
</g>
<!-- i_install -->
<g id="node58" class="node">
<title>i_install</title>
<polygon fill="none" stroke="black" points="5136,-351 5044,-351 5044,-315 5136,-315 5136,-351"/>
<text text-anchor="middle" x="5090" y="-335.8" font-family="Helvetica,sans-Serif" font-size="9.00">install.py</text>
<text text-anchor="middle" x="5090" y="-325.8" font-family="Helvetica,sans-Serif" font-size="9.00">copytree_manifest</text>
</g>
<!-- cli&#45;&gt;i_install -->
<g id="edge6" class="edge">
<title>cli&#45;&gt;i_install</title>
<path fill="none" stroke="black" d="M2600.53,-445.96C2965.83,-445.64 4979.43,-442.5 5035,-413 5055.9,-401.91 5070.5,-378.93 5079.38,-360.6"/>
<polygon fill="black" stroke="black" points="5082.67,-361.81 5083.62,-351.26 5076.3,-358.92 5082.67,-361.81"/>
</g>
<!-- pl_cli -->
<g id="node64" class="node">
<title>pl_cli</title>
<polygon fill="none" stroke="black" points="3915,-351 3847,-351 3847,-315 3915,-315 3915,-351"/>
<text text-anchor="middle" x="3881" y="-330.8" font-family="Helvetica,sans-Serif" font-size="9.00">plugin_cli.py</text>
</g>
<!-- cli&#45;&gt;pl_cli -->
<g id="edge7" class="edge">
<title>cli&#45;&gt;pl_cli</title>
<path fill="none" stroke="black" d="M2600.55,-446.08C2842.57,-446.25 3781.25,-444.82 3835,-413 3854.24,-401.61 3866.24,-378.82 3873.14,-360.64"/>
<polygon fill="black" stroke="black" points="3876.47,-361.7 3876.46,-351.11 3869.86,-359.4 3876.47,-361.7"/>
</g>
<!-- f_cli -->
<g id="node65" class="node">
<title>f_cli</title>
<polygon fill="none" stroke="black" points="4316.5,-351 4227.5,-351 4227.5,-315 4316.5,-315 4316.5,-351"/>
<text text-anchor="middle" x="4272" y="-330.8" font-family="Helvetica,sans-Serif" font-size="9.00">fleet_cli.py (Click)</text>
</g>
<!-- cli&#45;&gt;f_cli -->
<g id="edge11" class="edge">
<title>cli&#45;&gt;f_cli</title>
<path fill="none" stroke="black" d="M2600.78,-445.6C2889.53,-443.46 4182.72,-432.81 4219,-413 4239.52,-401.8 4253.55,-378.83 4262,-360.53"/>
<polygon fill="black" stroke="black" points="4265.27,-361.78 4266.01,-351.21 4258.84,-359.01 4265.27,-361.78"/>
</g>
<!-- g_cli -->
<g id="node76" class="node">
<title>g_cli</title>
<polygon fill="none" stroke="black" points="4824,-351 4770,-351 4770,-315 4824,-315 4824,-351"/>
<text text-anchor="middle" x="4797" y="-330.8" font-family="Helvetica,sans-Serif" font-size="9.00">cli.py</text>
</g>
<!-- cli&#45;&gt;g_cli -->
<g id="edge10" class="edge">
<title>cli&#45;&gt;g_cli</title>
<path fill="none" stroke="black" d="M2600.58,-445.99C2941.99,-445.82 4714.42,-443.45 4761,-413 4778.61,-401.49 4787.72,-379.04 4792.36,-361"/>
<polygon fill="black" stroke="black" points="4795.83,-361.54 4794.61,-351.01 4789,-360 4795.83,-361.54"/>
</g>
<!-- o_docker -->
<g id="node81" class="node">
<title>o_docker</title>
<polygon fill="none" stroke="black" points="2466.5,-268 2383.5,-268 2383.5,-232 2466.5,-232 2466.5,-268"/>
<text text-anchor="middle" x="2425" y="-252.8" font-family="Helvetica,sans-Serif" font-size="9.00">docker/</text>
<text text-anchor="middle" x="2425" y="-242.8" font-family="Helvetica,sans-Serif" font-size="9.00">DockerManager</text>
</g>
<!-- cli&#45;&gt;o_docker -->
<g id="edge12" class="edge">
<title>cli&#45;&gt;o_docker</title>
<path fill="none" stroke="black" d="M2498.75,-428.9C2491.42,-424.58 2484.45,-419.33 2479,-413 2445.32,-373.93 2432.48,-313.13 2427.71,-278.19"/>
<polygon fill="black" stroke="black" points="2431.17,-277.72 2426.47,-268.23 2424.23,-278.58 2431.17,-277.72"/>
</g>
<!-- cli_ext -->
<g id="node2" class="node">
<title>cli_ext</title>
<polygon fill="none" stroke="black" points="2469.5,-465 2382.5,-465 2382.5,-429 2469.5,-429 2469.5,-465"/>
<text text-anchor="middle" x="2426" y="-444.8" font-family="Helvetica,sans-Serif" font-size="9.00">cli_extensions.py</text>
</g>
<!-- l_session -->
<g id="node10" class="node">
<title>l_session</title>
<polygon fill="none" stroke="black" points="1296,-268 1204,-268 1204,-232 1296,-232 1296,-268"/>
<text text-anchor="middle" x="1250" y="-247.8" font-family="Helvetica,sans-Serif" font-size="9.00">session_tracker.py</text>
</g>
<!-- l_core&#45;&gt;l_session -->
<g id="edge17" class="edge">
<title>l_core&#45;&gt;l_session</title>
<path fill="none" stroke="black" d="M1294.12,-314.82C1286.4,-303.65 1276.2,-288.9 1267.55,-276.38"/>
<polygon fill="black" stroke="black" points="1270.42,-274.39 1261.86,-268.15 1264.67,-278.37 1270.42,-274.39"/>
</g>
<!-- l_nesting -->
<g id="node11" class="node">
<title>l_nesting</title>
<polygon fill="none" stroke="black" points="1040,-268 944,-268 944,-232 1040,-232 1040,-268"/>
<text text-anchor="middle" x="992" y="-247.8" font-family="Helvetica,sans-Serif" font-size="9.00">nesting_detector.py</text>
</g>
<!-- l_core&#45;&gt;l_nesting -->
<g id="edge16" class="edge">
<title>l_core&#45;&gt;l_nesting</title>
<path fill="none" stroke="black" d="M1275.1,-314.9C1268.03,-311.71 1260.41,-308.81 1253,-307 1208.93,-296.22 1091.31,-315.39 1049,-299 1035.86,-293.91 1023.59,-284.47 1013.82,-275.29"/>
<polygon fill="black" stroke="black" points="1016.12,-272.64 1006.56,-268.08 1011.19,-277.61 1016.12,-272.64"/>
</g>
<!-- l_binary -->
<g id="node12" class="node">
<title>l_binary</title>
<polygon fill="none" stroke="black" points="1186,-268 1058,-268 1058,-232 1186,-232 1186,-268"/>
<text text-anchor="middle" x="1122" y="-247.8" font-family="Helvetica,sans-Serif" font-size="9.00">claude_binary_manager.py</text>
</g>
<!-- l_core&#45;&gt;l_binary -->
<g id="edge14" class="edge">
<title>l_core&#45;&gt;l_binary</title>
<path fill="none" stroke="black" d="M1273.82,-314.93C1267.08,-311.9 1259.92,-309.06 1253,-307 1228.06,-299.59 1219.36,-308.15 1195,-299 1179.43,-293.15 1163.8,-283.5 1151.02,-274.38"/>
<polygon fill="black" stroke="black" points="1152.78,-271.34 1142.66,-268.21 1148.62,-276.97 1152.78,-271.34"/>
</g>
<!-- p_manager -->
<g id="node19" class="node">
<title>p_manager</title>
<polygon fill="none" stroke="black" points="407.5,-268 330.5,-268 330.5,-232 407.5,-232 407.5,-268"/>
<text text-anchor="middle" x="369" y="-252.8" font-family="Helvetica,sans-Serif" font-size="9.00">manager.py</text>
<text text-anchor="middle" x="369" y="-242.8" font-family="Helvetica,sans-Serif" font-size="9.00">ProxyManager</text>
</g>
<!-- l_core&#45;&gt;p_manager -->
<g id="edge13" class="edge">
<title>l_core&#45;&gt;p_manager</title>
<path fill="none" stroke="black" d="M1275.7,-314.99C1268.47,-311.71 1260.64,-308.75 1253,-307 1167.55,-287.4 549.18,-319.75 464,-299 442.75,-293.82 420.84,-283.17 403.42,-273.21"/>
<polygon fill="black" stroke="black" points="405.15,-270.17 394.75,-268.1 401.59,-276.2 405.15,-270.17"/>
</g>
<!-- u_prereqs -->
<g id="node71" class="node">
<title>u_prereqs</title>
<polygon fill="none" stroke="black" points="920,-268 838,-268 838,-232 920,-232 920,-268"/>
<text text-anchor="middle" x="879" y="-247.8" font-family="Helvetica,sans-Serif" font-size="9.00">prerequisites.py</text>
</g>
<!-- l_core&#45;&gt;u_prereqs -->
<g id="edge15" class="edge">
<title>l_core&#45;&gt;u_prereqs</title>
<path fill="none" stroke="black" d="M1275.4,-314.95C1268.25,-311.71 1260.52,-308.78 1253,-307 1218.28,-298.77 965.13,-312.25 932,-299 919.57,-294.03 908.21,-284.73 899.23,-275.64"/>
<polygon fill="black" stroke="black" points="901.63,-273.08 892.26,-268.14 896.5,-277.85 901.63,-273.08"/>
</g>
<!-- o_tracing -->
<g id="node84" class="node">
<title>o_tracing</title>
<polygon fill="none" stroke="black" points="2200,-268 2120,-268 2120,-232 2200,-232 2200,-268"/>
<text text-anchor="middle" x="2160" y="-252.8" font-family="Helvetica,sans-Serif" font-size="9.00">tracing/</text>
<text text-anchor="middle" x="2160" y="-242.8" font-family="Helvetica,sans-Serif" font-size="9.00">trace_logger.py</text>
</g>
<!-- l_core&#45;&gt;o_tracing -->
<g id="edge18" class="edge">
<title>l_core&#45;&gt;o_tracing</title>
<path fill="none" stroke="black" d="M1342.89,-314.99C1351.6,-311.71 1360.98,-308.75 1370,-307 1410.42,-299.16 2072.97,-314.76 2111,-299 2122.74,-294.13 2133.21,-284.98 2141.43,-275.96"/>
<polygon fill="black" stroke="black" points="2144.23,-278.07 2148.04,-268.18 2138.9,-273.53 2144.23,-278.07"/>
</g>
<!-- l_coord -->
<g id="node5" class="node">
<title>l_coord</title>
<polygon fill="none" stroke="black" points="1682,-268 1556,-268 1556,-232 1682,-232 1682,-268"/>
<text text-anchor="middle" x="1619" y="-247.8" font-family="Helvetica,sans-Serif" font-size="9.00">auto_mode_coordinator.py</text>
</g>
<!-- l_auto&#45;&gt;l_coord -->
<g id="edge19" class="edge">
<title>l_auto&#45;&gt;l_coord</title>
<path fill="none" stroke="black" d="M1639.49,-314.82C1636.04,-304.08 1631.53,-290.03 1627.61,-277.84"/>
<polygon fill="black" stroke="black" points="1630.89,-276.61 1624.51,-268.15 1624.23,-278.74 1630.89,-276.61"/>
</g>
<!-- l_state -->
<g id="node6" class="node">
<title>l_state</title>
<polygon fill="none" stroke="black" points="1414,-268 1314,-268 1314,-232 1414,-232 1414,-268"/>
<text text-anchor="middle" x="1364" y="-247.8" font-family="Helvetica,sans-Serif" font-size="9.00">auto_mode_state.py</text>
</g>
<!-- l_auto&#45;&gt;l_state -->
<g id="edge20" class="edge">
<title>l_auto&#45;&gt;l_state</title>
<path fill="none" stroke="black" d="M1617.76,-314.93C1611.49,-311.73 1604.69,-308.83 1598,-307 1560.45,-296.72 1459.37,-312.87 1423,-299 1409.43,-293.83 1396.63,-284.24 1386.45,-274.99"/>
<polygon fill="black" stroke="black" points="1388.84,-272.44 1379.2,-268.05 1384.01,-277.5 1388.84,-272.44"/>
</g>
<!-- l_complete -->
<g id="node16" class="node">
<title>l_complete</title>
<polygon fill="none" stroke="black" points="1538,-268 1432,-268 1432,-232 1538,-232 1538,-268"/>
<text text-anchor="middle" x="1485" y="-247.8" font-family="Helvetica,sans-Serif" font-size="9.00">completion_verifier.py</text>
</g>
<!-- l_auto&#45;&gt;l_complete -->
<g id="edge21" class="edge">
<title>l_auto&#45;&gt;l_complete</title>
<path fill="none" stroke="black" d="M1616.59,-314.96C1610.61,-311.93 1604.22,-309.08 1598,-307 1576.24,-299.73 1568.07,-308.09 1547,-299 1533.55,-293.2 1520.46,-283.8 1509.8,-274.85"/>
<polygon fill="black" stroke="black" points="1511.98,-272.11 1502.15,-268.16 1507.37,-277.37 1511.98,-272.11"/>
</g>
<!-- l_append -->
<g id="node15" class="node">
<title>l_append</title>
<polygon fill="none" stroke="black" points="1667,-196 1571,-196 1571,-160 1667,-160 1667,-196"/>
<text text-anchor="middle" x="1619" y="-175.8" font-family="Helvetica,sans-Serif" font-size="9.00">append_handler.py</text>
</g>
<!-- l_coord&#45;&gt;l_append -->
<g id="edge22" class="edge">
<title>l_coord&#45;&gt;l_append</title>
<path fill="none" stroke="black" d="M1619,-231.7C1619,-223.98 1619,-214.71 1619,-206.11"/>
<polygon fill="black" stroke="black" points="1622.5,-206.1 1619,-196.1 1615.5,-206.1 1622.5,-206.1"/>
</g>
<!-- l_repo -->
<g id="node13" class="node">
<title>l_repo</title>
<polygon fill="none" stroke="black" points="1244.5,-351 1155.5,-351 1155.5,-315 1244.5,-315 1244.5,-351"/>
<text text-anchor="middle" x="1200" y="-330.8" font-family="Helvetica,sans-Serif" font-size="9.00">repo_checkout.py</text>
</g>
<!-- l_fork -->
<g id="node14" class="node">
<title>l_fork</title>
<polygon fill="none" stroke="black" points="1137.5,-351 1052.5,-351 1052.5,-315 1137.5,-315 1137.5,-351"/>
<text text-anchor="middle" x="1095" y="-330.8" font-family="Helvetica,sans-Serif" font-size="9.00">fork_manager.py</text>
</g>
<!-- l_summary -->
<g id="node17" class="node">
<title>l_summary</title>
<polygon fill="none" stroke="black" points="1034,-351 944,-351 944,-315 1034,-315 1034,-351"/>
<text text-anchor="middle" x="989" y="-330.8" font-family="Helvetica,sans-Serif" font-size="9.00">work_summary.py</text>
</g>
<!-- p_config -->
<g id="node18" class="node">
<title>p_config</title>
<polygon fill="none" stroke="black" points="323.5,-196 256.5,-196 256.5,-160 323.5,-160 323.5,-196"/>
<text text-anchor="middle" x="290" y="-180.8" font-family="Helvetica,sans-Serif" font-size="9.00">config.py</text>
<text text-anchor="middle" x="290" y="-170.8" font-family="Helvetica,sans-Serif" font-size="9.00">ProxyConfig</text>
</g>
<!-- p_manager&#45;&gt;p_config -->
<g id="edge23" class="edge">
<title>p_manager&#45;&gt;p_config</title>
<path fill="none" stroke="black" d="M349.47,-231.7C339.62,-222.97 327.51,-212.24 316.8,-202.75"/>
<polygon fill="black" stroke="black" points="319.11,-200.12 309.3,-196.1 314.47,-205.36 319.11,-200.12"/>
</g>
<!-- p_server -->
<g id="node20" class="node">
<title>p_server</title>
<polygon fill="none" stroke="black" points="396,-196 342,-196 342,-160 396,-160 396,-196"/>
<text text-anchor="middle" x="369" y="-175.8" font-family="Helvetica,sans-Serif" font-size="9.00">server.py</text>
</g>
<!-- p_manager&#45;&gt;p_server -->
<g id="edge24" class="edge">
<title>p_manager&#45;&gt;p_server</title>
<path fill="none" stroke="black" d="M369,-231.7C369,-223.98 369,-214.71 369,-206.11"/>
<polygon fill="black" stroke="black" points="372.5,-206.1 369,-196.1 365.5,-206.1 372.5,-206.1"/>
</g>
<!-- p_integrated -->
<g id="node21" class="node">
<title>p_integrated</title>
<polygon fill="none" stroke="black" points="373.5,-124 276.5,-124 276.5,-88 373.5,-88 373.5,-124"/>
<text text-anchor="middle" x="325" y="-103.8" font-family="Helvetica,sans-Serif" font-size="9.00">integrated_proxy.py</text>
</g>
<!-- p_server&#45;&gt;p_integrated -->
<g id="edge25" class="edge">
<title>p_server&#45;&gt;p_integrated</title>
<path fill="none" stroke="black" d="M358.12,-159.7C353.01,-151.56 346.8,-141.69 341.16,-132.7"/>
<polygon fill="black" stroke="black" points="344.04,-130.71 335.75,-124.1 338.11,-134.43 344.04,-130.71"/>
</g>
<!-- p_azure -->
<g id="node22" class="node">
<title>p_azure</title>
<polygon fill="none" stroke="black" points="137.5,-52 16.5,-52 16.5,-16 137.5,-16 137.5,-52"/>
<text text-anchor="middle" x="77" y="-31.8" font-family="Helvetica,sans-Serif" font-size="9.00">azure_unified_handler.py</text>
</g>
<!-- p_integrated&#45;&gt;p_azure -->
<g id="edge26" class="edge">
<title>p_integrated&#45;&gt;p_azure</title>
<path fill="none" stroke="black" d="M276.3,-91.25C239.47,-80.86 188.38,-66.44 147.15,-54.8"/>
<polygon fill="black" stroke="black" points="148.01,-51.41 137.44,-52.06 146.11,-58.14 148.01,-51.41"/>
</g>
<!-- p_resp -->
<g id="node23" class="node">
<title>p_resp</title>
<polygon fill="none" stroke="black" points="272,-52 156,-52 156,-16 272,-16 272,-52"/>
<text text-anchor="middle" x="214" y="-31.8" font-family="Helvetica,sans-Serif" font-size="9.00">responses_api_proxy.py</text>
</g>
<!-- p_integrated&#45;&gt;p_resp -->
<g id="edge27" class="edge">
<title>p_integrated&#45;&gt;p_resp</title>
<path fill="none" stroke="black" d="M297.85,-87.88C283.47,-78.81 265.62,-67.55 250.09,-57.76"/>
<polygon fill="black" stroke="black" points="251.58,-54.56 241.26,-52.19 247.85,-60.48 251.58,-54.56"/>
</g>
<!-- p_stream -->
<g id="node24" class="node">
<title>p_stream</title>
<polygon fill="none" stroke="black" points="359.5,-52 290.5,-52 290.5,-16 359.5,-16 359.5,-52"/>
<text text-anchor="middle" x="325" y="-31.8" font-family="Helvetica,sans-Serif" font-size="9.00">streaming.py</text>
</g>
<!-- p_integrated&#45;&gt;p_stream -->
<g id="edge28" class="edge">
<title>p_integrated&#45;&gt;p_stream</title>
<path fill="none" stroke="black" d="M325,-87.7C325,-79.98 325,-70.71 325,-62.11"/>
<polygon fill="black" stroke="black" points="328.5,-62.1 325,-52.1 321.5,-62.1 328.5,-62.1"/>
</g>
<!-- p_convert -->
<g id="node25" class="node">
<title>p_convert</title>
<polygon fill="none" stroke="black" points="452,-52 378,-52 378,-16 452,-16 452,-52"/>
<text text-anchor="middle" x="415" y="-31.8" font-family="Helvetica,sans-Serif" font-size="9.00">conversion.py</text>
</g>
<!-- p_integrated&#45;&gt;p_convert -->
<g id="edge29" class="edge">
<title>p_integrated&#45;&gt;p_convert</title>
<path fill="none" stroke="black" d="M347.25,-87.7C358.58,-78.88 372.53,-68.03 384.82,-58.47"/>
<polygon fill="black" stroke="black" points="387.26,-61.01 393.01,-52.1 382.97,-55.48 387.26,-61.01"/>
</g>
<!-- p_monitor -->
<g id="node26" class="node">
<title>p_monitor</title>
<polygon fill="none" stroke="black" points="291,-268 219,-268 219,-232 291,-232 291,-268"/>
<text text-anchor="middle" x="255" y="-247.8" font-family="Helvetica,sans-Serif" font-size="9.00">monitoring.py</text>
</g>
<!-- p_gh -->
<g id="node27" class="node">
<title>p_gh</title>
<polygon fill="none" stroke="black" points="158.5,-268 81.5,-268 81.5,-232 158.5,-232 158.5,-268"/>
<text text-anchor="middle" x="120" y="-247.8" font-family="Helvetica,sans-Serif" font-size="9.00">github_auth.py</text>
</g>
<!-- m_db -->
<g id="node28" class="node">
<title>m_db</title>
<polygon fill="none" stroke="black" points="2661.5,-196 2536.5,-196 2536.5,-160 2661.5,-160 2661.5,-196"/>
<text text-anchor="middle" x="2599" y="-180.8" font-family="Helvetica,sans-Serif" font-size="9.00">database.py</text>
<text text-anchor="middle" x="2599" y="-170.8" font-family="Helvetica,sans-Serif" font-size="9.00">MemoryDatabase (SQLite)</text>
</g>
<!-- m_models -->
<g id="node29" class="node">
<title>m_models</title>
<polygon fill="none" stroke="black" points="2663,-124 2535,-124 2535,-88 2663,-88 2663,-124"/>
<text text-anchor="middle" x="2599" y="-108.8" font-family="Helvetica,sans-Serif" font-size="9.00">models.py</text>
<text text-anchor="middle" x="2599" y="-98.8" font-family="Helvetica,sans-Serif" font-size="9.00">MemoryEntry, MemoryType</text>
</g>
<!-- m_db&#45;&gt;m_models -->
<g id="edge30" class="edge">
<title>m_db&#45;&gt;m_models</title>
<path fill="none" stroke="black" d="M2599,-159.7C2599,-151.98 2599,-142.71 2599,-134.11"/>
<polygon fill="black" stroke="black" points="2602.5,-134.1 2599,-124.1 2595.5,-134.1 2602.5,-134.1"/>
</g>
<!-- m_mgr -->
<g id="node30" class="node">
<title>m_mgr</title>
<polygon fill="none" stroke="black" points="2642,-268 2556,-268 2556,-232 2642,-232 2642,-268"/>
<text text-anchor="middle" x="2599" y="-252.8" font-family="Helvetica,sans-Serif" font-size="9.00">manager.py</text>
<text text-anchor="middle" x="2599" y="-242.8" font-family="Helvetica,sans-Serif" font-size="9.00">MemoryManager</text>
</g>
<!-- m_mgr&#45;&gt;m_db -->
<g id="edge31" class="edge">
<title>m_mgr&#45;&gt;m_db</title>
<path fill="none" stroke="black" d="M2599,-231.7C2599,-223.98 2599,-214.71 2599,-206.11"/>
<polygon fill="black" stroke="black" points="2602.5,-206.1 2599,-196.1 2595.5,-206.1 2602.5,-206.1"/>
</g>
<!-- m_coord -->
<g id="node31" class="node">
<title>m_coord</title>
<polygon fill="none" stroke="black" points="2757,-351 2683,-351 2683,-315 2757,-315 2757,-351"/>
<text text-anchor="middle" x="2720" y="-330.8" font-family="Helvetica,sans-Serif" font-size="9.00">coordinator.py</text>
</g>
<!-- m_coord&#45;&gt;m_mgr -->
<g id="edge32" class="edge">
<title>m_coord&#45;&gt;m_mgr</title>
<path fill="none" stroke="black" d="M2690.17,-314.88C2684.86,-312.09 2679.32,-309.35 2674,-307 2664.1,-302.62 2660.28,-304.57 2651,-299 2640.24,-292.55 2629.79,-283.61 2621.12,-275.19"/>
<polygon fill="black" stroke="black" points="2623.52,-272.64 2613.99,-268.01 2618.55,-277.57 2623.52,-272.64"/>
</g>
<!-- m_retrieval -->
<g id="node32" class="node">
<title>m_retrieval</title>
<polygon fill="none" stroke="black" points="2760,-268 2660,-268 2660,-232 2760,-232 2760,-268"/>
<text text-anchor="middle" x="2710" y="-247.8" font-family="Helvetica,sans-Serif" font-size="9.00">retrieval_pipeline.py</text>
</g>
<!-- m_coord&#45;&gt;m_retrieval -->
<g id="edge33" class="edge">
<title>m_coord&#45;&gt;m_retrieval</title>
<path fill="none" stroke="black" d="M2717.88,-314.82C2716.57,-304.19 2714.85,-290.31 2713.36,-278.2"/>
<polygon fill="black" stroke="black" points="2716.82,-277.65 2712.12,-268.15 2709.87,-278.51 2716.82,-277.65"/>
</g>
<!-- m_clean -->
<g id="node34" class="node">
<title>m_clean</title>
<polygon fill="none" stroke="black" points="2567,-351 2491,-351 2491,-315 2567,-315 2567,-351"/>
<text text-anchor="middle" x="2529" y="-330.8" font-family="Helvetica,sans-Serif" font-size="9.00">cli_cleanup.py</text>
</g>
<!-- k_conn -->
<g id="node35" class="node">
<title>k_conn</title>
<polygon fill="none" stroke="black" points="3492,-351 3424,-351 3424,-315 3492,-315 3492,-351"/>
<text text-anchor="middle" x="3458" y="-330.8" font-family="Helvetica,sans-Serif" font-size="9.00">connector.py</text>
</g>
<!-- k_code -->
<g id="node36" class="node">
<title>k_code</title>
<polygon fill="none" stroke="black" points="3492,-268 3414,-268 3414,-232 3492,-232 3492,-268"/>
<text text-anchor="middle" x="3453" y="-247.8" font-family="Helvetica,sans-Serif" font-size="9.00">code_graph.py</text>
</g>
<!-- k_conn&#45;&gt;k_code -->
<g id="edge34" class="edge">
<title>k_conn&#45;&gt;k_code</title>
<path fill="none" stroke="black" d="M3456.94,-314.82C3456.28,-304.19 3455.43,-290.31 3454.68,-278.2"/>
<polygon fill="black" stroke="black" points="3458.17,-277.92 3454.06,-268.15 3451.18,-278.35 3458.17,-277.92"/>
</g>
<!-- k_query -->
<g id="node37" class="node">
<title>k_query</title>
<polygon fill="none" stroke="black" points="3405.5,-351 3298.5,-351 3298.5,-315 3405.5,-315 3405.5,-351"/>
<text text-anchor="middle" x="3352" y="-330.8" font-family="Helvetica,sans-Serif" font-size="9.00">query_code_graph.py</text>
</g>
<!-- k_orch -->
<g id="node38" class="node">
<title>k_orch</title>
<polygon fill="none" stroke="black" points="3280,-351 3166,-351 3166,-315 3280,-315 3280,-351"/>
<text text-anchor="middle" x="3223" y="-330.8" font-family="Helvetica,sans-Serif" font-size="9.00">indexing/orchestrator.py</text>
</g>
<!-- k_scip -->
<g id="node39" class="node">
<title>k_scip</title>
<polygon fill="none" stroke="black" points="3203,-268 3053,-268 3053,-232 3203,-232 3203,-268"/>
<text text-anchor="middle" x="3128" y="-247.8" font-family="Helvetica,sans-Serif" font-size="9.00">indexing/scip_indexer_runner.py</text>
</g>
<!-- k_orch&#45;&gt;k_scip -->
<g id="edge35" class="edge">
<title>k_orch&#45;&gt;k_scip</title>
<path fill="none" stroke="black" d="M3202.85,-314.82C3189.25,-303.22 3171.11,-287.75 3156.09,-274.95"/>
<polygon fill="black" stroke="black" points="3158,-271.98 3148.12,-268.15 3153.46,-277.3 3158,-271.98"/>
</g>
<!-- k_import -->
<g id="node40" class="node">
<title>k_import</title>
<polygon fill="none" stroke="black" points="3341.5,-268 3220.5,-268 3220.5,-232 3341.5,-232 3341.5,-268"/>
<text text-anchor="middle" x="3281" y="-247.8" font-family="Helvetica,sans-Serif" font-size="9.00">indexing/scip_importer.py</text>
</g>
<!-- k_orch&#45;&gt;k_import -->
<g id="edge36" class="edge">
<title>k_orch&#45;&gt;k_import</title>
<path fill="none" stroke="black" d="M3235.3,-314.82C3243.3,-303.65 3253.87,-288.9 3262.82,-276.38"/>
<polygon fill="black" stroke="black" points="3265.74,-278.32 3268.72,-268.15 3260.05,-274.25 3265.74,-278.32"/>
</g>
<!-- k_bg -->
<g id="node41" class="node">
<title>k_bg</title>
<polygon fill="none" stroke="black" points="3148,-351 2998,-351 2998,-315 3148,-315 3148,-351"/>
<text text-anchor="middle" x="3073" y="-330.8" font-family="Helvetica,sans-Serif" font-size="9.00">indexing/background_indexer.py</text>
</g>
<!-- b_base -->
<g id="node42" class="node">
<title>b_base</title>
<polygon fill="none" stroke="black" points="2901,-268 2847,-268 2847,-232 2901,-232 2901,-268"/>
<text text-anchor="middle" x="2874" y="-247.8" font-family="Helvetica,sans-Serif" font-size="9.00">base.py</text>
</g>
<!-- b_sqlite -->
<g id="node43" class="node">
<title>b_sqlite</title>
<polygon fill="none" stroke="black" points="2973.5,-351 2882.5,-351 2882.5,-315 2973.5,-315 2973.5,-351"/>
<text text-anchor="middle" x="2928" y="-330.8" font-family="Helvetica,sans-Serif" font-size="9.00">sqlite_backend.py</text>
</g>
<!-- b_sqlite&#45;&gt;b_base -->
<g id="edge37" class="edge">
<title>b_sqlite&#45;&gt;b_base</title>
<path fill="none" stroke="black" d="M2916.55,-314.82C2909.17,-303.76 2899.45,-289.18 2891.16,-276.75"/>
<polygon fill="black" stroke="black" points="2893.89,-274.53 2885.44,-268.15 2888.07,-278.42 2893.89,-274.53"/>
</g>
<!-- b_kuzu -->
<g id="node44" class="node">
<title>b_kuzu</title>
<polygon fill="none" stroke="black" points="2864.5,-351 2775.5,-351 2775.5,-315 2864.5,-315 2864.5,-351"/>
<text text-anchor="middle" x="2820" y="-330.8" font-family="Helvetica,sans-Serif" font-size="9.00">kuzu_backend.py</text>
</g>
<!-- b_kuzu&#45;&gt;b_base -->
<g id="edge38" class="edge">
<title>b_kuzu&#45;&gt;b_base</title>
<path fill="none" stroke="black" d="M2832.05,-314.95C2835.62,-309.85 2839.5,-304.22 2843,-299 2847.74,-291.93 2852.79,-284.21 2857.4,-277.07"/>
<polygon fill="black" stroke="black" points="2860.49,-278.73 2862.95,-268.43 2854.6,-274.95 2860.49,-278.73"/>
</g>
<!-- r_models -->
<g id="node45" class="node">
<title>r_models</title>
<polygon fill="none" stroke="black" points="3643.5,-268 3524.5,-268 3524.5,-232 3643.5,-232 3643.5,-268"/>
<text text-anchor="middle" x="3584" y="-252.8" font-family="Helvetica,sans-Serif" font-size="9.00">models.py</text>
<text text-anchor="middle" x="3584" y="-242.8" font-family="Helvetica,sans-Serif" font-size="9.00">Step, Recipe, StepResult</text>
</g>
<!-- r_parser -->
<g id="node46" class="node">
<title>r_parser</title>
<polygon fill="none" stroke="black" points="3716,-268 3662,-268 3662,-232 3716,-232 3716,-268"/>
<text text-anchor="middle" x="3689" y="-247.8" font-family="Helvetica,sans-Serif" font-size="9.00">parser.py</text>
</g>
<!-- r_discovery -->
<g id="node47" class="node">
<title>r_discovery</title>
<polygon fill="none" stroke="black" points="3793.5,-351 3726.5,-351 3726.5,-315 3793.5,-315 3793.5,-351"/>
<text text-anchor="middle" x="3760" y="-330.8" font-family="Helvetica,sans-Serif" font-size="9.00">discovery.py</text>
</g>
<!-- r_runner&#45;&gt;r_models -->
<g id="edge39" class="edge">
<title>r_runner&#45;&gt;r_models</title>
<path fill="none" stroke="black" d="M3606.85,-314.82C3603.01,-304.08 3597.97,-290.03 3593.61,-277.84"/>
<polygon fill="black" stroke="black" points="3596.81,-276.39 3590.14,-268.15 3590.22,-278.75 3596.81,-276.39"/>
</g>
<!-- r_runner&#45;&gt;r_parser -->
<g id="edge40" class="edge">
<title>r_runner&#45;&gt;r_parser</title>
<path fill="none" stroke="black" d="M3635.83,-314.73C3641.68,-309.9 3647.78,-304.47 3653,-299 3659.51,-292.18 3665.92,-284.17 3671.49,-276.68"/>
<polygon fill="black" stroke="black" points="3674.58,-278.38 3677.59,-268.22 3668.9,-274.28 3674.58,-278.38"/>
</g>
<!-- r_resolver -->
<g id="node49" class="node">
<title>r_resolver</title>
<polygon fill="none" stroke="black" points="3823.5,-268 3734.5,-268 3734.5,-232 3823.5,-232 3823.5,-268"/>
<text text-anchor="middle" x="3779" y="-247.8" font-family="Helvetica,sans-Serif" font-size="9.00">agent_resolver.py</text>
</g>
<!-- r_runner&#45;&gt;r_resolver -->
<g id="edge41" class="edge">
<title>r_runner&#45;&gt;r_resolver</title>
<path fill="none" stroke="black" d="M3650.68,-325.24C3673.22,-320.16 3701.87,-311.84 3725,-299 3736.2,-292.79 3747.05,-283.89 3756.06,-275.45"/>
<polygon fill="black" stroke="black" points="3758.75,-277.71 3763.46,-268.22 3753.86,-272.71 3758.75,-277.71"/>
</g>
<!-- s_defender -->
<g id="node50" class="node">
<title>s_defender</title>
<polygon fill="none" stroke="black" points="5403.5,-351 5316.5,-351 5316.5,-315 5403.5,-315 5403.5,-351"/>
<text text-anchor="middle" x="5360" y="-335.8" font-family="Helvetica,sans-Serif" font-size="9.00">xpia_defender.py</text>
<text text-anchor="middle" x="5360" y="-325.8" font-family="Helvetica,sans-Serif" font-size="9.00">XPIADefender</text>
</g>
<!-- s_patterns -->
<g id="node51" class="node">
<title>s_patterns</title>
<polygon fill="none" stroke="black" points="5402,-268 5318,-268 5318,-232 5402,-232 5402,-268"/>
<text text-anchor="middle" x="5360" y="-247.8" font-family="Helvetica,sans-Serif" font-size="9.00">xpia_patterns.py</text>
</g>
<!-- s_defender&#45;&gt;s_patterns -->
<g id="edge42" class="edge">
<title>s_defender&#45;&gt;s_patterns</title>
<path fill="none" stroke="black" d="M5360,-314.82C5360,-304.19 5360,-290.31 5360,-278.2"/>
<polygon fill="black" stroke="black" points="5363.5,-278.15 5360,-268.15 5356.5,-278.15 5363.5,-278.15"/>
</g>
<!-- s_hooks -->
<g id="node52" class="node">
<title>s_hooks</title>
<polygon fill="none" stroke="black" points="5404,-465 5328,-465 5328,-429 5404,-429 5404,-465"/>
<text text-anchor="middle" x="5366" y="-444.8" font-family="Helvetica,sans-Serif" font-size="9.00">xpia_hooks.py</text>
</g>
<!-- s_hooks&#45;&gt;s_defender -->
<g id="edge43" class="edge">
<title>s_hooks&#45;&gt;s_defender</title>
<path fill="none" stroke="black" d="M5365.09,-428.99C5364.13,-411.06 5362.6,-382.56 5361.47,-361.44"/>
<polygon fill="black" stroke="black" points="5364.95,-360.97 5360.92,-351.17 5357.96,-361.34 5364.95,-360.97"/>
</g>
<!-- s_health -->
<g id="node53" class="node">
<title>s_health</title>
<polygon fill="none" stroke="black" points="5309.5,-465 5232.5,-465 5232.5,-429 5309.5,-429 5309.5,-465"/>
<text text-anchor="middle" x="5271" y="-444.8" font-family="Helvetica,sans-Serif" font-size="9.00">xpia_health.py</text>
</g>
<!-- s_config -->
<g id="node54" class="node">
<title>s_config</title>
<polygon fill="none" stroke="black" points="5214,-465 5160,-465 5160,-429 5214,-429 5214,-465"/>
<text text-anchor="middle" x="5187" y="-444.8" font-family="Helvetica,sans-Serif" font-size="9.00">config.py</text>
</g>
<!-- sf_git -->
<g id="node55" class="node">
<title>sf_git</title>
<polygon fill="none" stroke="black" points="5790,-465 5680,-465 5680,-429 5790,-429 5790,-465"/>
<text text-anchor="middle" x="5735" y="-444.8" font-family="Helvetica,sans-Serif" font-size="9.00">git_conflict_detector.py</text>
</g>
<!-- sf_copy -->
<g id="node56" class="node">
<title>sf_copy</title>
<polygon fill="none" stroke="black" points="5661.5,-465 5554.5,-465 5554.5,-429 5661.5,-429 5661.5,-465"/>
<text text-anchor="middle" x="5608" y="-444.8" font-family="Helvetica,sans-Serif" font-size="9.00">safe_copy_strategy.py</text>
</g>
<!-- sf_prompt -->
<g id="node57" class="node">
<title>sf_prompt</title>
<polygon fill="none" stroke="black" points="5536,-465 5428,-465 5428,-429 5536,-429 5536,-465"/>
<text text-anchor="middle" x="5482" y="-444.8" font-family="Helvetica,sans-Serif" font-size="9.00">prompt_transformer.py</text>
</g>
<!-- i_settings -->
<g id="node60" class="node">
<title>i_settings</title>
<polygon fill="none" stroke="black" points="5029,-268 4969,-268 4969,-232 5029,-232 5029,-268"/>
<text text-anchor="middle" x="4999" y="-247.8" font-family="Helvetica,sans-Serif" font-size="9.00">settings.py</text>
</g>
<!-- i_install&#45;&gt;i_settings -->
<g id="edge45" class="edge">
<title>i_install&#45;&gt;i_settings</title>
<path fill="none" stroke="black" d="M5060.32,-314.94C5053.03,-310.18 5045.47,-304.74 5039,-299 5031.37,-292.24 5023.95,-283.97 5017.61,-276.21"/>
<polygon fill="black" stroke="black" points="5020.15,-273.78 5011.21,-268.09 5014.65,-278.11 5020.15,-273.78"/>
</g>
<!-- i_staging_safe -->
<g id="node62" class="node">
<title>i_staging_safe</title>
<polygon fill="none" stroke="black" points="5134.5,-268 5047.5,-268 5047.5,-232 5134.5,-232 5134.5,-268"/>
<text text-anchor="middle" x="5091" y="-247.8" font-family="Helvetica,sans-Serif" font-size="9.00">staging_safety.py</text>
</g>
<!-- i_install&#45;&gt;i_staging_safe -->
<g id="edge44" class="edge">
<title>i_install&#45;&gt;i_staging_safe</title>
<path fill="none" stroke="black" d="M5090.21,-314.82C5090.34,-304.19 5090.51,-290.31 5090.66,-278.2"/>
<polygon fill="black" stroke="black" points="5094.16,-278.2 5090.79,-268.15 5087.16,-278.11 5094.16,-278.2"/>
</g>
<!-- i_uninstall -->
<g id="node59" class="node">
<title>i_uninstall</title>
<polygon fill="none" stroke="black" points="5025.5,-351 4962.5,-351 4962.5,-315 5025.5,-315 5025.5,-351"/>
<text text-anchor="middle" x="4994" y="-330.8" font-family="Helvetica,sans-Serif" font-size="9.00">uninstall.py</text>
</g>
<!-- i_staging -->
<g id="node61" class="node">
<title>i_staging</title>
<polygon fill="none" stroke="black" points="4944.5,-351 4847.5,-351 4847.5,-315 4944.5,-315 4944.5,-351"/>
<text text-anchor="middle" x="4896" y="-330.8" font-family="Helvetica,sans-Serif" font-size="9.00">staging_cleanup.py</text>
</g>
<!-- pl_mgr -->
<g id="node63" class="node">
<title>pl_mgr</title>
<polygon fill="none" stroke="black" points="4028.5,-351 3933.5,-351 3933.5,-315 4028.5,-315 4028.5,-351"/>
<text text-anchor="middle" x="3981" y="-330.8" font-family="Helvetica,sans-Serif" font-size="9.00">plugin_manager.py</text>
</g>
<!-- f_admiral -->
<g id="node66" class="node">
<title>f_admiral</title>
<polygon fill="none" stroke="black" points="4313,-268 4231,-268 4231,-232 4313,-232 4313,-268"/>
<text text-anchor="middle" x="4272" y="-247.8" font-family="Helvetica,sans-Serif" font-size="9.00">fleet_admiral.py</text>
</g>
<!-- f_cli&#45;&gt;f_admiral -->
<g id="edge46" class="edge">
<title>f_cli&#45;&gt;f_admiral</title>
<path fill="none" stroke="black" d="M4272,-314.82C4272,-304.19 4272,-290.31 4272,-278.2"/>
<polygon fill="black" stroke="black" points="4275.5,-278.15 4272,-268.15 4268.5,-278.15 4275.5,-278.15"/>
</g>
<!-- f_tasks -->
<g id="node68" class="node">
<title>f_tasks</title>
<polygon fill="none" stroke="black" points="4222,-196 4150,-196 4150,-160 4222,-160 4222,-196"/>
<text text-anchor="middle" x="4186" y="-175.8" font-family="Helvetica,sans-Serif" font-size="9.00">fleet_tasks.py</text>
</g>
<!-- f_admiral&#45;&gt;f_tasks -->
<g id="edge47" class="edge">
<title>f_admiral&#45;&gt;f_tasks</title>
<path fill="none" stroke="black" d="M4250.74,-231.7C4239.91,-222.88 4226.58,-212.03 4214.84,-202.47"/>
<polygon fill="black" stroke="black" points="4216.98,-199.7 4207.01,-196.1 4212.56,-205.13 4216.98,-199.7"/>
</g>
<!-- f_state -->
<g id="node69" class="node">
<title>f_state</title>
<polygon fill="none" stroke="black" points="4311.5,-196 4240.5,-196 4240.5,-160 4311.5,-160 4311.5,-196"/>
<text text-anchor="middle" x="4276" y="-175.8" font-family="Helvetica,sans-Serif" font-size="9.00">fleet_state.py</text>
</g>
<!-- f_admiral&#45;&gt;f_state -->
<g id="edge48" class="edge">
<title>f_admiral&#45;&gt;f_state</title>
<path fill="none" stroke="black" d="M4272.99,-231.7C4273.43,-223.98 4273.96,-214.71 4274.45,-206.11"/>
<polygon fill="black" stroke="black" points="4277.95,-206.29 4275.02,-196.1 4270.96,-205.89 4277.95,-206.29"/>
</g>
<!-- f_tui -->
<g id="node67" class="node">
<title>f_tui</title>
<polygon fill="none" stroke="black" points="4209.5,-351 4148.5,-351 4148.5,-315 4209.5,-315 4209.5,-351"/>
<text text-anchor="middle" x="4179" y="-330.8" font-family="Helvetica,sans-Serif" font-size="9.00">fleet_tui.py</text>
</g>
<!-- f_health -->
<g id="node70" class="node">
<title>f_health</title>
<polygon fill="none" stroke="black" points="4130.5,-351 4053.5,-351 4053.5,-315 4130.5,-315 4130.5,-351"/>
<text text-anchor="middle" x="4092" y="-330.8" font-family="Helvetica,sans-Serif" font-size="9.00">fleet_health.py</text>
</g>
<!-- u_claude -->
<g id="node72" class="node">
<title>u_claude</title>
<polygon fill="none" stroke="black" points="819.5,-268 748.5,-268 748.5,-232 819.5,-232 819.5,-268"/>
<text text-anchor="middle" x="784" y="-247.8" font-family="Helvetica,sans-Serif" font-size="9.00">claude_cli.py</text>
</g>
<!-- u_uvx -->
<g id="node73" class="node">
<title>u_uvx</title>
<polygon fill="none" stroke="black" points="730,-268 644,-268 644,-232 730,-232 730,-268"/>
<text text-anchor="middle" x="687" y="-247.8" font-family="Helvetica,sans-Serif" font-size="9.00">uvx_detection.py</text>
</g>
<!-- u_staging -->
<g id="node74" class="node">
<title>u_staging</title>
<polygon fill="none" stroke="black" points="626,-268 548,-268 548,-232 626,-232 626,-268"/>
<text text-anchor="middle" x="587" y="-247.8" font-family="Helvetica,sans-Serif" font-size="9.00">uvx_staging.py</text>
</g>
<!-- u_paths -->
<g id="node75" class="node">
<title>u_paths</title>
<polygon fill="none" stroke="black" points="530,-268 476,-268 476,-232 530,-232 530,-268"/>
<text text-anchor="middle" x="503" y="-247.8" font-family="Helvetica,sans-Serif" font-size="9.00">paths.py</text>
</g>
<!-- g_analyzer -->
<g id="node77" class="node">
<title>g_analyzer</title>
<polygon fill="none" stroke="black" points="4751.5,-351 4654.5,-351 4654.5,-315 4751.5,-315 4751.5,-351"/>
<text text-anchor="middle" x="4703" y="-330.8" font-family="Helvetica,sans-Serif" font-size="9.00">prompt_analyzer.py</text>
</g>
<!-- g_assembler -->
<g id="node78" class="node">
<title>g_assembler</title>
<polygon fill="none" stroke="black" points="4636.5,-351 4537.5,-351 4537.5,-315 4636.5,-315 4636.5,-351"/>
<text text-anchor="middle" x="4587" y="-330.8" font-family="Helvetica,sans-Serif" font-size="9.00">agent_assembler.py</text>
</g>
<!-- g_synth -->
<g id="node79" class="node">
<title>g_synth</title>
<polygon fill="none" stroke="black" points="4519.5,-351 4424.5,-351 4424.5,-315 4519.5,-315 4519.5,-351"/>
<text text-anchor="middle" x="4472" y="-330.8" font-family="Helvetica,sans-Serif" font-size="9.00">skill_synthesizer.py</text>
</g>
<!-- g_packager -->
<g id="node80" class="node">
<title>g_packager</title>
<polygon fill="none" stroke="black" points="4406,-351 4340,-351 4340,-315 4406,-315 4406,-351"/>
<text text-anchor="middle" x="4373" y="-330.8" font-family="Helvetica,sans-Serif" font-size="9.00">packager.py</text>
</g>
<!-- o_hooks -->
<g id="node82" class="node">
<title>o_hooks</title>
<polygon fill="none" stroke="black" points="2365.5,-268 2300.5,-268 2300.5,-232 2365.5,-232 2365.5,-268"/>
<text text-anchor="middle" x="2333" y="-252.8" font-family="Helvetica,sans-Serif" font-size="9.00">hooks/</text>
<text text-anchor="middle" x="2333" y="-242.8" font-family="Helvetica,sans-Serif" font-size="9.00">manager.py</text>
</g>
<!-- o_workflows -->
<g id="node83" class="node">
<title>o_workflows</title>
<polygon fill="none" stroke="black" points="2282,-268 2218,-268 2218,-232 2282,-232 2282,-268"/>
<text text-anchor="middle" x="2250" y="-252.8" font-family="Helvetica,sans-Serif" font-size="9.00">workflows/</text>
<text text-anchor="middle" x="2250" y="-242.8" font-family="Helvetica,sans-Serif" font-size="9.00">classifier.py</text>
</g>
<!-- o_context -->
<g id="node85" class="node">
<title>o_context</title>
<polygon fill="none" stroke="black" points="2102,-268 2016,-268 2016,-232 2102,-232 2102,-268"/>
<text text-anchor="middle" x="2059" y="-247.8" font-family="Helvetica,sans-Serif" font-size="9.00">context/adaptive/</text>
</g>
<!-- o_mode -->
<g id="node86" class="node">
<title>o_mode</title>
<polygon fill="none" stroke="black" points="1998,-268 1918,-268 1918,-232 1998,-232 1998,-268"/>
<text text-anchor="middle" x="1958" y="-247.8" font-family="Helvetica,sans-Serif" font-size="9.00">mode_detector/</text>
</g>
<!-- o_bundle -->
<g id="node87" class="node">
<title>o_bundle</title>
<polygon fill="none" stroke="black" points="1900,-268 1808,-268 1808,-232 1900,-232 1900,-268"/>
<text text-anchor="middle" x="1854" y="-247.8" font-family="Helvetica,sans-Serif" font-size="9.00">bundle_generator/</text>
</g>
<!-- o_power -->
<g id="node88" class="node">
<title>o_power</title>
<polygon fill="none" stroke="black" points="1789.5,-268 1706.5,-268 1706.5,-232 1789.5,-232 1789.5,-268"/>
<text text-anchor="middle" x="1748" y="-247.8" font-family="Helvetica,sans-Serif" font-size="9.00">power_steering/</text>
</g>
</g>
</svg>
