<?xml version="1.0" encoding="UTF-8" standalone="no"?>
<!DOCTYPE svg PUBLIC "-//W3C//DTD SVG 1.1//EN"
 "http://www.w3.org/Graphics/SVG/1.1/DTD/svg11.dtd">
<!-- Generated by graphviz version 2.42.4 (0)
 -->
<!-- Title: service_components_pr3500 Pages: 1 -->
<svg width="843pt" height="318pt"
 viewBox="0.00 0.00 843.00 318.00" xmlns="http://www.w3.org/2000/svg" xmlns:xlink="http://www.w3.org/1999/xlink">
<g id="graph0" class="graph" transform="scale(1 1) rotate(0) translate(4 314)">
<title>service_components_pr3500</title>
<polygon fill="white" stroke="transparent" points="-4,4 -4,-314 839,-314 839,4 -4,4"/>
<g id="clust1" class="cluster">
<title>cluster_recipes</title>
<polygon fill="#e9ecef" stroke="black" points="8,-8 8,-156 827,-156 827,-8 8,-8"/>
<text text-anchor="middle" x="417.5" y="-140.8" font-family="Times,serif" font-size="14.00">recipes/</text>
</g>
<!-- root -->
<g id="node1" class="node">
<title>root</title>
<polygon fill="#d0bfff" stroke="black" points="370.5,-310 227.5,-310 227.5,-274 370.5,-274 370.5,-310"/>
<text text-anchor="middle" x="299" y="-295" font-family="Helvetica,sans-Serif" font-size="10.00">src/amplihack/__init__.py</text>
<text text-anchor="middle" x="299" y="-284" font-family="Helvetica,sans-Serif" font-size="10.00">main() + Rust&#45;first delegation</text>
</g>
<!-- cli -->
<g id="node2" class="node">
<title>cli</title>
<polygon fill="#dfe6e9" stroke="black" points="292,-228 188,-228 188,-192 292,-192 292,-228"/>
<text text-anchor="middle" x="240" y="-213" font-family="Helvetica,sans-Serif" font-size="10.00">src/amplihack/cli.py</text>
<text text-anchor="middle" x="240" y="-202" font-family="Helvetica,sans-Serif" font-size="10.00">Python CLI fallback</text>
</g>
<!-- root&#45;&gt;cli -->
<g id="edge2" class="edge">
<title>root&#45;&gt;cli</title>
<path fill="none" stroke="black" d="M286.2,-273.64C278.18,-262.77 267.71,-248.57 258.76,-236.44"/>
<polygon fill="black" stroke="black" points="261.33,-234.02 252.57,-228.05 255.69,-238.18 261.33,-234.02"/>
<text text-anchor="middle" x="289" y="-248.8" font-family="Helvetica,sans-Serif" font-size="9.00">fallback</text>
</g>
<!-- rust_cli -->
<g id="node3" class="node">
<title>rust_cli</title>
<polygon fill="#ffe8cc" stroke="black" points="406,-228 310,-228 310,-192 406,-192 406,-228"/>
<text text-anchor="middle" x="358" y="-213" font-family="Helvetica,sans-Serif" font-size="10.00">Installed Rust CLI</text>
<text text-anchor="middle" x="358" y="-202" font-family="Helvetica,sans-Serif" font-size="10.00">(external binary)</text>
</g>
<!-- root&#45;&gt;rust_cli -->
<g id="edge1" class="edge">
<title>root&#45;&gt;rust_cli</title>
<path fill="none" stroke="black" d="M311.8,-273.64C319.82,-262.77 330.29,-248.57 339.24,-236.44"/>
<polygon fill="black" stroke="black" points="342.31,-238.18 345.43,-228.05 336.67,-234.02 342.31,-238.18"/>
<text text-anchor="middle" x="393" y="-248.8" font-family="Helvetica,sans-Serif" font-size="9.00">install / mode / recipe / update</text>
</g>
<!-- runner -->
<g id="node5" class="node">
<title>runner</title>
<path fill="none" stroke="black" d="M460.5,-125C460.5,-125 381.5,-125 381.5,-125 375.5,-125 369.5,-119 369.5,-113 369.5,-113 369.5,-101 369.5,-101 369.5,-95 375.5,-89 381.5,-89 381.5,-89 460.5,-89 460.5,-89 466.5,-89 472.5,-95 472.5,-101 472.5,-101 472.5,-113 472.5,-113 472.5,-119 466.5,-125 460.5,-125"/>
<text text-anchor="middle" x="421" y="-110" font-family="Helvetica,sans-Serif" font-size="10.00">rust_runner.py</text>
<text text-anchor="middle" x="421" y="-99" font-family="Helvetica,sans-Serif" font-size="10.00">JSON orchestration</text>
</g>
<!-- cli&#45;&gt;runner -->
<g id="edge3" class="edge">
<title>cli&#45;&gt;runner</title>
<path fill="none" stroke="black" d="M270.7,-191.87C301.22,-174.84 348.15,-148.65 381.44,-130.07"/>
<polygon fill="black" stroke="black" points="383.42,-132.98 390.45,-125.05 380.01,-126.86 383.42,-132.98"/>
</g>
<!-- launcher -->
<g id="node4" class="node">
<title>launcher</title>
<polygon fill="#b2f2bb" stroke="black" points="561.5,-228 424.5,-228 424.5,-192 561.5,-192 561.5,-228"/>
<text text-anchor="middle" x="493" y="-213" font-family="Helvetica,sans-Serif" font-size="10.00">launcher/copilot.py</text>
<text text-anchor="middle" x="493" y="-202" font-family="Helvetica,sans-Serif" font-size="10.00">staged .github hook surface</text>
</g>
<!-- launcher&#45;&gt;runner -->
<g id="edge4" class="edge">
<title>launcher&#45;&gt;runner</title>
<path fill="none" stroke="black" d="M480.79,-191.87C469.41,-175.91 452.29,-151.9 439.29,-133.65"/>
<polygon fill="black" stroke="black" points="441.93,-131.33 433.27,-125.22 436.23,-135.39 441.93,-131.33"/>
<text text-anchor="middle" x="521" y="-166.8" font-family="Helvetica,sans-Serif" font-size="9.00">nested Copilot recipe path</text>
</g>
<!-- execution -->
<g id="node6" class="node">
<title>execution</title>
<path fill="none" stroke="black" d="M141.5,-52C141.5,-52 28.5,-52 28.5,-52 22.5,-52 16.5,-46 16.5,-40 16.5,-40 16.5,-28 16.5,-28 16.5,-22 22.5,-16 28.5,-16 28.5,-16 141.5,-16 141.5,-16 147.5,-16 153.5,-22 153.5,-28 153.5,-28 153.5,-40 153.5,-40 153.5,-46 147.5,-52 141.5,-52"/>
<text text-anchor="middle" x="85" y="-37" font-family="Helvetica,sans-Serif" font-size="10.00">rust_runner_execution.py</text>
<text text-anchor="middle" x="85" y="-26" font-family="Helvetica,sans-Serif" font-size="10.00">subprocess + progress files</text>
</g>
<!-- runner&#45;&gt;execution -->
<g id="edge5" class="edge">
<title>runner&#45;&gt;execution</title>
<path fill="none" stroke="black" d="M369.09,-95.27C319.1,-84.9 241.1,-68.65 163.81,-52.16"/>
<polygon fill="black" stroke="black" points="164.41,-48.71 153.9,-50.05 162.95,-55.56 164.41,-48.71"/>
</g>
<!-- binary -->
<g id="node7" class="node">
<title>binary</title>
<path fill="none" stroke="black" d="M320.5,-52C320.5,-52 183.5,-52 183.5,-52 177.5,-52 171.5,-46 171.5,-40 171.5,-40 171.5,-28 171.5,-28 171.5,-22 177.5,-16 183.5,-16 183.5,-16 320.5,-16 320.5,-16 326.5,-16 332.5,-22 332.5,-28 332.5,-28 332.5,-40 332.5,-40 332.5,-46 326.5,-52 320.5,-52"/>
<text text-anchor="middle" x="252" y="-37" font-family="Helvetica,sans-Serif" font-size="10.00">rust_runner_binary.py</text>
<text text-anchor="middle" x="252" y="-26" font-family="Helvetica,sans-Serif" font-size="10.00">binary discovery + version gating</text>
</g>
<!-- runner&#45;&gt;binary -->
<g id="edge6" class="edge">
<title>runner&#45;&gt;binary</title>
<path fill="none" stroke="black" d="M380.52,-88.99C356.97,-79.1 327.09,-66.54 302.06,-56.03"/>
<polygon fill="black" stroke="black" points="303.31,-52.76 292.74,-52.11 300.6,-59.21 303.31,-52.76"/>
</g>
<!-- copilot -->
<g id="node8" class="node">
<title>copilot</title>
<path fill="none" stroke="black" d="M479,-52C479,-52 363,-52 363,-52 357,-52 351,-46 351,-40 351,-40 351,-28 351,-28 351,-22 357,-16 363,-16 363,-16 479,-16 479,-16 485,-16 491,-22 491,-28 491,-28 491,-40 491,-40 491,-46 485,-52 479,-52"/>
<text text-anchor="middle" x="421" y="-37" font-family="Helvetica,sans-Serif" font-size="10.00">rust_runner_copilot.py</text>
<text text-anchor="middle" x="421" y="-26" font-family="Helvetica,sans-Serif" font-size="10.00">nested Copilot normalization</text>
</g>
<!-- runner&#45;&gt;copilot -->
<g id="edge7" class="edge">
<title>runner&#45;&gt;copilot</title>
<path fill="none" stroke="black" d="M421,-88.81C421,-80.79 421,-71.05 421,-62.07"/>
<polygon fill="black" stroke="black" points="424.5,-62.03 421,-52.03 417.5,-62.03 424.5,-62.03"/>
</g>
<!-- resolution -->
<g id="node9" class="node">
<title>resolution</title>
<path fill="none" stroke="black" d="M655,-52C655,-52 521,-52 521,-52 515,-52 509,-46 509,-40 509,-40 509,-28 509,-28 509,-22 515,-16 521,-16 521,-16 655,-16 655,-16 661,-16 667,-22 667,-28 667,-28 667,-40 667,-40 667,-46 661,-52 655,-52"/>
<text text-anchor="middle" x="588" y="-37" font-family="Helvetica,sans-Serif" font-size="10.00">rust_runner_recipe_resolution.py</text>
<text text-anchor="middle" x="588" y="-26" font-family="Helvetica,sans-Serif" font-size="10.00">recipe lookup</text>
</g>
<!-- runner&#45;&gt;resolution -->
<g id="edge8" class="edge">
<title>runner&#45;&gt;resolution</title>
<path fill="none" stroke="black" d="M461,-88.99C484.27,-79.1 513.8,-66.54 538.53,-56.03"/>
<polygon fill="black" stroke="black" points="539.91,-59.25 547.75,-52.11 537.17,-52.81 539.91,-59.25"/>
</g>
<!-- models -->
<g id="node10" class="node">
<title>models</title>
<path fill="none" stroke="black" d="M807,-52C807,-52 697,-52 697,-52 691,-52 685,-46 685,-40 685,-40 685,-28 685,-28 685,-22 691,-16 697,-16 697,-16 807,-16 807,-16 813,-16 819,-22 819,-28 819,-28 819,-40 819,-40 819,-46 813,-52 807,-52"/>
<text text-anchor="middle" x="752" y="-37" font-family="Helvetica,sans-Serif" font-size="10.00">models.py</text>
<text text-anchor="middle" x="752" y="-26" font-family="Helvetica,sans-Serif" font-size="10.00">RecipeResult / StepResult</text>
</g>
<!-- runner&#45;&gt;models -->
<g id="edge9" class="edge">
<title>runner&#45;&gt;models</title>
<path fill="none" stroke="black" d="M472.81,-95.21C522.14,-84.89 598.76,-68.77 674.66,-52.28"/>
<polygon fill="black" stroke="black" points="675.84,-55.6 684.87,-50.06 674.36,-48.76 675.84,-55.6"/>
</g>
</g>
</svg>
