<?xml version="1.0" encoding="UTF-8" standalone="no"?>
<!DOCTYPE svg PUBLIC "-//W3C//DTD SVG 1.1//EN"
 "http://www.w3.org/Graphics/SVG/1.1/DTD/svg11.dtd">
<!-- Generated by graphviz version 2.42.4 (0)
 -->
<!-- Title: runtime_topology Pages: 1 -->
<svg width="1102pt" height="747pt"
 viewBox="0.00 0.00 1101.73 746.50" xmlns="http://www.w3.org/2000/svg" xmlns:xlink="http://www.w3.org/1999/xlink">
<g id="graph0" class="graph" transform="scale(1 1) rotate(0) translate(4 742.5)">
<title>runtime_topology</title>
<polygon fill="white" stroke="transparent" points="-4,4 -4,-742.5 1097.73,-742.5 1097.73,4 -4,4"/>
<!-- cli -->
<g id="node1" class="node">
<title>cli</title>
<polygon fill="#c8e6c9" stroke="black" points="558,-363 449,-363 449,-359 445,-359 445,-355 449,-355 449,-335 445,-335 445,-331 449,-331 449,-327 558,-327 558,-363"/>
<polyline fill="none" stroke="black" points="449,-359 453,-359 453,-355 449,-355 "/>
<polyline fill="none" stroke="black" points="449,-335 453,-335 453,-331 449,-331 "/>
<text text-anchor="middle" x="503.5" y="-348" font-family="Helvetica,sans-Serif" font-size="10.00">amplihack CLI</text>
<text text-anchor="middle" x="503.5" y="-337" font-family="Helvetica,sans-Serif" font-size="10.00">Python main process</text>
</g>
<!-- launcher -->
<g id="node2" class="node">
<title>launcher</title>
<polygon fill="#c8e6c9" stroke="black" points="778.11,-596 667.11,-596 667.11,-592 663.11,-592 663.11,-588 667.11,-588 667.11,-568 663.11,-568 663.11,-564 667.11,-564 667.11,-560 778.11,-560 778.11,-596"/>
<polyline fill="none" stroke="black" points="667.11,-592 671.11,-592 671.11,-588 667.11,-588 "/>
<polyline fill="none" stroke="black" points="667.11,-568 671.11,-568 671.11,-564 667.11,-564 "/>
<text text-anchor="middle" x="722.61" y="-581" font-family="Helvetica,sans-Serif" font-size="10.00">Launcher</text>
<text text-anchor="middle" x="722.61" y="-570" font-family="Helvetica,sans-Serif" font-size="10.00">Session management</text>
</g>
<!-- cli&#45;&gt;launcher -->
<g id="edge1" class="edge">
<title>cli&#45;&gt;launcher</title>
<path fill="none" stroke="#555555" d="M521.54,-363.28C559.98,-404.54 653.56,-504.97 697.75,-552.39"/>
<polygon fill="#555555" stroke="#555555" points="695.28,-554.87 704.66,-559.8 700.4,-550.1 695.28,-554.87"/>
</g>
<!-- settings -->
<g id="node3" class="node">
<title>settings</title>
<polygon fill="#c8e6c9" stroke="black" points="762.11,-417 683.11,-417 683.11,-413 679.11,-413 679.11,-409 683.11,-409 683.11,-389 679.11,-389 679.11,-385 683.11,-385 683.11,-381 762.11,-381 762.11,-417"/>
<polyline fill="none" stroke="black" points="683.11,-413 687.11,-413 687.11,-409 683.11,-409 "/>
<polyline fill="none" stroke="black" points="683.11,-389 687.11,-389 687.11,-385 683.11,-385 "/>
<text text-anchor="middle" x="722.61" y="-402" font-family="Helvetica,sans-Serif" font-size="10.00">Settings</text>
<text text-anchor="middle" x="722.61" y="-391" font-family="Helvetica,sans-Serif" font-size="10.00">Config loading</text>
</g>
<!-- cli&#45;&gt;settings -->
<g id="edge2" class="edge">
<title>cli&#45;&gt;settings</title>
<path fill="none" stroke="#555555" d="M558.17,-358.35C593.37,-367.1 639.02,-378.46 673.13,-386.94"/>
<polygon fill="#555555" stroke="#555555" points="672.32,-390.35 682.87,-389.36 674.01,-383.55 672.32,-390.35"/>
</g>
<!-- installer -->
<g id="node4" class="node">
<title>installer</title>
<polygon fill="#c8e6c9" stroke="black" points="770.11,-363 675.11,-363 675.11,-359 671.11,-359 671.11,-355 675.11,-355 675.11,-335 671.11,-335 671.11,-331 675.11,-331 675.11,-327 770.11,-327 770.11,-363"/>
<polyline fill="none" stroke="black" points="675.11,-359 679.11,-359 679.11,-355 675.11,-355 "/>
<polyline fill="none" stroke="black" points="675.11,-335 679.11,-335 679.11,-331 675.11,-331 "/>
<text text-anchor="middle" x="722.61" y="-348" font-family="Helvetica,sans-Serif" font-size="10.00">Installer</text>
<text text-anchor="middle" x="722.61" y="-337" font-family="Helvetica,sans-Serif" font-size="10.00">File copy &amp; hooks</text>
</g>
<!-- cli&#45;&gt;installer -->
<g id="edge3" class="edge">
<title>cli&#45;&gt;installer</title>
<path fill="none" stroke="#555555" d="M558.17,-345C590.46,-345 631.55,-345 664.45,-345"/>
<polygon fill="#555555" stroke="#555555" points="664.82,-348.5 674.82,-345 664.82,-341.5 664.82,-348.5"/>
</g>
<!-- flask_proxy -->
<g id="node9" class="node">
<title>flask_proxy</title>
<polygon fill="#fff9c4" stroke="black" points="822.34,-276 772.48,-309.45 672.75,-309.45 622.89,-276 672.75,-242.55 772.48,-242.55 822.34,-276"/>
<text text-anchor="middle" x="722.61" y="-284.5" font-family="Helvetica,sans-Serif" font-size="10.00">Flask Proxy Server</text>
<text text-anchor="middle" x="722.61" y="-273.5" font-family="Helvetica,sans-Serif" font-size="10.00">responses_api_proxy.py</text>
<text text-anchor="middle" x="722.61" y="-262.5" font-family="Helvetica,sans-Serif" font-size="10.00">Port: configurable</text>
</g>
<!-- cli&#45;&gt;flask_proxy -->
<g id="edge8" class="edge">
<title>cli&#45;&gt;flask_proxy</title>
<path fill="none" stroke="#555555" d="M558.17,-327.94C584.34,-319.63 616.29,-309.47 644.98,-300.35"/>
<polygon fill="#555555" stroke="#555555" points="646.1,-303.67 654.57,-297.31 643.98,-297 646.1,-303.67"/>
<text text-anchor="middle" x="590.5" y="-324.8" font-family="Times,serif" font-size="14.00">starts</text>
</g>
<!-- fleet_tui -->
<g id="node11" class="node">
<title>fleet_tui</title>
<polygon fill="#e1bee7" stroke="black" points="765.11,-90 692.11,-90 692.11,-94 680.11,-94 680.11,-54 765.11,-54 765.11,-90"/>
<polyline fill="none" stroke="black" points="680.11,-90 692.11,-90 "/>
<text text-anchor="middle" x="722.61" y="-75" font-family="Helvetica,sans-Serif" font-size="10.00">Fleet TUI</text>
<text text-anchor="middle" x="722.61" y="-64" font-family="Helvetica,sans-Serif" font-size="10.00">Rich dashboard</text>
</g>
<!-- cli&#45;&gt;fleet_tui -->
<g id="edge13" class="edge">
<title>cli&#45;&gt;fleet_tui</title>
<path fill="none" stroke="#555555" d="M519.08,-326.66C556.7,-279.36 657.14,-153.07 700.83,-98.13"/>
<polygon fill="#555555" stroke="#555555" points="703.61,-100.26 707.09,-90.26 698.13,-95.9 703.61,-100.26"/>
<text text-anchor="middle" x="590.5" y="-252.8" font-family="Times,serif" font-size="14.00">starts</text>
</g>
<!-- claude_bin -->
<g id="node5" class="node">
<title>claude_bin</title>
<polygon fill="#bbdefb" stroke="black" points="1056.98,-738.5 980.98,-738.5 976.98,-734.5 976.98,-697.5 1052.98,-697.5 1056.98,-701.5 1056.98,-738.5"/>
<polyline fill="none" stroke="black" points="1052.98,-734.5 976.98,-734.5 "/>
<polyline fill="none" stroke="black" points="1052.98,-734.5 1052.98,-697.5 "/>
<polyline fill="none" stroke="black" points="1052.98,-734.5 1056.98,-738.5 "/>
<text text-anchor="middle" x="1016.98" y="-726.5" font-family="Helvetica,sans-Serif" font-size="10.00">Claude CLI</text>
<text text-anchor="middle" x="1016.98" y="-715.5" font-family="Helvetica,sans-Serif" font-size="10.00">(claude binary)</text>
<text text-anchor="middle" x="1016.98" y="-704.5" font-family="Helvetica,sans-Serif" font-size="10.00">subprocess</text>
</g>
<!-- launcher&#45;&gt;claude_bin -->
<g id="edge4" class="edge">
<title>launcher&#45;&gt;claude_bin</title>
<path fill="none" stroke="#555555" d="M746.61,-596.25C769.36,-613.65 805.69,-639.68 840.23,-657 881.26,-677.58 930.91,-694.11 966.95,-704.74"/>
<polygon fill="#555555" stroke="#555555" points="966.16,-708.16 976.74,-707.59 968.11,-701.44 966.16,-708.16"/>
<text text-anchor="middle" x="881.23" y="-692.8" font-family="Times,serif" font-size="14.00">subprocess.run</text>
</g>
<!-- git_proc -->
<g id="node6" class="node">
<title>git_proc</title>
<polygon fill="#bbdefb" stroke="black" points="1050.48,-679 987.48,-679 983.48,-675 983.48,-643 1046.48,-643 1050.48,-647 1050.48,-679"/>
<polyline fill="none" stroke="black" points="1046.48,-675 983.48,-675 "/>
<polyline fill="none" stroke="black" points="1046.48,-675 1046.48,-643 "/>
<polyline fill="none" stroke="black" points="1046.48,-675 1050.48,-679 "/>
<text text-anchor="middle" x="1016.98" y="-664" font-family="Helvetica,sans-Serif" font-size="10.00">git</text>
<text text-anchor="middle" x="1016.98" y="-653" font-family="Helvetica,sans-Serif" font-size="10.00">subprocess</text>
</g>
<!-- launcher&#45;&gt;git_proc -->
<g id="edge5" class="edge">
<title>launcher&#45;&gt;git_proc</title>
<path fill="none" stroke="#555555" d="M776.51,-596.03C796.4,-602.6 819.27,-609.91 840.23,-616 885.37,-629.12 937.62,-642.24 973.34,-650.9"/>
<polygon fill="#555555" stroke="#555555" points="972.87,-654.38 983.41,-653.33 974.51,-647.58 972.87,-654.38"/>
<text text-anchor="middle" x="881.23" y="-641.8" font-family="Times,serif" font-size="14.00">subprocess.run</text>
</g>
<!-- npm_proc -->
<g id="node7" class="node">
<title>npm_proc</title>
<polygon fill="#bbdefb" stroke="black" points="1050.48,-625 987.48,-625 983.48,-621 983.48,-589 1046.48,-589 1050.48,-593 1050.48,-625"/>
<polyline fill="none" stroke="black" points="1046.48,-621 983.48,-621 "/>
<polyline fill="none" stroke="black" points="1046.48,-621 1046.48,-589 "/>
<polyline fill="none" stroke="black" points="1046.48,-621 1050.48,-625 "/>
<text text-anchor="middle" x="1016.98" y="-610" font-family="Helvetica,sans-Serif" font-size="10.00">npm / node</text>
<text text-anchor="middle" x="1016.98" y="-599" font-family="Helvetica,sans-Serif" font-size="10.00">subprocess</text>
</g>
<!-- launcher&#45;&gt;npm_proc -->
<g id="edge6" class="edge">
<title>launcher&#45;&gt;npm_proc</title>
<path fill="none" stroke="#555555" d="M778.26,-583.42C834.7,-589.02 921.59,-597.64 973.21,-602.76"/>
<polygon fill="#555555" stroke="#555555" points="973.06,-606.26 983.36,-603.76 973.75,-599.29 973.06,-606.26"/>
<text text-anchor="middle" x="881.23" y="-600.8" font-family="Times,serif" font-size="14.00">subprocess.run</text>
</g>
<!-- recipe_rust -->
<g id="node8" class="node">
<title>recipe_rust</title>
<polygon fill="#bbdefb" stroke="black" points="1076.98,-570.5 960.98,-570.5 956.98,-566.5 956.98,-529.5 1072.98,-529.5 1076.98,-533.5 1076.98,-570.5"/>
<polyline fill="none" stroke="black" points="1072.98,-566.5 956.98,-566.5 "/>
<polyline fill="none" stroke="black" points="1072.98,-566.5 1072.98,-529.5 "/>
<polyline fill="none" stroke="black" points="1072.98,-566.5 1076.98,-570.5 "/>
<text text-anchor="middle" x="1016.98" y="-558.5" font-family="Helvetica,sans-Serif" font-size="10.00">Recipe Runner</text>
<text text-anchor="middle" x="1016.98" y="-547.5" font-family="Helvetica,sans-Serif" font-size="10.00">(Rust binary)</text>
<text text-anchor="middle" x="1016.98" y="-536.5" font-family="Helvetica,sans-Serif" font-size="10.00">amplihack&#45;recipe&#45;runner</text>
</g>
<!-- launcher&#45;&gt;recipe_rust -->
<g id="edge7" class="edge">
<title>launcher&#45;&gt;recipe_rust</title>
<path fill="none" stroke="#555555" d="M778.26,-572.77C825.91,-568.2 895.26,-561.56 946.77,-556.63"/>
<polygon fill="#555555" stroke="#555555" points="947.2,-560.1 956.82,-555.67 946.54,-553.13 947.2,-560.1"/>
<text text-anchor="middle" x="881.23" y="-569.8" font-family="Times,serif" font-size="14.00">subprocess.run</text>
</g>
<!-- kuzu -->
<g id="node21" class="node">
<title>kuzu</title>
<path fill="#d7ccc8" stroke="black" d="M1069.98,-507.98C1069.98,-510.06 1046.22,-511.75 1016.98,-511.75 987.73,-511.75 963.98,-510.06 963.98,-507.98 963.98,-507.98 963.98,-474.02 963.98,-474.02 963.98,-471.94 987.73,-470.25 1016.98,-470.25 1046.22,-470.25 1069.98,-471.94 1069.98,-474.02 1069.98,-474.02 1069.98,-507.98 1069.98,-507.98"/>
<path fill="none" stroke="black" d="M1069.98,-507.98C1069.98,-505.9 1046.22,-504.21 1016.98,-504.21 987.73,-504.21 963.98,-505.9 963.98,-507.98"/>
<text text-anchor="middle" x="1016.98" y="-494" font-family="Helvetica,sans-Serif" font-size="10.00">Kuzu</text>
<text text-anchor="middle" x="1016.98" y="-483" font-family="Helvetica,sans-Serif" font-size="10.00">embedded graph DB</text>
</g>
<!-- launcher&#45;&gt;kuzu -->
<g id="edge18" class="edge">
<title>launcher&#45;&gt;kuzu</title>
<path fill="none" stroke="#555555" d="M777.45,-559.92C797.14,-553.45 819.64,-546.22 840.23,-540 877.9,-528.62 920.4,-516.74 954.16,-507.53"/>
<polygon fill="#555555" stroke="#555555" points="955.17,-510.89 963.9,-504.89 953.33,-504.13 955.17,-510.89"/>
<text text-anchor="middle" x="881.23" y="-543.8" font-family="Times,serif" font-size="14.00">embedded</text>
</g>
<!-- anthropic -->
<g id="node16" class="node">
<title>anthropic</title>
<path fill="#ffccbc" stroke="black" d="M1057.98,-381.98C1057.98,-384.06 1039.6,-385.75 1016.98,-385.75 994.35,-385.75 975.98,-384.06 975.98,-381.98 975.98,-381.98 975.98,-348.02 975.98,-348.02 975.98,-345.94 994.35,-344.25 1016.98,-344.25 1039.6,-344.25 1057.98,-345.94 1057.98,-348.02 1057.98,-348.02 1057.98,-381.98 1057.98,-381.98"/>
<path fill="none" stroke="black" d="M1057.98,-381.98C1057.98,-379.9 1039.6,-378.21 1016.98,-378.21 994.35,-378.21 975.98,-379.9 975.98,-381.98"/>
<text text-anchor="middle" x="1016.98" y="-368" font-family="Helvetica,sans-Serif" font-size="10.00">Anthropic API</text>
<text text-anchor="middle" x="1016.98" y="-357" font-family="Helvetica,sans-Serif" font-size="10.00">Claude models</text>
</g>
<!-- flask_proxy&#45;&gt;anthropic -->
<g id="edge10" class="edge">
<title>flask_proxy&#45;&gt;anthropic</title>
<path fill="none" stroke="#555555" d="M788.46,-299C805.26,-304.75 823.36,-310.76 840.23,-316 882.21,-329.04 930.33,-342.35 965.6,-351.79"/>
<polygon fill="#555555" stroke="#555555" points="965.08,-355.28 975.64,-354.47 966.88,-348.51 965.08,-355.28"/>
<text text-anchor="middle" x="881.23" y="-343.8" font-family="Times,serif" font-size="14.00">HTTPS</text>
</g>
<!-- github -->
<g id="node17" class="node">
<title>github</title>
<path fill="#ffccbc" stroke="black" d="M1049.98,-322.98C1049.98,-325.06 1035.18,-326.75 1016.98,-326.75 998.77,-326.75 983.98,-325.06 983.98,-322.98 983.98,-322.98 983.98,-289.02 983.98,-289.02 983.98,-286.94 998.77,-285.25 1016.98,-285.25 1035.18,-285.25 1049.98,-286.94 1049.98,-289.02 1049.98,-289.02 1049.98,-322.98 1049.98,-322.98"/>
<path fill="none" stroke="black" d="M1049.98,-322.98C1049.98,-320.9 1035.18,-319.21 1016.98,-319.21 998.77,-319.21 983.98,-320.9 983.98,-322.98"/>
<text text-anchor="middle" x="1016.98" y="-309" font-family="Helvetica,sans-Serif" font-size="10.00">GitHub API</text>
<text text-anchor="middle" x="1016.98" y="-298" font-family="Helvetica,sans-Serif" font-size="10.00">Copilot</text>
</g>
<!-- flask_proxy&#45;&gt;github -->
<g id="edge11" class="edge">
<title>flask_proxy&#45;&gt;github</title>
<path fill="none" stroke="#555555" d="M809.36,-284.8C863.37,-290.34 930.74,-297.25 973.57,-301.65"/>
<polygon fill="#555555" stroke="#555555" points="973.34,-305.14 983.65,-302.68 974.06,-298.18 973.34,-305.14"/>
<text text-anchor="middle" x="881.23" y="-300.8" font-family="Times,serif" font-size="14.00">HTTPS</text>
</g>
<!-- azure -->
<g id="node18" class="node">
<title>azure</title>
<path fill="#ffccbc" stroke="black" d="M1055.98,-263.98C1055.98,-266.06 1038.5,-267.75 1016.98,-267.75 995.46,-267.75 977.98,-266.06 977.98,-263.98 977.98,-263.98 977.98,-230.02 977.98,-230.02 977.98,-227.94 995.46,-226.25 1016.98,-226.25 1038.5,-226.25 1055.98,-227.94 1055.98,-230.02 1055.98,-230.02 1055.98,-263.98 1055.98,-263.98"/>
<path fill="none" stroke="black" d="M1055.98,-263.98C1055.98,-261.9 1038.5,-260.21 1016.98,-260.21 995.46,-260.21 977.98,-261.9 977.98,-263.98"/>
<text text-anchor="middle" x="1016.98" y="-250" font-family="Helvetica,sans-Serif" font-size="10.00">Azure OpenAI</text>
<text text-anchor="middle" x="1016.98" y="-239" font-family="Helvetica,sans-Serif" font-size="10.00">(optional)</text>
</g>
<!-- flask_proxy&#45;&gt;azure -->
<g id="edge12" class="edge">
<title>flask_proxy&#45;&gt;azure</title>
<path fill="none" stroke="#555555" d="M809.75,-267.46C861.26,-262.35 924.8,-256.04 967.63,-251.8"/>
<polygon fill="#555555" stroke="#555555" points="968.18,-255.26 977.78,-250.79 967.49,-248.29 968.18,-255.26"/>
<text text-anchor="middle" x="881.23" y="-268.8" font-family="Times,serif" font-size="14.00">HTTPS</text>
</g>
<!-- neo4j -->
<g id="node19" class="node">
<title>neo4j</title>
<path fill="#d7ccc8" stroke="black" d="M1044.98,-204.98C1044.98,-207.06 1032.43,-208.75 1016.98,-208.75 1001.53,-208.75 988.98,-207.06 988.98,-204.98 988.98,-204.98 988.98,-171.02 988.98,-171.02 988.98,-168.94 1001.53,-167.25 1016.98,-167.25 1032.43,-167.25 1044.98,-168.94 1044.98,-171.02 1044.98,-171.02 1044.98,-204.98 1044.98,-204.98"/>
<path fill="none" stroke="black" d="M1044.98,-204.98C1044.98,-202.9 1032.43,-201.21 1016.98,-201.21 1001.53,-201.21 988.98,-202.9 988.98,-204.98"/>
<text text-anchor="middle" x="1016.98" y="-191" font-family="Helvetica,sans-Serif" font-size="10.00">Neo4j</text>
<text text-anchor="middle" x="1016.98" y="-180" font-family="Helvetica,sans-Serif" font-size="10.00">(optional)</text>
</g>
<!-- flask_proxy&#45;&gt;neo4j -->
<g id="edge19" class="edge">
<title>flask_proxy&#45;&gt;neo4j</title>
<path fill="none" stroke="#555555" stroke-dasharray="5,2" d="M789.77,-253.96C806.22,-248.61 823.83,-243 840.23,-238 887.86,-223.47 943.17,-207.95 978.83,-198.13"/>
<polygon fill="#555555" stroke="#555555" points="980.07,-201.42 988.79,-195.39 978.22,-194.67 980.07,-201.42"/>
<text text-anchor="middle" x="881.23" y="-241.8" font-family="Times,serif" font-size="14.00">optional</text>
</g>
<!-- falkordb -->
<g id="node20" class="node">
<title>falkordb</title>
<path fill="#d7ccc8" stroke="black" d="M1045.98,-145.98C1045.98,-148.06 1032.98,-149.75 1016.98,-149.75 1000.97,-149.75 987.98,-148.06 987.98,-145.98 987.98,-145.98 987.98,-112.02 987.98,-112.02 987.98,-109.94 1000.97,-108.25 1016.98,-108.25 1032.98,-108.25 1045.98,-109.94 1045.98,-112.02 1045.98,-112.02 1045.98,-145.98 1045.98,-145.98"/>
<path fill="none" stroke="black" d="M1045.98,-145.98C1045.98,-143.9 1032.98,-142.21 1016.98,-142.21 1000.97,-142.21 987.98,-143.9 987.98,-145.98"/>
<text text-anchor="middle" x="1016.98" y="-132" font-family="Helvetica,sans-Serif" font-size="10.00">FalkorDB</text>
<text text-anchor="middle" x="1016.98" y="-121" font-family="Helvetica,sans-Serif" font-size="10.00">(optional)</text>
</g>
<!-- flask_proxy&#45;&gt;falkordb -->
<g id="edge20" class="edge">
<title>flask_proxy&#45;&gt;falkordb</title>
<path fill="none" stroke="#555555" stroke-dasharray="5,2" d="M767.19,-242.45C788.47,-227.04 814.89,-209.28 840.23,-196 885.7,-172.17 941.6,-152.34 977.98,-140.58"/>
<polygon fill="#555555" stroke="#555555" points="979.23,-143.86 987.69,-137.49 977.1,-137.19 979.23,-143.86"/>
<text text-anchor="middle" x="881.23" y="-199.8" font-family="Times,serif" font-size="14.00">optional</text>
</g>
<!-- tmux -->
<g id="node12" class="node">
<title>tmux</title>
<polygon fill="#e1bee7" stroke="black" points="1056.98,-90 988.98,-90 988.98,-94 976.98,-94 976.98,-54 1056.98,-54 1056.98,-90"/>
<polyline fill="none" stroke="black" points="976.98,-90 988.98,-90 "/>
<text text-anchor="middle" x="1016.98" y="-75" font-family="Helvetica,sans-Serif" font-size="10.00">tmux sessions</text>
<text text-anchor="middle" x="1016.98" y="-64" font-family="Helvetica,sans-Serif" font-size="10.00">per&#45;agent</text>
</g>
<!-- fleet_tui&#45;&gt;tmux -->
<g id="edge14" class="edge">
<title>fleet_tui&#45;&gt;tmux</title>
<path fill="none" stroke="#555555" d="M765.19,-72C818.32,-72 910.17,-72 966.74,-72"/>
<polygon fill="#555555" stroke="#555555" points="966.88,-75.5 976.88,-72 966.88,-68.5 966.88,-75.5"/>
<text text-anchor="middle" x="881.23" y="-75.8" font-family="Times,serif" font-size="14.00">manages</text>
</g>
<!-- ssh -->
<g id="node13" class="node">
<title>ssh</title>
<polygon fill="#e1bee7" stroke="black" points="1057.48,-36 988.48,-36 988.48,-40 976.48,-40 976.48,0 1057.48,0 1057.48,-36"/>
<polyline fill="none" stroke="black" points="976.48,-36 988.48,-36 "/>
<text text-anchor="middle" x="1016.98" y="-21" font-family="Helvetica,sans-Serif" font-size="10.00">SSH tunnels</text>
<text text-anchor="middle" x="1016.98" y="-10" font-family="Helvetica,sans-Serif" font-size="10.00">to remote VMs</text>
</g>
<!-- fleet_tui&#45;&gt;ssh -->
<g id="edge15" class="edge">
<title>fleet_tui&#45;&gt;ssh</title>
<path fill="none" stroke="#555555" d="M765.19,-64.32C818.17,-54.53 909.66,-37.64 966.27,-27.18"/>
<polygon fill="#555555" stroke="#555555" points="967.22,-30.57 976.41,-25.31 965.94,-23.68 967.22,-30.57"/>
<text text-anchor="middle" x="881.23" y="-53.8" font-family="Times,serif" font-size="14.00">creates</text>
</g>
<!-- docker -->
<g id="node14" class="node">
<title>docker</title>
<polygon fill="#f0f0f0" stroke="black" stroke-dasharray="5,2" points="328,-363 189,-363 189,-327 328,-327 328,-363"/>
<text text-anchor="middle" x="258.5" y="-348" font-family="Helvetica,sans-Serif" font-size="10.00">Docker container</text>
<text text-anchor="middle" x="258.5" y="-337" font-family="Helvetica,sans-Serif" font-size="10.00">Python 3.12&#45;slim + Node 20</text>
</g>
<!-- docker&#45;&gt;cli -->
<g id="edge16" class="edge">
<title>docker&#45;&gt;cli</title>
<path fill="none" stroke="#555555" d="M328.16,-345C362.76,-345 404.45,-345 438.39,-345"/>
<polygon fill="#555555" stroke="#555555" points="438.66,-348.5 448.66,-345 438.66,-341.5 438.66,-348.5"/>
<text text-anchor="middle" x="388.5" y="-348.8" font-family="Times,serif" font-size="14.00">ENTRYPOINT</text>
</g>
<!-- workspace -->
<g id="node15" class="node">
<title>workspace</title>
<polygon fill="#f0f0f0" stroke="black" stroke-dasharray="5,2" points="89,-363 0,-363 0,-327 89,-327 89,-363"/>
<text text-anchor="middle" x="44.5" y="-348" font-family="Helvetica,sans-Serif" font-size="10.00">/workspace</text>
<text text-anchor="middle" x="44.5" y="-337" font-family="Helvetica,sans-Serif" font-size="10.00">mounted volume</text>
</g>
<!-- workspace&#45;&gt;docker -->
<g id="edge17" class="edge">
<title>workspace&#45;&gt;docker</title>
<path fill="none" stroke="#555555" stroke-dasharray="5,2" d="M89.17,-345C114.98,-345 148.43,-345 178.71,-345"/>
<polygon fill="#555555" stroke="#555555" points="178.84,-348.5 188.84,-345 178.84,-341.5 178.84,-348.5"/>
<text text-anchor="middle" x="139" y="-348.8" font-family="Times,serif" font-size="14.00">bind mount</text>
</g>
</g>
</svg>
