<?xml version="1.0" encoding="UTF-8" standalone="no"?>
<!DOCTYPE svg PUBLIC "-//W3C//DTD SVG 1.1//EN"
 "http://www.w3.org/Graphics/SVG/1.1/DTD/svg11.dtd">
<!-- Generated by graphviz version 2.42.4 (0)
 -->
<!-- Title: compile_deps Pages: 1 -->
<svg width="3460pt" height="287pt"
 viewBox="0.00 0.00 3460.00 286.50" xmlns="http://www.w3.org/2000/svg" xmlns:xlink="http://www.w3.org/1999/xlink">
<g id="graph0" class="graph" transform="scale(1 1) rotate(0) translate(4 282.5)">
<title>compile_deps</title>
<polygon fill="white" stroke="transparent" points="-4,4 -4,-282.5 3456,-282.5 3456,4 -4,4"/>
<g id="clust1" class="cluster">
<title>cluster_external</title>
<polygon fill="none" stroke="#999999" stroke-dasharray="5,2" points="876,-8 876,-83 3444,-83 3444,-8 876,-8"/>
<text text-anchor="middle" x="2160" y="-67.8" font-family="Helvetica,sans-Serif" font-size="14.00">External Dependencies (pyproject.toml)</text>
</g>
<g id="clust2" class="cluster">
<title>cluster_internal</title>
<polygon fill="#f5f5f5" stroke="black" points="8,-8 8,-270.5 868,-270.5 868,-8 8,-8"/>
<text text-anchor="middle" x="438" y="-255.3" font-family="Helvetica,sans-Serif" font-size="14.00">Internal Package Import Graph</text>
</g>
<!-- flask -->
<g id="node1" class="node">
<title>flask</title>
<path fill="#e8f4fd" stroke="black" d="M1160,-52C1160,-52 1118,-52 1118,-52 1112,-52 1106,-46 1106,-40 1106,-40 1106,-28 1106,-28 1106,-22 1112,-16 1118,-16 1118,-16 1160,-16 1160,-16 1166,-16 1172,-22 1172,-28 1172,-28 1172,-40 1172,-40 1172,-46 1166,-52 1160,-52"/>
<text text-anchor="middle" x="1139" y="-31.5" font-family="Helvetica,sans-Serif" font-size="10.00">flask &gt;=2.0</text>
</g>
<!-- requests -->
<g id="node2" class="node">
<title>requests</title>
<path fill="#e8f4fd" stroke="black" d="M3268,-52C3268,-52 3196,-52 3196,-52 3190,-52 3184,-46 3184,-40 3184,-40 3184,-28 3184,-28 3184,-22 3190,-16 3196,-16 3196,-16 3268,-16 3268,-16 3274,-16 3280,-22 3280,-28 3280,-28 3280,-40 3280,-40 3280,-46 3274,-52 3268,-52"/>
<text text-anchor="middle" x="3232" y="-31.5" font-family="Helvetica,sans-Serif" font-size="10.00">requests &gt;=2.32.4</text>
</g>
<!-- fastapi -->
<g id="node3" class="node">
<title>fastapi</title>
<path fill="#e8f4fd" stroke="black" d="M3154,-52C3154,-52 3098,-52 3098,-52 3092,-52 3086,-46 3086,-40 3086,-40 3086,-28 3086,-28 3086,-22 3092,-16 3098,-16 3098,-16 3154,-16 3154,-16 3160,-16 3166,-22 3166,-28 3166,-28 3166,-40 3166,-40 3166,-46 3160,-52 3154,-52"/>
<text text-anchor="middle" x="3126" y="-31.5" font-family="Helvetica,sans-Serif" font-size="10.00">fastapi &gt;=0.68</text>
</g>
<!-- uvicorn -->
<g id="node4" class="node">
<title>uvicorn</title>
<path fill="#e8f4fd" stroke="black" d="M3056,-52C3056,-52 2998,-52 2998,-52 2992,-52 2986,-46 2986,-40 2986,-40 2986,-28 2986,-28 2986,-22 2992,-16 2998,-16 2998,-16 3056,-16 3056,-16 3062,-16 3068,-22 3068,-28 3068,-28 3068,-40 3068,-40 3068,-46 3062,-52 3056,-52"/>
<text text-anchor="middle" x="3027" y="-31.5" font-family="Helvetica,sans-Serif" font-size="10.00">uvicorn &gt;=0.15</text>
</g>
<!-- aiohttp -->
<g id="node5" class="node">
<title>aiohttp</title>
<path fill="#e8f4fd" stroke="black" d="M1252,-52C1252,-52 1202,-52 1202,-52 1196,-52 1190,-46 1190,-40 1190,-40 1190,-28 1190,-28 1190,-22 1196,-16 1202,-16 1202,-16 1252,-16 1252,-16 1258,-16 1264,-22 1264,-28 1264,-28 1264,-40 1264,-40 1264,-46 1258,-52 1252,-52"/>
<text text-anchor="middle" x="1227" y="-31.5" font-family="Helvetica,sans-Serif" font-size="10.00">aiohttp &gt;=3.8</text>
</g>
<!-- litellm -->
<g id="node6" class="node">
<title>litellm</title>
<path fill="#e8f4fd" stroke="black" d="M1341.5,-52C1341.5,-52 1294.5,-52 1294.5,-52 1288.5,-52 1282.5,-46 1282.5,-40 1282.5,-40 1282.5,-28 1282.5,-28 1282.5,-22 1288.5,-16 1294.5,-16 1294.5,-16 1341.5,-16 1341.5,-16 1347.5,-16 1353.5,-22 1353.5,-28 1353.5,-28 1353.5,-40 1353.5,-40 1353.5,-46 1347.5,-52 1341.5,-52"/>
<text text-anchor="middle" x="1318" y="-31.5" font-family="Helvetica,sans-Serif" font-size="10.00">litellm &gt;=1.0</text>
</g>
<!-- dotenv -->
<g id="node7" class="node">
<title>dotenv</title>
<path fill="#e8f4fd" stroke="black" d="M2766,-52C2766,-52 2678,-52 2678,-52 2672,-52 2666,-46 2666,-40 2666,-40 2666,-28 2666,-28 2666,-22 2672,-16 2678,-16 2678,-16 2766,-16 2766,-16 2772,-16 2778,-22 2778,-28 2778,-28 2778,-40 2778,-40 2778,-46 2772,-52 2766,-52"/>
<text text-anchor="middle" x="2722" y="-31.5" font-family="Helvetica,sans-Serif" font-size="10.00">python&#45;dotenv &gt;=0.19</text>
</g>
<!-- claude_sdk -->
<g id="node8" class="node">
<title>claude_sdk</title>
<path fill="#e8f4fd" stroke="black" d="M1075.5,-52C1075.5,-52 980.5,-52 980.5,-52 974.5,-52 968.5,-46 968.5,-40 968.5,-40 968.5,-28 968.5,-28 968.5,-22 974.5,-16 980.5,-16 980.5,-16 1075.5,-16 1075.5,-16 1081.5,-16 1087.5,-22 1087.5,-28 1087.5,-28 1087.5,-40 1087.5,-40 1087.5,-46 1081.5,-52 1075.5,-52"/>
<text text-anchor="middle" x="1028" y="-31.5" font-family="Helvetica,sans-Serif" font-size="10.00">claude&#45;agent&#45;sdk &gt;=0.1</text>
</g>
<!-- copilot_sdk -->
<g id="node9" class="node">
<title>copilot_sdk</title>
<path fill="#e8f4fd" stroke="black" d="M2490,-52C2490,-52 2392,-52 2392,-52 2386,-52 2380,-46 2380,-40 2380,-40 2380,-28 2380,-28 2380,-22 2386,-16 2392,-16 2392,-16 2490,-16 2490,-16 2496,-16 2502,-22 2502,-28 2502,-28 2502,-40 2502,-40 2502,-46 2496,-52 2490,-52"/>
<text text-anchor="middle" x="2441" y="-31.5" font-family="Helvetica,sans-Serif" font-size="10.00">github&#45;copilot&#45;sdk &gt;=0.1</text>
</g>
<!-- rich -->
<g id="node10" class="node">
<title>rich</title>
<path fill="#e8f4fd" stroke="black" d="M938,-52C938,-52 896,-52 896,-52 890,-52 884,-46 884,-40 884,-40 884,-28 884,-28 884,-22 890,-16 896,-16 896,-16 938,-16 938,-16 944,-16 950,-22 950,-28 950,-28 950,-40 950,-40 950,-46 944,-52 938,-52"/>
<text text-anchor="middle" x="917" y="-31.5" font-family="Helvetica,sans-Serif" font-size="10.00">rich &gt;=13.0</text>
</g>
<!-- azure_id -->
<g id="node11" class="node">
<title>azure_id</title>
<path fill="#e8f4fd" stroke="black" d="M2212.5,-52C2212.5,-52 2127.5,-52 2127.5,-52 2121.5,-52 2115.5,-46 2115.5,-40 2115.5,-40 2115.5,-28 2115.5,-28 2115.5,-22 2121.5,-16 2127.5,-16 2127.5,-16 2212.5,-16 2212.5,-16 2218.5,-16 2224.5,-22 2224.5,-28 2224.5,-28 2224.5,-40 2224.5,-40 2224.5,-46 2218.5,-52 2212.5,-52"/>
<text text-anchor="middle" x="2170" y="-31.5" font-family="Helvetica,sans-Serif" font-size="10.00">azure&#45;identity &gt;=1.12</text>
</g>
<!-- kuzu -->
<g id="node12" class="node">
<title>kuzu</title>
<path fill="#e8f4fd" stroke="black" d="M1954.5,-52C1954.5,-52 1907.5,-52 1907.5,-52 1901.5,-52 1895.5,-46 1895.5,-40 1895.5,-40 1895.5,-28 1895.5,-28 1895.5,-22 1901.5,-16 1907.5,-16 1907.5,-16 1954.5,-16 1954.5,-16 1960.5,-16 1966.5,-22 1966.5,-28 1966.5,-28 1966.5,-40 1966.5,-40 1966.5,-46 1960.5,-52 1954.5,-52"/>
<text text-anchor="middle" x="1931" y="-31.5" font-family="Helvetica,sans-Serif" font-size="10.00">kuzu &gt;=0.11</text>
</g>
<!-- memory_lib -->
<g id="node13" class="node">
<title>memory_lib</title>
<path fill="#e8f4fd" stroke="black" d="M2085,-52C2085,-52 1997,-52 1997,-52 1991,-52 1985,-46 1985,-40 1985,-40 1985,-28 1985,-28 1985,-22 1991,-16 1997,-16 1997,-16 2085,-16 2085,-16 2091,-16 2097,-22 2097,-28 2097,-28 2097,-40 2097,-40 2097,-46 2091,-52 2085,-52"/>
<text text-anchor="middle" x="2041" y="-37" font-family="Helvetica,sans-Serif" font-size="10.00">amplihack&#45;memory&#45;lib</text>
<text text-anchor="middle" x="2041" y="-26" font-family="Helvetica,sans-Serif" font-size="10.00">@git v0.2.0</text>
</g>
<!-- agent_eval -->
<g id="node14" class="node">
<title>agent_eval</title>
<path fill="#e8f4fd" stroke="black" d="M1659.5,-52C1659.5,-52 1574.5,-52 1574.5,-52 1568.5,-52 1562.5,-46 1562.5,-40 1562.5,-40 1562.5,-28 1562.5,-28 1562.5,-22 1568.5,-16 1574.5,-16 1574.5,-16 1659.5,-16 1659.5,-16 1665.5,-16 1671.5,-22 1671.5,-28 1671.5,-28 1671.5,-40 1671.5,-40 1671.5,-46 1665.5,-52 1659.5,-52"/>
<text text-anchor="middle" x="1617" y="-37" font-family="Helvetica,sans-Serif" font-size="10.00">amplihack&#45;agent&#45;eval</text>
<text text-anchor="middle" x="1617" y="-26" font-family="Helvetica,sans-Serif" font-size="10.00">@git main</text>
</g>
<!-- tree_sitter -->
<g id="node15" class="node">
<title>tree_sitter</title>
<path fill="#e8f4fd" stroke="black" d="M2349.5,-52C2349.5,-52 2254.5,-52 2254.5,-52 2248.5,-52 2242.5,-46 2242.5,-40 2242.5,-40 2242.5,-28 2242.5,-28 2242.5,-22 2248.5,-16 2254.5,-16 2254.5,-16 2349.5,-16 2349.5,-16 2355.5,-16 2361.5,-22 2361.5,-28 2361.5,-28 2361.5,-40 2361.5,-40 2361.5,-46 2355.5,-52 2349.5,-52"/>
<text text-anchor="middle" x="2302" y="-37" font-family="Helvetica,sans-Serif" font-size="10.00">tree&#45;sitter &gt;=0.23</text>
<text text-anchor="middle" x="2302" y="-26" font-family="Helvetica,sans-Serif" font-size="10.00">+ 7 language grammars</text>
</g>
<!-- langchain -->
<g id="node16" class="node">
<title>langchain</title>
<path fill="#e8f4fd" stroke="black" d="M2636,-52C2636,-52 2532,-52 2532,-52 2526,-52 2520,-46 2520,-40 2520,-40 2520,-28 2520,-28 2520,-22 2526,-16 2532,-16 2532,-16 2636,-16 2636,-16 2642,-16 2648,-22 2648,-28 2648,-28 2648,-40 2648,-40 2648,-46 2642,-52 2636,-52"/>
<text text-anchor="middle" x="2584" y="-37" font-family="Helvetica,sans-Serif" font-size="10.00">langchain &gt;=1.2.3</text>
<text text-anchor="middle" x="2584" y="-26" font-family="Helvetica,sans-Serif" font-size="10.00">+ openai/anthropic/google</text>
</g>
<!-- psutil -->
<g id="node17" class="node">
<title>psutil</title>
<path fill="#e8f4fd" stroke="black" d="M1532,-52C1532,-52 1488,-52 1488,-52 1482,-52 1476,-46 1476,-40 1476,-40 1476,-28 1476,-28 1476,-22 1482,-16 1488,-16 1488,-16 1532,-16 1532,-16 1538,-16 1544,-22 1544,-28 1544,-28 1544,-40 1544,-40 1544,-46 1538,-52 1532,-52"/>
<text text-anchor="middle" x="1510" y="-31.5" font-family="Helvetica,sans-Serif" font-size="10.00">psutil &gt;=7.0</text>
</g>
<!-- protobuf -->
<g id="node18" class="node">
<title>protobuf</title>
<path fill="#e8f4fd" stroke="black" d="M1446,-52C1446,-52 1384,-52 1384,-52 1378,-52 1372,-46 1372,-40 1372,-40 1372,-28 1372,-28 1372,-22 1378,-16 1384,-16 1384,-16 1446,-16 1446,-16 1452,-16 1458,-22 1458,-28 1458,-28 1458,-40 1458,-40 1458,-46 1452,-52 1446,-52"/>
<text text-anchor="middle" x="1415" y="-31.5" font-family="Helvetica,sans-Serif" font-size="10.00">protobuf &gt;=5.29</text>
</g>
<!-- falkordb -->
<g id="node19" class="node">
<title>falkordb</title>
<path fill="#e8f4fd" stroke="black" d="M2864,-52C2864,-52 2808,-52 2808,-52 2802,-52 2796,-46 2796,-40 2796,-40 2796,-28 2796,-28 2796,-22 2802,-16 2808,-16 2808,-16 2864,-16 2864,-16 2870,-16 2876,-22 2876,-28 2876,-28 2876,-40 2876,-40 2876,-46 2870,-52 2864,-52"/>
<text text-anchor="middle" x="2836" y="-31.5" font-family="Helvetica,sans-Serif" font-size="10.00">falkordb &gt;=1.0</text>
</g>
<!-- neo4j -->
<g id="node20" class="node">
<title>neo4j</title>
<path fill="#e8f4fd" stroke="black" d="M2956,-52C2956,-52 2906,-52 2906,-52 2900,-52 2894,-46 2894,-40 2894,-40 2894,-28 2894,-28 2894,-22 2900,-16 2906,-16 2906,-16 2956,-16 2956,-16 2962,-16 2968,-22 2968,-28 2968,-28 2968,-40 2968,-40 2968,-46 2962,-52 2956,-52"/>
<text text-anchor="middle" x="2931" y="-31.5" font-family="Helvetica,sans-Serif" font-size="10.00">neo4j &gt;=5.25</text>
</g>
<!-- jedi_lsp -->
<g id="node21" class="node">
<title>jedi_lsp</title>
<path fill="#e8f4fd" stroke="black" d="M3423.5,-52C3423.5,-52 3310.5,-52 3310.5,-52 3304.5,-52 3298.5,-46 3298.5,-40 3298.5,-40 3298.5,-28 3298.5,-28 3298.5,-22 3304.5,-16 3310.5,-16 3310.5,-16 3423.5,-16 3423.5,-16 3429.5,-16 3435.5,-22 3435.5,-28 3435.5,-28 3435.5,-40 3435.5,-40 3435.5,-46 3429.5,-52 3423.5,-52"/>
<text text-anchor="middle" x="3367" y="-31.5" font-family="Helvetica,sans-Serif" font-size="10.00">jedi&#45;language&#45;server &gt;=0.43</text>
</g>
<!-- docker_py -->
<g id="node22" class="node">
<title>docker_py</title>
<path fill="#e8f4fd" stroke="black" d="M1865,-52C1865,-52 1815,-52 1815,-52 1809,-52 1803,-46 1803,-40 1803,-40 1803,-28 1803,-28 1803,-22 1809,-16 1815,-16 1815,-16 1865,-16 1865,-16 1871,-16 1877,-22 1877,-28 1877,-28 1877,-40 1877,-40 1877,-46 1871,-52 1865,-52"/>
<text text-anchor="middle" x="1840" y="-31.5" font-family="Helvetica,sans-Serif" font-size="10.00">docker &gt;=7.1</text>
</g>
<!-- packaging -->
<g id="node23" class="node">
<title>packaging</title>
<path fill="#e8f4fd" stroke="black" d="M1772.5,-52C1772.5,-52 1701.5,-52 1701.5,-52 1695.5,-52 1689.5,-46 1689.5,-40 1689.5,-40 1689.5,-28 1689.5,-28 1689.5,-22 1695.5,-16 1701.5,-16 1701.5,-16 1772.5,-16 1772.5,-16 1778.5,-16 1784.5,-22 1784.5,-28 1784.5,-28 1784.5,-40 1784.5,-40 1784.5,-46 1778.5,-52 1772.5,-52"/>
<text text-anchor="middle" x="1737" y="-31.5" font-family="Helvetica,sans-Serif" font-size="10.00">packaging &gt;=21.0</text>
</g>
<!-- cli -->
<g id="node24" class="node">
<title>cli</title>
<path fill="#c8e6c9" stroke="black" d="M450,-239.5C450,-239.5 420,-239.5 420,-239.5 414,-239.5 408,-233.5 408,-227.5 408,-227.5 408,-215.5 408,-215.5 408,-209.5 414,-203.5 420,-203.5 420,-203.5 450,-203.5 450,-203.5 456,-203.5 462,-209.5 462,-215.5 462,-215.5 462,-227.5 462,-227.5 462,-233.5 456,-239.5 450,-239.5"/>
<text text-anchor="middle" x="435" y="-219" font-family="Helvetica,sans-Serif" font-size="10.00">cli</text>
</g>
<!-- launcher -->
<g id="node25" class="node">
<title>launcher</title>
<path fill="#c8e6c9" stroke="black" d="M450,-155C450,-155 420,-155 420,-155 414,-155 408,-149 408,-143 408,-143 408,-131 408,-131 408,-125 414,-119 420,-119 420,-119 450,-119 450,-119 456,-119 462,-125 462,-131 462,-131 462,-143 462,-143 462,-149 456,-155 450,-155"/>
<text text-anchor="middle" x="435" y="-134.5" font-family="Helvetica,sans-Serif" font-size="10.00">launcher</text>
</g>
<!-- cli&#45;&gt;launcher -->
<g id="edge1" class="edge">
<title>cli&#45;&gt;launcher</title>
<path fill="none" stroke="black" d="M435,-203.41C435,-192.34 435,-177.7 435,-165.08"/>
<polygon fill="black" stroke="black" points="438.5,-165.07 435,-155.07 431.5,-165.07 438.5,-165.07"/>
<text text-anchor="middle" x="449" y="-175.8" font-family="Times,serif" font-size="9.00">imports</text>
</g>
<!-- proxy -->
<g id="node26" class="node">
<title>proxy</title>
<path fill="#c8e6c9" stroke="black" d="M522,-155C522,-155 492,-155 492,-155 486,-155 480,-149 480,-143 480,-143 480,-131 480,-131 480,-125 486,-119 492,-119 492,-119 522,-119 522,-119 528,-119 534,-125 534,-131 534,-131 534,-143 534,-143 534,-149 528,-155 522,-155"/>
<text text-anchor="middle" x="507" y="-134.5" font-family="Helvetica,sans-Serif" font-size="10.00">proxy</text>
</g>
<!-- cli&#45;&gt;proxy -->
<g id="edge2" class="edge">
<title>cli&#45;&gt;proxy</title>
<path fill="none" stroke="black" d="M449.92,-203.41C460.15,-191.68 473.89,-175.93 485.33,-162.83"/>
<polygon fill="black" stroke="black" points="488.16,-164.91 492.1,-155.07 482.89,-160.31 488.16,-164.91"/>
<text text-anchor="middle" x="490" y="-175.8" font-family="Times,serif" font-size="9.00">imports</text>
</g>
<!-- fleet -->
<g id="node27" class="node">
<title>fleet</title>
<path fill="#c8e6c9" stroke="black" d="M274,-155C274,-155 244,-155 244,-155 238,-155 232,-149 232,-143 232,-143 232,-131 232,-131 232,-125 238,-119 244,-119 244,-119 274,-119 274,-119 280,-119 286,-125 286,-131 286,-131 286,-143 286,-143 286,-149 280,-155 274,-155"/>
<text text-anchor="middle" x="259" y="-134.5" font-family="Helvetica,sans-Serif" font-size="10.00">fleet</text>
</g>
<!-- cli&#45;&gt;fleet -->
<g id="edge3" class="edge">
<title>cli&#45;&gt;fleet</title>
<path fill="none" stroke="black" d="M407.97,-208.06C392.21,-200.79 371.96,-191.41 354,-183 334.76,-173.99 313.36,-163.86 295.76,-155.51"/>
<polygon fill="black" stroke="black" points="296.94,-152.19 286.41,-151.06 293.94,-158.51 296.94,-152.19"/>
<text text-anchor="middle" x="368" y="-175.8" font-family="Times,serif" font-size="9.00">imports</text>
</g>
<!-- recipes -->
<g id="node28" class="node">
<title>recipes</title>
<path fill="#c8e6c9" stroke="black" d="M58,-155C58,-155 28,-155 28,-155 22,-155 16,-149 16,-143 16,-143 16,-131 16,-131 16,-125 22,-119 28,-119 28,-119 58,-119 58,-119 64,-119 70,-125 70,-131 70,-131 70,-143 70,-143 70,-149 64,-155 58,-155"/>
<text text-anchor="middle" x="43" y="-134.5" font-family="Helvetica,sans-Serif" font-size="10.00">recipes</text>
</g>
<!-- cli&#45;&gt;recipes -->
<g id="edge4" class="edge">
<title>cli&#45;&gt;recipes</title>
<path fill="none" stroke="black" d="M407.76,-209.49C398.74,-206.25 388.56,-203.04 379,-201 287.39,-181.45 260.93,-201.02 169,-183 130.78,-175.51 119.58,-170.89 79.87,-155.16"/>
<polygon fill="black" stroke="black" points="80.93,-151.82 70.34,-151.4 78.36,-158.33 80.93,-151.82"/>
<text text-anchor="middle" x="183" y="-175.8" font-family="Times,serif" font-size="9.00">imports</text>
</g>
<!-- bundle -->
<g id="node30" class="node">
<title>bundle</title>
<path fill="#c8e6c9" stroke="black" d="M703.5,-155C703.5,-155 636.5,-155 636.5,-155 630.5,-155 624.5,-149 624.5,-143 624.5,-143 624.5,-131 624.5,-131 624.5,-125 630.5,-119 636.5,-119 636.5,-119 703.5,-119 703.5,-119 709.5,-119 715.5,-125 715.5,-131 715.5,-131 715.5,-143 715.5,-143 715.5,-149 709.5,-155 703.5,-155"/>
<text text-anchor="middle" x="670" y="-134.5" font-family="Helvetica,sans-Serif" font-size="10.00">bundle_generator</text>
</g>
<!-- cli&#45;&gt;bundle -->
<g id="edge5" class="edge">
<title>cli&#45;&gt;bundle</title>
<path fill="none" stroke="black" d="M462.1,-212.74C486.75,-205.53 524.05,-194.24 556,-183 577.04,-175.6 599.97,-166.71 619.71,-158.8"/>
<polygon fill="black" stroke="black" points="621.16,-161.99 629.12,-155 618.54,-155.5 621.16,-161.99"/>
<text text-anchor="middle" x="596" y="-175.8" font-family="Times,serif" font-size="9.00">imports</text>
</g>
<!-- eval_pkg -->
<g id="node31" class="node">
<title>eval_pkg</title>
<path fill="#c8e6c9" stroke="black" d="M594,-155C594,-155 564,-155 564,-155 558,-155 552,-149 552,-143 552,-143 552,-131 552,-131 552,-125 558,-119 564,-119 564,-119 594,-119 594,-119 600,-119 606,-125 606,-131 606,-131 606,-143 606,-143 606,-149 600,-155 594,-155"/>
<text text-anchor="middle" x="579" y="-134.5" font-family="Helvetica,sans-Serif" font-size="10.00">eval</text>
</g>
<!-- cli&#45;&gt;eval_pkg -->
<g id="edge7" class="edge">
<title>cli&#45;&gt;eval_pkg</title>
<path fill="none" stroke="black" d="M462.01,-207.36C475.91,-200.41 493.04,-191.56 508,-183 520.21,-176.01 533.3,-167.9 544.87,-160.51"/>
<polygon fill="black" stroke="black" points="546.87,-163.39 553.38,-155.03 543.08,-157.5 546.87,-163.39"/>
<text text-anchor="middle" x="538" y="-175.8" font-family="Times,serif" font-size="9.00">imports</text>
</g>
<!-- security -->
<g id="node34" class="node">
<title>security</title>
<path fill="#c8e6c9" stroke="black" d="M848,-155C848,-155 818,-155 818,-155 812,-155 806,-149 806,-143 806,-143 806,-131 806,-131 806,-125 812,-119 818,-119 818,-119 848,-119 848,-119 854,-119 860,-125 860,-131 860,-131 860,-143 860,-143 860,-149 854,-155 848,-155"/>
<text text-anchor="middle" x="833" y="-134.5" font-family="Helvetica,sans-Serif" font-size="10.00">security</text>
</g>
<!-- cli&#45;&gt;security -->
<g id="edge11" class="edge">
<title>cli&#45;&gt;security</title>
<path fill="none" stroke="black" d="M462.1,-211.99C475.49,-208.09 491.97,-203.74 507,-201 589.58,-185.98 612.44,-198.17 695,-183 738.35,-175.04 751.32,-171.74 796.26,-155.02"/>
<polygon fill="black" stroke="black" points="797.55,-158.28 805.69,-151.49 795.1,-151.72 797.55,-158.28"/>
<text text-anchor="middle" x="756" y="-175.8" font-family="Times,serif" font-size="9.00">imports</text>
</g>
<!-- settings -->
<g id="node36" class="node">
<title>settings</title>
<path fill="#c8e6c9" stroke="black" d="M130,-155C130,-155 100,-155 100,-155 94,-155 88,-149 88,-143 88,-143 88,-131 88,-131 88,-125 94,-119 100,-119 100,-119 130,-119 130,-119 136,-119 142,-125 142,-131 142,-131 142,-143 142,-143 142,-149 136,-155 130,-155"/>
<text text-anchor="middle" x="115" y="-134.5" font-family="Helvetica,sans-Serif" font-size="10.00">settings</text>
</g>
<!-- cli&#45;&gt;settings -->
<g id="edge8" class="edge">
<title>cli&#45;&gt;settings</title>
<path fill="none" stroke="black" d="M407.99,-209.83C398.9,-206.58 388.62,-203.27 379,-201 317.94,-186.61 300.25,-196.57 239,-183 201.75,-174.75 190.72,-170.62 151.71,-155.1"/>
<polygon fill="black" stroke="black" points="152.94,-151.82 142.35,-151.38 150.35,-158.33 152.94,-151.82"/>
<text text-anchor="middle" x="253" y="-175.8" font-family="Times,serif" font-size="9.00">imports</text>
</g>
<!-- uvx -->
<g id="node39" class="node">
<title>uvx</title>
<path fill="#c8e6c9" stroke="black" d="M202,-155C202,-155 172,-155 172,-155 166,-155 160,-149 160,-143 160,-143 160,-131 160,-131 160,-125 166,-119 172,-119 172,-119 202,-119 202,-119 208,-119 214,-125 214,-131 214,-131 214,-143 214,-143 214,-149 208,-155 202,-155"/>
<text text-anchor="middle" x="187" y="-134.5" font-family="Helvetica,sans-Serif" font-size="10.00">uvx</text>
</g>
<!-- cli&#45;&gt;uvx -->
<g id="edge9" class="edge">
<title>cli&#45;&gt;uvx</title>
<path fill="none" stroke="black" d="M407.84,-210.4C398.74,-207.18 388.49,-203.75 379,-201 345.25,-191.21 335.73,-192.89 302,-183 269.05,-173.34 258.98,-169.76 223.88,-155.22"/>
<polygon fill="black" stroke="black" points="224.97,-151.88 214.39,-151.28 222.28,-158.35 224.97,-151.88"/>
<text text-anchor="middle" x="316" y="-175.8" font-family="Times,serif" font-size="9.00">imports</text>
</g>
<!-- docker_int -->
<g id="node40" class="node">
<title>docker_int</title>
<path fill="#c8e6c9" stroke="black" d="M776,-155C776,-155 746,-155 746,-155 740,-155 734,-149 734,-143 734,-143 734,-131 734,-131 734,-125 740,-119 746,-119 746,-119 776,-119 776,-119 782,-119 788,-125 788,-131 788,-131 788,-143 788,-143 788,-149 782,-155 776,-155"/>
<text text-anchor="middle" x="761" y="-134.5" font-family="Helvetica,sans-Serif" font-size="10.00">docker</text>
</g>
<!-- cli&#45;&gt;docker_int -->
<g id="edge10" class="edge">
<title>cli&#45;&gt;docker_int</title>
<path fill="none" stroke="black" d="M462.2,-212.46C475.61,-208.67 492.07,-204.27 507,-201 554.11,-190.68 566.82,-192.96 614,-183 663.36,-172.58 676.44,-171.82 724,-155 724.1,-154.96 724.2,-154.93 724.3,-154.89"/>
<polygon fill="black" stroke="black" points="725.72,-158.1 733.75,-151.19 723.16,-151.58 725.72,-158.1"/>
<text text-anchor="middle" x="677" y="-175.8" font-family="Times,serif" font-size="9.00">imports</text>
</g>
<!-- plugin -->
<g id="node44" class="node">
<title>plugin</title>
<path fill="#c8e6c9" stroke="black" d="M377.5,-155C377.5,-155 316.5,-155 316.5,-155 310.5,-155 304.5,-149 304.5,-143 304.5,-143 304.5,-131 304.5,-131 304.5,-125 310.5,-119 316.5,-119 316.5,-119 377.5,-119 377.5,-119 383.5,-119 389.5,-125 389.5,-131 389.5,-131 389.5,-143 389.5,-143 389.5,-149 383.5,-155 377.5,-155"/>
<text text-anchor="middle" x="347" y="-134.5" font-family="Helvetica,sans-Serif" font-size="10.00">plugin_manager</text>
</g>
<!-- cli&#45;&gt;plugin -->
<g id="edge6" class="edge">
<title>cli&#45;&gt;plugin</title>
<path fill="none" stroke="black" d="M416.77,-203.41C404.02,-191.46 386.83,-175.34 372.7,-162.09"/>
<polygon fill="black" stroke="black" points="374.9,-159.36 365.21,-155.07 370.11,-164.46 374.9,-159.36"/>
<text text-anchor="middle" x="408" y="-175.8" font-family="Times,serif" font-size="9.00">imports</text>
</g>
<!-- launcher&#45;&gt;claude_sdk -->
<g id="edge18" class="edge">
<title>launcher&#45;&gt;claude_sdk</title>
<path fill="none" stroke="black" stroke-dasharray="5,2" d="M462.1,-121.84C465.05,-120.71 468.05,-119.73 471,-119 557.8,-97.49 784.28,-112.2 873,-101 911.74,-96.11 923.14,-98.46 959,-83 973.45,-76.77 987.97,-67.27 999.93,-58.37"/>
<polygon fill="black" stroke="black" points="1002.37,-60.91 1008.16,-52.04 998.1,-55.36 1002.37,-60.91"/>
<text text-anchor="middle" x="956" y="-93.8" font-family="Times,serif" font-size="9.00">agent SDK</text>
</g>
<!-- launcher&#45;&gt;rich -->
<g id="edge19" class="edge">
<title>launcher&#45;&gt;rich</title>
<path fill="none" stroke="black" stroke-dasharray="5,2" d="M462.14,-121.97C465.08,-120.82 468.07,-119.8 471,-119 643.68,-72.09 711.16,-161.43 872,-83 882.69,-77.79 892.13,-68.87 899.57,-60.13"/>
<polygon fill="black" stroke="black" points="902.34,-62.27 905.81,-52.26 896.85,-57.92 902.34,-62.27"/>
<text text-anchor="middle" x="861" y="-93.8" font-family="Times,serif" font-size="9.00">TUI</text>
</g>
<!-- hooks -->
<g id="node37" class="node">
<title>hooks</title>
<path fill="#c8e6c9" stroke="black" d="M450,-52C450,-52 420,-52 420,-52 414,-52 408,-46 408,-40 408,-40 408,-28 408,-28 408,-22 414,-16 420,-16 420,-16 450,-16 450,-16 456,-16 462,-22 462,-28 462,-28 462,-40 462,-40 462,-46 456,-52 450,-52"/>
<text text-anchor="middle" x="435" y="-31.5" font-family="Helvetica,sans-Serif" font-size="10.00">hooks</text>
</g>
<!-- launcher&#45;&gt;hooks -->
<g id="edge13" class="edge">
<title>launcher&#45;&gt;hooks</title>
<path fill="none" stroke="black" d="M435,-118.87C435,-103.41 435,-80.42 435,-62.41"/>
<polygon fill="black" stroke="black" points="438.5,-62.22 435,-52.22 431.5,-62.22 438.5,-62.22"/>
<text text-anchor="middle" x="449" y="-93.8" font-family="Times,serif" font-size="9.00">imports</text>
</g>
<!-- proxy&#45;&gt;flask -->
<g id="edge15" class="edge">
<title>proxy&#45;&gt;flask</title>
<path fill="none" stroke="black" stroke-dasharray="5,2" d="M534.1,-121.83C537.05,-120.71 540.05,-119.73 543,-119 637.38,-95.79 883.26,-110.4 980,-101 1032.36,-95.91 1050.89,-108.33 1097,-83 1106.75,-77.64 1115.32,-69.09 1122.13,-60.68"/>
<polygon fill="black" stroke="black" points="1125.12,-62.54 1128.34,-52.45 1119.52,-58.33 1125.12,-62.54"/>
<text text-anchor="middle" x="1099" y="-93.8" font-family="Times,serif" font-size="9.00">web server</text>
</g>
<!-- proxy&#45;&gt;aiohttp -->
<g id="edge16" class="edge">
<title>proxy&#45;&gt;aiohttp</title>
<path fill="none" stroke="black" stroke-dasharray="5,2" d="M534.09,-121.8C537.04,-120.68 540.04,-119.71 543,-119 668.37,-88.84 995.82,-122.3 1123,-101 1149.62,-96.54 1158.04,-97.19 1181,-83 1190.82,-76.93 1199.99,-68.27 1207.52,-59.98"/>
<polygon fill="black" stroke="black" points="1210.32,-62.09 1214.2,-52.24 1205.02,-57.52 1210.32,-62.09"/>
<text text-anchor="middle" x="1188" y="-93.8" font-family="Times,serif" font-size="9.00">async HTTP</text>
</g>
<!-- proxy&#45;&gt;litellm -->
<g id="edge17" class="edge">
<title>proxy&#45;&gt;litellm</title>
<path fill="none" stroke="black" stroke-dasharray="5,2" d="M534.09,-121.78C537.04,-120.67 540.04,-119.71 543,-119 688.32,-84.36 1067.61,-125.37 1215,-101 1241.63,-96.6 1250.12,-97.32 1273,-83 1282.69,-76.94 1291.67,-68.28 1299.03,-59.99"/>
<polygon fill="black" stroke="black" points="1301.79,-62.15 1305.55,-52.24 1296.43,-57.64 1301.79,-62.15"/>
<text text-anchor="middle" x="1280.5" y="-93.8" font-family="Times,serif" font-size="9.00">LLM routing</text>
</g>
<!-- fleet&#45;&gt;rich -->
<g id="edge20" class="edge">
<title>fleet&#45;&gt;rich</title>
<path fill="none" stroke="black" stroke-dasharray="5,2" d="M286.11,-121.88C289.05,-120.74 292.05,-119.75 295,-119 326.13,-111.08 842.99,-96.77 872,-83 882.74,-77.9 892.19,-69.01 899.62,-60.25"/>
<polygon fill="black" stroke="black" points="902.4,-62.38 905.86,-52.36 896.91,-58.04 902.4,-62.38"/>
<text text-anchor="middle" x="812" y="-93.8" font-family="Times,serif" font-size="9.00">TUI</text>
</g>
<!-- recipe_cli -->
<g id="node29" class="node">
<title>recipe_cli</title>
<path fill="#c8e6c9" stroke="black" d="M358,-239.5C358,-239.5 324,-239.5 324,-239.5 318,-239.5 312,-233.5 312,-227.5 312,-227.5 312,-215.5 312,-215.5 312,-209.5 318,-203.5 324,-203.5 324,-203.5 358,-203.5 358,-203.5 364,-203.5 370,-209.5 370,-215.5 370,-215.5 370,-227.5 370,-227.5 370,-233.5 364,-239.5 358,-239.5"/>
<text text-anchor="middle" x="341" y="-219" font-family="Helvetica,sans-Serif" font-size="10.00">recipe_cli</text>
</g>
<!-- recipe_cli&#45;&gt;recipes -->
<g id="edge12" class="edge">
<title>recipe_cli&#45;&gt;recipes</title>
<path fill="none" stroke="black" d="M311.58,-204.02C308.74,-202.85 305.85,-201.82 303,-201 210.81,-174.61 174.98,-223.36 88,-183 78.08,-178.4 69.1,-170.62 61.82,-162.82"/>
<polygon fill="black" stroke="black" points="64.33,-160.38 55.13,-155.12 59.05,-164.97 64.33,-160.38"/>
<text text-anchor="middle" x="102" y="-175.8" font-family="Times,serif" font-size="9.00">imports</text>
</g>
<!-- bundle&#45;&gt;packaging -->
<g id="edge28" class="edge">
<title>bundle&#45;&gt;packaging</title>
<path fill="none" stroke="black" stroke-dasharray="5,2" d="M715.69,-120.83C718.82,-120.12 721.94,-119.49 725,-119 914.58,-88.35 1398.06,-121.51 1589,-101 1630.43,-96.55 1643.5,-101.16 1681,-83 1693.07,-77.16 1704.63,-68.07 1714.08,-59.36"/>
<polygon fill="black" stroke="black" points="1716.72,-61.68 1721.49,-52.22 1711.86,-56.64 1716.72,-61.68"/>
<text text-anchor="middle" x="1690.5" y="-93.8" font-family="Times,serif" font-size="9.00">version compare</text>
</g>
<!-- eval_pkg&#45;&gt;agent_eval -->
<g id="edge27" class="edge">
<title>eval_pkg&#45;&gt;agent_eval</title>
<path fill="none" stroke="black" stroke-dasharray="5,2" d="M606.09,-121.78C609.04,-120.67 612.04,-119.7 615,-119 689.93,-101.17 1231.07,-104.82 1308,-101 1417.05,-95.58 1450.76,-121.3 1553,-83 1567.34,-77.63 1581.2,-67.98 1592.33,-58.74"/>
<polygon fill="black" stroke="black" points="1594.66,-61.35 1599.92,-52.15 1590.07,-56.06 1594.66,-61.35"/>
<text text-anchor="middle" x="1557" y="-93.8" font-family="Times,serif" font-size="9.00">eval framework</text>
</g>
<!-- knowledge -->
<g id="node32" class="node">
<title>knowledge</title>
<path fill="#c8e6c9" stroke="black" d="M615.5,-52C615.5,-52 542.5,-52 542.5,-52 536.5,-52 530.5,-46 530.5,-40 530.5,-40 530.5,-28 530.5,-28 530.5,-22 536.5,-16 542.5,-16 542.5,-16 615.5,-16 615.5,-16 621.5,-16 627.5,-22 627.5,-28 627.5,-28 627.5,-40 627.5,-40 627.5,-46 621.5,-52 615.5,-52"/>
<text text-anchor="middle" x="579" y="-31.5" font-family="Helvetica,sans-Serif" font-size="10.00">knowledge_builder</text>
</g>
<!-- eval_pkg&#45;&gt;knowledge -->
<g id="edge14" class="edge">
<title>eval_pkg&#45;&gt;knowledge</title>
<path fill="none" stroke="black" d="M579,-118.87C579,-103.41 579,-80.42 579,-62.41"/>
<polygon fill="black" stroke="black" points="582.5,-62.22 579,-52.22 575.5,-62.22 582.5,-62.22"/>
<text text-anchor="middle" x="593" y="-93.8" font-family="Times,serif" font-size="9.00">imports</text>
</g>
<!-- memory -->
<g id="node33" class="node">
<title>memory</title>
<path fill="#c8e6c9" stroke="black" d="M666,-239.5C666,-239.5 636,-239.5 636,-239.5 630,-239.5 624,-233.5 624,-227.5 624,-227.5 624,-215.5 624,-215.5 624,-209.5 630,-203.5 636,-203.5 636,-203.5 666,-203.5 666,-203.5 672,-203.5 678,-209.5 678,-215.5 678,-215.5 678,-227.5 678,-227.5 678,-233.5 672,-239.5 666,-239.5"/>
<text text-anchor="middle" x="651" y="-219" font-family="Helvetica,sans-Serif" font-size="10.00">memory</text>
</g>
<!-- memory&#45;&gt;kuzu -->
<g id="edge25" class="edge">
<title>memory&#45;&gt;kuzu</title>
<path fill="none" stroke="black" stroke-dasharray="5,2" d="M678.01,-204.38C680.98,-203.07 684,-201.9 687,-201 808.45,-164.48 1699.35,-124.35 1824,-101 1852.2,-95.72 1861.54,-98 1886,-83 1895.74,-77.03 1904.74,-68.39 1912.09,-60.09"/>
<polygon fill="black" stroke="black" points="1914.86,-62.24 1918.6,-52.33 1909.49,-57.74 1914.86,-62.24"/>
<text text-anchor="middle" x="1660.5" y="-134.8" font-family="Times,serif" font-size="9.00">embedded graph</text>
</g>
<!-- memory&#45;&gt;memory_lib -->
<g id="edge26" class="edge">
<title>memory&#45;&gt;memory_lib</title>
<path fill="none" stroke="black" stroke-dasharray="5,2" d="M678.38,-204.08C681.22,-202.86 684.12,-201.8 687,-201 794.92,-171.01 1583.22,-171.5 1694,-155 1821.94,-135.95 1859.13,-138.45 1976,-83 1989.43,-76.63 2002.88,-67.3 2014.04,-58.57"/>
<polygon fill="black" stroke="black" points="2016.51,-61.07 2022.08,-52.06 2012.1,-55.63 2016.51,-61.07"/>
<text text-anchor="middle" x="1915.5" y="-134.8" font-family="Times,serif" font-size="9.00">memory system</text>
</g>
<!-- utils -->
<g id="node35" class="node">
<title>utils</title>
<path fill="#c8e6c9" stroke="black" d="M558,-239.5C558,-239.5 528,-239.5 528,-239.5 522,-239.5 516,-233.5 516,-227.5 516,-227.5 516,-215.5 516,-215.5 516,-209.5 522,-203.5 528,-203.5 528,-203.5 558,-203.5 558,-203.5 564,-203.5 570,-209.5 570,-215.5 570,-215.5 570,-227.5 570,-227.5 570,-233.5 564,-239.5 558,-239.5"/>
<text text-anchor="middle" x="543" y="-219" font-family="Helvetica,sans-Serif" font-size="10.00">utils</text>
</g>
<!-- vendor -->
<g id="node38" class="node">
<title>vendor</title>
<path fill="#c8e6c9" stroke="black" d="M759.5,-239.5C759.5,-239.5 708.5,-239.5 708.5,-239.5 702.5,-239.5 696.5,-233.5 696.5,-227.5 696.5,-227.5 696.5,-215.5 696.5,-215.5 696.5,-209.5 702.5,-203.5 708.5,-203.5 708.5,-203.5 759.5,-203.5 759.5,-203.5 765.5,-203.5 771.5,-209.5 771.5,-215.5 771.5,-215.5 771.5,-227.5 771.5,-227.5 771.5,-233.5 765.5,-239.5 759.5,-239.5"/>
<text text-anchor="middle" x="734" y="-219" font-family="Helvetica,sans-Serif" font-size="10.00">vendor/blarify</text>
</g>
<!-- vendor&#45;&gt;tree_sitter -->
<g id="edge21" class="edge">
<title>vendor&#45;&gt;tree_sitter</title>
<path fill="none" stroke="black" stroke-dasharray="5,2" d="M771.59,-203.56C774.73,-202.56 777.89,-201.68 781,-201 844.37,-187.07 1883.78,-164.25 1948,-155 2077.74,-136.32 2114.89,-137.72 2234,-83 2248.05,-76.54 2262.24,-67.1 2273.99,-58.29"/>
<polygon fill="black" stroke="black" points="2276.31,-60.92 2282.09,-52.04 2272.03,-55.38 2276.31,-60.92"/>
<text text-anchor="middle" x="2157.5" y="-134.8" font-family="Times,serif" font-size="9.00">parsing</text>
</g>
<!-- vendor&#45;&gt;langchain -->
<g id="edge22" class="edge">
<title>vendor&#45;&gt;langchain</title>
<path fill="none" stroke="black" stroke-dasharray="5,2" d="M771.59,-203.54C774.73,-202.54 777.89,-201.67 781,-201 782.18,-200.74 2173.8,-155.15 2175,-155 2326.59,-136.41 2370.12,-141.96 2511,-83 2526.12,-76.67 2541.48,-67.13 2554.19,-58.22"/>
<polygon fill="black" stroke="black" points="2556.47,-60.89 2562.53,-52.2 2552.37,-55.22 2556.47,-60.89"/>
<text text-anchor="middle" x="2433" y="-134.8" font-family="Times,serif" font-size="9.00">LLM agents</text>
</g>
<!-- vendor&#45;&gt;falkordb -->
<g id="edge23" class="edge">
<title>vendor&#45;&gt;falkordb</title>
<path fill="none" stroke="black" stroke-dasharray="5,2" d="M771.58,-203.51C774.72,-202.52 777.89,-201.66 781,-201 858.19,-184.6 1412.11,-185.14 1491,-183 1921.24,-171.32 2031.82,-207.59 2459,-155 2607.13,-136.76 2655.71,-153.97 2787,-83 2797.75,-77.19 2807.75,-68.33 2815.88,-59.79"/>
<polygon fill="black" stroke="black" points="2818.68,-61.91 2822.79,-52.14 2813.49,-57.22 2818.68,-61.91"/>
<text text-anchor="middle" x="2724" y="-134.8" font-family="Times,serif" font-size="9.00">graph DB</text>
</g>
<!-- vendor&#45;&gt;neo4j -->
<g id="edge24" class="edge">
<title>vendor&#45;&gt;neo4j</title>
<path fill="none" stroke="black" stroke-dasharray="5,2" d="M771.57,-203.48C774.72,-202.5 777.89,-201.65 781,-201 902.64,-175.75 1774.8,-186.05 1899,-183 2087.27,-178.37 2563.79,-202.59 2746,-155 2813.32,-137.42 2829.29,-124.68 2885,-83 2893.87,-76.36 2902.56,-67.95 2909.95,-60.03"/>
<polygon fill="black" stroke="black" points="2912.77,-62.13 2916.87,-52.36 2907.58,-57.44 2912.77,-62.13"/>
<text text-anchor="middle" x="2851" y="-134.8" font-family="Times,serif" font-size="9.00">graph DB</text>
</g>
<!-- docker_int&#45;&gt;docker_py -->
<g id="edge29" class="edge">
<title>docker_int&#45;&gt;docker_py</title>
<path fill="none" stroke="black" stroke-dasharray="5,2" d="M788.08,-121.76C791.03,-120.65 794.04,-119.69 797,-119 897.3,-95.48 1621.93,-114.92 1724,-101 1755.83,-96.66 1766.27,-99.22 1794,-83 1803.97,-77.17 1813.17,-68.57 1820.68,-60.25"/>
<polygon fill="black" stroke="black" points="1823.5,-62.34 1827.33,-52.46 1818.18,-57.79 1823.5,-62.34"/>
<text text-anchor="middle" x="1798.5" y="-93.8" font-family="Times,serif" font-size="9.00">Docker API</text>
</g>
<!-- lsp -->
<g id="node41" class="node">
<title>lsp</title>
<path fill="#c8e6c9" stroke="black" d="M848,-239.5C848,-239.5 802,-239.5 802,-239.5 796,-239.5 790,-233.5 790,-227.5 790,-227.5 790,-215.5 790,-215.5 790,-209.5 796,-203.5 802,-203.5 802,-203.5 848,-203.5 848,-203.5 854,-203.5 860,-209.5 860,-215.5 860,-215.5 860,-227.5 860,-227.5 860,-233.5 854,-239.5 848,-239.5"/>
<text text-anchor="middle" x="825" y="-219" font-family="Helvetica,sans-Serif" font-size="10.00">lsp_detector</text>
</g>
<!-- lsp&#45;&gt;jedi_lsp -->
<g id="edge30" class="edge">
<title>lsp&#45;&gt;jedi_lsp</title>
<path fill="none" stroke="black" stroke-dasharray="5,2" d="M860.12,-203.47C863.08,-202.49 866.06,-201.64 869,-201 945.59,-184.28 2201.64,-185.35 2280,-183 2543.73,-175.09 2610.72,-183.78 2873,-155 3059.52,-134.54 3113.49,-149.37 3289,-83 3305.35,-76.82 3322.04,-67.1 3335.76,-58.01"/>
<polygon fill="black" stroke="black" points="3338.03,-60.7 3344.32,-52.18 3334.08,-54.92 3338.03,-60.7"/>
<text text-anchor="middle" x="3196" y="-134.8" font-family="Times,serif" font-size="9.00">Python LSP</text>
</g>
<!-- context -->
<g id="node42" class="node">
<title>context</title>
<path fill="#c8e6c9" stroke="black" d="M282,-239.5C282,-239.5 252,-239.5 252,-239.5 246,-239.5 240,-233.5 240,-227.5 240,-227.5 240,-215.5 240,-215.5 240,-209.5 246,-203.5 252,-203.5 252,-203.5 282,-203.5 282,-203.5 288,-203.5 294,-209.5 294,-215.5 294,-215.5 294,-227.5 294,-227.5 294,-233.5 288,-239.5 282,-239.5"/>
<text text-anchor="middle" x="267" y="-219" font-family="Helvetica,sans-Serif" font-size="10.00">context</text>
</g>
<!-- workflows -->
<g id="node43" class="node">
<title>workflows</title>
<path fill="#c8e6c9" stroke="black" d="M209.5,-239.5C209.5,-239.5 172.5,-239.5 172.5,-239.5 166.5,-239.5 160.5,-233.5 160.5,-227.5 160.5,-227.5 160.5,-215.5 160.5,-215.5 160.5,-209.5 166.5,-203.5 172.5,-203.5 172.5,-203.5 209.5,-203.5 209.5,-203.5 215.5,-203.5 221.5,-209.5 221.5,-215.5 221.5,-215.5 221.5,-227.5 221.5,-227.5 221.5,-233.5 215.5,-239.5 209.5,-239.5"/>
<text text-anchor="middle" x="191" y="-219" font-family="Helvetica,sans-Serif" font-size="10.00">workflows</text>
</g>
<!-- safety -->
<g id="node45" class="node">
<title>safety</title>
<path fill="#c8e6c9" stroke="black" d="M130,-239.5C130,-239.5 100,-239.5 100,-239.5 94,-239.5 88,-233.5 88,-227.5 88,-227.5 88,-215.5 88,-215.5 88,-209.5 94,-203.5 100,-203.5 100,-203.5 130,-203.5 130,-203.5 136,-203.5 142,-209.5 142,-215.5 142,-215.5 142,-227.5 142,-227.5 142,-233.5 136,-239.5 130,-239.5"/>
<text text-anchor="middle" x="115" y="-219" font-family="Helvetica,sans-Serif" font-size="10.00">safety</text>
</g>
<!-- tracing -->
<g id="node46" class="node">
<title>tracing</title>
<path fill="#c8e6c9" stroke="black" d="M58,-239.5C58,-239.5 28,-239.5 28,-239.5 22,-239.5 16,-233.5 16,-227.5 16,-227.5 16,-215.5 16,-215.5 16,-209.5 22,-203.5 28,-203.5 28,-203.5 58,-203.5 58,-203.5 64,-203.5 70,-209.5 70,-215.5 70,-215.5 70,-227.5 70,-227.5 70,-233.5 64,-239.5 58,-239.5"/>
<text text-anchor="middle" x="43" y="-219" font-family="Helvetica,sans-Serif" font-size="10.00">tracing</text>
</g>
<!-- circ_note -->
<g id="node47" class="node">
<title>circ_note</title>
<polygon fill="#fff9c4" stroke="black" points="1024,-242 878,-242 878,-201 1030,-201 1030,-236 1024,-242"/>
<polyline fill="none" stroke="black" points="1024,-242 1024,-236 "/>
<polyline fill="none" stroke="black" points="1030,-236 1024,-236 "/>
<text text-anchor="middle" x="954" y="-230" font-family="Helvetica,sans-Serif" font-size="10.00">No circular cross&#45;package</text>
<text text-anchor="middle" x="954" y="-219" font-family="Helvetica,sans-Serif" font-size="10.00">imports detected.</text>
<text text-anchor="middle" x="954" y="-208" font-family="Helvetica,sans-Serif" font-size="10.00">vendor/blarify is self&#45;contained.</text>
</g>
</g>
</svg>
