<?xml version="1.0" encoding="UTF-8" standalone="no"?>
<!DOCTYPE svg PUBLIC "-//W3C//DTD SVG 1.1//EN"
 "http://www.w3.org/Graphics/SVG/1.1/DTD/svg11.dtd">
<!-- Generated by graphviz version 2.42.4 (0)
 -->
<!-- Title: dependencies Pages: 1 -->
<svg width="1352pt" height="337pt"
 viewBox="0.00 0.00 1352.00 337.00" xmlns="http://www.w3.org/2000/svg" xmlns:xlink="http://www.w3.org/1999/xlink">
<g id="graph0" class="graph" transform="scale(1 1) rotate(0) translate(4 333)">
<title>dependencies</title>
<polygon fill="white" stroke="transparent" points="-4,4 -4,-333 1348,-333 1348,4 -4,4"/>
<g id="clust1" class="cluster">
<title>cluster_core</title>
<polygon fill="#e8f4fd" stroke="black" points="362,-246 362,-321 956,-321 956,-246 362,-246"/>
<text text-anchor="middle" x="659" y="-305.8" font-family="Times,serif" font-size="14.00">amplihack Core</text>
</g>
<g id="clust2" class="cluster">
<title>cluster_modules</title>
<polygon fill="#e8f8e8" stroke="black" points="8,-91 8,-238 1308,-238 1308,-91 8,-91"/>
<text text-anchor="middle" x="658" y="-222.8" font-family="Times,serif" font-size="14.00">Internal Modules</text>
</g>
<g id="clust3" class="cluster">
<title>cluster_external</title>
<polygon fill="#fef5e7" stroke="black" points="492,-8 492,-83 1336,-83 1336,-8 492,-8"/>
<text text-anchor="middle" x="914" y="-67.8" font-family="Times,serif" font-size="14.00">External Dependencies</text>
</g>
<!-- init -->
<g id="node1" class="node">
<title>init</title>
<polygon fill="#aed6f1" stroke="black" points="948,-290 884,-290 884,-254 948,-254 948,-290"/>
<text text-anchor="middle" x="916" y="-269.5" font-family="Helvetica,sans-Serif" font-size="10.00">__init__.py</text>
</g>
<!-- cli -->
<g id="node2" class="node">
<title>cli</title>
<polygon fill="#aed6f1" stroke="black" points="866,-290 812,-290 812,-254 866,-254 866,-290"/>
<text text-anchor="middle" x="839" y="-269.5" font-family="Helvetica,sans-Serif" font-size="10.00">cli.py</text>
</g>
<!-- launcher -->
<g id="node8" class="node">
<title>launcher</title>
<polygon fill="#a9dfbf" stroke="black" points="262,-207 206,-207 206,-171 262,-171 262,-207"/>
<text text-anchor="middle" x="234" y="-186.5" font-family="Helvetica,sans-Serif" font-size="10.00">launcher/</text>
</g>
<!-- cli&#45;&gt;launcher -->
<g id="edge1" class="edge">
<title>cli&#45;&gt;launcher</title>
<path fill="none" stroke="black" d="M818.8,-253.93C813.92,-250.69 808.51,-247.77 803,-246 774.86,-236.95 297.43,-251.24 271,-238 261.26,-233.12 253.35,-224.34 247.38,-215.61"/>
<polygon fill="black" stroke="black" points="250.31,-213.7 242.06,-207.05 244.36,-217.39 250.31,-213.7"/>
</g>
<!-- proxy_mod -->
<g id="node10" class="node">
<title>proxy_mod</title>
<polygon fill="#a9dfbf" stroke="black" points="866,-207 812,-207 812,-171 866,-171 866,-207"/>
<text text-anchor="middle" x="839" y="-186.5" font-family="Helvetica,sans-Serif" font-size="10.00">proxy/</text>
</g>
<!-- cli&#45;&gt;proxy_mod -->
<g id="edge3" class="edge">
<title>cli&#45;&gt;proxy_mod</title>
<path fill="none" stroke="black" d="M839,-253.82C839,-243.19 839,-229.31 839,-217.2"/>
<polygon fill="black" stroke="black" points="842.5,-217.15 839,-207.15 835.5,-217.15 842.5,-217.15"/>
</g>
<!-- docker_mod -->
<g id="node23" class="node">
<title>docker_mod</title>
<polygon fill="#a9dfbf" stroke="black" points="1300,-207 1246,-207 1246,-171 1300,-171 1300,-207"/>
<text text-anchor="middle" x="1273" y="-186.5" font-family="Helvetica,sans-Serif" font-size="10.00">docker/</text>
</g>
<!-- cli&#45;&gt;docker_mod -->
<g id="edge2" class="edge">
<title>cli&#45;&gt;docker_mod</title>
<path fill="none" stroke="black" d="M859.21,-253.96C864.09,-250.72 869.5,-247.79 875,-246 913.26,-233.55 1201.22,-256.39 1237,-238 1246.49,-233.12 1254.15,-224.47 1259.92,-215.83"/>
<polygon fill="black" stroke="black" points="1263.08,-217.37 1265.25,-207.01 1257.09,-213.76 1263.08,-217.37"/>
</g>
<!-- session -->
<g id="node3" class="node">
<title>session</title>
<polygon fill="#aed6f1" stroke="black" points="794,-290 730,-290 730,-254 794,-254 794,-290"/>
<text text-anchor="middle" x="762" y="-269.5" font-family="Helvetica,sans-Serif" font-size="10.00">session.py</text>
</g>
<!-- memory -->
<g id="node11" class="node">
<title>memory</title>
<polygon fill="#a9dfbf" stroke="black" points="1155.5,-207 1100.5,-207 1100.5,-171 1155.5,-171 1155.5,-207"/>
<text text-anchor="middle" x="1128" y="-186.5" font-family="Helvetica,sans-Serif" font-size="10.00">memory/</text>
</g>
<!-- session&#45;&gt;memory -->
<g id="edge6" class="edge">
<title>session&#45;&gt;memory</title>
<path fill="none" stroke="black" d="M785.29,-253.97C790.84,-250.73 796.92,-247.8 803,-246 833.7,-236.92 1062.47,-252.52 1091,-238 1100.46,-233.18 1108.22,-224.7 1114.14,-216.19"/>
<polygon fill="black" stroke="black" points="1117.26,-217.8 1119.64,-207.47 1111.34,-214.06 1117.26,-217.8"/>
</g>
<!-- install -->
<g id="node4" class="node">
<title>install</title>
<polygon fill="#aed6f1" stroke="black" points="712,-290 656,-290 656,-254 712,-254 712,-290"/>
<text text-anchor="middle" x="684" y="-269.5" font-family="Helvetica,sans-Serif" font-size="10.00">install.py</text>
</g>
<!-- settings -->
<g id="node5" class="node">
<title>settings</title>
<polygon fill="#aed6f1" stroke="black" points="637.5,-290 572.5,-290 572.5,-254 637.5,-254 637.5,-290"/>
<text text-anchor="middle" x="605" y="-269.5" font-family="Helvetica,sans-Serif" font-size="10.00">settings.py</text>
</g>
<!-- health -->
<g id="node6" class="node">
<title>health</title>
<polygon fill="#aed6f1" stroke="black" points="554,-290 466,-290 466,-254 554,-254 554,-290"/>
<text text-anchor="middle" x="510" y="-269.5" font-family="Helvetica,sans-Serif" font-size="10.00">health_check.py</text>
</g>
<!-- dep_check -->
<g id="node7" class="node">
<title>dep_check</title>
<polygon fill="#aed6f1" stroke="black" points="447.5,-290 370.5,-290 370.5,-254 447.5,-254 447.5,-290"/>
<text text-anchor="middle" x="409" y="-269.5" font-family="Helvetica,sans-Serif" font-size="10.00">dep_check.py</text>
</g>
<!-- launcher&#45;&gt;session -->
<g id="edge4" class="edge">
<title>launcher&#45;&gt;session</title>
<path fill="none" stroke="black" d="M242.07,-207.04C248.29,-218.04 258.03,-231.48 271,-238 293.34,-249.23 696.99,-239.03 721,-246 723.95,-246.86 726.89,-247.98 729.78,-249.28"/>
<polygon fill="black" stroke="black" points="728.23,-252.42 738.72,-253.92 731.46,-246.21 728.23,-252.42"/>
</g>
<!-- hooks -->
<g id="node9" class="node">
<title>hooks</title>
<polygon fill="#a9dfbf" stroke="black" points="449,-135 395,-135 395,-99 449,-99 449,-135"/>
<text text-anchor="middle" x="422" y="-114.5" font-family="Helvetica,sans-Serif" font-size="10.00">hooks/</text>
</g>
<!-- launcher&#45;&gt;hooks -->
<g id="edge5" class="edge">
<title>launcher&#45;&gt;hooks</title>
<path fill="none" stroke="black" d="M262.12,-174.63C265.1,-173.35 268.1,-172.12 271,-171 318.16,-152.87 334.29,-154.25 385.11,-135.07"/>
<polygon fill="black" stroke="black" points="386.58,-138.26 394.65,-131.39 384.06,-131.73 386.58,-138.26"/>
</g>
<!-- flask -->
<g id="node25" class="node">
<title>flask</title>
<polygon fill="#fad7a0" stroke="black" points="706,-52 652,-52 652,-16 706,-16 706,-52"/>
<text text-anchor="middle" x="679" y="-31.5" font-family="Helvetica,sans-Serif" font-size="10.00">flask</text>
</g>
<!-- proxy_mod&#45;&gt;flask -->
<g id="edge10" class="edge">
<title>proxy_mod&#45;&gt;flask</title>
<path fill="none" stroke="black" d="M815.71,-170.83C789.72,-151.11 747.12,-117.08 715,-83 708.53,-76.14 702.13,-68.12 696.57,-60.63"/>
<polygon fill="black" stroke="black" points="699.15,-58.23 690.46,-52.17 693.48,-62.33 699.15,-58.23"/>
</g>
<!-- fastapi -->
<g id="node26" class="node">
<title>fastapi</title>
<polygon fill="#fad7a0" stroke="black" points="778,-52 724,-52 724,-16 778,-16 778,-52"/>
<text text-anchor="middle" x="751" y="-31.5" font-family="Helvetica,sans-Serif" font-size="10.00">fastapi</text>
</g>
<!-- proxy_mod&#45;&gt;fastapi -->
<g id="edge9" class="edge">
<title>proxy_mod&#45;&gt;fastapi</title>
<path fill="none" stroke="black" d="M829.08,-170.75C813.76,-144.12 784.25,-92.81 766.22,-61.46"/>
<polygon fill="black" stroke="black" points="769.04,-59.35 761.02,-52.43 762.97,-62.84 769.04,-59.35"/>
</g>
<!-- litellm -->
<g id="node27" class="node">
<title>litellm</title>
<polygon fill="#fad7a0" stroke="black" points="850,-52 796,-52 796,-16 850,-16 850,-52"/>
<text text-anchor="middle" x="823" y="-31.5" font-family="Helvetica,sans-Serif" font-size="10.00">litellm</text>
</g>
<!-- proxy_mod&#45;&gt;litellm -->
<g id="edge11" class="edge">
<title>proxy_mod&#45;&gt;litellm</title>
<path fill="none" stroke="black" d="M837.2,-170.75C834.45,-144.46 829.18,-94.13 825.9,-62.69"/>
<polygon fill="black" stroke="black" points="829.34,-62.01 824.82,-52.43 822.38,-62.74 829.34,-62.01"/>
</g>
<!-- azure_id -->
<g id="node33" class="node">
<title>azure_id</title>
<polygon fill="#fad7a0" stroke="black" points="943.5,-52 868.5,-52 868.5,-16 943.5,-16 943.5,-52"/>
<text text-anchor="middle" x="906" y="-31.5" font-family="Helvetica,sans-Serif" font-size="10.00">azure&#45;identity</text>
</g>
<!-- proxy_mod&#45;&gt;azure_id -->
<g id="edge12" class="edge">
<title>proxy_mod&#45;&gt;azure_id</title>
<path fill="none" stroke="black" d="M846.56,-170.75C858.17,-144.23 880.49,-93.25 894.23,-61.87"/>
<polygon fill="black" stroke="black" points="897.56,-62.99 898.37,-52.43 891.15,-60.18 897.56,-62.99"/>
</g>
<!-- kuzu_dep -->
<g id="node28" class="node">
<title>kuzu_dep</title>
<path fill="#fad7a0" stroke="black" d="M1016,-48.73C1016,-50.53 1003.9,-52 989,-52 974.1,-52 962,-50.53 962,-48.73 962,-48.73 962,-19.27 962,-19.27 962,-17.47 974.1,-16 989,-16 1003.9,-16 1016,-17.47 1016,-19.27 1016,-19.27 1016,-48.73 1016,-48.73"/>
<path fill="none" stroke="black" d="M1016,-48.73C1016,-46.92 1003.9,-45.45 989,-45.45 974.1,-45.45 962,-46.92 962,-48.73"/>
<text text-anchor="middle" x="989" y="-31.5" font-family="Helvetica,sans-Serif" font-size="10.00">kuzu</text>
</g>
<!-- memory&#45;&gt;kuzu_dep -->
<g id="edge7" class="edge">
<title>memory&#45;&gt;kuzu_dep</title>
<path fill="none" stroke="black" d="M1109.76,-170.84C1088.58,-150.59 1052.95,-115.54 1025,-83 1018.95,-75.96 1012.75,-68 1007.24,-60.62"/>
<polygon fill="black" stroke="black" points="1009.87,-58.3 1001.13,-52.31 1004.23,-62.44 1009.87,-58.3"/>
</g>
<!-- memory_lib -->
<g id="node34" class="node">
<title>memory_lib</title>
<polygon fill="#fad7a0" stroke="black" points="1146,-52 1034,-52 1034,-16 1146,-16 1146,-52"/>
<text text-anchor="middle" x="1090" y="-31.5" font-family="Helvetica,sans-Serif" font-size="10.00">amplihack&#45;memory&#45;lib</text>
</g>
<!-- memory&#45;&gt;memory_lib -->
<g id="edge8" class="edge">
<title>memory&#45;&gt;memory_lib</title>
<path fill="none" stroke="black" d="M1123.71,-170.75C1117.16,-144.35 1104.58,-93.69 1096.77,-62.28"/>
<polygon fill="black" stroke="black" points="1100.14,-61.29 1094.33,-52.43 1093.34,-62.97 1100.14,-61.29"/>
</g>
<!-- security -->
<g id="node12" class="node">
<title>security</title>
<polygon fill="#a9dfbf" stroke="black" points="1082,-207 1028,-207 1028,-171 1082,-171 1082,-207"/>
<text text-anchor="middle" x="1055" y="-186.5" font-family="Helvetica,sans-Serif" font-size="10.00">security/</text>
</g>
<!-- safety -->
<g id="node13" class="node">
<title>safety</title>
<polygon fill="#a9dfbf" stroke="black" points="1010,-207 956,-207 956,-171 1010,-171 1010,-207"/>
<text text-anchor="middle" x="983" y="-186.5" font-family="Helvetica,sans-Serif" font-size="10.00">safety/</text>
</g>
<!-- uvx -->
<g id="node14" class="node">
<title>uvx</title>
<polygon fill="#a9dfbf" stroke="black" points="938,-207 884,-207 884,-171 938,-171 938,-207"/>
<text text-anchor="middle" x="911" y="-186.5" font-family="Helvetica,sans-Serif" font-size="10.00">uvx/</text>
</g>
<!-- fleet -->
<g id="node15" class="node">
<title>fleet</title>
<polygon fill="#a9dfbf" stroke="black" points="1228,-207 1174,-207 1174,-171 1228,-171 1228,-207"/>
<text text-anchor="middle" x="1201" y="-186.5" font-family="Helvetica,sans-Serif" font-size="10.00">fleet/</text>
</g>
<!-- claude_sdk -->
<g id="node29" class="node">
<title>claude_sdk</title>
<polygon fill="#fad7a0" stroke="black" points="1255.5,-52 1164.5,-52 1164.5,-16 1255.5,-16 1255.5,-52"/>
<text text-anchor="middle" x="1210" y="-31.5" font-family="Helvetica,sans-Serif" font-size="10.00">claude&#45;agent&#45;sdk</text>
</g>
<!-- fleet&#45;&gt;claude_sdk -->
<g id="edge13" class="edge">
<title>fleet&#45;&gt;claude_sdk</title>
<path fill="none" stroke="black" d="M1202.01,-170.75C1203.56,-144.46 1206.52,-94.13 1208.37,-62.69"/>
<polygon fill="black" stroke="black" points="1211.88,-62.61 1208.97,-52.43 1204.89,-62.2 1211.88,-62.61"/>
</g>
<!-- recipes -->
<g id="node16" class="node">
<title>recipes</title>
<polygon fill="#a9dfbf" stroke="black" points="794,-207 740,-207 740,-171 794,-171 794,-207"/>
<text text-anchor="middle" x="767" y="-186.5" font-family="Helvetica,sans-Serif" font-size="10.00">recipes/</text>
</g>
<!-- meta_delegation -->
<g id="node17" class="node">
<title>meta_delegation</title>
<polygon fill="#a9dfbf" stroke="black" points="721.5,-207 630.5,-207 630.5,-171 721.5,-171 721.5,-207"/>
<text text-anchor="middle" x="676" y="-186.5" font-family="Helvetica,sans-Serif" font-size="10.00">meta_delegation/</text>
</g>
<!-- plugin_mgr -->
<g id="node18" class="node">
<title>plugin_mgr</title>
<polygon fill="#a9dfbf" stroke="black" points="612,-207 524,-207 524,-171 612,-171 612,-207"/>
<text text-anchor="middle" x="568" y="-186.5" font-family="Helvetica,sans-Serif" font-size="10.00">plugin_manager/</text>
</g>
<!-- bundle_gen -->
<g id="node19" class="node">
<title>bundle_gen</title>
<polygon fill="#a9dfbf" stroke="black" points="506,-207 412,-207 412,-171 506,-171 506,-207"/>
<text text-anchor="middle" x="459" y="-186.5" font-family="Helvetica,sans-Serif" font-size="10.00">bundle_generator/</text>
</g>
<!-- goal_agent -->
<g id="node20" class="node">
<title>goal_agent</title>
<polygon fill="#a9dfbf" stroke="black" points="393.5,-207 280.5,-207 280.5,-171 393.5,-171 393.5,-207"/>
<text text-anchor="middle" x="337" y="-186.5" font-family="Helvetica,sans-Serif" font-size="10.00">goal_agent_generator/</text>
</g>
<!-- knowledge -->
<g id="node21" class="node">
<title>knowledge</title>
<polygon fill="#a9dfbf" stroke="black" points="188,-207 88,-207 88,-171 188,-171 188,-207"/>
<text text-anchor="middle" x="138" y="-186.5" font-family="Helvetica,sans-Serif" font-size="10.00">knowledge_builder/</text>
</g>
<!-- vendor -->
<g id="node22" class="node">
<title>vendor</title>
<polygon fill="#a9dfbf" stroke="black" points="377,-135 299,-135 299,-99 377,-99 377,-135"/>
<text text-anchor="middle" x="338" y="-114.5" font-family="Helvetica,sans-Serif" font-size="10.00">vendor/blarify/</text>
</g>
<!-- knowledge&#45;&gt;vendor -->
<g id="edge17" class="edge">
<title>knowledge&#45;&gt;vendor</title>
<path fill="none" stroke="black" d="M186.67,-170.97C217.76,-160.08 257.94,-146.02 289.08,-135.12"/>
<polygon fill="black" stroke="black" points="290.56,-138.31 298.85,-131.7 288.25,-131.7 290.56,-138.31"/>
</g>
<!-- langchain -->
<g id="node30" class="node">
<title>langchain</title>
<polygon fill="#fad7a0" stroke="black" points="558,-52 500,-52 500,-16 558,-16 558,-52"/>
<text text-anchor="middle" x="529" y="-31.5" font-family="Helvetica,sans-Serif" font-size="10.00">langchain</text>
</g>
<!-- vendor&#45;&gt;langchain -->
<g id="edge14" class="edge">
<title>vendor&#45;&gt;langchain</title>
<path fill="none" stroke="black" d="M369.52,-98.97C374.97,-96.21 380.61,-93.45 386,-91 420.63,-75.26 461.08,-59.67 490.1,-48.95"/>
<polygon fill="black" stroke="black" points="491.68,-52.1 499.86,-45.37 489.27,-45.53 491.68,-52.1"/>
</g>
<!-- tree_sitter -->
<g id="node31" class="node">
<title>tree_sitter</title>
<polygon fill="#fad7a0" stroke="black" points="634,-52 576,-52 576,-16 634,-16 634,-52"/>
<text text-anchor="middle" x="605" y="-31.5" font-family="Helvetica,sans-Serif" font-size="10.00">tree&#45;sitter</text>
</g>
<!-- vendor&#45;&gt;tree_sitter -->
<g id="edge15" class="edge">
<title>vendor&#45;&gt;tree_sitter</title>
<path fill="none" stroke="black" d="M365.85,-98.92C372.26,-95.73 379.19,-92.83 386,-91 424.89,-80.57 531.15,-101.33 567,-83 576.65,-78.06 584.65,-69.44 590.77,-60.85"/>
<polygon fill="black" stroke="black" points="593.74,-62.71 596.26,-52.42 587.87,-58.89 593.74,-62.71"/>
</g>
<!-- docker_dep -->
<g id="node32" class="node">
<title>docker_dep</title>
<polygon fill="#fad7a0" stroke="black" points="1328,-52 1274,-52 1274,-16 1328,-16 1328,-52"/>
<text text-anchor="middle" x="1301" y="-31.5" font-family="Helvetica,sans-Serif" font-size="10.00">docker</text>
</g>
<!-- docker_mod&#45;&gt;docker_dep -->
<g id="edge16" class="edge">
<title>docker_mod&#45;&gt;docker_dep</title>
<path fill="none" stroke="black" d="M1276.16,-170.75C1280.99,-144.35 1290.26,-93.69 1296.01,-62.28"/>
<polygon fill="black" stroke="black" points="1299.45,-62.89 1297.81,-52.43 1292.57,-61.63 1299.45,-62.89"/>
</g>
<!-- utils -->
<g id="node24" class="node">
<title>utils</title>
<polygon fill="#a9dfbf" stroke="black" points="70,-207 16,-207 16,-171 70,-171 70,-207"/>
<text text-anchor="middle" x="43" y="-186.5" font-family="Helvetica,sans-Serif" font-size="10.00">utils/</text>
</g>
</g>
</svg>
