<?xml version="1.0" encoding="UTF-8" standalone="no"?>
<!DOCTYPE svg PUBLIC "-//W3C//DTD SVG 1.1//EN"
 "http://www.w3.org/Graphics/SVG/1.1/DTD/svg11.dtd">
<!-- Generated by graphviz version 2.42.4 (0)
 -->
<!-- Title: ast_lsp_bindings Pages: 1 -->
<svg width="837pt" height="1653pt"
 viewBox="0.00 0.00 837.00 1653.00" xmlns="http://www.w3.org/2000/svg" xmlns:xlink="http://www.w3.org/1999/xlink">
<g id="graph0" class="graph" transform="scale(1 1) rotate(0) translate(4 1649)">
<title>ast_lsp_bindings</title>
<polygon fill="white" stroke="transparent" points="-4,4 -4,-1649 833,-1649 833,4 -4,4"/>
<!-- amplihack -->
<g id="node1" class="node">
<title>amplihack</title>
<polygon fill="#e8f4fd" stroke="black" points="563,-321.5 563,-384.5 764,-384.5 764,-321.5 563,-321.5"/>
<text text-anchor="middle" x="612" y="-350.5" font-family="Helvetica,sans-Serif" font-size="10.00">amplihack/__init__</text>
<polyline fill="none" stroke="black" points="661,-321.5 661,-384.5 "/>
<text text-anchor="start" x="669" y="-372.5" font-family="Helvetica,sans-Serif" font-size="10.00">main()</text>
<text text-anchor="start" x="669" y="-361.5" font-family="Helvetica,sans-Serif" font-size="10.00">install()</text>
<text text-anchor="start" x="669" y="-350.5" font-family="Helvetica,sans-Serif" font-size="10.00">uninstall()</text>
<text text-anchor="start" x="669" y="-339.5" font-family="Helvetica,sans-Serif" font-size="10.00">ensure_dirs()</text>
<text text-anchor="start" x="669" y="-328.5" font-family="Helvetica,sans-Serif" font-size="10.00">copytree_manifest()</text>
</g>
<!-- settings -->
<g id="node2" class="node">
<title>settings</title>
<polygon fill="#e8f4fd" stroke="black" points="34.5,-409 34.5,-445 200.5,-445 200.5,-409 34.5,-409"/>
<text text-anchor="middle" x="60" y="-424.5" font-family="Helvetica,sans-Serif" font-size="10.00">settings</text>
<polyline fill="none" stroke="black" points="85.5,-409 85.5,-445 "/>
<text text-anchor="start" x="93.5" y="-430" font-family="Helvetica,sans-Serif" font-size="10.00">ensure_settings_json()</text>
<text text-anchor="start" x="93.5" y="-419" font-family="Helvetica,sans-Serif" font-size="10.00">update_hook_paths()</text>
</g>
<!-- launcher -->
<g id="node3" class="node">
<title>launcher</title>
<polygon fill="#e8f4fd" stroke="black" points="574.5,-230.5 574.5,-293.5 752.5,-293.5 752.5,-230.5 574.5,-230.5"/>
<text text-anchor="middle" x="601" y="-259.5" font-family="Helvetica,sans-Serif" font-size="10.00">launcher</text>
<polyline fill="none" stroke="black" points="627.5,-230.5 627.5,-293.5 "/>
<text text-anchor="start" x="635.5" y="-281.5" font-family="Helvetica,sans-Serif" font-size="10.00">ClaudeLauncher</text>
<text text-anchor="start" x="635.5" y="-270.5" font-family="Helvetica,sans-Serif" font-size="10.00">ClaudeDirectoryDetector</text>
<text text-anchor="start" x="635.5" y="-259.5" font-family="Helvetica,sans-Serif" font-size="10.00">PrerequisiteChecker</text>
<text text-anchor="start" x="635.5" y="-248.5" font-family="Helvetica,sans-Serif" font-size="10.00">AutoStager</text>
<text text-anchor="start" x="635.5" y="-237.5" font-family="Helvetica,sans-Serif" font-size="10.00">ClaudeBinaryManager</text>
</g>
<!-- security -->
<g id="node4" class="node">
<title>security</title>
<polygon fill="#e8f4fd" stroke="black" points="47.5,-464 47.5,-500 187.5,-500 187.5,-464 47.5,-464"/>
<text text-anchor="middle" x="73" y="-479.5" font-family="Helvetica,sans-Serif" font-size="10.00">security</text>
<polyline fill="none" stroke="black" points="98.5,-464 98.5,-500 "/>
<text text-anchor="start" x="106.5" y="-485" font-family="Helvetica,sans-Serif" font-size="10.00">scan()</text>
<text text-anchor="start" x="106.5" y="-474" font-family="Helvetica,sans-Serif" font-size="10.00">SecurityScanner</text>
</g>
<!-- safety -->
<g id="node5" class="node">
<title>safety</title>
<polygon fill="#e8f4fd" stroke="black" points="57.5,-519 57.5,-555 177.5,-555 177.5,-519 57.5,-519"/>
<text text-anchor="middle" x="79.5" y="-534.5" font-family="Helvetica,sans-Serif" font-size="10.00">safety</text>
<polyline fill="none" stroke="black" points="101.5,-519 101.5,-555 "/>
<text text-anchor="start" x="109.5" y="-534.5" font-family="Helvetica,sans-Serif" font-size="10.00">StagingGuard</text>
</g>
<!-- docker -->
<g id="node6" class="node">
<title>docker</title>
<polygon fill="#e8f4fd" stroke="black" points="51.5,-574 51.5,-610 183.5,-610 183.5,-574 51.5,-574"/>
<text text-anchor="middle" x="74.5" y="-589.5" font-family="Helvetica,sans-Serif" font-size="10.00">docker</text>
<polyline fill="none" stroke="black" points="97.5,-574 97.5,-610 "/>
<text text-anchor="start" x="105.5" y="-595" font-family="Helvetica,sans-Serif" font-size="10.00">DockerDetector</text>
<text text-anchor="start" x="105.5" y="-584" font-family="Helvetica,sans-Serif" font-size="10.00">DockerManager</text>
</g>
<!-- uvx -->
<g id="node7" class="node">
<title>uvx</title>
<polygon fill="#e8f4fd" stroke="black" points="64,-629 64,-665 171,-665 171,-629 64,-629"/>
<text text-anchor="middle" x="80" y="-644.5" font-family="Helvetica,sans-Serif" font-size="10.00">uvx</text>
<polyline fill="none" stroke="black" points="96,-629 96,-665 "/>
<text text-anchor="start" x="104" y="-644.5" font-family="Helvetica,sans-Serif" font-size="10.00">UVXManager</text>
</g>
<!-- utils -->
<g id="node8" class="node">
<title>utils</title>
<polygon fill="#e8f4fd" stroke="black" points="64,-684 64,-736 171,-736 171,-684 64,-684"/>
<text text-anchor="middle" x="81.5" y="-707.5" font-family="Helvetica,sans-Serif" font-size="10.00">utils</text>
<polyline fill="none" stroke="black" points="99,-684 99,-736 "/>
<text text-anchor="start" x="107" y="-724" font-family="Helvetica,sans-Serif" font-size="10.00">slugify()</text>
<text text-anchor="start" x="107" y="-713" font-family="Helvetica,sans-Serif" font-size="10.00">claude_cli</text>
<text text-anchor="start" x="107" y="-702" font-family="Helvetica,sans-Serif" font-size="10.00">prerequisites</text>
<text text-anchor="start" x="107" y="-691" font-family="Helvetica,sans-Serif" font-size="10.00">defensive</text>
</g>
<!-- recipes -->
<g id="node9" class="node">
<title>recipes</title>
<polygon fill="#e8f4fd" stroke="black" points="586,-151.5 586,-192.5 741,-192.5 741,-151.5 586,-151.5"/>
<text text-anchor="middle" x="610" y="-169.5" font-family="Helvetica,sans-Serif" font-size="10.00">recipes</text>
<polyline fill="none" stroke="black" points="634,-151.5 634,-192.5 "/>
<text text-anchor="start" x="642" y="-180.5" font-family="Helvetica,sans-Serif" font-size="10.00">RecipeParser</text>
<text text-anchor="start" x="642" y="-169.5" font-family="Helvetica,sans-Serif" font-size="10.00">run_recipe_via_rust()</text>
<text text-anchor="start" x="642" y="-158.5" font-family="Helvetica,sans-Serif" font-size="10.00">discover_recipes()</text>
</g>
<!-- recipe_cli -->
<g id="node10" class="node">
<title>recipe_cli</title>
<polygon fill="#e8f4fd" stroke="black" points="23,-755 23,-791 212,-791 212,-755 23,-755"/>
<text text-anchor="middle" x="52" y="-770.5" font-family="Helvetica,sans-Serif" font-size="10.00">recipe_cli</text>
<polyline fill="none" stroke="black" points="81,-755 81,-791 "/>
<text text-anchor="start" x="89" y="-776" font-family="Helvetica,sans-Serif" font-size="10.00">create_recipe_subparser()</text>
<text text-anchor="start" x="89" y="-765" font-family="Helvetica,sans-Serif" font-size="10.00">handle_recipe_command()</text>
</g>
<!-- fleet -->
<g id="node11" class="node">
<title>fleet</title>
<polygon fill="#e8f4fd" stroke="black" points="603,-6.5 603,-47.5 724,-47.5 724,-6.5 603,-6.5"/>
<text text-anchor="middle" x="620.5" y="-24.5" font-family="Helvetica,sans-Serif" font-size="10.00">fleet</text>
<polyline fill="none" stroke="black" points="638,-6.5 638,-47.5 "/>
<text text-anchor="start" x="646" y="-35.5" font-family="Helvetica,sans-Serif" font-size="10.00">FleetObserver</text>
<text text-anchor="start" x="646" y="-24.5" font-family="Helvetica,sans-Serif" font-size="10.00">FleetCLI</text>
<text text-anchor="start" x="646" y="-13.5" font-family="Helvetica,sans-Serif" font-size="10.00">SessionContext</text>
</g>
<!-- knowledge -->
<g id="node12" class="node">
<title>knowledge</title>
<polygon fill="#e8f4fd" stroke="black" points="21.5,-810 21.5,-846 213.5,-846 213.5,-810 21.5,-810"/>
<text text-anchor="middle" x="70" y="-825.5" font-family="Helvetica,sans-Serif" font-size="10.00">knowledge_builder</text>
<polyline fill="none" stroke="black" points="118.5,-810 118.5,-846 "/>
<text text-anchor="start" x="126.5" y="-831" font-family="Helvetica,sans-Serif" font-size="10.00">KnowledgeBuilder</text>
<text text-anchor="start" x="126.5" y="-820" font-family="Helvetica,sans-Serif" font-size="10.00">KnowledgeGraph</text>
</g>
<!-- bundle -->
<g id="node13" class="node">
<title>bundle</title>
<polygon fill="#e8f4fd" stroke="black" points="574,-76 574,-112 753,-112 753,-76 574,-76"/>
<text text-anchor="middle" x="619.5" y="-91.5" font-family="Helvetica,sans-Serif" font-size="10.00">bundle_generator</text>
<polyline fill="none" stroke="black" points="665,-76 665,-112 "/>
<text text-anchor="start" x="673" y="-97" font-family="Helvetica,sans-Serif" font-size="10.00">BundleBuilder</text>
<text text-anchor="start" x="673" y="-86" font-family="Helvetica,sans-Serif" font-size="10.00">BundlePackager</text>
</g>
<!-- workflows -->
<g id="node14" class="node">
<title>workflows</title>
<polygon fill="#e8f4fd" stroke="black" points="43.5,-865 43.5,-901 191.5,-901 191.5,-865 43.5,-865"/>
<text text-anchor="middle" x="74" y="-880.5" font-family="Helvetica,sans-Serif" font-size="10.00">workflows</text>
<polyline fill="none" stroke="black" points="104.5,-865 104.5,-901 "/>
<text text-anchor="start" x="112.5" y="-880.5" font-family="Helvetica,sans-Serif" font-size="10.00">WorkflowEngine</text>
</g>
<!-- settings_gen -->
<g id="node15" class="node">
<title>settings_gen</title>
<polygon fill="#e8f4fd" stroke="black" points="21.5,-920 21.5,-956 213.5,-956 213.5,-920 21.5,-920"/>
<text text-anchor="middle" x="70" y="-935.5" font-family="Helvetica,sans-Serif" font-size="10.00">settings_generator</text>
<polyline fill="none" stroke="black" points="118.5,-920 118.5,-956 "/>
<text text-anchor="start" x="126.5" y="-935.5" font-family="Helvetica,sans-Serif" font-size="10.00">SettingsGenerator</text>
</g>
<!-- rust_trial -->
<g id="node16" class="node">
<title>rust_trial</title>
<polygon fill="#e8f4fd" stroke="black" points="39.5,-304.5 39.5,-389.5 195.5,-389.5 195.5,-304.5 39.5,-304.5"/>
<text text-anchor="middle" x="66.5" y="-344.5" font-family="Helvetica,sans-Serif" font-size="10.00">rust_trial</text>
<polyline fill="none" stroke="black" points="93.5,-304.5 93.5,-389.5 "/>
<text text-anchor="start" x="101.5" y="-377.5" font-family="Helvetica,sans-Serif" font-size="10.00">InstallOptions</text>
<text text-anchor="start" x="101.5" y="-366.5" font-family="Helvetica,sans-Serif" font-size="10.00">default_trial_home()</text>
<text text-anchor="start" x="101.5" y="-355.5" font-family="Helvetica,sans-Serif" font-size="10.00">default_install_dir()</text>
<text text-anchor="start" x="101.5" y="-344.5" font-family="Helvetica,sans-Serif" font-size="10.00">parse_install_args()</text>
<text text-anchor="start" x="101.5" y="-333.5" font-family="Helvetica,sans-Serif" font-size="10.00">install_rust_cli()</text>
<text text-anchor="start" x="101.5" y="-322.5" font-family="Helvetica,sans-Serif" font-size="10.00">run_rust_trial()</text>
<text text-anchor="start" x="101.5" y="-311.5" font-family="Helvetica,sans-Serif" font-size="10.00">main()</text>
</g>
<!-- rust_trial&#45;&gt;amplihack -->
<g id="edge6" class="edge">
<title>rust_trial&#45;&gt;amplihack</title>
<path fill="none" stroke="#6666aa" d="M195.58,-347.85C288.85,-348.88 446.56,-350.62 552.57,-351.79"/>
<polygon fill="#6666aa" stroke="#6666aa" points="552.63,-355.29 562.67,-351.9 552.71,-348.29 552.63,-355.29"/>
<text text-anchor="middle" x="366.5" y="-369.8" font-family="Times,serif" font-size="14.00">bootstraps</text>
<text text-anchor="middle" x="366.5" y="-354.8" font-family="Times,serif" font-size="14.00">amplihack install</text>
</g>
<!-- rust_trial&#45;&gt;launcher -->
<g id="edge5" class="edge">
<title>rust_trial&#45;&gt;launcher</title>
<path fill="none" stroke="#6666aa" d="M195.73,-327.16C214.4,-322.77 234.35,-318.42 253,-315 358.7,-295.64 481.03,-280.78 564.26,-271.79"/>
<polygon fill="#6666aa" stroke="#6666aa" points="564.65,-275.27 574.22,-270.72 563.9,-268.31 564.65,-275.27"/>
<text text-anchor="middle" x="366.5" y="-333.8" font-family="Times,serif" font-size="14.00">imports</text>
<text text-anchor="middle" x="366.5" y="-318.8" font-family="Times,serif" font-size="14.00">launcher.copilot helpers</text>
</g>
<!-- power -->
<g id="node17" class="node">
<title>power</title>
<polygon fill="#e8f4fd" stroke="black" points="0,-975 0,-1011 235,-1011 235,-975 0,-975"/>
<text text-anchor="middle" x="41.5" y="-990.5" font-family="Helvetica,sans-Serif" font-size="10.00">power_steering</text>
<polyline fill="none" stroke="black" points="83,-975 83,-1011 "/>
<text text-anchor="start" x="91" y="-990.5" font-family="Helvetica,sans-Serif" font-size="10.00">prompt_re_enable_if_disabled()</text>
</g>
<!-- lsp -->
<g id="node18" class="node">
<title>lsp</title>
<polygon fill="#e8f4fd" stroke="black" points="46,-1030 46,-1066 189,-1066 189,-1030 46,-1030"/>
<text text-anchor="middle" x="81" y="-1045.5" font-family="Helvetica,sans-Serif" font-size="10.00">lsp_detector</text>
<polyline fill="none" stroke="black" points="116,-1030 116,-1066 "/>
<text text-anchor="start" x="124" y="-1045.5" font-family="Helvetica,sans-Serif" font-size="10.00">LSPDetector</text>
</g>
<!-- memory -->
<g id="node19" class="node">
<title>memory</title>
<polygon fill="#e8f4fd" stroke="black" points="4,-1085 4,-1121 231,-1121 231,-1085 4,-1085"/>
<text text-anchor="middle" x="56" y="-1100.5" font-family="Helvetica,sans-Serif" font-size="10.00">memory.discoveries</text>
<polyline fill="none" stroke="black" points="108,-1085 108,-1121 "/>
<text text-anchor="start" x="116" y="-1106" font-family="Helvetica,sans-Serif" font-size="10.00">store_discovery()</text>
<text text-anchor="start" x="116" y="-1095" font-family="Helvetica,sans-Serif" font-size="10.00">get_recent_discoveries()</text>
</g>
<!-- eval_pkg -->
<g id="node20" class="node">
<title>eval_pkg</title>
<polygon fill="#e8f4fd" stroke="black" points="588.5,-1137.5 588.5,-1178.5 738.5,-1178.5 738.5,-1137.5 588.5,-1137.5"/>
<text text-anchor="middle" x="606" y="-1155.5" font-family="Helvetica,sans-Serif" font-size="10.00">eval</text>
<polyline fill="none" stroke="black" points="623.5,-1137.5 623.5,-1178.5 "/>
<text text-anchor="start" x="631.5" y="-1166.5" font-family="Helvetica,sans-Serif" font-size="10.00">teaching_eval</text>
<text text-anchor="start" x="631.5" y="-1155.5" font-family="Helvetica,sans-Serif" font-size="10.00">grader</text>
<text text-anchor="start" x="631.5" y="-1144.5" font-family="Helvetica,sans-Serif" font-size="10.00">progressive_test_suite</text>
</g>
<!-- hooks -->
<g id="node21" class="node">
<title>hooks</title>
<polygon fill="#e8f4fd" stroke="black" points="49,-1195 49,-1231 186,-1231 186,-1195 49,-1195"/>
<text text-anchor="middle" x="70.5" y="-1210.5" font-family="Helvetica,sans-Serif" font-size="10.00">hooks</text>
<polyline fill="none" stroke="black" points="92,-1195 92,-1231 "/>
<text text-anchor="start" x="100" y="-1216" font-family="Helvetica,sans-Serif" font-size="10.00">LauncherDetector</text>
<text text-anchor="start" x="100" y="-1205" font-family="Helvetica,sans-Serif" font-size="10.00">LauncherInfo</text>
</g>
<!-- context -->
<g id="node22" class="node">
<title>context</title>
<polygon fill="#e8f4fd" stroke="black" points="26,-1250 26,-1302 209,-1302 209,-1250 26,-1250"/>
<text text-anchor="middle" x="70.5" y="-1273.5" font-family="Helvetica,sans-Serif" font-size="10.00">context.adaptive</text>
<polyline fill="none" stroke="black" points="115,-1250 115,-1302 "/>
<text text-anchor="start" x="123" y="-1290" font-family="Helvetica,sans-Serif" font-size="10.00">LauncherDetector</text>
<text text-anchor="start" x="123" y="-1279" font-family="Helvetica,sans-Serif" font-size="10.00">HookStrategy</text>
<text text-anchor="start" x="123" y="-1268" font-family="Helvetica,sans-Serif" font-size="10.00">ClaudeStrategy</text>
<text text-anchor="start" x="123" y="-1257" font-family="Helvetica,sans-Serif" font-size="10.00">CopilotStrategy</text>
</g>
<!-- vendor -->
<g id="node23" class="node">
<title>vendor</title>
<polygon fill="#e8f4fd" stroke="black" points="43.5,-1321 43.5,-1357 191.5,-1357 191.5,-1321 43.5,-1321"/>
<text text-anchor="middle" x="81" y="-1336.5" font-family="Helvetica,sans-Serif" font-size="10.00">vendor.blarify</text>
<polyline fill="none" stroke="black" points="118.5,-1321 118.5,-1357 "/>
<text text-anchor="start" x="126.5" y="-1336.5" font-family="Helvetica,sans-Serif" font-size="10.00">GraphBuilder</text>
</g>
<!-- cli -->
<g id="node24" class="node">
<title>cli</title>
<ellipse fill="#fff9c4" stroke="black" cx="117.5" cy="-113" rx="27" ry="18"/>
<text text-anchor="middle" x="117.5" y="-110.5" font-family="Helvetica,sans-Serif" font-size="10.00">cli.py</text>
</g>
<!-- cli&#45;&gt;launcher -->
<g id="edge1" class="edge">
<title>cli&#45;&gt;launcher</title>
<path fill="none" stroke="#666666" d="M142.53,-120.58C169.23,-128.7 213.76,-141.3 253,-148 302.9,-156.52 437.93,-138.85 480,-167 494.54,-176.73 484.88,-190.43 498,-202 517.02,-218.78 541.11,-230.99 564.95,-239.83"/>
<polygon fill="#666666" stroke="#666666" points="563.83,-243.15 574.42,-243.18 566.16,-236.55 563.83,-243.15"/>
<text text-anchor="middle" x="366.5" y="-170.8" font-family="Times,serif" font-size="14.00">imports</text>
</g>
<!-- cli&#45;&gt;recipes -->
<g id="edge3" class="edge">
<title>cli&#45;&gt;recipes</title>
<path fill="none" stroke="#666666" d="M144.94,-113.06C204.84,-113.51 355.4,-116.34 480,-133 511.45,-137.2 545.54,-143.9 575.66,-150.56"/>
<polygon fill="#666666" stroke="#666666" points="575.18,-154.04 585.71,-152.82 576.72,-147.21 575.18,-154.04"/>
<text text-anchor="middle" x="366.5" y="-136.8" font-family="Times,serif" font-size="14.00">imports</text>
</g>
<!-- cli&#45;&gt;fleet -->
<g id="edge2" class="edge">
<title>cli&#45;&gt;fleet</title>
<path fill="none" stroke="#666666" d="M141.46,-104.31C167.95,-94.65 213,-79.31 253,-71 370.82,-46.52 510.72,-35.21 592.74,-30.33"/>
<polygon fill="#666666" stroke="#666666" points="593.16,-33.82 602.94,-29.74 592.75,-26.83 593.16,-33.82"/>
<text text-anchor="middle" x="366.5" y="-74.8" font-family="Times,serif" font-size="14.00">imports</text>
</g>
<!-- cli&#45;&gt;bundle -->
<g id="edge4" class="edge">
<title>cli&#45;&gt;bundle</title>
<path fill="none" stroke="#666666" d="M144.18,-108.55C171.18,-104.11 214.92,-97.58 253,-95 358.88,-87.82 480.52,-88.67 563.53,-90.63"/>
<polygon fill="#666666" stroke="#666666" points="563.63,-94.13 573.72,-90.88 563.8,-87.14 563.63,-94.13"/>
<text text-anchor="middle" x="366.5" y="-98.8" font-family="Times,serif" font-size="14.00">imports</text>
</g>
<!-- auto_mode -->
<g id="node25" class="node">
<title>auto_mode</title>
<ellipse fill="#fff9c4" stroke="black" cx="117.5" cy="-262" rx="61.44" ry="18"/>
<text text-anchor="middle" x="117.5" y="-259.5" font-family="Helvetica,sans-Serif" font-size="10.00">launcher/auto_mode</text>
</g>
<!-- auto_mode&#45;&gt;launcher -->
<g id="edge7" class="edge">
<title>auto_mode&#45;&gt;launcher</title>
<path fill="none" stroke="#666666" d="M178.8,-262C271.88,-262 451.54,-262 563.77,-262"/>
<polygon fill="#666666" stroke="#666666" points="564.08,-265.5 574.08,-262 564.08,-258.5 564.08,-265.5"/>
<text text-anchor="middle" x="366.5" y="-265.8" font-family="Times,serif" font-size="14.00">internal</text>
</g>
<!-- fleet_copilot -->
<g id="node26" class="node">
<title>fleet_copilot</title>
<ellipse fill="#fff9c4" stroke="black" cx="117.5" cy="-18" rx="53.64" ry="18"/>
<text text-anchor="middle" x="117.5" y="-15.5" font-family="Helvetica,sans-Serif" font-size="10.00">fleet/fleet_copilot</text>
</g>
<!-- fleet_copilot&#45;&gt;fleet -->
<g id="edge8" class="edge">
<title>fleet_copilot&#45;&gt;fleet</title>
<path fill="none" stroke="#666666" d="M171.19,-17.47C241.59,-16.91 370.2,-16.44 480,-19 517.21,-19.87 558.66,-21.62 592.64,-23.26"/>
<polygon fill="#666666" stroke="#666666" points="592.77,-26.78 602.93,-23.77 593.11,-19.78 592.77,-26.78"/>
<text text-anchor="middle" x="366.5" y="-22.8" font-family="Times,serif" font-size="14.00">internal</text>
</g>
<!-- recipe_cmd -->
<g id="node27" class="node">
<title>recipe_cmd</title>
<ellipse fill="#fff9c4" stroke="black" cx="117.5" cy="-208" rx="61.44" ry="18"/>
<text text-anchor="middle" x="117.5" y="-205.5" font-family="Helvetica,sans-Serif" font-size="10.00">recipe_cli/command</text>
</g>
<!-- recipe_cmd&#45;&gt;recipes -->
<g id="edge9" class="edge">
<title>recipe_cmd&#45;&gt;recipes</title>
<path fill="none" stroke="#666666" d="M177.69,-204.68C249.3,-200.61 373.52,-193.32 480,-186 511.19,-183.85 545.36,-181.29 575.61,-178.95"/>
<polygon fill="#666666" stroke="#666666" points="576.01,-182.43 585.71,-178.16 575.47,-175.45 576.01,-182.43"/>
<text text-anchor="middle" x="366.5" y="-204.8" font-family="Times,serif" font-size="14.00">imports</text>
</g>
<!-- eval_harness -->
<g id="node28" class="node">
<title>eval_harness</title>
<ellipse fill="#fff9c4" stroke="black" cx="117.5" cy="-1158" rx="27" ry="18"/>
<text text-anchor="middle" x="117.5" y="-1155.5" font-family="Helvetica,sans-Serif" font-size="10.00">eval/*</text>
</g>
<!-- eval_harness&#45;&gt;eval_pkg -->
<g id="edge10" class="edge">
<title>eval_harness&#45;&gt;eval_pkg</title>
<path fill="none" stroke="#666666" d="M144.74,-1158C222.15,-1158 452.03,-1158 577.86,-1158"/>
<polygon fill="#666666" stroke="#666666" points="578.22,-1161.5 588.22,-1158 578.22,-1154.5 578.22,-1161.5"/>
<text text-anchor="middle" x="366.5" y="-1161.8" font-family="Times,serif" font-size="14.00">internal</text>
</g>
<!-- rust_runner -->
<g id="node29" class="node">
<title>rust_runner</title>
<polygon fill="#d4e8d4" stroke="black" points="2,-1376 2,-1428 233,-1428 233,-1376 2,-1376"/>
<text text-anchor="middle" x="52" y="-1399.5" font-family="Helvetica,sans-Serif" font-size="10.00">recipes/rust_runner</text>
<polyline fill="none" stroke="black" points="102,-1376 102,-1428 "/>
<text text-anchor="start" x="110" y="-1416" font-family="Helvetica,sans-Serif" font-size="10.00">contextlib, signal (stdlib)</text>
<text text-anchor="start" x="110" y="-1405" font-family="Helvetica,sans-Serif" font-size="10.00">os, json, subprocess</text>
<text text-anchor="start" x="110" y="-1394" font-family="Helvetica,sans-Serif" font-size="10.00">RecipeResult, StepResult</text>
<text text-anchor="start" x="110" y="-1383" font-family="Helvetica,sans-Serif" font-size="10.00">_project_dir_context()</text>
</g>
<!-- discovery_mod -->
<g id="node30" class="node">
<title>discovery_mod</title>
<polygon fill="#d4e8d4" stroke="black" points="524.5,-1475.5 524.5,-1538.5 802.5,-1538.5 802.5,-1475.5 524.5,-1475.5"/>
<text text-anchor="middle" x="571" y="-1504.5" font-family="Helvetica,sans-Serif" font-size="10.00">recipes/discovery</text>
<polyline fill="none" stroke="black" points="617.5,-1475.5 617.5,-1538.5 "/>
<text text-anchor="start" x="625.5" y="-1526.5" font-family="Helvetica,sans-Serif" font-size="10.00">os (stdlib)</text>
<text text-anchor="start" x="625.5" y="-1515.5" font-family="Helvetica,sans-Serif" font-size="10.00">hashlib, json, subprocess</text>
<text text-anchor="start" x="625.5" y="-1504.5" font-family="Helvetica,sans-Serif" font-size="10.00">_AMPLIHACK_HOME_BUNDLE_DIR</text>
<text text-anchor="start" x="625.5" y="-1493.5" font-family="Helvetica,sans-Serif" font-size="10.00">_PACKAGE_BUNDLE_DIR</text>
<text text-anchor="start" x="625.5" y="-1482.5" font-family="Helvetica,sans-Serif" font-size="10.00">_REPO_ROOT_BUNDLE_DIR</text>
</g>
<!-- rust_runner&#45;&gt;discovery_mod -->
<g id="edge11" class="edge">
<title>rust_runner&#45;&gt;discovery_mod</title>
<path fill="none" stroke="#6666aa" d="M221.29,-1428.06C226.15,-1431.03 230.76,-1434.33 235,-1438 249.12,-1450.24 237.6,-1465.42 253,-1476 328.24,-1527.7 430.66,-1535.43 514.25,-1530.25"/>
<polygon fill="#6666aa" stroke="#6666aa" points="514.61,-1533.74 524.35,-1529.56 514.13,-1526.75 514.61,-1533.74"/>
<text text-anchor="middle" x="366.5" y="-1579.8" font-family="Times,serif" font-size="14.00">imports</text>
<text text-anchor="middle" x="366.5" y="-1564.8" font-family="Times,serif" font-size="14.00">_AMPLIHACK_HOME_BUNDLE_DIR</text>
<text text-anchor="middle" x="366.5" y="-1549.8" font-family="Times,serif" font-size="14.00">_PACKAGE_BUNDLE_DIR</text>
<text text-anchor="middle" x="366.5" y="-1534.8" font-family="Times,serif" font-size="14.00">_REPO_ROOT_BUNDLE_DIR</text>
</g>
<!-- rust_runner_exec -->
<g id="node31" class="node">
<title>rust_runner_exec</title>
<polygon fill="#d4e8d4" stroke="black" points="509,-1415.5 509,-1456.5 818,-1456.5 818,-1415.5 509,-1415.5"/>
<text text-anchor="middle" x="582.5" y="-1433.5" font-family="Helvetica,sans-Serif" font-size="10.00">recipes/rust_runner_execution</text>
<polyline fill="none" stroke="black" points="656,-1415.5 656,-1456.5 "/>
<text text-anchor="start" x="664" y="-1444.5" font-family="Helvetica,sans-Serif" font-size="10.00">build_rust_env()</text>
<text text-anchor="start" x="664" y="-1433.5" font-family="Helvetica,sans-Serif" font-size="10.00">execute_rust_command()</text>
<text text-anchor="start" x="664" y="-1422.5" font-family="Helvetica,sans-Serif" font-size="10.00">_ALLOWED_RUST_ENV_VARS</text>
</g>
<!-- rust_runner&#45;&gt;rust_runner_exec -->
<g id="edge12" class="edge">
<title>rust_runner&#45;&gt;rust_runner_exec</title>
<path fill="none" stroke="#6666aa" d="M233.31,-1412.52C239.97,-1413.04 246.57,-1413.54 253,-1414 333.88,-1419.78 423.84,-1424.77 498.79,-1428.53"/>
<polygon fill="#6666aa" stroke="#6666aa" points="498.64,-1432.03 508.8,-1429.03 498.99,-1425.04 498.64,-1432.03"/>
<text text-anchor="middle" x="366.5" y="-1460.8" font-family="Times,serif" font-size="14.00">imports</text>
<text text-anchor="middle" x="366.5" y="-1445.8" font-family="Times,serif" font-size="14.00">build_rust_env</text>
<text text-anchor="middle" x="366.5" y="-1430.8" font-family="Times,serif" font-size="14.00">execute_rust_command</text>
</g>
<!-- rust_runner_copilot -->
<g id="node32" class="node">
<title>rust_runner_copilot</title>
<polygon fill="#d4e8d4" stroke="black" points="505.5,-1350 505.5,-1386 821.5,-1386 821.5,-1350 505.5,-1350"/>
<text text-anchor="middle" x="572.5" y="-1365.5" font-family="Helvetica,sans-Serif" font-size="10.00">recipes/rust_runner_copilot</text>
<polyline fill="none" stroke="black" points="639.5,-1350 639.5,-1386 "/>
<text text-anchor="start" x="647.5" y="-1371" font-family="Helvetica,sans-Serif" font-size="10.00">_create_copilot_compat_wrapper_dir()</text>
<text text-anchor="start" x="647.5" y="-1360" font-family="Helvetica,sans-Serif" font-size="10.00">_normalize_copilot_cli_args()</text>
</g>
<!-- rust_runner&#45;&gt;rust_runner_copilot -->
<g id="edge13" class="edge">
<title>rust_runner&#45;&gt;rust_runner_copilot</title>
<path fill="none" stroke="#6666aa" d="M199.57,-1375.94C217.01,-1371.39 235.48,-1367.37 253,-1365 332.07,-1354.32 420.5,-1353.58 494.9,-1356.12"/>
<polygon fill="#6666aa" stroke="#6666aa" points="495.19,-1359.63 505.31,-1356.5 495.44,-1352.64 495.19,-1359.63"/>
<text text-anchor="middle" x="366.5" y="-1398.8" font-family="Times,serif" font-size="14.00">imports</text>
<text text-anchor="middle" x="366.5" y="-1383.8" font-family="Times,serif" font-size="14.00">_create_copilot_compat_wrapper_dir</text>
<text text-anchor="middle" x="366.5" y="-1368.8" font-family="Times,serif" font-size="14.00">_normalize_copilot_cli_args</text>
</g>
<!-- rust_runner_resolution -->
<g id="node33" class="node">
<title>rust_runner_resolution</title>
<polygon fill="#d4e8d4" stroke="black" points="498,-1264.5 498,-1305.5 829,-1305.5 829,-1264.5 498,-1264.5"/>
<text text-anchor="middle" x="587.5" y="-1282.5" font-family="Helvetica,sans-Serif" font-size="10.00">recipes/rust_runner_recipe_resolution</text>
<polyline fill="none" stroke="black" points="677,-1264.5 677,-1305.5 "/>
<text text-anchor="start" x="685" y="-1293.5" font-family="Helvetica,sans-Serif" font-size="10.00">_default_package_recipe_dirs()</text>
<text text-anchor="start" x="685" y="-1282.5" font-family="Helvetica,sans-Serif" font-size="10.00">_normalize_recipe_dirs()</text>
<text text-anchor="start" x="685" y="-1271.5" font-family="Helvetica,sans-Serif" font-size="10.00">_resolve_recipe_target()</text>
</g>
<!-- rust_runner&#45;&gt;rust_runner_resolution -->
<g id="edge14" class="edge">
<title>rust_runner&#45;&gt;rust_runner_resolution</title>
<path fill="none" stroke="#6666aa" d="M225.1,-1375.84C228.64,-1373.17 231.96,-1370.23 235,-1367 259.07,-1341.39 225.6,-1312.01 253,-1290 348.64,-1213.18 501.37,-1237.64 590.79,-1261.75"/>
<polygon fill="#6666aa" stroke="#6666aa" points="590,-1265.16 600.57,-1264.45 591.87,-1258.42 590,-1265.16"/>
<text text-anchor="middle" x="366.5" y="-1338.8" font-family="Times,serif" font-size="14.00">imports</text>
<text text-anchor="middle" x="366.5" y="-1323.8" font-family="Times,serif" font-size="14.00">_default_package_recipe_dirs</text>
<text text-anchor="middle" x="366.5" y="-1308.8" font-family="Times,serif" font-size="14.00">_normalize_recipe_dirs</text>
<text text-anchor="middle" x="366.5" y="-1293.8" font-family="Times,serif" font-size="14.00">_resolve_recipe_target</text>
</g>
<!-- dead1 -->
<g id="node34" class="node">
<title>dead1</title>
<polygon fill="#ffcdd2" stroke="black" stroke-dasharray="5,2" points="189,-1483 46,-1483 46,-1447 189,-1447 189,-1483"/>
<text text-anchor="middle" x="117.5" y="-1468" font-family="Helvetica,sans-Serif" font-size="10.00">examples/usage_example.py</text>
<text text-anchor="middle" x="117.5" y="-1457" font-family="Helvetica,sans-Serif" font-size="10.00">(demo only)</text>
</g>
<!-- dead2 -->
<g id="node35" class="node">
<title>dead2</title>
<polygon fill="#ffcdd2" stroke="black" stroke-dasharray="5,2" points="198,-1537 37,-1537 37,-1501 198,-1501 198,-1537"/>
<text text-anchor="middle" x="117.5" y="-1522" font-family="Helvetica,sans-Serif" font-size="10.00">examples/usage_example_llm.py</text>
<text text-anchor="middle" x="117.5" y="-1511" font-family="Helvetica,sans-Serif" font-size="10.00">(demo only)</text>
</g>
<!-- dead4 -->
<g id="node36" class="node">
<title>dead4</title>
<polygon fill="#ffcdd2" stroke="black" stroke-dasharray="5,2" points="174,-1591 61,-1591 61,-1555 174,-1555 174,-1591"/>
<text text-anchor="middle" x="117.5" y="-1570.5" font-family="Helvetica,sans-Serif" font-size="10.00">copilot_auto_install.py</text>
</g>
<!-- dead5 -->
<g id="node37" class="node">
<title>dead5</title>
<polygon fill="#ffcdd2" stroke="black" stroke-dasharray="5,2" points="168,-1645 67,-1645 67,-1609 168,-1609 168,-1645"/>
<text text-anchor="middle" x="117.5" y="-1624.5" font-family="Helvetica,sans-Serif" font-size="10.00">staging_cleanup.py</text>
</g>
</g>
</svg>
