<?xml version="1.0" encoding="UTF-8" standalone="no"?>
<!DOCTYPE svg PUBLIC "-//W3C//DTD SVG 1.1//EN"
 "http://www.w3.org/Graphics/SVG/1.1/DTD/svg11.dtd">
<!-- Generated by graphviz version 2.42.4 (0)
 -->
<!-- Title: dataflow Pages: 1 -->
<svg width="1357pt" height="234pt"
 viewBox="0.00 0.00 1357.00 234.00" xmlns="http://www.w3.org/2000/svg" xmlns:xlink="http://www.w3.org/1999/xlink">
<g id="graph0" class="graph" transform="scale(1 1) rotate(0) translate(4 230)">
<title>dataflow</title>
<polygon fill="white" stroke="transparent" points="-4,4 -4,-230 1353,-230 1353,4 -4,4"/>
<g id="clust1" class="cluster">
<title>cluster_entry</title>
<polygon fill="#e8f4fd" stroke="black" points="8,-106 8,-181 85,-181 85,-106 8,-106"/>
<text text-anchor="middle" x="46.5" y="-165.8" font-family="Times,serif" font-size="14.00">Entry</text>
</g>
<g id="clust2" class="cluster">
<title>cluster_install</title>
<polygon fill="#fef5e7" stroke="black" points="142,-143 142,-218 521.5,-218 521.5,-143 142,-143"/>
<text text-anchor="middle" x="331.75" y="-202.8" font-family="Times,serif" font-size="14.00">Install Flow</text>
</g>
<g id="clust3" class="cluster">
<title>cluster_launch</title>
<polygon fill="#e8f8e8" stroke="black" points="154.5,-60 154.5,-135 669,-135 669,-60 154.5,-60"/>
<text text-anchor="middle" x="411.75" y="-119.8" font-family="Times,serif" font-size="14.00">Launch Flow</text>
</g>
<g id="clust4" class="cluster">
<title>cluster_session</title>
<polygon fill="#f5e6ff" stroke="black" points="690,-60 690,-135 1112,-135 1112,-60 690,-60"/>
<text text-anchor="middle" x="901" y="-119.8" font-family="Times,serif" font-size="14.00">Session Hooks</text>
</g>
<g id="clust5" class="cluster">
<title>cluster_memory</title>
<polygon fill="#fdedec" stroke="black" points="1133,-8 1133,-137 1341,-137 1341,-8 1133,-8"/>
<text text-anchor="middle" x="1237" y="-121.8" font-family="Times,serif" font-size="14.00">Memory</text>
</g>
<!-- user_cmd -->
<g id="node1" class="node">
<title>user_cmd</title>
<polygon fill="#aed6f1" stroke="black" points="77,-150 16,-150 16,-114 77,-114 77,-150"/>
<text text-anchor="middle" x="46.5" y="-135" font-family="Helvetica,sans-Serif" font-size="10.00">User runs</text>
<text text-anchor="middle" x="46.5" y="-124" font-family="Helvetica,sans-Serif" font-size="10.00">amplihack</text>
</g>
<!-- copy_files -->
<g id="node2" class="node">
<title>copy_files</title>
<polygon fill="#fad7a0" stroke="black" points="248,-187 150,-187 150,-151 248,-151 248,-187"/>
<text text-anchor="middle" x="199" y="-166.5" font-family="Helvetica,sans-Serif" font-size="10.00">Copy .claude/ files</text>
</g>
<!-- user_cmd&#45;&gt;copy_files -->
<g id="edge1" class="edge">
<title>user_cmd&#45;&gt;copy_files</title>
<path fill="none" stroke="black" d="M77.23,-139.31C95.21,-143.73 118.74,-149.51 140.25,-154.8"/>
<polygon fill="black" stroke="black" points="139.42,-158.2 149.96,-157.19 141.09,-151.4 139.42,-158.2"/>
<text text-anchor="middle" x="113.5" y="-155.8" font-family="Times,serif" font-size="14.00">install</text>
</g>
<!-- detect_mode -->
<g id="node5" class="node">
<title>detect_mode</title>
<polygon fill="#a9dfbf" stroke="black" points="235.5,-104 162.5,-104 162.5,-68 235.5,-68 235.5,-104"/>
<text text-anchor="middle" x="199" y="-83.5" font-family="Helvetica,sans-Serif" font-size="10.00">Detect mode</text>
</g>
<!-- user_cmd&#45;&gt;detect_mode -->
<g id="edge2" class="edge">
<title>user_cmd&#45;&gt;detect_mode</title>
<path fill="none" stroke="black" d="M77.23,-122.91C98.69,-116.35 128.06,-107.38 152.46,-99.92"/>
<polygon fill="black" stroke="black" points="153.69,-103.2 162.23,-96.93 151.64,-96.51 153.69,-103.2"/>
<text text-anchor="middle" x="113.5" y="-121.8" font-family="Times,serif" font-size="14.00">launch</text>
</g>
<!-- write_settings -->
<g id="node3" class="node">
<title>write_settings</title>
<polygon fill="#fad7a0" stroke="black" points="383,-187 285,-187 285,-151 383,-151 383,-187"/>
<text text-anchor="middle" x="334" y="-166.5" font-family="Helvetica,sans-Serif" font-size="10.00">Write settings.json</text>
</g>
<!-- copy_files&#45;&gt;write_settings -->
<g id="edge3" class="edge">
<title>copy_files&#45;&gt;write_settings</title>
<path fill="none" stroke="black" d="M248.02,-169C256.57,-169 265.57,-169 274.39,-169"/>
<polygon fill="black" stroke="black" points="274.61,-172.5 284.61,-169 274.61,-165.5 274.61,-172.5"/>
</g>
<!-- register_hooks -->
<g id="node4" class="node">
<title>register_hooks</title>
<polygon fill="#fad7a0" stroke="black" points="513.5,-187 430.5,-187 430.5,-151 513.5,-151 513.5,-187"/>
<text text-anchor="middle" x="472" y="-166.5" font-family="Helvetica,sans-Serif" font-size="10.00">Register hooks</text>
</g>
<!-- write_settings&#45;&gt;register_hooks -->
<g id="edge4" class="edge">
<title>write_settings&#45;&gt;register_hooks</title>
<path fill="none" stroke="black" d="M383.33,-169C395.26,-169 408.07,-169 420.12,-169"/>
<polygon fill="black" stroke="black" points="420.46,-172.5 430.46,-169 420.46,-165.5 420.46,-172.5"/>
</g>
<!-- ensure_deps -->
<g id="node6" class="node">
<title>ensure_deps</title>
<polygon fill="#a9dfbf" stroke="black" points="381.5,-104 286.5,-104 286.5,-68 381.5,-68 381.5,-104"/>
<text text-anchor="middle" x="334" y="-83.5" font-family="Helvetica,sans-Serif" font-size="10.00">Ensure SDK deps</text>
</g>
<!-- detect_mode&#45;&gt;ensure_deps -->
<g id="edge5" class="edge">
<title>detect_mode&#45;&gt;ensure_deps</title>
<path fill="none" stroke="black" d="M235.64,-86C248.03,-86 262.25,-86 275.93,-86"/>
<polygon fill="black" stroke="black" points="276.24,-89.5 286.24,-86 276.24,-82.5 276.24,-89.5"/>
</g>
<!-- discover_cli -->
<g id="node7" class="node">
<title>discover_cli</title>
<polygon fill="#a9dfbf" stroke="black" points="524,-104 420,-104 420,-68 524,-68 524,-104"/>
<text text-anchor="middle" x="472" y="-83.5" font-family="Helvetica,sans-Serif" font-size="10.00">Discover CLI binary</text>
</g>
<!-- ensure_deps&#45;&gt;discover_cli -->
<g id="edge6" class="edge">
<title>ensure_deps&#45;&gt;discover_cli</title>
<path fill="none" stroke="black" d="M381.8,-86C390.83,-86 400.41,-86 409.82,-86"/>
<polygon fill="black" stroke="black" points="409.92,-89.5 419.92,-86 409.92,-82.5 409.92,-89.5"/>
</g>
<!-- spawn -->
<g id="node8" class="node">
<title>spawn</title>
<polygon fill="#a9dfbf" stroke="black" points="661,-104 561,-104 561,-68 661,-68 661,-104"/>
<text text-anchor="middle" x="611" y="-83.5" font-family="Helvetica,sans-Serif" font-size="10.00">Spawn subprocess</text>
</g>
<!-- discover_cli&#45;&gt;spawn -->
<g id="edge7" class="edge">
<title>discover_cli&#45;&gt;spawn</title>
<path fill="none" stroke="black" d="M524.01,-86C532.65,-86 541.69,-86 550.52,-86"/>
<polygon fill="black" stroke="black" points="550.76,-89.5 560.76,-86 550.76,-82.5 550.76,-89.5"/>
</g>
<!-- ss_hook -->
<g id="node9" class="node">
<title>ss_hook</title>
<polygon fill="#d7bde2" stroke="black" points="771,-104 698,-104 698,-68 771,-68 771,-104"/>
<text text-anchor="middle" x="734.5" y="-83.5" font-family="Helvetica,sans-Serif" font-size="10.00">SessionStart</text>
</g>
<!-- spawn&#45;&gt;ss_hook -->
<g id="edge8" class="edge">
<title>spawn&#45;&gt;ss_hook</title>
<path fill="none" stroke="black" d="M661.07,-86C669.78,-86 678.82,-86 687.44,-86"/>
<polygon fill="black" stroke="black" points="687.7,-89.5 697.7,-86 687.7,-82.5 687.7,-89.5"/>
</g>
<!-- up_hook -->
<g id="node10" class="node">
<title>up_hook</title>
<polygon fill="#d7bde2" stroke="black" points="908,-104 808,-104 808,-68 908,-68 908,-104"/>
<text text-anchor="middle" x="858" y="-83.5" font-family="Helvetica,sans-Serif" font-size="10.00">UserPromptSubmit</text>
</g>
<!-- ss_hook&#45;&gt;up_hook -->
<g id="edge9" class="edge">
<title>ss_hook&#45;&gt;up_hook</title>
<path fill="none" stroke="black" d="M771.3,-86C779.64,-86 788.74,-86 797.79,-86"/>
<polygon fill="black" stroke="black" points="797.95,-89.5 807.95,-86 797.95,-82.5 797.95,-89.5"/>
</g>
<!-- retrieve -->
<g id="node14" class="node">
<title>retrieve</title>
<polygon fill="#f5b7b1" stroke="black" points="1240,-52 1141,-52 1141,-16 1240,-16 1240,-52"/>
<text text-anchor="middle" x="1190.5" y="-31.5" font-family="Helvetica,sans-Serif" font-size="10.00">Retrieve memories</text>
</g>
<!-- ss_hook&#45;&gt;retrieve -->
<g id="edge13" class="edge">
<title>ss_hook&#45;&gt;retrieve</title>
<path fill="none" stroke="black" d="M763.72,-67.85C787.59,-54.26 823.21,-38 857,-38 857,-38 857,-38 1078,-38 1095.08,-38 1113.63,-37.53 1130.6,-36.9"/>
<polygon fill="black" stroke="black" points="1131.09,-40.39 1140.94,-36.5 1130.81,-33.39 1131.09,-40.39"/>
</g>
<!-- pt_hook -->
<g id="node11" class="node">
<title>pt_hook</title>
<polygon fill="#d7bde2" stroke="black" points="1013,-104 945,-104 945,-68 1013,-68 1013,-104"/>
<text text-anchor="middle" x="979" y="-83.5" font-family="Helvetica,sans-Serif" font-size="10.00">PreToolUse</text>
</g>
<!-- up_hook&#45;&gt;pt_hook -->
<g id="edge10" class="edge">
<title>up_hook&#45;&gt;pt_hook</title>
<path fill="none" stroke="black" d="M908.09,-86C916.92,-86 926.07,-86 934.72,-86"/>
<polygon fill="black" stroke="black" points="934.97,-89.5 944.97,-86 934.97,-82.5 934.97,-89.5"/>
</g>
<!-- stop_hook -->
<g id="node12" class="node">
<title>stop_hook</title>
<polygon fill="#d7bde2" stroke="black" points="1104,-104 1050,-104 1050,-68 1104,-68 1104,-104"/>
<text text-anchor="middle" x="1077" y="-83.5" font-family="Helvetica,sans-Serif" font-size="10.00">Stop</text>
</g>
<!-- pt_hook&#45;&gt;stop_hook -->
<g id="edge11" class="edge">
<title>pt_hook&#45;&gt;stop_hook</title>
<path fill="none" stroke="black" d="M1013.04,-86C1021.6,-86 1030.86,-86 1039.59,-86"/>
<polygon fill="black" stroke="black" points="1039.87,-89.5 1049.87,-86 1039.87,-82.5 1039.87,-89.5"/>
</g>
<!-- store -->
<g id="node13" class="node">
<title>store</title>
<polygon fill="#f5b7b1" stroke="black" points="1233,-106 1148,-106 1148,-70 1233,-70 1233,-106"/>
<text text-anchor="middle" x="1190.5" y="-85.5" font-family="Helvetica,sans-Serif" font-size="10.00">Store discovery</text>
</g>
<!-- stop_hook&#45;&gt;store -->
<g id="edge12" class="edge">
<title>stop_hook&#45;&gt;store</title>
<path fill="none" stroke="black" d="M1104.14,-86.47C1114.2,-86.65 1126.07,-86.86 1137.7,-87.07"/>
<polygon fill="black" stroke="black" points="1137.76,-90.57 1147.82,-87.25 1137.88,-83.57 1137.76,-90.57"/>
</g>
<!-- kuzu -->
<g id="node15" class="node">
<title>kuzu</title>
<path fill="#f5b7b1" stroke="black" d="M1333,-75.73C1333,-77.53 1320.45,-79 1305,-79 1289.55,-79 1277,-77.53 1277,-75.73 1277,-75.73 1277,-46.27 1277,-46.27 1277,-44.47 1289.55,-43 1305,-43 1320.45,-43 1333,-44.47 1333,-46.27 1333,-46.27 1333,-75.73 1333,-75.73"/>
<path fill="none" stroke="black" d="M1333,-75.73C1333,-73.92 1320.45,-72.45 1305,-72.45 1289.55,-72.45 1277,-73.92 1277,-75.73"/>
<text text-anchor="middle" x="1305" y="-58.5" font-family="Helvetica,sans-Serif" font-size="10.00">Kuzu DB</text>
</g>
<!-- store&#45;&gt;kuzu -->
<g id="edge14" class="edge">
<title>store&#45;&gt;kuzu</title>
<path fill="none" stroke="black" d="M1233.07,-78.02C1244.17,-75.36 1256.09,-72.5 1266.93,-69.9"/>
<polygon fill="black" stroke="black" points="1268.02,-73.23 1276.93,-67.5 1266.39,-66.43 1268.02,-73.23"/>
</g>
<!-- retrieve&#45;&gt;kuzu -->
<g id="edge15" class="edge">
<title>retrieve&#45;&gt;kuzu</title>
<path fill="none" stroke="black" d="M1240.19,-45.69C1249.24,-47.86 1258.55,-50.09 1267.17,-52.16"/>
<polygon fill="black" stroke="black" points="1266.38,-55.57 1276.92,-54.5 1268.01,-48.76 1266.38,-55.57"/>
</g>
</g>
</svg>
